G04 #@! TF.GenerationSoftware,KiCad,Pcbnew,(5.1.2)-1*
G04 #@! TF.CreationDate,2019-06-24T23:23:43+09:00*
G04 #@! TF.ProjectId,STM32F4____,53544d33-3246-4341-9c1c-f4dc2e6b6963,rev?*
G04 #@! TF.SameCoordinates,PXa57dbf49PYb7601c90*
G04 #@! TF.FileFunction,Legend,Bot*
G04 #@! TF.FilePolarity,Positive*
%FSLAX46Y46*%
G04 Gerber Fmt 4.6, Leading zero omitted, Abs format (unit mm)*
G04 Created by KiCad (PCBNEW (5.1.2)-1) date 2019-06-24 23:23:43*
%MOMM*%
%LPD*%
G04 APERTURE LIST*
%ADD10C,1.000000*%
%ADD11C,0.750000*%
%ADD12C,0.120000*%
%ADD13C,0.150000*%
G04 APERTURE END LIST*
D10*
X1796771877Y-1391436095D02*
X1796533782Y-1391198000D01*
X1796057591Y-1390959904D01*
X1794867115Y-1390959904D01*
X1794390925Y-1391198000D01*
X1794152829Y-1391436095D01*
X1793914734Y-1391912285D01*
X1793914734Y-1392388476D01*
X1794152829Y-1393102761D01*
X1797009972Y-1395959904D01*
X1793914734Y-1395959904D01*
X1790819496Y-1390959904D02*
X1790343306Y-1390959904D01*
X1789867115Y-1391198000D01*
X1789629020Y-1391436095D01*
X1789390925Y-1391912285D01*
X1789152829Y-1392864666D01*
X1789152829Y-1394055142D01*
X1789390925Y-1395007523D01*
X1789629020Y-1395483714D01*
X1789867115Y-1395721809D01*
X1790343306Y-1395959904D01*
X1790819496Y-1395959904D01*
X1791295687Y-1395721809D01*
X1791533782Y-1395483714D01*
X1791771877Y-1395007523D01*
X1792009972Y-1394055142D01*
X1792009972Y-1392864666D01*
X1791771877Y-1391912285D01*
X1791533782Y-1391436095D01*
X1791295687Y-1391198000D01*
X1790819496Y-1390959904D01*
X1784390925Y-1395959904D02*
X1787248067Y-1395959904D01*
X1785819496Y-1395959904D02*
X1785819496Y-1390959904D01*
X1786295687Y-1391674190D01*
X1786771877Y-1392150380D01*
X1787248067Y-1392388476D01*
X1782009972Y-1395959904D02*
X1781057591Y-1395959904D01*
X1780581401Y-1395721809D01*
X1780343306Y-1395483714D01*
X1779867115Y-1394769428D01*
X1779629020Y-1393817047D01*
X1779629020Y-1391912285D01*
X1779867115Y-1391436095D01*
X1780105210Y-1391198000D01*
X1780581401Y-1390959904D01*
X1781533782Y-1390959904D01*
X1782009972Y-1391198000D01*
X1782248067Y-1391436095D01*
X1782486163Y-1391912285D01*
X1782486163Y-1393102761D01*
X1782248067Y-1393578952D01*
X1782009972Y-1393817047D01*
X1781533782Y-1394055142D01*
X1780581401Y-1394055142D01*
X1780105210Y-1393817047D01*
X1779867115Y-1393578952D01*
X1779629020Y-1393102761D01*
X1777248067Y-1395721809D02*
X1777248067Y-1395959904D01*
X1777486163Y-1396436095D01*
X1777724258Y-1396674190D01*
X1774152829Y-1390959904D02*
X1773676639Y-1390959904D01*
X1773200448Y-1391198000D01*
X1772962353Y-1391436095D01*
X1772724258Y-1391912285D01*
X1772486163Y-1392864666D01*
X1772486163Y-1394055142D01*
X1772724258Y-1395007523D01*
X1772962353Y-1395483714D01*
X1773200448Y-1395721809D01*
X1773676639Y-1395959904D01*
X1774152829Y-1395959904D01*
X1774629020Y-1395721809D01*
X1774867115Y-1395483714D01*
X1775105210Y-1395007523D01*
X1775343306Y-1394055142D01*
X1775343306Y-1392864666D01*
X1775105210Y-1391912285D01*
X1774867115Y-1391436095D01*
X1774629020Y-1391198000D01*
X1774152829Y-1390959904D01*
X1768200448Y-1390959904D02*
X1769152829Y-1390959904D01*
X1769629020Y-1391198000D01*
X1769867115Y-1391436095D01*
X1770343306Y-1392150380D01*
X1770581401Y-1393102761D01*
X1770581401Y-1395007523D01*
X1770343306Y-1395483714D01*
X1770105210Y-1395721809D01*
X1769629020Y-1395959904D01*
X1768676639Y-1395959904D01*
X1768200448Y-1395721809D01*
X1767962353Y-1395483714D01*
X1767724258Y-1395007523D01*
X1767724258Y-1393817047D01*
X1767962353Y-1393340857D01*
X1768200448Y-1393102761D01*
X1768676639Y-1392864666D01*
X1769629020Y-1392864666D01*
X1770105210Y-1393102761D01*
X1770343306Y-1393340857D01*
X1770581401Y-1393817047D01*
X1765343306Y-1395721809D02*
X1765343306Y-1395959904D01*
X1765581401Y-1396436095D01*
X1765819496Y-1396674190D01*
X1763438544Y-1391436095D02*
X1763200448Y-1391198000D01*
X1762724258Y-1390959904D01*
X1761533782Y-1390959904D01*
X1761057591Y-1391198000D01*
X1760819496Y-1391436095D01*
X1760581401Y-1391912285D01*
X1760581401Y-1392388476D01*
X1760819496Y-1393102761D01*
X1763676639Y-1395959904D01*
X1760581401Y-1395959904D01*
X1756295687Y-1392626571D02*
X1756295687Y-1395959904D01*
X1757486163Y-1390721809D02*
X1758676639Y-1394293238D01*
X1755581401Y-1394293238D01*
D11*
X1670058067Y-1394237523D02*
X1670058067Y-1390237523D01*
X1670058067Y-1391761333D02*
X1669677115Y-1391570857D01*
X1668915210Y-1391570857D01*
X1668534258Y-1391761333D01*
X1668343782Y-1391951809D01*
X1668153306Y-1392332761D01*
X1668153306Y-1393475619D01*
X1668343782Y-1393856571D01*
X1668534258Y-1394047047D01*
X1668915210Y-1394237523D01*
X1669677115Y-1394237523D01*
X1670058067Y-1394047047D01*
X1666819972Y-1391570857D02*
X1665867591Y-1394237523D01*
X1664915210Y-1391570857D02*
X1665867591Y-1394237523D01*
X1666248544Y-1395189904D01*
X1666439020Y-1395380380D01*
X1666819972Y-1395570857D01*
X1660343782Y-1391570857D02*
X1660343782Y-1394999428D01*
X1660534258Y-1395380380D01*
X1660915210Y-1395570857D01*
X1661105687Y-1395570857D01*
X1660343782Y-1390237523D02*
X1660534258Y-1390428000D01*
X1660343782Y-1390618476D01*
X1660153306Y-1390428000D01*
X1660343782Y-1390237523D01*
X1660343782Y-1390618476D01*
X1658439020Y-1394237523D02*
X1658439020Y-1391570857D01*
X1658439020Y-1391951809D02*
X1658248544Y-1391761333D01*
X1657867591Y-1391570857D01*
X1657296163Y-1391570857D01*
X1656915210Y-1391761333D01*
X1656724734Y-1392142285D01*
X1656724734Y-1394237523D01*
X1656724734Y-1392142285D02*
X1656534258Y-1391761333D01*
X1656153306Y-1391570857D01*
X1655581877Y-1391570857D01*
X1655200925Y-1391761333D01*
X1655010448Y-1392142285D01*
X1655010448Y-1394237523D01*
X1653105687Y-1394237523D02*
X1653105687Y-1390237523D01*
X1651391401Y-1394237523D02*
X1651391401Y-1392142285D01*
X1651581877Y-1391761333D01*
X1651962829Y-1391570857D01*
X1652534258Y-1391570857D01*
X1652915210Y-1391761333D01*
X1653105687Y-1391951809D01*
X1648915210Y-1391951809D02*
X1649296163Y-1391761333D01*
X1649486639Y-1391570857D01*
X1649677115Y-1391189904D01*
X1649677115Y-1390999428D01*
X1649486639Y-1390618476D01*
X1649296163Y-1390428000D01*
X1648915210Y-1390237523D01*
X1648153306Y-1390237523D01*
X1647772353Y-1390428000D01*
X1647581877Y-1390618476D01*
X1647391401Y-1390999428D01*
X1647391401Y-1391189904D01*
X1647581877Y-1391570857D01*
X1647772353Y-1391761333D01*
X1648153306Y-1391951809D01*
X1648915210Y-1391951809D01*
X1649296163Y-1392142285D01*
X1649486639Y-1392332761D01*
X1649677115Y-1392713714D01*
X1649677115Y-1393475619D01*
X1649486639Y-1393856571D01*
X1649296163Y-1394047047D01*
X1648915210Y-1394237523D01*
X1648153306Y-1394237523D01*
X1647772353Y-1394047047D01*
X1647581877Y-1393856571D01*
X1647391401Y-1393475619D01*
X1647391401Y-1392713714D01*
X1647581877Y-1392332761D01*
X1647772353Y-1392142285D01*
X1648153306Y-1391951809D01*
X1645867591Y-1390618476D02*
X1645677115Y-1390428000D01*
X1645296163Y-1390237523D01*
X1644343782Y-1390237523D01*
X1643962829Y-1390428000D01*
X1643772353Y-1390618476D01*
X1643581877Y-1390999428D01*
X1643581877Y-1391380380D01*
X1643772353Y-1391951809D01*
X1646058067Y-1394237523D01*
X1643581877Y-1394237523D01*
X1642248544Y-1390237523D02*
X1639772353Y-1390237523D01*
X1641105687Y-1391761333D01*
X1640534258Y-1391761333D01*
X1640153306Y-1391951809D01*
X1639962829Y-1392142285D01*
X1639772353Y-1392523238D01*
X1639772353Y-1393475619D01*
X1639962829Y-1393856571D01*
X1640153306Y-1394047047D01*
X1640534258Y-1394237523D01*
X1641677115Y-1394237523D01*
X1642058067Y-1394047047D01*
X1642248544Y-1393856571D01*
X1635962829Y-1394237523D02*
X1638248544Y-1394237523D01*
X1637105687Y-1394237523D02*
X1637105687Y-1390237523D01*
X1637486639Y-1390808952D01*
X1637867591Y-1391189904D01*
X1638248544Y-1391380380D01*
D10*
X1797177115Y-1384696571D02*
X1796319972Y-1384982285D01*
X1794891401Y-1384982285D01*
X1794319972Y-1384696571D01*
X1794034258Y-1384410857D01*
X1793748544Y-1383839428D01*
X1793748544Y-1383268000D01*
X1794034258Y-1382696571D01*
X1794319972Y-1382410857D01*
X1794891401Y-1382125142D01*
X1796034258Y-1381839428D01*
X1796605687Y-1381553714D01*
X1796891401Y-1381268000D01*
X1797177115Y-1380696571D01*
X1797177115Y-1380125142D01*
X1796891401Y-1379553714D01*
X1796605687Y-1379268000D01*
X1796034258Y-1378982285D01*
X1794605687Y-1378982285D01*
X1793748544Y-1379268000D01*
X1792034258Y-1378982285D02*
X1788605687Y-1378982285D01*
X1790319972Y-1384982285D02*
X1790319972Y-1378982285D01*
X1786605687Y-1384982285D02*
X1786605687Y-1378982285D01*
X1784605687Y-1383268000D01*
X1782605687Y-1378982285D01*
X1782605687Y-1384982285D01*
X1780319972Y-1378982285D02*
X1776605687Y-1378982285D01*
X1778605687Y-1381268000D01*
X1777748544Y-1381268000D01*
X1777177115Y-1381553714D01*
X1776891401Y-1381839428D01*
X1776605687Y-1382410857D01*
X1776605687Y-1383839428D01*
X1776891401Y-1384410857D01*
X1777177115Y-1384696571D01*
X1777748544Y-1384982285D01*
X1779462829Y-1384982285D01*
X1780034258Y-1384696571D01*
X1780319972Y-1384410857D01*
X1774319972Y-1379553714D02*
X1774034258Y-1379268000D01*
X1773462829Y-1378982285D01*
X1772034258Y-1378982285D01*
X1771462829Y-1379268000D01*
X1771177115Y-1379553714D01*
X1770891401Y-1380125142D01*
X1770891401Y-1380696571D01*
X1771177115Y-1381553714D01*
X1774605687Y-1384982285D01*
X1770891401Y-1384982285D01*
X1766319972Y-1381839428D02*
X1768319972Y-1381839428D01*
X1768319972Y-1384982285D02*
X1768319972Y-1378982285D01*
X1765462829Y-1378982285D01*
X1760605687Y-1380982285D02*
X1760605687Y-1384982285D01*
X1762034258Y-1378696571D02*
X1763462829Y-1382982285D01*
X1759748544Y-1382982285D01*
X1756319972Y-1378982285D02*
X1755748544Y-1378982285D01*
X1755177115Y-1379268000D01*
X1754891401Y-1379553714D01*
X1754605687Y-1380125142D01*
X1754319972Y-1381268000D01*
X1754319972Y-1382696571D01*
X1754605687Y-1383839428D01*
X1754891401Y-1384410857D01*
X1755177115Y-1384696571D01*
X1755748544Y-1384982285D01*
X1756319972Y-1384982285D01*
X1756891401Y-1384696571D01*
X1757177115Y-1384410857D01*
X1757462829Y-1383839428D01*
X1757748544Y-1382696571D01*
X1757748544Y-1381268000D01*
X1757462829Y-1380125142D01*
X1757177115Y-1379553714D01*
X1756891401Y-1379268000D01*
X1756319972Y-1378982285D01*
X1752319972Y-1378982285D02*
X1748319972Y-1378982285D01*
X1750891401Y-1384982285D01*
X1746605687Y-1378982285D02*
X1742605687Y-1378982285D01*
X1746605687Y-1384982285D01*
X1742605687Y-1384982285D01*
X1740319972Y-1381839428D02*
X1738319972Y-1381839428D01*
X1737462829Y-1384982285D02*
X1740319972Y-1384982285D01*
X1740319972Y-1378982285D01*
X1737462829Y-1378982285D01*
X1735748544Y-1378982285D02*
X1732319972Y-1378982285D01*
X1734034258Y-1384982285D02*
X1734034258Y-1378982285D01*
X1730891401Y-1384982285D02*
X1727748544Y-1380982285D01*
X1730891401Y-1380982285D02*
X1727748544Y-1384982285D01*
X1720891401Y-1384982285D02*
X1720891401Y-1378982285D01*
X1719462829Y-1378982285D01*
X1718605687Y-1379268000D01*
X1718034258Y-1379839428D01*
X1717748544Y-1380410857D01*
X1717462829Y-1381553714D01*
X1717462829Y-1382410857D01*
X1717748544Y-1383553714D01*
X1718034258Y-1384125142D01*
X1718605687Y-1384696571D01*
X1719462829Y-1384982285D01*
X1720891401Y-1384982285D01*
X1712605687Y-1384696571D02*
X1713177115Y-1384982285D01*
X1714319972Y-1384982285D01*
X1714891401Y-1384696571D01*
X1715177115Y-1384125142D01*
X1715177115Y-1381839428D01*
X1714891401Y-1381268000D01*
X1714319972Y-1380982285D01*
X1713177115Y-1380982285D01*
X1712605687Y-1381268000D01*
X1712319972Y-1381839428D01*
X1712319972Y-1382410857D01*
X1715177115Y-1382982285D01*
X1710319972Y-1380982285D02*
X1708891401Y-1384982285D01*
X1707462829Y-1380982285D01*
X1702891401Y-1384696571D02*
X1703462829Y-1384982285D01*
X1704605687Y-1384982285D01*
X1705177115Y-1384696571D01*
X1705462829Y-1384125142D01*
X1705462829Y-1381839428D01*
X1705177115Y-1381268000D01*
X1704605687Y-1380982285D01*
X1703462829Y-1380982285D01*
X1702891401Y-1381268000D01*
X1702605687Y-1381839428D01*
X1702605687Y-1382410857D01*
X1705462829Y-1382982285D01*
X1699177115Y-1384982285D02*
X1699748544Y-1384696571D01*
X1700034258Y-1384125142D01*
X1700034258Y-1378982285D01*
X1696034258Y-1384982285D02*
X1696605687Y-1384696571D01*
X1696891401Y-1384410857D01*
X1697177115Y-1383839428D01*
X1697177115Y-1382125142D01*
X1696891401Y-1381553714D01*
X1696605687Y-1381268000D01*
X1696034258Y-1380982285D01*
X1695177115Y-1380982285D01*
X1694605687Y-1381268000D01*
X1694319972Y-1381553714D01*
X1694034258Y-1382125142D01*
X1694034258Y-1383839428D01*
X1694319972Y-1384410857D01*
X1694605687Y-1384696571D01*
X1695177115Y-1384982285D01*
X1696034258Y-1384982285D01*
X1691462829Y-1380982285D02*
X1691462829Y-1386982285D01*
X1691462829Y-1381268000D02*
X1690891401Y-1380982285D01*
X1689748544Y-1380982285D01*
X1689177115Y-1381268000D01*
X1688891401Y-1381553714D01*
X1688605687Y-1382125142D01*
X1688605687Y-1383839428D01*
X1688891401Y-1384410857D01*
X1689177115Y-1384696571D01*
X1689748544Y-1384982285D01*
X1690891401Y-1384982285D01*
X1691462829Y-1384696571D01*
X1686034258Y-1384982285D02*
X1686034258Y-1380982285D01*
X1686034258Y-1381553714D02*
X1685748544Y-1381268000D01*
X1685177115Y-1380982285D01*
X1684319972Y-1380982285D01*
X1683748544Y-1381268000D01*
X1683462829Y-1381839428D01*
X1683462829Y-1384982285D01*
X1683462829Y-1381839428D02*
X1683177115Y-1381268000D01*
X1682605687Y-1380982285D01*
X1681748544Y-1380982285D01*
X1681177115Y-1381268000D01*
X1680891401Y-1381839428D01*
X1680891401Y-1384982285D01*
X1675748544Y-1384696571D02*
X1676319972Y-1384982285D01*
X1677462829Y-1384982285D01*
X1678034258Y-1384696571D01*
X1678319972Y-1384125142D01*
X1678319972Y-1381839428D01*
X1678034258Y-1381268000D01*
X1677462829Y-1380982285D01*
X1676319972Y-1380982285D01*
X1675748544Y-1381268000D01*
X1675462829Y-1381839428D01*
X1675462829Y-1382410857D01*
X1678319972Y-1382982285D01*
X1672891401Y-1380982285D02*
X1672891401Y-1384982285D01*
X1672891401Y-1381553714D02*
X1672605687Y-1381268000D01*
X1672034258Y-1380982285D01*
X1671177115Y-1380982285D01*
X1670605687Y-1381268000D01*
X1670319972Y-1381839428D01*
X1670319972Y-1384982285D01*
X1668319972Y-1380982285D02*
X1666034258Y-1380982285D01*
X1667462829Y-1378982285D02*
X1667462829Y-1384125142D01*
X1667177115Y-1384696571D01*
X1666605687Y-1384982285D01*
X1666034258Y-1384982285D01*
X1657462829Y-1381839428D02*
X1656605687Y-1382125142D01*
X1656319972Y-1382410857D01*
X1656034258Y-1382982285D01*
X1656034258Y-1383839428D01*
X1656319972Y-1384410857D01*
X1656605687Y-1384696571D01*
X1657177115Y-1384982285D01*
X1659462829Y-1384982285D01*
X1659462829Y-1378982285D01*
X1657462829Y-1378982285D01*
X1656891401Y-1379268000D01*
X1656605687Y-1379553714D01*
X1656319972Y-1380125142D01*
X1656319972Y-1380696571D01*
X1656605687Y-1381268000D01*
X1656891401Y-1381553714D01*
X1657462829Y-1381839428D01*
X1659462829Y-1381839428D01*
X1652605687Y-1384982285D02*
X1653177115Y-1384696571D01*
X1653462829Y-1384410857D01*
X1653748544Y-1383839428D01*
X1653748544Y-1382125142D01*
X1653462829Y-1381553714D01*
X1653177115Y-1381268000D01*
X1652605687Y-1380982285D01*
X1651748544Y-1380982285D01*
X1651177115Y-1381268000D01*
X1650891401Y-1381553714D01*
X1650605687Y-1382125142D01*
X1650605687Y-1383839428D01*
X1650891401Y-1384410857D01*
X1651177115Y-1384696571D01*
X1651748544Y-1384982285D01*
X1652605687Y-1384982285D01*
X1645462829Y-1384982285D02*
X1645462829Y-1381839428D01*
X1645748544Y-1381268000D01*
X1646319972Y-1380982285D01*
X1647462829Y-1380982285D01*
X1648034258Y-1381268000D01*
X1645462829Y-1384696571D02*
X1646034258Y-1384982285D01*
X1647462829Y-1384982285D01*
X1648034258Y-1384696571D01*
X1648319972Y-1384125142D01*
X1648319972Y-1383553714D01*
X1648034258Y-1382982285D01*
X1647462829Y-1382696571D01*
X1646034258Y-1382696571D01*
X1645462829Y-1382410857D01*
X1642605687Y-1384982285D02*
X1642605687Y-1380982285D01*
X1642605687Y-1382125142D02*
X1642319972Y-1381553714D01*
X1642034258Y-1381268000D01*
X1641462829Y-1380982285D01*
X1640891401Y-1380982285D01*
X1636319972Y-1384982285D02*
X1636319972Y-1378982285D01*
X1636319972Y-1384696571D02*
X1636891401Y-1384982285D01*
X1638034258Y-1384982285D01*
X1638605687Y-1384696571D01*
X1638891401Y-1384410857D01*
X1639177115Y-1383839428D01*
X1639177115Y-1382125142D01*
X1638891401Y-1381553714D01*
X1638605687Y-1381268000D01*
X1638034258Y-1380982285D01*
X1636891401Y-1380982285D01*
X1636319972Y-1381268000D01*
D12*
X1589224687Y-1313942000D02*
X1588970687Y-1314069000D01*
X1588970687Y-1313942000D02*
X1589224687Y-1313942000D01*
X1589351687Y-1314069000D02*
X1589097687Y-1313815000D01*
X1588843687Y-1314069000D02*
X1589351687Y-1314069000D01*
X1589097687Y-1313815000D02*
X1588843687Y-1314069000D01*
X1589097687Y-1315085000D02*
X1589097687Y-1313815000D01*
D13*
X1588284829Y-1314277000D02*
X1588341972Y-1314248428D01*
X1588427687Y-1314248428D01*
X1588513401Y-1314277000D01*
X1588570544Y-1314334142D01*
X1588599115Y-1314391285D01*
X1588627687Y-1314505571D01*
X1588627687Y-1314591285D01*
X1588599115Y-1314705571D01*
X1588570544Y-1314762714D01*
X1588513401Y-1314819857D01*
X1588427687Y-1314848428D01*
X1588370544Y-1314848428D01*
X1588284829Y-1314819857D01*
X1588256258Y-1314791285D01*
X1588256258Y-1314591285D01*
X1588370544Y-1314591285D01*
X1587999115Y-1314848428D02*
X1587999115Y-1314248428D01*
X1587656258Y-1314848428D01*
X1587656258Y-1314248428D01*
X1587370544Y-1314848428D02*
X1587370544Y-1314248428D01*
X1587227687Y-1314248428D01*
X1587141972Y-1314277000D01*
X1587084829Y-1314334142D01*
X1587056258Y-1314391285D01*
X1587027687Y-1314505571D01*
X1587027687Y-1314591285D01*
X1587056258Y-1314705571D01*
X1587084829Y-1314762714D01*
X1587141972Y-1314819857D01*
X1587227687Y-1314848428D01*
X1587370544Y-1314848428D01*
X1591040687Y-1314248428D02*
X1590840687Y-1314848428D01*
X1590640687Y-1314248428D01*
X1590097829Y-1314791285D02*
X1590126401Y-1314819857D01*
X1590212115Y-1314848428D01*
X1590269258Y-1314848428D01*
X1590354972Y-1314819857D01*
X1590412115Y-1314762714D01*
X1590440687Y-1314705571D01*
X1590469258Y-1314591285D01*
X1590469258Y-1314505571D01*
X1590440687Y-1314391285D01*
X1590412115Y-1314334142D01*
X1590354972Y-1314277000D01*
X1590269258Y-1314248428D01*
X1590212115Y-1314248428D01*
X1590126401Y-1314277000D01*
X1590097829Y-1314305571D01*
X1589497829Y-1314791285D02*
X1589526401Y-1314819857D01*
X1589612115Y-1314848428D01*
X1589669258Y-1314848428D01*
X1589754972Y-1314819857D01*
X1589812115Y-1314762714D01*
X1589840687Y-1314705571D01*
X1589869258Y-1314591285D01*
X1589869258Y-1314505571D01*
X1589840687Y-1314391285D01*
X1589812115Y-1314334142D01*
X1589754972Y-1314277000D01*
X1589669258Y-1314248428D01*
X1589612115Y-1314248428D01*
X1589526401Y-1314277000D01*
X1589497829Y-1314305571D01*
D12*
G04 #@! TO.C,JP1*
X1584452787Y-1311400100D02*
X1584452787Y-1314200100D01*
X1584452787Y-1314200100D02*
X1586452787Y-1314200100D01*
X1586452787Y-1314200100D02*
X1586452787Y-1311400100D01*
X1586452787Y-1311400100D02*
X1584452787Y-1311400100D01*
G04 #@! TO.C,JP9*
X1591139587Y-1312105300D02*
G75*
G03X1590439587Y-1311405300I-700000J0D01*
G01*
X1590439587Y-1313405300D02*
G75*
G03X1591139587Y-1312705300I0J700000D01*
G01*
X1587039587Y-1312705300D02*
G75*
G03X1587739587Y-1313405300I700000J0D01*
G01*
X1587739587Y-1311405300D02*
G75*
G03X1587039587Y-1312105300I0J-700000D01*
G01*
X1590489587Y-1311405300D02*
X1587689587Y-1311405300D01*
X1587039587Y-1312105300D02*
X1587039587Y-1312705300D01*
X1587689587Y-1313405300D02*
X1590489587Y-1313405300D01*
X1591139587Y-1312705300D02*
X1591139587Y-1312105300D01*
X1590289587Y-1313605300D02*
X1590589587Y-1313905300D01*
X1590589587Y-1313905300D02*
X1589989587Y-1313905300D01*
X1590289587Y-1313605300D02*
X1589989587Y-1313905300D01*
G04 #@! TO.C,JP1*
D13*
X1586422687Y-1310311428D02*
X1586422687Y-1310740000D01*
X1586451258Y-1310825714D01*
X1586508401Y-1310882857D01*
X1586594115Y-1310911428D01*
X1586651258Y-1310911428D01*
X1586136972Y-1310911428D02*
X1586136972Y-1310311428D01*
X1585908401Y-1310311428D01*
X1585851258Y-1310340000D01*
X1585822687Y-1310368571D01*
X1585794115Y-1310425714D01*
X1585794115Y-1310511428D01*
X1585822687Y-1310568571D01*
X1585851258Y-1310597142D01*
X1585908401Y-1310625714D01*
X1586136972Y-1310625714D01*
X1585222687Y-1310911428D02*
X1585565544Y-1310911428D01*
X1585394115Y-1310911428D02*
X1585394115Y-1310311428D01*
X1585451258Y-1310397142D01*
X1585508401Y-1310454285D01*
X1585565544Y-1310482857D01*
X1586393972Y-1315229428D02*
X1586393972Y-1314629428D01*
X1586165401Y-1314629428D01*
X1586108258Y-1314658000D01*
X1586079687Y-1314686571D01*
X1586051115Y-1314743714D01*
X1586051115Y-1314829428D01*
X1586079687Y-1314886571D01*
X1586108258Y-1314915142D01*
X1586165401Y-1314943714D01*
X1586393972Y-1314943714D01*
X1585793972Y-1315229428D02*
X1585793972Y-1314629428D01*
X1585651115Y-1314629428D01*
X1585565401Y-1314658000D01*
X1585508258Y-1314715142D01*
X1585479687Y-1314772285D01*
X1585451115Y-1314886571D01*
X1585451115Y-1314972285D01*
X1585479687Y-1315086571D01*
X1585508258Y-1315143714D01*
X1585565401Y-1315200857D01*
X1585651115Y-1315229428D01*
X1585793972Y-1315229428D01*
X1584851115Y-1315229428D02*
X1585051115Y-1314943714D01*
X1585193972Y-1315229428D02*
X1585193972Y-1314629428D01*
X1584965401Y-1314629428D01*
X1584908258Y-1314658000D01*
X1584879687Y-1314686571D01*
X1584851115Y-1314743714D01*
X1584851115Y-1314829428D01*
X1584879687Y-1314886571D01*
X1584908258Y-1314915142D01*
X1584965401Y-1314943714D01*
X1585193972Y-1314943714D01*
X1584736829Y-1315286571D02*
X1584279687Y-1315286571D01*
X1584022544Y-1314629428D02*
X1583908258Y-1314629428D01*
X1583851115Y-1314658000D01*
X1583793972Y-1314715142D01*
X1583765401Y-1314829428D01*
X1583765401Y-1315029428D01*
X1583793972Y-1315143714D01*
X1583851115Y-1315200857D01*
X1583908258Y-1315229428D01*
X1584022544Y-1315229428D01*
X1584079687Y-1315200857D01*
X1584136829Y-1315143714D01*
X1584165401Y-1315029428D01*
X1584165401Y-1314829428D01*
X1584136829Y-1314715142D01*
X1584079687Y-1314658000D01*
X1584022544Y-1314629428D01*
X1583508258Y-1315229428D02*
X1583508258Y-1314629428D01*
X1583165401Y-1315229428D01*
X1583165401Y-1314629428D01*
G04 #@! TO.C,JP9*
X1590947020Y-1309965380D02*
X1590947020Y-1310679666D01*
X1590994639Y-1310822523D01*
X1591089877Y-1310917761D01*
X1591232734Y-1310965380D01*
X1591327972Y-1310965380D01*
X1590470829Y-1310965380D02*
X1590470829Y-1309965380D01*
X1590089877Y-1309965380D01*
X1589994639Y-1310013000D01*
X1589947020Y-1310060619D01*
X1589899401Y-1310155857D01*
X1589899401Y-1310298714D01*
X1589947020Y-1310393952D01*
X1589994639Y-1310441571D01*
X1590089877Y-1310489190D01*
X1590470829Y-1310489190D01*
X1589423210Y-1310965380D02*
X1589232734Y-1310965380D01*
X1589137496Y-1310917761D01*
X1589089877Y-1310870142D01*
X1588994639Y-1310727285D01*
X1588947020Y-1310536809D01*
X1588947020Y-1310155857D01*
X1588994639Y-1310060619D01*
X1589042258Y-1310013000D01*
X1589137496Y-1309965380D01*
X1589327972Y-1309965380D01*
X1589423210Y-1310013000D01*
X1589470829Y-1310060619D01*
X1589518448Y-1310155857D01*
X1589518448Y-1310393952D01*
X1589470829Y-1310489190D01*
X1589423210Y-1310536809D01*
X1589327972Y-1310584428D01*
X1589137496Y-1310584428D01*
X1589042258Y-1310536809D01*
X1588994639Y-1310489190D01*
X1588947020Y-1310393952D01*
X1591267544Y-1315677142D02*
X1591181829Y-1315705714D01*
X1591153258Y-1315734285D01*
X1591124687Y-1315791428D01*
X1591124687Y-1315877142D01*
X1591153258Y-1315934285D01*
X1591181829Y-1315962857D01*
X1591238972Y-1315991428D01*
X1591467544Y-1315991428D01*
X1591467544Y-1315391428D01*
X1591267544Y-1315391428D01*
X1591210401Y-1315420000D01*
X1591181829Y-1315448571D01*
X1591153258Y-1315505714D01*
X1591153258Y-1315562857D01*
X1591181829Y-1315620000D01*
X1591210401Y-1315648571D01*
X1591267544Y-1315677142D01*
X1591467544Y-1315677142D01*
X1590781829Y-1315991428D02*
X1590838972Y-1315962857D01*
X1590867544Y-1315934285D01*
X1590896115Y-1315877142D01*
X1590896115Y-1315705714D01*
X1590867544Y-1315648571D01*
X1590838972Y-1315620000D01*
X1590781829Y-1315591428D01*
X1590696115Y-1315591428D01*
X1590638972Y-1315620000D01*
X1590610401Y-1315648571D01*
X1590581829Y-1315705714D01*
X1590581829Y-1315877142D01*
X1590610401Y-1315934285D01*
X1590638972Y-1315962857D01*
X1590696115Y-1315991428D01*
X1590781829Y-1315991428D01*
X1590238972Y-1315991428D02*
X1590296115Y-1315962857D01*
X1590324687Y-1315934285D01*
X1590353258Y-1315877142D01*
X1590353258Y-1315705714D01*
X1590324687Y-1315648571D01*
X1590296115Y-1315620000D01*
X1590238972Y-1315591428D01*
X1590153258Y-1315591428D01*
X1590096115Y-1315620000D01*
X1590067544Y-1315648571D01*
X1590038972Y-1315705714D01*
X1590038972Y-1315877142D01*
X1590067544Y-1315934285D01*
X1590096115Y-1315962857D01*
X1590153258Y-1315991428D01*
X1590238972Y-1315991428D01*
X1589867544Y-1315591428D02*
X1589638972Y-1315591428D01*
X1589781829Y-1315391428D02*
X1589781829Y-1315905714D01*
X1589753258Y-1315962857D01*
X1589696115Y-1315991428D01*
X1589638972Y-1315991428D01*
X1588981829Y-1315991428D02*
X1588981829Y-1315391428D01*
X1588781829Y-1315820000D01*
X1588581829Y-1315391428D01*
X1588581829Y-1315991428D01*
X1588210401Y-1315991428D02*
X1588267544Y-1315962857D01*
X1588296115Y-1315934285D01*
X1588324687Y-1315877142D01*
X1588324687Y-1315705714D01*
X1588296115Y-1315648571D01*
X1588267544Y-1315620000D01*
X1588210401Y-1315591428D01*
X1588124687Y-1315591428D01*
X1588067544Y-1315620000D01*
X1588038972Y-1315648571D01*
X1588010401Y-1315705714D01*
X1588010401Y-1315877142D01*
X1588038972Y-1315934285D01*
X1588067544Y-1315962857D01*
X1588124687Y-1315991428D01*
X1588210401Y-1315991428D01*
X1587496115Y-1315991428D02*
X1587496115Y-1315391428D01*
X1587496115Y-1315962857D02*
X1587553258Y-1315991428D01*
X1587667544Y-1315991428D01*
X1587724687Y-1315962857D01*
X1587753258Y-1315934285D01*
X1587781829Y-1315877142D01*
X1587781829Y-1315705714D01*
X1587753258Y-1315648571D01*
X1587724687Y-1315620000D01*
X1587667544Y-1315591428D01*
X1587553258Y-1315591428D01*
X1587496115Y-1315620000D01*
X1586981829Y-1315962857D02*
X1587038972Y-1315991428D01*
X1587153258Y-1315991428D01*
X1587210401Y-1315962857D01*
X1587238972Y-1315905714D01*
X1587238972Y-1315677142D01*
X1587210401Y-1315620000D01*
X1587153258Y-1315591428D01*
X1587038972Y-1315591428D01*
X1586981829Y-1315620000D01*
X1586953258Y-1315677142D01*
X1586953258Y-1315734285D01*
X1587238972Y-1315791428D01*
G04 #@! TD*
M02*
