M48
; DRILL file {KiCad (5.1.2)-1} date 2019-06-24 오후 11:27:16
; FORMAT={-:-/ absolute / inch / decimal}
; #@! TF.CreationDate,2019-06-24T23:27:16+09:00
; #@! TF.GenerationSoftware,Kicad,Pcbnew,(5.1.2)-1
FMAT,2
INCH
T1C0.0157
T2C0.0197
T3C0.0276
T4C0.0295
T5C0.0300
T6C0.0315
T7C0.0394
T8C0.0512
T9C0.0591
T10C0.1260
%
G90
G05
T1
X0.8488Y-4.7119
X0.9613Y-5.0604
X0.9759Y-3.9812
X0.9969Y-2.5499
X0.9969Y-3.7917
X0.9987Y-4.8215
X1.0Y-1.7313
X1.0008Y-2.2759
X1.075Y-7.1336
X1.1031Y-2.5788
X1.1031Y-2.6512
X1.1106Y-4.2925
X1.1112Y-5.9906
X1.113Y-3.9661
X1.1232Y-2.6851
X1.1289Y-6.0348
X1.1425Y-2.5788
X1.15Y-3.9937
X1.1562Y-2.9216
X1.1684Y-2.5344
X1.1717Y-1.7684
X1.1734Y-4.8924
X1.1734Y-4.9959
X1.174Y-2.2614
X1.1897Y-6.0575
X1.1926Y-6.0209
X1.1949Y-3.6329
X1.1949Y-3.7335
X1.195Y-1.8529
X1.1962Y-3.529
X1.2035Y-2.5788
X1.2035Y-2.6512
X1.2078Y-2.8898
X1.2218Y-1.8019
X1.2234Y-3.9173
X1.2253Y-4.3889
X1.2255Y-3.8267
X1.2255Y-3.95
X1.2433Y-3.0371
X1.2433Y-4.4166
X1.2485Y-6.0001
X1.2551Y-5.4026
X1.26Y-4.4456
X1.275Y-4.8648
X1.3002Y-1.9462
X1.3013Y-4.4887
X1.3066Y-5.2922
X1.3181Y-1.6911
X1.3439Y-1.629
X1.3525Y-3.9776
X1.355Y-2.3492
X1.3557Y-5.3644
X1.3561Y-3.1339
X1.3561Y-4.3411
X1.3561Y-4.3937
X1.3561Y-5.4878
X1.3591Y-1.5981
X1.4315Y-1.6138
X1.4342Y-6.5263
X1.4401Y-5.8363
X1.4409Y-5.7557
X1.4409Y-5.8048
X1.4529Y-1.6785
X1.467Y-5.6986
X1.474Y-5.5754
X1.4791Y-5.4487
X1.4832Y-1.699
X1.4845Y-5.0323
X1.486Y-5.2622
X1.4865Y-5.4115
X1.4973Y-6.5251
X1.5009Y-4.8564
X1.5022Y-2.5678
X1.5034Y-4.8999
X1.5041Y-3.1867
X1.5041Y-4.1171
X1.5041Y-4.9855
X1.5061Y-5.6418
X1.5162Y-5.7823
X1.5284Y-1.6906
X1.5586Y-1.9071
X1.5607Y-1.9386
X1.5735Y-2.577
X1.5776Y-6.3841
X1.5905Y-2.2057
X1.5966Y-1.8907
X1.6022Y-5.0486
X1.6115Y-6.7032
X1.615Y-1.8525
X1.622Y-6.447
X1.6241Y-3.0351
X1.6409Y-2.2044
X1.6418Y-1.0464
X1.6429Y-6.3748
X1.6532Y-1.8279
X1.675Y-6.9943
X1.682Y-2.4859
X1.6885Y-2.5775
X1.6893Y-1.7922
X1.6967Y-5.0485
X1.6967Y-5.3485
X1.7027Y-1.6935
X1.7243Y-6.5903
X1.7497Y-2.98
X1.7574Y-1.7084
X1.758Y-2.5825
X1.763Y-6.6259
X1.7636Y-6.0258
X1.7644Y-2.6782
X1.7794Y-6.8203
X1.7906Y-6.0542
X1.8029Y-1.7714
X1.8176Y-5.9629
X1.8356Y-2.8214
X1.8504Y-2.8937
X1.8719Y-2.7847
X1.875Y-7.0164
X1.875Y-7.1336
X1.91Y-1.0207
X1.9329Y-2.7412
X1.9402Y-4.4498
X1.959Y-5.8754
X1.9704Y-5.4414
X2.0Y-4.418
X2.0044Y-5.6964
X2.0173Y-3.9933
X2.0199Y-6.4016
X2.0469Y-5.3617
X2.0471Y-3.8915
X2.0492Y-2.6063
X2.0495Y-4.0135
X2.0629Y-4.4952
X2.0629Y-4.5759
X2.0664Y-3.9535
X2.0725Y-5.799
X2.0738Y-5.218
X2.0828Y-3.8922
X2.0976Y-6.3289
X2.1131Y-2.5942
X2.1162Y-3.8924
X2.1472Y-4.5002
X2.1474Y-3.888
X2.1521Y-3.8561
X2.1575Y-2.8937
X2.1782Y-3.8811
X2.18Y-4.3404
X2.2013Y-3.8597
X2.2111Y-5.6411
X2.212Y-4.1115
X2.2273Y-3.8775
X2.2279Y-4.5002
X2.2344Y-4.0164
X2.24Y-2.585
X2.2401Y-3.9081
X2.2409Y-2.8977
X2.2799Y-4.0748
X2.2871Y-4.305
X2.2875Y-4.2252
X2.3041Y-5.5131
X2.3122Y-3.9902
X2.3179Y-4.4952
X2.3364Y-5.865
X2.3565Y-2.5821
X2.3671Y-2.8052
X2.3675Y-4.385
X2.3679Y-4.305
X2.3682Y-4.2252
X2.3833Y-5.3413
X2.3929Y-3.9902
X2.3969Y-6.3286
X2.4005Y-4.0652
X2.4302Y-2.7002
X2.44Y-4.5014
X2.464Y-2.774
X2.4685Y-4.111
X2.4743Y-4.0794
X2.4984Y-4.1524
X2.4996Y-2.6182
X2.5415Y-4.4005
X2.5525Y-4.467
X2.5668Y-3.5504
X2.5671Y-6.484
X2.5765Y-4.4935
X2.579Y-4.6611
X2.5813Y-4.5307
X2.5814Y-4.5865
X2.5861Y-3.6035
X2.5965Y-4.2965
X2.5965Y-4.1317
X2.6169Y-3.3602
X2.6169Y-3.4409
X2.6187Y-4.3196
X2.6388Y-4.1606
X2.6448Y-5.0015
X2.6478Y-3.742
X2.6619Y-4.6233
X2.6619Y-4.704
X2.6666Y-4.1754
X2.675Y-7.0079
X2.675Y-7.125
X2.696Y-4.1867
X2.6975Y-3.8875
X2.7175Y-3.7675
X2.7191Y-4.2081
X2.773Y-2.7515
X2.7797Y-3.6995
X2.7907Y-1.8427
X2.7979Y-2.9291
X2.8085Y-2.536
X2.8155Y-2.58
X2.8309Y-3.6995
X2.848Y-2.616
X2.865Y-3.035
X2.8719Y-3.3609
X2.8719Y-3.4416
X2.8735Y-2.748
X2.8809Y-5.015
X2.887Y-4.5105
X2.9169Y-4.6233
X2.9169Y-4.704
X2.9179Y-2.5751
X2.9383Y-4.5795
X2.9625Y-3.7125
X2.9653Y-4.3952
X2.974Y-2.7485
X2.9795Y-2.0005
X2.9889Y-5.7084
X2.9963Y-4.3894
X3.0216Y-5.6918
X3.0268Y-5.7785
X3.0405Y-5.4148
X3.05Y-3.65
X3.0535Y-3.31
X3.0704Y-2.7396
X3.0719Y-3.3602
X3.0719Y-3.4409
X3.1119Y-4.624
X3.1119Y-4.7047
X3.172Y-2.7396
X3.26Y-4.7047
X3.2611Y-4.4946
X3.2611Y-4.5261
X3.2611Y-4.5576
X3.2661Y-3.1446
X3.2709Y-2.7593
X3.275Y-2.5505
X3.2865Y-4.3919
X3.2877Y-2.4946
X3.2899Y-2.029
X3.31Y-2.47
X3.3108Y-1.7195
X3.3108Y-1.8136
X3.3108Y-1.853
X3.3147Y-1.8968
X3.3253Y-4.1279
X3.331Y-3.4731
X3.3389Y-4.6236
X3.3417Y-4.4207
X3.35Y-4.4511
X3.3556Y-3.5566
X3.3622Y-3.1781
X3.3684Y-3.5257
X3.3692Y-3.3595
X3.3693Y-3.2742
X3.3699Y-3.2401
X3.37Y-3.2086
X3.37Y-3.3098
X3.3755Y-4.703
X3.3798Y-4.4631
X3.44Y-3.3614
X3.44Y-3.4786
X3.4427Y-3.7284
X3.4598Y-3.9221
X3.4725Y-7.0065
X3.4725Y-7.1236
X3.4742Y-3.7275
X3.4812Y-3.761
X3.4967Y-6.5144
X3.4998Y-3.9733
X3.5041Y-2.3541
X3.5221Y-1.9235
X3.5262Y-1.4504
X3.5276Y-1.3508
X3.5506Y-3.6552
X3.5506Y-3.9442
X3.551Y-4.1602
X3.5584Y-2.0408
X3.6116Y-1.4492
X3.6169Y-1.3508
X3.6188Y-6.2969
X3.6304Y-3.74
X3.6313Y-3.6552
X3.6314Y-3.9442
X3.6317Y-4.1602
X3.6344Y-1.6114
X3.6364Y-2.32
X3.6574Y-1.3508
X3.6704Y-3.3373
X3.6894Y-1.4493
X3.69Y-2.33
X3.708Y-3.6121
X3.71Y-1.2566
X3.7283Y-3.3497
X3.7359Y-3.4832
X3.7369Y-1.8456
X3.7621Y-5.5412
X3.7684Y-5.3091
X3.7942Y-2.37
X3.7942Y-2.5484
X3.8055Y-3.9798
X3.8098Y-3.7781
X3.826Y-3.4909
X3.843Y-1.4176
X3.8437Y-5.8378
X3.8482Y-3.6874
X3.8487Y-1.2462
X3.8549Y-1.5
X3.8716Y-3.2073
X3.8728Y-3.6672
X3.8793Y-2.629
X3.8923Y-3.231
X3.8955Y-3.4241
X3.8958Y-2.3882
X3.8977Y-2.1511
X3.905Y-2.5155
X3.9051Y-3.2598
X3.9255Y-2.269
X3.927Y-3.4252
X3.9711Y-1.8274
X4.0Y-2.2
X4.0444Y-2.6685
X4.0874Y-1.5492
X4.0915Y-1.8136
X4.0921Y-6.7216
X4.0975Y-6.844
X4.1014Y-6.7932
X4.1258Y-1.7159
X4.1324Y-2.6478
X4.1459Y-1.7795
X4.1461Y-1.6868
X4.1469Y-1.617
X4.1469Y-1.6497
X4.1469Y-1.7444
X4.1469Y-1.8248
X4.1501Y-3.6319
X4.1724Y-1.95
X4.1724Y-2.0
X4.1724Y-2.05
X4.1862Y-2.1511
X4.1879Y-2.4335
X4.2007Y-1.6163
X4.2013Y-1.8349
X4.2024Y-2.4924
X4.2063Y-1.8661
X4.2217Y-4.1515
X4.234Y-7.2134
X4.2428Y-1.8069
X4.2621Y-1.6262
X4.2756Y-1.8635
X4.3006Y-4.1633
X4.3006Y-4.5256
X4.302Y-3.9964
X4.3027Y-3.5339
X4.3052Y-4.4741
X4.3057Y-4.1137
X4.3075Y-1.6301
X4.3083Y-4.0477
X4.3088Y-4.3019
X4.3104Y-1.752
X4.3183Y-3.1905
X4.3333Y-5.1281
X4.3335Y-1.7869
X4.3389Y-3.744
X4.3458Y-3.5823
X4.3491Y-1.6313
X4.3534Y-1.4296
X4.3596Y-4.0403
X4.3609Y-4.3732
X4.3611Y-4.416
X4.3654Y-4.3326
X4.3675Y-4.6455
X4.3686Y-4.8813
X4.3698Y-4.1927
X4.3703Y-4.1015
X4.3711Y-4.6862
X4.3718Y-4.4472
X4.3723Y-5.0193
X4.3724Y-5.0849
X4.3727Y-4.7331
X4.3728Y-3.3942
X4.373Y-4.5278
X4.373Y-4.5735
X4.3976Y-3.923
X4.4058Y-3.5236
X4.4067Y-3.5629
X4.4168Y-3.7339
X4.423Y-3.9417
X4.4414Y-3.8822
X4.4537Y-4.1836
X4.466Y-3.7933
X4.469Y-4.2862
X4.4847Y-4.3935
X4.489Y-1.7633
X4.4954Y-3.4558
X4.5219Y-3.9325
X4.5397Y-4.1903
X4.5554Y-1.3205
X4.5612Y-1.8293
X4.5783Y-4.377
X4.5784Y-4.1515
X4.6367Y-3.7321
X4.6459Y-4.2038
X4.6472Y-3.6795
X4.6639Y-1.3251
X4.6738Y-3.942
X4.6871Y-3.9029
X4.7109Y-3.6773
X4.7117Y-3.9934
X4.737Y-1.3941
X4.7794Y-1.4293
X4.8681Y-4.0015
X4.8725Y-3.822
X4.9016Y-1.214
X4.9253Y-3.7732
X5.027Y-3.1515
X5.0498Y-1.3449
X5.064Y-1.444
X5.0858Y-3.5828
X5.1383Y-1.0694
X5.1385Y-1.4445
X5.1391Y-1.1937
X5.1518Y-6.6055
X5.163Y-2.9995
X5.2017Y-6.5195
X5.2185Y-1.0531
X5.25Y-1.0207
X5.3135Y-3.5597
X5.3465Y-2.948
X5.386Y-3.6716
X5.4297Y-5.5507
X5.4439Y-1.7494
X5.4816Y-5.1194
X5.49Y-1.74
X5.5533Y-1.625
X5.5679Y-1.4009
X5.59Y-1.64
X5.6639Y-1.0777
X5.7195Y-3.3465
X5.7392Y-1.0407
X5.7465Y-3.138
X5.93Y-2.251
X5.9507Y-1.0977
X6.1619Y-1.2251
X6.1655Y-1.37
X6.1677Y-1.8975
X6.4394Y-1.5751
X6.4709Y-1.5758
X6.4723Y-1.4753
X6.5024Y-1.5773
X6.5038Y-1.4747
X6.5338Y-1.5791
X6.5353Y-1.4753
X6.5651Y-1.5855
X6.5697Y-1.4655
X6.5943Y-1.1924
X6.5982Y-1.2337
X6.9384Y-4.1231
X7.5286Y-4.4437
X8.3594Y-3.5238
X8.3745Y-4.5577
X8.3777Y-4.6232
X8.3925Y-5.1669
X8.4268Y-5.1968
X8.4766Y-4.5614
X8.565Y-4.5549
X8.8133Y-4.5124
X8.8257Y-4.7188
X8.8309Y-4.5456
X9.2365Y-5.5261
X9.4341Y-5.477
X9.6Y-4.1574
X9.6158Y-5.3477
X9.6223Y-5.1127
X9.6451Y-5.1538
X9.7169Y-5.239
X9.8426Y-3.658
X9.844Y-5.3556
X10.0095Y-5.352
X10.1294Y-4.7354
X10.2707Y-5.3516
X10.67Y-4.12
T2
X0.789Y-1.5144
T3
X2.1125Y-4.9993
X2.1125Y-5.0993
X10.05Y-2.5
X10.15Y-2.5
X3.652Y-3.166
X3.752Y-3.166
X0.9242Y-4.2407
X0.9242Y-4.3407
X1.7Y-1.6
X1.8Y-1.6
X1.15Y-4.2384
X1.15Y-4.3384
X5.2Y-4.1
X5.3Y-4.1
X2.12Y-4.0813
X2.12Y-4.16
X10.05Y-2.75
X10.15Y-2.75
X3.5374Y-3.5701
X3.6374Y-3.5701
X5.2Y-4.65
X5.3Y-4.65
X2.2894Y-4.9987
X2.2894Y-5.0987
X1.7Y-1.4
X1.8Y-1.4
T4
X1.425Y-6.675
X1.475Y-6.675
X1.525Y-6.675
X4.5Y-3.8433
X4.55Y-3.8433
X4.6Y-3.8433
T5
X4.7Y-4.4933
X4.8Y-4.4933
X4.05Y-1.4
X4.25Y-1.4
X6.7Y-4.4933
X6.8Y-4.4933
X5.7Y-4.4933
X5.8Y-4.4933
X2.225Y-1.15
X2.225Y-1.25
X4.15Y-1.3
T6
X4.01Y-6.39
X4.11Y-6.39
T7
X1.975Y-1.1846
X5.9549Y-3.8433
X6.1939Y-3.772
X6.3437Y-3.8442
X6.5651Y-3.8433
X6.59Y-3.19
X6.81Y-3.42
X8.08Y-4.51
X8.4Y-2.84
X8.5031Y-3.615
X8.6508Y-3.2306
X8.7831Y-1.4913
X8.7848Y-3.7615
X9.1745Y-3.0186
X9.5799Y-2.3819
X4.7016Y-1.122
X4.8016Y-1.122
X4.9016Y-1.122
X5.0016Y-1.122
X5.1016Y-1.122
X5.2016Y-1.122
X5.3016Y-1.122
X5.4016Y-1.122
X5.5016Y-1.122
X5.6016Y-1.122
X5.7016Y-1.122
X5.8016Y-1.122
X5.9016Y-1.122
X6.0016Y-1.122
X6.1016Y-1.122
X6.2016Y-1.122
X2.5219Y-2.7002
X2.5219Y-2.8002
X2.6219Y-2.7002
X2.6219Y-2.8002
X2.7219Y-2.7002
X2.7219Y-2.8002
X2.8219Y-2.7002
X2.8219Y-2.8002
X2.9219Y-2.7002
X2.9219Y-2.8002
X3.0219Y-2.7002
X3.0219Y-2.8002
X3.1219Y-2.7002
X3.1219Y-2.8002
X3.2219Y-2.7002
X3.2219Y-2.8002
X3.3219Y-2.7002
X3.3219Y-2.8002
X3.4219Y-2.7002
X3.4219Y-2.8002
X5.1699Y-4.3045
X5.2699Y-4.3045
X5.3699Y-4.3045
X5.9Y-4.7933
X5.9Y-4.8933
X6.0Y-4.7933
X6.0Y-4.8933
X6.5Y-4.7933
X6.5Y-4.8933
X6.6Y-4.7933
X6.6Y-4.8933
X4.5Y-4.7933
X4.5Y-4.8933
X4.6Y-4.7933
X4.6Y-4.8933
X1.2893Y-1.15
X1.3893Y-1.15
X1.4893Y-1.15
X1.5893Y-1.15
X1.6893Y-1.15
X1.7893Y-1.15
X0.85Y-4.9
X0.85Y-5.0
X0.85Y-5.1
X0.85Y-5.2
X9.6694Y-4.6779
X9.7694Y-4.6779
X9.8694Y-4.6779
X9.9694Y-4.6779
X10.0694Y-4.6779
X10.1694Y-4.6779
X10.2694Y-4.6779
X1.575Y-2.7
X1.575Y-2.8
X1.575Y-2.9
X1.575Y-3.0
X1.575Y-3.1
X1.575Y-3.2
X1.575Y-3.3
X1.575Y-3.4
X1.575Y-3.5
X1.575Y-3.6
X1.575Y-3.7
X1.575Y-3.8
X1.575Y-3.9
X1.575Y-4.0
X1.575Y-4.1
X1.575Y-4.2
X1.575Y-4.3
X1.575Y-4.4
X1.575Y-4.5
X1.575Y-4.6
X1.575Y-4.7
X1.575Y-4.8
X1.575Y-4.9
X1.575Y-5.0
X1.575Y-5.1
X1.575Y-5.2
X1.575Y-5.3
X1.575Y-5.4
X1.575Y-5.5
X1.575Y-5.6
X1.575Y-5.7
X1.575Y-5.8
X1.575Y-5.9
X1.575Y-6.0
X1.575Y-6.1
X1.575Y-6.2
X1.675Y-2.7
X1.675Y-2.8
X1.675Y-2.9
X1.675Y-3.0
X1.675Y-3.1
X1.675Y-3.2
X1.675Y-3.3
X1.675Y-3.4
X1.675Y-3.5
X1.675Y-3.6
X1.675Y-3.7
X1.675Y-3.8
X1.675Y-3.9
X1.675Y-4.0
X1.675Y-4.1
X1.675Y-4.2
X1.675Y-4.3
X1.675Y-4.4
X1.675Y-4.5
X1.675Y-4.6
X1.675Y-4.7
X1.675Y-4.8
X1.675Y-4.9
X1.675Y-5.0
X1.675Y-5.1
X1.675Y-5.2
X1.675Y-5.3
X1.675Y-5.4
X1.675Y-5.5
X1.675Y-5.6
X1.675Y-5.7
X1.675Y-5.8
X1.675Y-5.9
X1.675Y-6.0
X1.675Y-6.1
X1.675Y-6.2
X1.95Y-6.475
X2.05Y-6.475
X2.15Y-6.475
X9.4146Y-4.9508
X9.5146Y-4.9508
X9.6146Y-4.9508
X9.7146Y-4.9508
X9.8146Y-4.9508
X9.9146Y-4.9508
X10.0146Y-4.9508
X10.1146Y-4.9508
X10.2146Y-4.9508
X10.3146Y-4.9508
X10.4146Y-4.9508
X10.5146Y-4.9508
X6.9Y-4.7933
X6.9Y-4.8933
X7.0Y-4.7933
X7.0Y-4.8933
X0.85Y-3.25
X0.85Y-3.35
X0.85Y-3.45
X0.85Y-3.55
X0.85Y-3.65
X0.85Y-3.75
X0.85Y-3.85
X0.85Y-3.95
X0.85Y-4.05
X4.8008Y-3.8433
X5.1Y-3.8433
X4.1Y-2.7
X4.1Y-2.8
X4.1Y-2.9
X4.1Y-3.0
X4.1Y-3.1
X4.1Y-3.2
X4.1Y-3.3
X4.1Y-3.4
X4.1Y-3.5
X4.1Y-3.6
X4.1Y-3.7
X4.1Y-3.8
X4.1Y-3.9
X4.1Y-4.0
X4.1Y-4.1
X4.1Y-4.2
X4.1Y-4.3
X4.1Y-4.4
X4.1Y-4.5
X4.1Y-4.6
X4.1Y-4.7
X4.1Y-4.8
X4.1Y-4.9
X4.1Y-5.0
X4.1Y-5.1
X4.1Y-5.2
X4.1Y-5.3
X4.1Y-5.4
X4.1Y-5.5
X4.1Y-5.6
X4.1Y-5.7
X4.1Y-5.8
X4.1Y-5.9
X4.1Y-6.0
X4.1Y-6.1
X4.1Y-6.2
X4.2Y-2.7
X4.2Y-2.8
X4.2Y-2.9
X4.2Y-3.0
X4.2Y-3.1
X4.2Y-3.2
X4.2Y-3.3
X4.2Y-3.4
X4.2Y-3.5
X4.2Y-3.6
X4.2Y-3.7
X4.2Y-3.8
X4.2Y-3.9
X4.2Y-4.0
X4.2Y-4.1
X4.2Y-4.2
X4.2Y-4.3
X4.2Y-4.4
X4.2Y-4.5
X4.2Y-4.6
X4.2Y-4.7
X4.2Y-4.8
X4.2Y-4.9
X4.2Y-5.0
X4.2Y-5.1
X4.2Y-5.2
X4.2Y-5.3
X4.2Y-5.4
X4.2Y-5.5
X4.2Y-5.6
X4.2Y-5.7
X4.2Y-5.8
X4.2Y-5.9
X4.2Y-6.0
X4.2Y-6.1
X4.2Y-6.2
X2.5Y-1.15
X2.5Y-1.25
X2.6Y-1.15
X2.6Y-1.25
X2.7Y-1.15
X2.7Y-1.25
X2.8Y-1.15
X2.8Y-1.25
X2.9Y-1.15
X2.9Y-1.25
X3.0Y-1.15
X3.0Y-1.25
X3.1Y-1.15
X3.1Y-1.25
X3.2Y-1.15
X3.2Y-1.25
X3.3Y-1.15
X3.3Y-1.25
X3.4Y-1.15
X3.4Y-1.25
X3.35Y-6.475
X3.45Y-6.475
X3.55Y-6.475
X8.2551Y-4.9508
X8.3551Y-4.9508
X8.4551Y-4.9508
X8.5551Y-4.9508
X8.6551Y-4.9508
X8.7551Y-4.9508
X8.8551Y-4.9508
X8.9551Y-4.9508
X9.0551Y-4.9508
X9.1551Y-4.9508
X0.85Y-6.05
X0.85Y-6.15
X0.85Y-6.25
X0.85Y-6.35
X0.85Y-6.45
X0.85Y-6.55
X5.5Y-4.7933
X5.5Y-4.8933
X5.6Y-4.7933
X5.6Y-4.8933
X2.65Y-6.475
X2.75Y-6.475
X2.85Y-6.475
X0.85Y-1.9
X0.85Y-2.0
X0.85Y-2.1
X0.85Y-2.2
X0.85Y-2.3
X0.85Y-2.4
X0.95Y-1.9
X0.95Y-2.0
X0.95Y-2.1
X0.95Y-2.2
X0.95Y-2.3
X0.95Y-2.4
X4.9Y-4.7933
X4.9Y-4.8933
X5.0Y-4.7933
X5.0Y-4.8933
T8
X7.85Y-3.8
X7.85Y-4.1
X10.7Y-4.3
X10.7Y-4.6
X7.85Y-4.35
X7.85Y-4.65
X7.4Y-4.0988
X7.4Y-4.35
X2.5Y-4.9488
X2.5Y-5.2
X10.7Y-2.3488
X10.7Y-2.6
X7.4Y-3.5488
X7.4Y-3.8
X3.4Y-4.9488
X3.4Y-5.2
X2.95Y-4.95
X2.95Y-5.25
X10.7Y-3.5488
X10.7Y-3.8
X7.4Y-4.6488
X7.4Y-4.9
X10.7Y-2.9488
X10.7Y-3.2
T10
X0.9Y-4.5
X4.426Y-3.2677
X6.4272Y-7.3228
X0.9Y-7.3
X4.426Y-1.122
X8.0874Y-1.122
X10.9154Y-7.3228
X4.2028Y-7.3228
X9.1043Y-4.6457
X0.9Y-1.15
X5.25Y-4.85
X8.0874Y-3.2874
X10.9Y-1.15
X8.7303Y-7.3228
T7
G00X10.2949Y-1.4244
M15
G01X10.2949Y-1.5031
M16
G05
G00X10.5193Y-1.3457
M15
G01X10.4406Y-1.3457
M16
G05
G00X10.5193Y-1.5819
M15
G01X10.4406Y-1.5819
M16
G05
T9
G00X1.85Y-6.1862
M15
G01X1.85Y-6.2138
M16
G05
G00X2.25Y-6.1862
M15
G01X2.25Y-6.2138
M16
G05
G00X3.25Y-6.1862
M15
G01X3.25Y-6.2138
M16
G05
G00X3.65Y-6.1862
M15
G01X3.65Y-6.2138
M16
G05
G00X2.55Y-6.1862
M15
G01X2.55Y-6.2138
M16
G05
G00X2.95Y-6.1862
M15
G01X2.95Y-6.2138
M16
G05
T0
M30
