G04 #@! TF.GenerationSoftware,KiCad,Pcbnew,9.0.0*
G04 #@! TF.CreationDate,2025-06-10T17:59:39+09:00*
G04 #@! TF.ProjectId,ARM ___ __,41524d20-38f8-4982-90f4-dc2e6b696361,1.0*
G04 #@! TF.SameCoordinates,Original*
G04 #@! TF.FileFunction,Legend,Bot*
G04 #@! TF.FilePolarity,Positive*
%FSLAX46Y46*%
G04 Gerber Fmt 4.6, Leading zero omitted, Abs format (unit mm)*
G04 Created by KiCad (PCBNEW 9.0.0) date 2025-06-10 17:59:39*
%MOMM*%
%LPD*%
G01*
G04 APERTURE LIST*
G04 Aperture macros list*
%AMRoundRect*
0 Rectangle with rounded corners*
0 $1 Rounding radius*
0 $2 $3 $4 $5 $6 $7 $8 $9 X,Y pos of 4 corners*
0 Add a 4 corners polygon primitive as box body*
4,1,4,$2,$3,$4,$5,$6,$7,$8,$9,$2,$3,0*
0 Add four circle primitives for the rounded corners*
1,1,$1+$1,$2,$3*
1,1,$1+$1,$4,$5*
1,1,$1+$1,$6,$7*
1,1,$1+$1,$8,$9*
0 Add four rect primitives between the rounded corners*
20,1,$1+$1,$2,$3,$4,$5,0*
20,1,$1+$1,$4,$5,$6,$7,0*
20,1,$1+$1,$6,$7,$8,$9,0*
20,1,$1+$1,$8,$9,$2,$3,0*%
%AMOutline4P*
0 Free polygon, 4 corners , with rotation*
0 The origin of the aperture is its center*
0 number of corners: always 4*
0 $1 to $8 corner X, Y*
0 $9 Rotation angle, in degrees counterclockwise*
0 create outline with 4 corners*
4,1,4,$1,$2,$3,$4,$5,$6,$7,$8,$1,$2,$9*%
%AMFreePoly0*
4,1,23,0.550000,-0.750000,0.000000,-0.750000,0.000000,-0.745722,-0.065263,-0.745722,-0.191342,-0.711940,-0.304381,-0.646677,-0.396677,-0.554381,-0.461940,-0.441342,-0.495722,-0.315263,-0.495722,-0.250000,-0.500000,-0.250000,-0.500000,0.250000,-0.495722,0.250000,-0.495722,0.315263,-0.461940,0.441342,-0.396677,0.554381,-0.304381,0.646677,-0.191342,0.711940,-0.065263,0.745722,0.000000,0.745722,
0.000000,0.750000,0.550000,0.750000,0.550000,-0.750000,0.550000,-0.750000,$1*%
%AMFreePoly1*
4,1,23,0.000000,0.745722,0.065263,0.745722,0.191342,0.711940,0.304381,0.646677,0.396677,0.554381,0.461940,0.441342,0.495722,0.315263,0.495722,0.250000,0.500000,0.250000,0.500000,-0.250000,0.495722,-0.250000,0.495722,-0.315263,0.461940,-0.441342,0.396677,-0.554381,0.304381,-0.646677,0.191342,-0.711940,0.065263,-0.745722,0.000000,-0.745722,0.000000,-0.750000,-0.550000,-0.750000,
-0.550000,0.750000,0.000000,0.750000,0.000000,0.745722,0.000000,0.745722,$1*%
G04 Aperture macros list end*
%ADD10C,0.100000*%
%ADD11C,0.150000*%
%ADD12C,0.300000*%
%ADD13C,0.400000*%
%ADD14C,1.400000*%
%ADD15C,0.800000*%
%ADD16C,1.000000*%
%ADD17C,0.120000*%
%ADD18C,0.000000*%
%ADD19C,1.550000*%
%ADD20C,1.000000*%
%ADD21RoundRect,0.650000X0.650000X-0.650000X0.650000X0.650000X-0.650000X0.650000X-0.650000X-0.650000X0*%
%ADD22C,2.600000*%
%ADD23C,1.524000*%
%ADD24Outline4P,-1.250000X-1.500000X1.250000X-1.500000X1.250000X1.500000X-1.250000X1.500000X0.000000*%
%ADD25C,5.600000*%
%ADD26C,1.600000*%
%ADD27C,3.200000*%
%ADD28O,1.501140X4.000500*%
%ADD29RoundRect,0.250000X-0.600000X0.600000X-0.600000X-0.600000X0.600000X-0.600000X0.600000X0.600000X0*%
%ADD30C,1.700000*%
%ADD31R,1.700000X1.700000*%
%ADD32O,1.700000X1.700000*%
%ADD33R,2.000000X2.000000*%
%ADD34C,2.000000*%
%ADD35RoundRect,0.250000X0.512000X-0.512000X0.512000X0.512000X-0.512000X0.512000X-0.512000X-0.512000X0*%
%ADD36C,3.500000*%
%ADD37C,0.650000*%
%ADD38O,1.000000X2.100000*%
%ADD39O,1.000000X1.600000*%
%ADD40C,1.150000*%
%ADD41C,1.650000*%
%ADD42RoundRect,0.250000X0.475000X-0.250000X0.475000X0.250000X-0.475000X0.250000X-0.475000X-0.250000X0*%
%ADD43RoundRect,0.250000X0.650000X-0.325000X0.650000X0.325000X-0.650000X0.325000X-0.650000X-0.325000X0*%
%ADD44RoundRect,0.250000X0.450000X-0.262500X0.450000X0.262500X-0.450000X0.262500X-0.450000X-0.262500X0*%
%ADD45RoundRect,0.218750X-0.381250X0.218750X-0.381250X-0.218750X0.381250X-0.218750X0.381250X0.218750X0*%
%ADD46RoundRect,0.250000X-0.475000X0.250000X-0.475000X-0.250000X0.475000X-0.250000X0.475000X0.250000X0*%
%ADD47C,0.250000*%
%ADD48FreePoly0,0.000000*%
%ADD49R,1.000000X1.500000*%
%ADD50FreePoly1,0.000000*%
%ADD51RoundRect,0.250000X0.250000X0.475000X-0.250000X0.475000X-0.250000X-0.475000X0.250000X-0.475000X0*%
%ADD52RoundRect,0.250000X-0.450000X0.262500X-0.450000X-0.262500X0.450000X-0.262500X0.450000X0.262500X0*%
%ADD53RoundRect,0.250000X-0.325000X-0.650000X0.325000X-0.650000X0.325000X0.650000X-0.325000X0.650000X0*%
%ADD54RoundRect,0.250000X-0.650000X0.325000X-0.650000X-0.325000X0.650000X-0.325000X0.650000X0.325000X0*%
%ADD55RoundRect,0.218750X0.381250X-0.218750X0.381250X0.218750X-0.381250X0.218750X-0.381250X-0.218750X0*%
%ADD56RoundRect,0.250000X-0.262500X-0.450000X0.262500X-0.450000X0.262500X0.450000X-0.262500X0.450000X0*%
G04 APERTURE END LIST*
D10*
D11*
X177002200Y-166007200D02*
X285002200Y-166007200D01*
X285002200Y-198007200D01*
X177002200Y-198007200D01*
X177002200Y-166007200D01*
D10*
D11*
X10000000Y-10000000D02*
X287002200Y-10000000D01*
X287002200Y-200007200D01*
X10000000Y-200007200D01*
X10000000Y-10000000D01*
D10*
D11*
X12000000Y-12000000D02*
X285002200Y-12000000D01*
X285002200Y-198007200D01*
X12000000Y-198007200D01*
X12000000Y-12000000D01*
D10*
D11*
X60000000Y-12000000D02*
X60000000Y-10000000D01*
D10*
D11*
X110000000Y-12000000D02*
X110000000Y-10000000D01*
D10*
D11*
X160000000Y-12000000D02*
X160000000Y-10000000D01*
D10*
D11*
X210000000Y-12000000D02*
X210000000Y-10000000D01*
D10*
D11*
X260000000Y-12000000D02*
X260000000Y-10000000D01*
D10*
D11*
X36089160Y-11593604D02*
X35346303Y-11593604D01*
X35717731Y-11593604D02*
X35717731Y-10293604D01*
X35717731Y-10293604D02*
X35593922Y-10479319D01*
X35593922Y-10479319D02*
X35470112Y-10603128D01*
X35470112Y-10603128D02*
X35346303Y-10665033D01*
D10*
D11*
X85346303Y-10417414D02*
X85408207Y-10355509D01*
X85408207Y-10355509D02*
X85532017Y-10293604D01*
X85532017Y-10293604D02*
X85841541Y-10293604D01*
X85841541Y-10293604D02*
X85965350Y-10355509D01*
X85965350Y-10355509D02*
X86027255Y-10417414D01*
X86027255Y-10417414D02*
X86089160Y-10541223D01*
X86089160Y-10541223D02*
X86089160Y-10665033D01*
X86089160Y-10665033D02*
X86027255Y-10850747D01*
X86027255Y-10850747D02*
X85284398Y-11593604D01*
X85284398Y-11593604D02*
X86089160Y-11593604D01*
D10*
D11*
X135284398Y-10293604D02*
X136089160Y-10293604D01*
X136089160Y-10293604D02*
X135655826Y-10788842D01*
X135655826Y-10788842D02*
X135841541Y-10788842D01*
X135841541Y-10788842D02*
X135965350Y-10850747D01*
X135965350Y-10850747D02*
X136027255Y-10912652D01*
X136027255Y-10912652D02*
X136089160Y-11036461D01*
X136089160Y-11036461D02*
X136089160Y-11345985D01*
X136089160Y-11345985D02*
X136027255Y-11469795D01*
X136027255Y-11469795D02*
X135965350Y-11531700D01*
X135965350Y-11531700D02*
X135841541Y-11593604D01*
X135841541Y-11593604D02*
X135470112Y-11593604D01*
X135470112Y-11593604D02*
X135346303Y-11531700D01*
X135346303Y-11531700D02*
X135284398Y-11469795D01*
D10*
D11*
X185965350Y-10726938D02*
X185965350Y-11593604D01*
X185655826Y-10231700D02*
X185346303Y-11160271D01*
X185346303Y-11160271D02*
X186151064Y-11160271D01*
D10*
D11*
X236027255Y-10293604D02*
X235408207Y-10293604D01*
X235408207Y-10293604D02*
X235346303Y-10912652D01*
X235346303Y-10912652D02*
X235408207Y-10850747D01*
X235408207Y-10850747D02*
X235532017Y-10788842D01*
X235532017Y-10788842D02*
X235841541Y-10788842D01*
X235841541Y-10788842D02*
X235965350Y-10850747D01*
X235965350Y-10850747D02*
X236027255Y-10912652D01*
X236027255Y-10912652D02*
X236089160Y-11036461D01*
X236089160Y-11036461D02*
X236089160Y-11345985D01*
X236089160Y-11345985D02*
X236027255Y-11469795D01*
X236027255Y-11469795D02*
X235965350Y-11531700D01*
X235965350Y-11531700D02*
X235841541Y-11593604D01*
X235841541Y-11593604D02*
X235532017Y-11593604D01*
X235532017Y-11593604D02*
X235408207Y-11531700D01*
X235408207Y-11531700D02*
X235346303Y-11469795D01*
D10*
D11*
X285965350Y-10293604D02*
X285717731Y-10293604D01*
X285717731Y-10293604D02*
X285593922Y-10355509D01*
X285593922Y-10355509D02*
X285532017Y-10417414D01*
X285532017Y-10417414D02*
X285408207Y-10603128D01*
X285408207Y-10603128D02*
X285346303Y-10850747D01*
X285346303Y-10850747D02*
X285346303Y-11345985D01*
X285346303Y-11345985D02*
X285408207Y-11469795D01*
X285408207Y-11469795D02*
X285470112Y-11531700D01*
X285470112Y-11531700D02*
X285593922Y-11593604D01*
X285593922Y-11593604D02*
X285841541Y-11593604D01*
X285841541Y-11593604D02*
X285965350Y-11531700D01*
X285965350Y-11531700D02*
X286027255Y-11469795D01*
X286027255Y-11469795D02*
X286089160Y-11345985D01*
X286089160Y-11345985D02*
X286089160Y-11036461D01*
X286089160Y-11036461D02*
X286027255Y-10912652D01*
X286027255Y-10912652D02*
X285965350Y-10850747D01*
X285965350Y-10850747D02*
X285841541Y-10788842D01*
X285841541Y-10788842D02*
X285593922Y-10788842D01*
X285593922Y-10788842D02*
X285470112Y-10850747D01*
X285470112Y-10850747D02*
X285408207Y-10912652D01*
X285408207Y-10912652D02*
X285346303Y-11036461D01*
D10*
D11*
X60000000Y-198007200D02*
X60000000Y-200007200D01*
D10*
D11*
X110000000Y-198007200D02*
X110000000Y-200007200D01*
D10*
D11*
X160000000Y-198007200D02*
X160000000Y-200007200D01*
D10*
D11*
X210000000Y-198007200D02*
X210000000Y-200007200D01*
D10*
D11*
X260000000Y-198007200D02*
X260000000Y-200007200D01*
D10*
D11*
X36089160Y-199600804D02*
X35346303Y-199600804D01*
X35717731Y-199600804D02*
X35717731Y-198300804D01*
X35717731Y-198300804D02*
X35593922Y-198486519D01*
X35593922Y-198486519D02*
X35470112Y-198610328D01*
X35470112Y-198610328D02*
X35346303Y-198672233D01*
D10*
D11*
X85346303Y-198424614D02*
X85408207Y-198362709D01*
X85408207Y-198362709D02*
X85532017Y-198300804D01*
X85532017Y-198300804D02*
X85841541Y-198300804D01*
X85841541Y-198300804D02*
X85965350Y-198362709D01*
X85965350Y-198362709D02*
X86027255Y-198424614D01*
X86027255Y-198424614D02*
X86089160Y-198548423D01*
X86089160Y-198548423D02*
X86089160Y-198672233D01*
X86089160Y-198672233D02*
X86027255Y-198857947D01*
X86027255Y-198857947D02*
X85284398Y-199600804D01*
X85284398Y-199600804D02*
X86089160Y-199600804D01*
D10*
D11*
X135284398Y-198300804D02*
X136089160Y-198300804D01*
X136089160Y-198300804D02*
X135655826Y-198796042D01*
X135655826Y-198796042D02*
X135841541Y-198796042D01*
X135841541Y-198796042D02*
X135965350Y-198857947D01*
X135965350Y-198857947D02*
X136027255Y-198919852D01*
X136027255Y-198919852D02*
X136089160Y-199043661D01*
X136089160Y-199043661D02*
X136089160Y-199353185D01*
X136089160Y-199353185D02*
X136027255Y-199476995D01*
X136027255Y-199476995D02*
X135965350Y-199538900D01*
X135965350Y-199538900D02*
X135841541Y-199600804D01*
X135841541Y-199600804D02*
X135470112Y-199600804D01*
X135470112Y-199600804D02*
X135346303Y-199538900D01*
X135346303Y-199538900D02*
X135284398Y-199476995D01*
D10*
D11*
X185965350Y-198734138D02*
X185965350Y-199600804D01*
X185655826Y-198238900D02*
X185346303Y-199167471D01*
X185346303Y-199167471D02*
X186151064Y-199167471D01*
D10*
D11*
X236027255Y-198300804D02*
X235408207Y-198300804D01*
X235408207Y-198300804D02*
X235346303Y-198919852D01*
X235346303Y-198919852D02*
X235408207Y-198857947D01*
X235408207Y-198857947D02*
X235532017Y-198796042D01*
X235532017Y-198796042D02*
X235841541Y-198796042D01*
X235841541Y-198796042D02*
X235965350Y-198857947D01*
X235965350Y-198857947D02*
X236027255Y-198919852D01*
X236027255Y-198919852D02*
X236089160Y-199043661D01*
X236089160Y-199043661D02*
X236089160Y-199353185D01*
X236089160Y-199353185D02*
X236027255Y-199476995D01*
X236027255Y-199476995D02*
X235965350Y-199538900D01*
X235965350Y-199538900D02*
X235841541Y-199600804D01*
X235841541Y-199600804D02*
X235532017Y-199600804D01*
X235532017Y-199600804D02*
X235408207Y-199538900D01*
X235408207Y-199538900D02*
X235346303Y-199476995D01*
D10*
D11*
X285965350Y-198300804D02*
X285717731Y-198300804D01*
X285717731Y-198300804D02*
X285593922Y-198362709D01*
X285593922Y-198362709D02*
X285532017Y-198424614D01*
X285532017Y-198424614D02*
X285408207Y-198610328D01*
X285408207Y-198610328D02*
X285346303Y-198857947D01*
X285346303Y-198857947D02*
X285346303Y-199353185D01*
X285346303Y-199353185D02*
X285408207Y-199476995D01*
X285408207Y-199476995D02*
X285470112Y-199538900D01*
X285470112Y-199538900D02*
X285593922Y-199600804D01*
X285593922Y-199600804D02*
X285841541Y-199600804D01*
X285841541Y-199600804D02*
X285965350Y-199538900D01*
X285965350Y-199538900D02*
X286027255Y-199476995D01*
X286027255Y-199476995D02*
X286089160Y-199353185D01*
X286089160Y-199353185D02*
X286089160Y-199043661D01*
X286089160Y-199043661D02*
X286027255Y-198919852D01*
X286027255Y-198919852D02*
X285965350Y-198857947D01*
X285965350Y-198857947D02*
X285841541Y-198796042D01*
X285841541Y-198796042D02*
X285593922Y-198796042D01*
X285593922Y-198796042D02*
X285470112Y-198857947D01*
X285470112Y-198857947D02*
X285408207Y-198919852D01*
X285408207Y-198919852D02*
X285346303Y-199043661D01*
D10*
D11*
X10000000Y-60000000D02*
X12000000Y-60000000D01*
D10*
D11*
X10000000Y-110000000D02*
X12000000Y-110000000D01*
D10*
D11*
X10000000Y-160000000D02*
X12000000Y-160000000D01*
D10*
D11*
X10690476Y-35222176D02*
X11309523Y-35222176D01*
X10566666Y-35593604D02*
X10999999Y-34293604D01*
X10999999Y-34293604D02*
X11433333Y-35593604D01*
D10*
D11*
X11092857Y-84912652D02*
X11278571Y-84974557D01*
X11278571Y-84974557D02*
X11340476Y-85036461D01*
X11340476Y-85036461D02*
X11402380Y-85160271D01*
X11402380Y-85160271D02*
X11402380Y-85345985D01*
X11402380Y-85345985D02*
X11340476Y-85469795D01*
X11340476Y-85469795D02*
X11278571Y-85531700D01*
X11278571Y-85531700D02*
X11154761Y-85593604D01*
X11154761Y-85593604D02*
X10659523Y-85593604D01*
X10659523Y-85593604D02*
X10659523Y-84293604D01*
X10659523Y-84293604D02*
X11092857Y-84293604D01*
X11092857Y-84293604D02*
X11216666Y-84355509D01*
X11216666Y-84355509D02*
X11278571Y-84417414D01*
X11278571Y-84417414D02*
X11340476Y-84541223D01*
X11340476Y-84541223D02*
X11340476Y-84665033D01*
X11340476Y-84665033D02*
X11278571Y-84788842D01*
X11278571Y-84788842D02*
X11216666Y-84850747D01*
X11216666Y-84850747D02*
X11092857Y-84912652D01*
X11092857Y-84912652D02*
X10659523Y-84912652D01*
D10*
D11*
X11402380Y-135469795D02*
X11340476Y-135531700D01*
X11340476Y-135531700D02*
X11154761Y-135593604D01*
X11154761Y-135593604D02*
X11030952Y-135593604D01*
X11030952Y-135593604D02*
X10845238Y-135531700D01*
X10845238Y-135531700D02*
X10721428Y-135407890D01*
X10721428Y-135407890D02*
X10659523Y-135284080D01*
X10659523Y-135284080D02*
X10597619Y-135036461D01*
X10597619Y-135036461D02*
X10597619Y-134850747D01*
X10597619Y-134850747D02*
X10659523Y-134603128D01*
X10659523Y-134603128D02*
X10721428Y-134479319D01*
X10721428Y-134479319D02*
X10845238Y-134355509D01*
X10845238Y-134355509D02*
X11030952Y-134293604D01*
X11030952Y-134293604D02*
X11154761Y-134293604D01*
X11154761Y-134293604D02*
X11340476Y-134355509D01*
X11340476Y-134355509D02*
X11402380Y-134417414D01*
D10*
D11*
X10659523Y-185593604D02*
X10659523Y-184293604D01*
X10659523Y-184293604D02*
X10969047Y-184293604D01*
X10969047Y-184293604D02*
X11154761Y-184355509D01*
X11154761Y-184355509D02*
X11278571Y-184479319D01*
X11278571Y-184479319D02*
X11340476Y-184603128D01*
X11340476Y-184603128D02*
X11402380Y-184850747D01*
X11402380Y-184850747D02*
X11402380Y-185036461D01*
X11402380Y-185036461D02*
X11340476Y-185284080D01*
X11340476Y-185284080D02*
X11278571Y-185407890D01*
X11278571Y-185407890D02*
X11154761Y-185531700D01*
X11154761Y-185531700D02*
X10969047Y-185593604D01*
X10969047Y-185593604D02*
X10659523Y-185593604D01*
D10*
D11*
X287002200Y-60000000D02*
X285002200Y-60000000D01*
D10*
D11*
X287002200Y-110000000D02*
X285002200Y-110000000D01*
D10*
D11*
X287002200Y-160000000D02*
X285002200Y-160000000D01*
D10*
D11*
X285692676Y-35222176D02*
X286311723Y-35222176D01*
X285568866Y-35593604D02*
X286002199Y-34293604D01*
X286002199Y-34293604D02*
X286435533Y-35593604D01*
D10*
D11*
X286095057Y-84912652D02*
X286280771Y-84974557D01*
X286280771Y-84974557D02*
X286342676Y-85036461D01*
X286342676Y-85036461D02*
X286404580Y-85160271D01*
X286404580Y-85160271D02*
X286404580Y-85345985D01*
X286404580Y-85345985D02*
X286342676Y-85469795D01*
X286342676Y-85469795D02*
X286280771Y-85531700D01*
X286280771Y-85531700D02*
X286156961Y-85593604D01*
X286156961Y-85593604D02*
X285661723Y-85593604D01*
X285661723Y-85593604D02*
X285661723Y-84293604D01*
X285661723Y-84293604D02*
X286095057Y-84293604D01*
X286095057Y-84293604D02*
X286218866Y-84355509D01*
X286218866Y-84355509D02*
X286280771Y-84417414D01*
X286280771Y-84417414D02*
X286342676Y-84541223D01*
X286342676Y-84541223D02*
X286342676Y-84665033D01*
X286342676Y-84665033D02*
X286280771Y-84788842D01*
X286280771Y-84788842D02*
X286218866Y-84850747D01*
X286218866Y-84850747D02*
X286095057Y-84912652D01*
X286095057Y-84912652D02*
X285661723Y-84912652D01*
D10*
D11*
X286404580Y-135469795D02*
X286342676Y-135531700D01*
X286342676Y-135531700D02*
X286156961Y-135593604D01*
X286156961Y-135593604D02*
X286033152Y-135593604D01*
X286033152Y-135593604D02*
X285847438Y-135531700D01*
X285847438Y-135531700D02*
X285723628Y-135407890D01*
X285723628Y-135407890D02*
X285661723Y-135284080D01*
X285661723Y-135284080D02*
X285599819Y-135036461D01*
X285599819Y-135036461D02*
X285599819Y-134850747D01*
X285599819Y-134850747D02*
X285661723Y-134603128D01*
X285661723Y-134603128D02*
X285723628Y-134479319D01*
X285723628Y-134479319D02*
X285847438Y-134355509D01*
X285847438Y-134355509D02*
X286033152Y-134293604D01*
X286033152Y-134293604D02*
X286156961Y-134293604D01*
X286156961Y-134293604D02*
X286342676Y-134355509D01*
X286342676Y-134355509D02*
X286404580Y-134417414D01*
D10*
D11*
X285661723Y-185593604D02*
X285661723Y-184293604D01*
X285661723Y-184293604D02*
X285971247Y-184293604D01*
X285971247Y-184293604D02*
X286156961Y-184355509D01*
X286156961Y-184355509D02*
X286280771Y-184479319D01*
X286280771Y-184479319D02*
X286342676Y-184603128D01*
X286342676Y-184603128D02*
X286404580Y-184850747D01*
X286404580Y-184850747D02*
X286404580Y-185036461D01*
X286404580Y-185036461D02*
X286342676Y-185284080D01*
X286342676Y-185284080D02*
X286280771Y-185407890D01*
X286280771Y-185407890D02*
X286156961Y-185531700D01*
X286156961Y-185531700D02*
X285971247Y-185593604D01*
X285971247Y-185593604D02*
X285661723Y-185593604D01*
D10*
D11*
X200458026Y-193793328D02*
X200458026Y-192293328D01*
X200458026Y-192293328D02*
X200815169Y-192293328D01*
X200815169Y-192293328D02*
X201029455Y-192364757D01*
X201029455Y-192364757D02*
X201172312Y-192507614D01*
X201172312Y-192507614D02*
X201243741Y-192650471D01*
X201243741Y-192650471D02*
X201315169Y-192936185D01*
X201315169Y-192936185D02*
X201315169Y-193150471D01*
X201315169Y-193150471D02*
X201243741Y-193436185D01*
X201243741Y-193436185D02*
X201172312Y-193579042D01*
X201172312Y-193579042D02*
X201029455Y-193721900D01*
X201029455Y-193721900D02*
X200815169Y-193793328D01*
X200815169Y-193793328D02*
X200458026Y-193793328D01*
X202600884Y-193793328D02*
X202600884Y-193007614D01*
X202600884Y-193007614D02*
X202529455Y-192864757D01*
X202529455Y-192864757D02*
X202386598Y-192793328D01*
X202386598Y-192793328D02*
X202100884Y-192793328D01*
X202100884Y-192793328D02*
X201958026Y-192864757D01*
X202600884Y-193721900D02*
X202458026Y-193793328D01*
X202458026Y-193793328D02*
X202100884Y-193793328D01*
X202100884Y-193793328D02*
X201958026Y-193721900D01*
X201958026Y-193721900D02*
X201886598Y-193579042D01*
X201886598Y-193579042D02*
X201886598Y-193436185D01*
X201886598Y-193436185D02*
X201958026Y-193293328D01*
X201958026Y-193293328D02*
X202100884Y-193221900D01*
X202100884Y-193221900D02*
X202458026Y-193221900D01*
X202458026Y-193221900D02*
X202600884Y-193150471D01*
X203100884Y-192793328D02*
X203672312Y-192793328D01*
X203315169Y-192293328D02*
X203315169Y-193579042D01*
X203315169Y-193579042D02*
X203386598Y-193721900D01*
X203386598Y-193721900D02*
X203529455Y-193793328D01*
X203529455Y-193793328D02*
X203672312Y-193793328D01*
X204743741Y-193721900D02*
X204600884Y-193793328D01*
X204600884Y-193793328D02*
X204315170Y-193793328D01*
X204315170Y-193793328D02*
X204172312Y-193721900D01*
X204172312Y-193721900D02*
X204100884Y-193579042D01*
X204100884Y-193579042D02*
X204100884Y-193007614D01*
X204100884Y-193007614D02*
X204172312Y-192864757D01*
X204172312Y-192864757D02*
X204315170Y-192793328D01*
X204315170Y-192793328D02*
X204600884Y-192793328D01*
X204600884Y-192793328D02*
X204743741Y-192864757D01*
X204743741Y-192864757D02*
X204815170Y-193007614D01*
X204815170Y-193007614D02*
X204815170Y-193150471D01*
X204815170Y-193150471D02*
X204100884Y-193293328D01*
X205458026Y-193650471D02*
X205529455Y-193721900D01*
X205529455Y-193721900D02*
X205458026Y-193793328D01*
X205458026Y-193793328D02*
X205386598Y-193721900D01*
X205386598Y-193721900D02*
X205458026Y-193650471D01*
X205458026Y-193650471D02*
X205458026Y-193793328D01*
X205458026Y-192864757D02*
X205529455Y-192936185D01*
X205529455Y-192936185D02*
X205458026Y-193007614D01*
X205458026Y-193007614D02*
X205386598Y-192936185D01*
X205386598Y-192936185D02*
X205458026Y-192864757D01*
X205458026Y-192864757D02*
X205458026Y-193007614D01*
X207243741Y-192436185D02*
X207315169Y-192364757D01*
X207315169Y-192364757D02*
X207458027Y-192293328D01*
X207458027Y-192293328D02*
X207815169Y-192293328D01*
X207815169Y-192293328D02*
X207958027Y-192364757D01*
X207958027Y-192364757D02*
X208029455Y-192436185D01*
X208029455Y-192436185D02*
X208100884Y-192579042D01*
X208100884Y-192579042D02*
X208100884Y-192721900D01*
X208100884Y-192721900D02*
X208029455Y-192936185D01*
X208029455Y-192936185D02*
X207172312Y-193793328D01*
X207172312Y-193793328D02*
X208100884Y-193793328D01*
X209029455Y-192293328D02*
X209172312Y-192293328D01*
X209172312Y-192293328D02*
X209315169Y-192364757D01*
X209315169Y-192364757D02*
X209386598Y-192436185D01*
X209386598Y-192436185D02*
X209458026Y-192579042D01*
X209458026Y-192579042D02*
X209529455Y-192864757D01*
X209529455Y-192864757D02*
X209529455Y-193221900D01*
X209529455Y-193221900D02*
X209458026Y-193507614D01*
X209458026Y-193507614D02*
X209386598Y-193650471D01*
X209386598Y-193650471D02*
X209315169Y-193721900D01*
X209315169Y-193721900D02*
X209172312Y-193793328D01*
X209172312Y-193793328D02*
X209029455Y-193793328D01*
X209029455Y-193793328D02*
X208886598Y-193721900D01*
X208886598Y-193721900D02*
X208815169Y-193650471D01*
X208815169Y-193650471D02*
X208743740Y-193507614D01*
X208743740Y-193507614D02*
X208672312Y-193221900D01*
X208672312Y-193221900D02*
X208672312Y-192864757D01*
X208672312Y-192864757D02*
X208743740Y-192579042D01*
X208743740Y-192579042D02*
X208815169Y-192436185D01*
X208815169Y-192436185D02*
X208886598Y-192364757D01*
X208886598Y-192364757D02*
X209029455Y-192293328D01*
X210100883Y-192436185D02*
X210172311Y-192364757D01*
X210172311Y-192364757D02*
X210315169Y-192293328D01*
X210315169Y-192293328D02*
X210672311Y-192293328D01*
X210672311Y-192293328D02*
X210815169Y-192364757D01*
X210815169Y-192364757D02*
X210886597Y-192436185D01*
X210886597Y-192436185D02*
X210958026Y-192579042D01*
X210958026Y-192579042D02*
X210958026Y-192721900D01*
X210958026Y-192721900D02*
X210886597Y-192936185D01*
X210886597Y-192936185D02*
X210029454Y-193793328D01*
X210029454Y-193793328D02*
X210958026Y-193793328D01*
X212315168Y-192293328D02*
X211600882Y-192293328D01*
X211600882Y-192293328D02*
X211529454Y-193007614D01*
X211529454Y-193007614D02*
X211600882Y-192936185D01*
X211600882Y-192936185D02*
X211743740Y-192864757D01*
X211743740Y-192864757D02*
X212100882Y-192864757D01*
X212100882Y-192864757D02*
X212243740Y-192936185D01*
X212243740Y-192936185D02*
X212315168Y-193007614D01*
X212315168Y-193007614D02*
X212386597Y-193150471D01*
X212386597Y-193150471D02*
X212386597Y-193507614D01*
X212386597Y-193507614D02*
X212315168Y-193650471D01*
X212315168Y-193650471D02*
X212243740Y-193721900D01*
X212243740Y-193721900D02*
X212100882Y-193793328D01*
X212100882Y-193793328D02*
X211743740Y-193793328D01*
X211743740Y-193793328D02*
X211600882Y-193721900D01*
X211600882Y-193721900D02*
X211529454Y-193650471D01*
X213029453Y-193221900D02*
X214172311Y-193221900D01*
X215172311Y-192293328D02*
X215315168Y-192293328D01*
X215315168Y-192293328D02*
X215458025Y-192364757D01*
X215458025Y-192364757D02*
X215529454Y-192436185D01*
X215529454Y-192436185D02*
X215600882Y-192579042D01*
X215600882Y-192579042D02*
X215672311Y-192864757D01*
X215672311Y-192864757D02*
X215672311Y-193221900D01*
X215672311Y-193221900D02*
X215600882Y-193507614D01*
X215600882Y-193507614D02*
X215529454Y-193650471D01*
X215529454Y-193650471D02*
X215458025Y-193721900D01*
X215458025Y-193721900D02*
X215315168Y-193793328D01*
X215315168Y-193793328D02*
X215172311Y-193793328D01*
X215172311Y-193793328D02*
X215029454Y-193721900D01*
X215029454Y-193721900D02*
X214958025Y-193650471D01*
X214958025Y-193650471D02*
X214886596Y-193507614D01*
X214886596Y-193507614D02*
X214815168Y-193221900D01*
X214815168Y-193221900D02*
X214815168Y-192864757D01*
X214815168Y-192864757D02*
X214886596Y-192579042D01*
X214886596Y-192579042D02*
X214958025Y-192436185D01*
X214958025Y-192436185D02*
X215029454Y-192364757D01*
X215029454Y-192364757D02*
X215172311Y-192293328D01*
X216958025Y-192293328D02*
X216672310Y-192293328D01*
X216672310Y-192293328D02*
X216529453Y-192364757D01*
X216529453Y-192364757D02*
X216458025Y-192436185D01*
X216458025Y-192436185D02*
X216315167Y-192650471D01*
X216315167Y-192650471D02*
X216243739Y-192936185D01*
X216243739Y-192936185D02*
X216243739Y-193507614D01*
X216243739Y-193507614D02*
X216315167Y-193650471D01*
X216315167Y-193650471D02*
X216386596Y-193721900D01*
X216386596Y-193721900D02*
X216529453Y-193793328D01*
X216529453Y-193793328D02*
X216815167Y-193793328D01*
X216815167Y-193793328D02*
X216958025Y-193721900D01*
X216958025Y-193721900D02*
X217029453Y-193650471D01*
X217029453Y-193650471D02*
X217100882Y-193507614D01*
X217100882Y-193507614D02*
X217100882Y-193150471D01*
X217100882Y-193150471D02*
X217029453Y-193007614D01*
X217029453Y-193007614D02*
X216958025Y-192936185D01*
X216958025Y-192936185D02*
X216815167Y-192864757D01*
X216815167Y-192864757D02*
X216529453Y-192864757D01*
X216529453Y-192864757D02*
X216386596Y-192936185D01*
X216386596Y-192936185D02*
X216315167Y-193007614D01*
X216315167Y-193007614D02*
X216243739Y-193150471D01*
X217743738Y-193221900D02*
X218886596Y-193221900D01*
X219886596Y-192293328D02*
X220029453Y-192293328D01*
X220029453Y-192293328D02*
X220172310Y-192364757D01*
X220172310Y-192364757D02*
X220243739Y-192436185D01*
X220243739Y-192436185D02*
X220315167Y-192579042D01*
X220315167Y-192579042D02*
X220386596Y-192864757D01*
X220386596Y-192864757D02*
X220386596Y-193221900D01*
X220386596Y-193221900D02*
X220315167Y-193507614D01*
X220315167Y-193507614D02*
X220243739Y-193650471D01*
X220243739Y-193650471D02*
X220172310Y-193721900D01*
X220172310Y-193721900D02*
X220029453Y-193793328D01*
X220029453Y-193793328D02*
X219886596Y-193793328D01*
X219886596Y-193793328D02*
X219743739Y-193721900D01*
X219743739Y-193721900D02*
X219672310Y-193650471D01*
X219672310Y-193650471D02*
X219600881Y-193507614D01*
X219600881Y-193507614D02*
X219529453Y-193221900D01*
X219529453Y-193221900D02*
X219529453Y-192864757D01*
X219529453Y-192864757D02*
X219600881Y-192579042D01*
X219600881Y-192579042D02*
X219672310Y-192436185D01*
X219672310Y-192436185D02*
X219743739Y-192364757D01*
X219743739Y-192364757D02*
X219886596Y-192293328D01*
X221100881Y-193793328D02*
X221386595Y-193793328D01*
X221386595Y-193793328D02*
X221529452Y-193721900D01*
X221529452Y-193721900D02*
X221600881Y-193650471D01*
X221600881Y-193650471D02*
X221743738Y-193436185D01*
X221743738Y-193436185D02*
X221815167Y-193150471D01*
X221815167Y-193150471D02*
X221815167Y-192579042D01*
X221815167Y-192579042D02*
X221743738Y-192436185D01*
X221743738Y-192436185D02*
X221672310Y-192364757D01*
X221672310Y-192364757D02*
X221529452Y-192293328D01*
X221529452Y-192293328D02*
X221243738Y-192293328D01*
X221243738Y-192293328D02*
X221100881Y-192364757D01*
X221100881Y-192364757D02*
X221029452Y-192436185D01*
X221029452Y-192436185D02*
X220958024Y-192579042D01*
X220958024Y-192579042D02*
X220958024Y-192936185D01*
X220958024Y-192936185D02*
X221029452Y-193079042D01*
X221029452Y-193079042D02*
X221100881Y-193150471D01*
X221100881Y-193150471D02*
X221243738Y-193221900D01*
X221243738Y-193221900D02*
X221529452Y-193221900D01*
X221529452Y-193221900D02*
X221672310Y-193150471D01*
X221672310Y-193150471D02*
X221743738Y-193079042D01*
X221743738Y-193079042D02*
X221815167Y-192936185D01*
D10*
D11*
X177002200Y-194507200D02*
X285002200Y-194507200D01*
D10*
D11*
X178458026Y-196593328D02*
X178458026Y-195093328D01*
X179315169Y-196593328D02*
X178672312Y-195736185D01*
X179315169Y-195093328D02*
X178458026Y-195950471D01*
X179958026Y-196593328D02*
X179958026Y-195593328D01*
X179958026Y-195093328D02*
X179886598Y-195164757D01*
X179886598Y-195164757D02*
X179958026Y-195236185D01*
X179958026Y-195236185D02*
X180029455Y-195164757D01*
X180029455Y-195164757D02*
X179958026Y-195093328D01*
X179958026Y-195093328D02*
X179958026Y-195236185D01*
X181529455Y-196450471D02*
X181458027Y-196521900D01*
X181458027Y-196521900D02*
X181243741Y-196593328D01*
X181243741Y-196593328D02*
X181100884Y-196593328D01*
X181100884Y-196593328D02*
X180886598Y-196521900D01*
X180886598Y-196521900D02*
X180743741Y-196379042D01*
X180743741Y-196379042D02*
X180672312Y-196236185D01*
X180672312Y-196236185D02*
X180600884Y-195950471D01*
X180600884Y-195950471D02*
X180600884Y-195736185D01*
X180600884Y-195736185D02*
X180672312Y-195450471D01*
X180672312Y-195450471D02*
X180743741Y-195307614D01*
X180743741Y-195307614D02*
X180886598Y-195164757D01*
X180886598Y-195164757D02*
X181100884Y-195093328D01*
X181100884Y-195093328D02*
X181243741Y-195093328D01*
X181243741Y-195093328D02*
X181458027Y-195164757D01*
X181458027Y-195164757D02*
X181529455Y-195236185D01*
X182815170Y-196593328D02*
X182815170Y-195807614D01*
X182815170Y-195807614D02*
X182743741Y-195664757D01*
X182743741Y-195664757D02*
X182600884Y-195593328D01*
X182600884Y-195593328D02*
X182315170Y-195593328D01*
X182315170Y-195593328D02*
X182172312Y-195664757D01*
X182815170Y-196521900D02*
X182672312Y-196593328D01*
X182672312Y-196593328D02*
X182315170Y-196593328D01*
X182315170Y-196593328D02*
X182172312Y-196521900D01*
X182172312Y-196521900D02*
X182100884Y-196379042D01*
X182100884Y-196379042D02*
X182100884Y-196236185D01*
X182100884Y-196236185D02*
X182172312Y-196093328D01*
X182172312Y-196093328D02*
X182315170Y-196021900D01*
X182315170Y-196021900D02*
X182672312Y-196021900D01*
X182672312Y-196021900D02*
X182815170Y-195950471D01*
X184172313Y-196593328D02*
X184172313Y-195093328D01*
X184172313Y-196521900D02*
X184029455Y-196593328D01*
X184029455Y-196593328D02*
X183743741Y-196593328D01*
X183743741Y-196593328D02*
X183600884Y-196521900D01*
X183600884Y-196521900D02*
X183529455Y-196450471D01*
X183529455Y-196450471D02*
X183458027Y-196307614D01*
X183458027Y-196307614D02*
X183458027Y-195879042D01*
X183458027Y-195879042D02*
X183529455Y-195736185D01*
X183529455Y-195736185D02*
X183600884Y-195664757D01*
X183600884Y-195664757D02*
X183743741Y-195593328D01*
X183743741Y-195593328D02*
X184029455Y-195593328D01*
X184029455Y-195593328D02*
X184172313Y-195664757D01*
X186029455Y-195807614D02*
X186529455Y-195807614D01*
X186743741Y-196593328D02*
X186029455Y-196593328D01*
X186029455Y-196593328D02*
X186029455Y-195093328D01*
X186029455Y-195093328D02*
X186743741Y-195093328D01*
X187386598Y-196450471D02*
X187458027Y-196521900D01*
X187458027Y-196521900D02*
X187386598Y-196593328D01*
X187386598Y-196593328D02*
X187315170Y-196521900D01*
X187315170Y-196521900D02*
X187386598Y-196450471D01*
X187386598Y-196450471D02*
X187386598Y-196593328D01*
X188100884Y-196593328D02*
X188100884Y-195093328D01*
X188100884Y-195093328D02*
X188458027Y-195093328D01*
X188458027Y-195093328D02*
X188672313Y-195164757D01*
X188672313Y-195164757D02*
X188815170Y-195307614D01*
X188815170Y-195307614D02*
X188886599Y-195450471D01*
X188886599Y-195450471D02*
X188958027Y-195736185D01*
X188958027Y-195736185D02*
X188958027Y-195950471D01*
X188958027Y-195950471D02*
X188886599Y-196236185D01*
X188886599Y-196236185D02*
X188815170Y-196379042D01*
X188815170Y-196379042D02*
X188672313Y-196521900D01*
X188672313Y-196521900D02*
X188458027Y-196593328D01*
X188458027Y-196593328D02*
X188100884Y-196593328D01*
X189600884Y-196450471D02*
X189672313Y-196521900D01*
X189672313Y-196521900D02*
X189600884Y-196593328D01*
X189600884Y-196593328D02*
X189529456Y-196521900D01*
X189529456Y-196521900D02*
X189600884Y-196450471D01*
X189600884Y-196450471D02*
X189600884Y-196593328D01*
X190243742Y-196164757D02*
X190958028Y-196164757D01*
X190100885Y-196593328D02*
X190600885Y-195093328D01*
X190600885Y-195093328D02*
X191100885Y-196593328D01*
X191600884Y-196450471D02*
X191672313Y-196521900D01*
X191672313Y-196521900D02*
X191600884Y-196593328D01*
X191600884Y-196593328D02*
X191529456Y-196521900D01*
X191529456Y-196521900D02*
X191600884Y-196450471D01*
X191600884Y-196450471D02*
X191600884Y-196593328D01*
X193529456Y-196593328D02*
X193815170Y-196593328D01*
X193815170Y-196593328D02*
X193958027Y-196521900D01*
X193958027Y-196521900D02*
X194029456Y-196450471D01*
X194029456Y-196450471D02*
X194172313Y-196236185D01*
X194172313Y-196236185D02*
X194243742Y-195950471D01*
X194243742Y-195950471D02*
X194243742Y-195379042D01*
X194243742Y-195379042D02*
X194172313Y-195236185D01*
X194172313Y-195236185D02*
X194100885Y-195164757D01*
X194100885Y-195164757D02*
X193958027Y-195093328D01*
X193958027Y-195093328D02*
X193672313Y-195093328D01*
X193672313Y-195093328D02*
X193529456Y-195164757D01*
X193529456Y-195164757D02*
X193458027Y-195236185D01*
X193458027Y-195236185D02*
X193386599Y-195379042D01*
X193386599Y-195379042D02*
X193386599Y-195736185D01*
X193386599Y-195736185D02*
X193458027Y-195879042D01*
X193458027Y-195879042D02*
X193529456Y-195950471D01*
X193529456Y-195950471D02*
X193672313Y-196021900D01*
X193672313Y-196021900D02*
X193958027Y-196021900D01*
X193958027Y-196021900D02*
X194100885Y-195950471D01*
X194100885Y-195950471D02*
X194172313Y-195879042D01*
X194172313Y-195879042D02*
X194243742Y-195736185D01*
X194886598Y-196450471D02*
X194958027Y-196521900D01*
X194958027Y-196521900D02*
X194886598Y-196593328D01*
X194886598Y-196593328D02*
X194815170Y-196521900D01*
X194815170Y-196521900D02*
X194886598Y-196450471D01*
X194886598Y-196450471D02*
X194886598Y-196593328D01*
X195886599Y-195093328D02*
X196029456Y-195093328D01*
X196029456Y-195093328D02*
X196172313Y-195164757D01*
X196172313Y-195164757D02*
X196243742Y-195236185D01*
X196243742Y-195236185D02*
X196315170Y-195379042D01*
X196315170Y-195379042D02*
X196386599Y-195664757D01*
X196386599Y-195664757D02*
X196386599Y-196021900D01*
X196386599Y-196021900D02*
X196315170Y-196307614D01*
X196315170Y-196307614D02*
X196243742Y-196450471D01*
X196243742Y-196450471D02*
X196172313Y-196521900D01*
X196172313Y-196521900D02*
X196029456Y-196593328D01*
X196029456Y-196593328D02*
X195886599Y-196593328D01*
X195886599Y-196593328D02*
X195743742Y-196521900D01*
X195743742Y-196521900D02*
X195672313Y-196450471D01*
X195672313Y-196450471D02*
X195600884Y-196307614D01*
X195600884Y-196307614D02*
X195529456Y-196021900D01*
X195529456Y-196021900D02*
X195529456Y-195664757D01*
X195529456Y-195664757D02*
X195600884Y-195379042D01*
X195600884Y-195379042D02*
X195672313Y-195236185D01*
X195672313Y-195236185D02*
X195743742Y-195164757D01*
X195743742Y-195164757D02*
X195886599Y-195093328D01*
X197029455Y-196450471D02*
X197100884Y-196521900D01*
X197100884Y-196521900D02*
X197029455Y-196593328D01*
X197029455Y-196593328D02*
X196958027Y-196521900D01*
X196958027Y-196521900D02*
X197029455Y-196450471D01*
X197029455Y-196450471D02*
X197029455Y-196593328D01*
X198029456Y-195093328D02*
X198172313Y-195093328D01*
X198172313Y-195093328D02*
X198315170Y-195164757D01*
X198315170Y-195164757D02*
X198386599Y-195236185D01*
X198386599Y-195236185D02*
X198458027Y-195379042D01*
X198458027Y-195379042D02*
X198529456Y-195664757D01*
X198529456Y-195664757D02*
X198529456Y-196021900D01*
X198529456Y-196021900D02*
X198458027Y-196307614D01*
X198458027Y-196307614D02*
X198386599Y-196450471D01*
X198386599Y-196450471D02*
X198315170Y-196521900D01*
X198315170Y-196521900D02*
X198172313Y-196593328D01*
X198172313Y-196593328D02*
X198029456Y-196593328D01*
X198029456Y-196593328D02*
X197886599Y-196521900D01*
X197886599Y-196521900D02*
X197815170Y-196450471D01*
X197815170Y-196450471D02*
X197743741Y-196307614D01*
X197743741Y-196307614D02*
X197672313Y-196021900D01*
X197672313Y-196021900D02*
X197672313Y-195664757D01*
X197672313Y-195664757D02*
X197743741Y-195379042D01*
X197743741Y-195379042D02*
X197815170Y-195236185D01*
X197815170Y-195236185D02*
X197886599Y-195164757D01*
X197886599Y-195164757D02*
X198029456Y-195093328D01*
D10*
D11*
X177002200Y-191507200D02*
X285002200Y-191507200D01*
D10*
D12*
X264413853Y-193785528D02*
X263913853Y-193071242D01*
X263556710Y-193785528D02*
X263556710Y-192285528D01*
X263556710Y-192285528D02*
X264128139Y-192285528D01*
X264128139Y-192285528D02*
X264270996Y-192356957D01*
X264270996Y-192356957D02*
X264342425Y-192428385D01*
X264342425Y-192428385D02*
X264413853Y-192571242D01*
X264413853Y-192571242D02*
X264413853Y-192785528D01*
X264413853Y-192785528D02*
X264342425Y-192928385D01*
X264342425Y-192928385D02*
X264270996Y-192999814D01*
X264270996Y-192999814D02*
X264128139Y-193071242D01*
X264128139Y-193071242D02*
X263556710Y-193071242D01*
X265628139Y-193714100D02*
X265485282Y-193785528D01*
X265485282Y-193785528D02*
X265199568Y-193785528D01*
X265199568Y-193785528D02*
X265056710Y-193714100D01*
X265056710Y-193714100D02*
X264985282Y-193571242D01*
X264985282Y-193571242D02*
X264985282Y-192999814D01*
X264985282Y-192999814D02*
X265056710Y-192856957D01*
X265056710Y-192856957D02*
X265199568Y-192785528D01*
X265199568Y-192785528D02*
X265485282Y-192785528D01*
X265485282Y-192785528D02*
X265628139Y-192856957D01*
X265628139Y-192856957D02*
X265699568Y-192999814D01*
X265699568Y-192999814D02*
X265699568Y-193142671D01*
X265699568Y-193142671D02*
X264985282Y-193285528D01*
X266199567Y-192785528D02*
X266556710Y-193785528D01*
X266556710Y-193785528D02*
X266913853Y-192785528D01*
X267485281Y-193642671D02*
X267556710Y-193714100D01*
X267556710Y-193714100D02*
X267485281Y-193785528D01*
X267485281Y-193785528D02*
X267413853Y-193714100D01*
X267413853Y-193714100D02*
X267485281Y-193642671D01*
X267485281Y-193642671D02*
X267485281Y-193785528D01*
X267485281Y-192856957D02*
X267556710Y-192928385D01*
X267556710Y-192928385D02*
X267485281Y-192999814D01*
X267485281Y-192999814D02*
X267413853Y-192928385D01*
X267413853Y-192928385D02*
X267485281Y-192856957D01*
X267485281Y-192856957D02*
X267485281Y-192999814D01*
X270128139Y-193785528D02*
X269270996Y-193785528D01*
X269699567Y-193785528D02*
X269699567Y-192285528D01*
X269699567Y-192285528D02*
X269556710Y-192499814D01*
X269556710Y-192499814D02*
X269413853Y-192642671D01*
X269413853Y-192642671D02*
X269270996Y-192714100D01*
X270770995Y-193642671D02*
X270842424Y-193714100D01*
X270842424Y-193714100D02*
X270770995Y-193785528D01*
X270770995Y-193785528D02*
X270699567Y-193714100D01*
X270699567Y-193714100D02*
X270770995Y-193642671D01*
X270770995Y-193642671D02*
X270770995Y-193785528D01*
X271770996Y-192285528D02*
X271913853Y-192285528D01*
X271913853Y-192285528D02*
X272056710Y-192356957D01*
X272056710Y-192356957D02*
X272128139Y-192428385D01*
X272128139Y-192428385D02*
X272199567Y-192571242D01*
X272199567Y-192571242D02*
X272270996Y-192856957D01*
X272270996Y-192856957D02*
X272270996Y-193214100D01*
X272270996Y-193214100D02*
X272199567Y-193499814D01*
X272199567Y-193499814D02*
X272128139Y-193642671D01*
X272128139Y-193642671D02*
X272056710Y-193714100D01*
X272056710Y-193714100D02*
X271913853Y-193785528D01*
X271913853Y-193785528D02*
X271770996Y-193785528D01*
X271770996Y-193785528D02*
X271628139Y-193714100D01*
X271628139Y-193714100D02*
X271556710Y-193642671D01*
X271556710Y-193642671D02*
X271485281Y-193499814D01*
X271485281Y-193499814D02*
X271413853Y-193214100D01*
X271413853Y-193214100D02*
X271413853Y-192856957D01*
X271413853Y-192856957D02*
X271485281Y-192571242D01*
X271485281Y-192571242D02*
X271556710Y-192428385D01*
X271556710Y-192428385D02*
X271628139Y-192356957D01*
X271628139Y-192356957D02*
X271770996Y-192285528D01*
D10*
D11*
X178386598Y-193721900D02*
X178600884Y-193793328D01*
X178600884Y-193793328D02*
X178958026Y-193793328D01*
X178958026Y-193793328D02*
X179100884Y-193721900D01*
X179100884Y-193721900D02*
X179172312Y-193650471D01*
X179172312Y-193650471D02*
X179243741Y-193507614D01*
X179243741Y-193507614D02*
X179243741Y-193364757D01*
X179243741Y-193364757D02*
X179172312Y-193221900D01*
X179172312Y-193221900D02*
X179100884Y-193150471D01*
X179100884Y-193150471D02*
X178958026Y-193079042D01*
X178958026Y-193079042D02*
X178672312Y-193007614D01*
X178672312Y-193007614D02*
X178529455Y-192936185D01*
X178529455Y-192936185D02*
X178458026Y-192864757D01*
X178458026Y-192864757D02*
X178386598Y-192721900D01*
X178386598Y-192721900D02*
X178386598Y-192579042D01*
X178386598Y-192579042D02*
X178458026Y-192436185D01*
X178458026Y-192436185D02*
X178529455Y-192364757D01*
X178529455Y-192364757D02*
X178672312Y-192293328D01*
X178672312Y-192293328D02*
X179029455Y-192293328D01*
X179029455Y-192293328D02*
X179243741Y-192364757D01*
X179886597Y-193793328D02*
X179886597Y-192793328D01*
X179886597Y-192293328D02*
X179815169Y-192364757D01*
X179815169Y-192364757D02*
X179886597Y-192436185D01*
X179886597Y-192436185D02*
X179958026Y-192364757D01*
X179958026Y-192364757D02*
X179886597Y-192293328D01*
X179886597Y-192293328D02*
X179886597Y-192436185D01*
X180458026Y-192793328D02*
X181243741Y-192793328D01*
X181243741Y-192793328D02*
X180458026Y-193793328D01*
X180458026Y-193793328D02*
X181243741Y-193793328D01*
X182386598Y-193721900D02*
X182243741Y-193793328D01*
X182243741Y-193793328D02*
X181958027Y-193793328D01*
X181958027Y-193793328D02*
X181815169Y-193721900D01*
X181815169Y-193721900D02*
X181743741Y-193579042D01*
X181743741Y-193579042D02*
X181743741Y-193007614D01*
X181743741Y-193007614D02*
X181815169Y-192864757D01*
X181815169Y-192864757D02*
X181958027Y-192793328D01*
X181958027Y-192793328D02*
X182243741Y-192793328D01*
X182243741Y-192793328D02*
X182386598Y-192864757D01*
X182386598Y-192864757D02*
X182458027Y-193007614D01*
X182458027Y-193007614D02*
X182458027Y-193150471D01*
X182458027Y-193150471D02*
X181743741Y-193293328D01*
X183100883Y-193650471D02*
X183172312Y-193721900D01*
X183172312Y-193721900D02*
X183100883Y-193793328D01*
X183100883Y-193793328D02*
X183029455Y-193721900D01*
X183029455Y-193721900D02*
X183100883Y-193650471D01*
X183100883Y-193650471D02*
X183100883Y-193793328D01*
X183100883Y-192864757D02*
X183172312Y-192936185D01*
X183172312Y-192936185D02*
X183100883Y-193007614D01*
X183100883Y-193007614D02*
X183029455Y-192936185D01*
X183029455Y-192936185D02*
X183100883Y-192864757D01*
X183100883Y-192864757D02*
X183100883Y-193007614D01*
X184886598Y-193364757D02*
X185600884Y-193364757D01*
X184743741Y-193793328D02*
X185243741Y-192293328D01*
X185243741Y-192293328D02*
X185743741Y-193793328D01*
X186886598Y-192793328D02*
X186886598Y-193793328D01*
X186529455Y-192221900D02*
X186172312Y-193293328D01*
X186172312Y-193293328D02*
X187100883Y-193293328D01*
D10*
D11*
X263458026Y-196593328D02*
X263458026Y-195093328D01*
X264815170Y-196593328D02*
X264815170Y-195093328D01*
X264815170Y-196521900D02*
X264672312Y-196593328D01*
X264672312Y-196593328D02*
X264386598Y-196593328D01*
X264386598Y-196593328D02*
X264243741Y-196521900D01*
X264243741Y-196521900D02*
X264172312Y-196450471D01*
X264172312Y-196450471D02*
X264100884Y-196307614D01*
X264100884Y-196307614D02*
X264100884Y-195879042D01*
X264100884Y-195879042D02*
X264172312Y-195736185D01*
X264172312Y-195736185D02*
X264243741Y-195664757D01*
X264243741Y-195664757D02*
X264386598Y-195593328D01*
X264386598Y-195593328D02*
X264672312Y-195593328D01*
X264672312Y-195593328D02*
X264815170Y-195664757D01*
X265529455Y-196450471D02*
X265600884Y-196521900D01*
X265600884Y-196521900D02*
X265529455Y-196593328D01*
X265529455Y-196593328D02*
X265458027Y-196521900D01*
X265458027Y-196521900D02*
X265529455Y-196450471D01*
X265529455Y-196450471D02*
X265529455Y-196593328D01*
X265529455Y-195664757D02*
X265600884Y-195736185D01*
X265600884Y-195736185D02*
X265529455Y-195807614D01*
X265529455Y-195807614D02*
X265458027Y-195736185D01*
X265458027Y-195736185D02*
X265529455Y-195664757D01*
X265529455Y-195664757D02*
X265529455Y-195807614D01*
X268029456Y-195093328D02*
X267743741Y-195093328D01*
X267743741Y-195093328D02*
X267600884Y-195164757D01*
X267600884Y-195164757D02*
X267529456Y-195236185D01*
X267529456Y-195236185D02*
X267386598Y-195450471D01*
X267386598Y-195450471D02*
X267315170Y-195736185D01*
X267315170Y-195736185D02*
X267315170Y-196307614D01*
X267315170Y-196307614D02*
X267386598Y-196450471D01*
X267386598Y-196450471D02*
X267458027Y-196521900D01*
X267458027Y-196521900D02*
X267600884Y-196593328D01*
X267600884Y-196593328D02*
X267886598Y-196593328D01*
X267886598Y-196593328D02*
X268029456Y-196521900D01*
X268029456Y-196521900D02*
X268100884Y-196450471D01*
X268100884Y-196450471D02*
X268172313Y-196307614D01*
X268172313Y-196307614D02*
X268172313Y-195950471D01*
X268172313Y-195950471D02*
X268100884Y-195807614D01*
X268100884Y-195807614D02*
X268029456Y-195736185D01*
X268029456Y-195736185D02*
X267886598Y-195664757D01*
X267886598Y-195664757D02*
X267600884Y-195664757D01*
X267600884Y-195664757D02*
X267458027Y-195736185D01*
X267458027Y-195736185D02*
X267386598Y-195807614D01*
X267386598Y-195807614D02*
X267315170Y-195950471D01*
X269886598Y-195021900D02*
X268600884Y-196950471D01*
X271172313Y-196593328D02*
X270315170Y-196593328D01*
X270743741Y-196593328D02*
X270743741Y-195093328D01*
X270743741Y-195093328D02*
X270600884Y-195307614D01*
X270600884Y-195307614D02*
X270458027Y-195450471D01*
X270458027Y-195450471D02*
X270315170Y-195521900D01*
X272100884Y-195093328D02*
X272243741Y-195093328D01*
X272243741Y-195093328D02*
X272386598Y-195164757D01*
X272386598Y-195164757D02*
X272458027Y-195236185D01*
X272458027Y-195236185D02*
X272529455Y-195379042D01*
X272529455Y-195379042D02*
X272600884Y-195664757D01*
X272600884Y-195664757D02*
X272600884Y-196021900D01*
X272600884Y-196021900D02*
X272529455Y-196307614D01*
X272529455Y-196307614D02*
X272458027Y-196450471D01*
X272458027Y-196450471D02*
X272386598Y-196521900D01*
X272386598Y-196521900D02*
X272243741Y-196593328D01*
X272243741Y-196593328D02*
X272100884Y-196593328D01*
X272100884Y-196593328D02*
X271958027Y-196521900D01*
X271958027Y-196521900D02*
X271886598Y-196450471D01*
X271886598Y-196450471D02*
X271815169Y-196307614D01*
X271815169Y-196307614D02*
X271743741Y-196021900D01*
X271743741Y-196021900D02*
X271743741Y-195664757D01*
X271743741Y-195664757D02*
X271815169Y-195379042D01*
X271815169Y-195379042D02*
X271886598Y-195236185D01*
X271886598Y-195236185D02*
X271958027Y-195164757D01*
X271958027Y-195164757D02*
X272100884Y-195093328D01*
D10*
D11*
X177002200Y-187507200D02*
X285002200Y-187507200D01*
D10*
D13*
X178693928Y-188211638D02*
X179836785Y-188211638D01*
X179015357Y-190211638D02*
X179265357Y-188211638D01*
X180253452Y-190211638D02*
X180420119Y-188878304D01*
X180503452Y-188211638D02*
X180396309Y-188306876D01*
X180396309Y-188306876D02*
X180479643Y-188402114D01*
X180479643Y-188402114D02*
X180586786Y-188306876D01*
X180586786Y-188306876D02*
X180503452Y-188211638D01*
X180503452Y-188211638D02*
X180479643Y-188402114D01*
X181086786Y-188878304D02*
X181848690Y-188878304D01*
X181455833Y-188211638D02*
X181241548Y-189925923D01*
X181241548Y-189925923D02*
X181312976Y-190116400D01*
X181312976Y-190116400D02*
X181491548Y-190211638D01*
X181491548Y-190211638D02*
X181682024Y-190211638D01*
X182634405Y-190211638D02*
X182455833Y-190116400D01*
X182455833Y-190116400D02*
X182384405Y-189925923D01*
X182384405Y-189925923D02*
X182598690Y-188211638D01*
X184170119Y-190116400D02*
X183967738Y-190211638D01*
X183967738Y-190211638D02*
X183586785Y-190211638D01*
X183586785Y-190211638D02*
X183408214Y-190116400D01*
X183408214Y-190116400D02*
X183336785Y-189925923D01*
X183336785Y-189925923D02*
X183432024Y-189164019D01*
X183432024Y-189164019D02*
X183551071Y-188973542D01*
X183551071Y-188973542D02*
X183753452Y-188878304D01*
X183753452Y-188878304D02*
X184134404Y-188878304D01*
X184134404Y-188878304D02*
X184312976Y-188973542D01*
X184312976Y-188973542D02*
X184384404Y-189164019D01*
X184384404Y-189164019D02*
X184360595Y-189354495D01*
X184360595Y-189354495D02*
X183384404Y-189544971D01*
X185134405Y-190021161D02*
X185217738Y-190116400D01*
X185217738Y-190116400D02*
X185110595Y-190211638D01*
X185110595Y-190211638D02*
X185027262Y-190116400D01*
X185027262Y-190116400D02*
X185134405Y-190021161D01*
X185134405Y-190021161D02*
X185110595Y-190211638D01*
X185265357Y-188973542D02*
X185348690Y-189068780D01*
X185348690Y-189068780D02*
X185241548Y-189164019D01*
X185241548Y-189164019D02*
X185158214Y-189068780D01*
X185158214Y-189068780D02*
X185265357Y-188973542D01*
X185265357Y-188973542D02*
X185241548Y-189164019D01*
X187562977Y-189640209D02*
X188515358Y-189640209D01*
X187301072Y-190211638D02*
X188217739Y-188211638D01*
X188217739Y-188211638D02*
X188634405Y-190211638D01*
X190443929Y-190211638D02*
X189896310Y-189259257D01*
X189301072Y-190211638D02*
X189551072Y-188211638D01*
X189551072Y-188211638D02*
X190312977Y-188211638D01*
X190312977Y-188211638D02*
X190491548Y-188306876D01*
X190491548Y-188306876D02*
X190574882Y-188402114D01*
X190574882Y-188402114D02*
X190646310Y-188592590D01*
X190646310Y-188592590D02*
X190610596Y-188878304D01*
X190610596Y-188878304D02*
X190491548Y-189068780D01*
X190491548Y-189068780D02*
X190384406Y-189164019D01*
X190384406Y-189164019D02*
X190182025Y-189259257D01*
X190182025Y-189259257D02*
X189420120Y-189259257D01*
X191301072Y-190211638D02*
X191551072Y-188211638D01*
X191551072Y-188211638D02*
X192039167Y-189640209D01*
X192039167Y-189640209D02*
X192884406Y-188211638D01*
X192884406Y-188211638D02*
X192634406Y-190211638D01*
X195027263Y-190116400D02*
X195301072Y-190211638D01*
X195301072Y-190211638D02*
X195777263Y-190211638D01*
X195777263Y-190211638D02*
X195979644Y-190116400D01*
X195979644Y-190116400D02*
X196086787Y-190021161D01*
X196086787Y-190021161D02*
X196205834Y-189830685D01*
X196205834Y-189830685D02*
X196229644Y-189640209D01*
X196229644Y-189640209D02*
X196158215Y-189449733D01*
X196158215Y-189449733D02*
X196074882Y-189354495D01*
X196074882Y-189354495D02*
X195896311Y-189259257D01*
X195896311Y-189259257D02*
X195527263Y-189164019D01*
X195527263Y-189164019D02*
X195348691Y-189068780D01*
X195348691Y-189068780D02*
X195265358Y-188973542D01*
X195265358Y-188973542D02*
X195193930Y-188783066D01*
X195193930Y-188783066D02*
X195217739Y-188592590D01*
X195217739Y-188592590D02*
X195336787Y-188402114D01*
X195336787Y-188402114D02*
X195443930Y-188306876D01*
X195443930Y-188306876D02*
X195646311Y-188211638D01*
X195646311Y-188211638D02*
X196122501Y-188211638D01*
X196122501Y-188211638D02*
X196396311Y-188306876D01*
X197789168Y-190116400D02*
X197586787Y-190211638D01*
X197586787Y-190211638D02*
X197205834Y-190211638D01*
X197205834Y-190211638D02*
X197027263Y-190116400D01*
X197027263Y-190116400D02*
X196955834Y-189925923D01*
X196955834Y-189925923D02*
X197051073Y-189164019D01*
X197051073Y-189164019D02*
X197170120Y-188973542D01*
X197170120Y-188973542D02*
X197372501Y-188878304D01*
X197372501Y-188878304D02*
X197753453Y-188878304D01*
X197753453Y-188878304D02*
X197932025Y-188973542D01*
X197932025Y-188973542D02*
X198003453Y-189164019D01*
X198003453Y-189164019D02*
X197979644Y-189354495D01*
X197979644Y-189354495D02*
X197003453Y-189544971D01*
X198729644Y-190211638D02*
X198896311Y-188878304D01*
X198872501Y-189068780D02*
X198979644Y-188973542D01*
X198979644Y-188973542D02*
X199182025Y-188878304D01*
X199182025Y-188878304D02*
X199467739Y-188878304D01*
X199467739Y-188878304D02*
X199646311Y-188973542D01*
X199646311Y-188973542D02*
X199717739Y-189164019D01*
X199717739Y-189164019D02*
X199586787Y-190211638D01*
X199717739Y-189164019D02*
X199836787Y-188973542D01*
X199836787Y-188973542D02*
X200039168Y-188878304D01*
X200039168Y-188878304D02*
X200324882Y-188878304D01*
X200324882Y-188878304D02*
X200503454Y-188973542D01*
X200503454Y-188973542D02*
X200574882Y-189164019D01*
X200574882Y-189164019D02*
X200443930Y-190211638D01*
X201396311Y-190211638D02*
X201562978Y-188878304D01*
X201646311Y-188211638D02*
X201539168Y-188306876D01*
X201539168Y-188306876D02*
X201622502Y-188402114D01*
X201622502Y-188402114D02*
X201729645Y-188306876D01*
X201729645Y-188306876D02*
X201646311Y-188211638D01*
X201646311Y-188211638D02*
X201622502Y-188402114D01*
X202515359Y-188878304D02*
X202348692Y-190211638D01*
X202491549Y-189068780D02*
X202598692Y-188973542D01*
X202598692Y-188973542D02*
X202801073Y-188878304D01*
X202801073Y-188878304D02*
X203086787Y-188878304D01*
X203086787Y-188878304D02*
X203265359Y-188973542D01*
X203265359Y-188973542D02*
X203336787Y-189164019D01*
X203336787Y-189164019D02*
X203205835Y-190211638D01*
X205015359Y-190211638D02*
X205146311Y-189164019D01*
X205146311Y-189164019D02*
X205074883Y-188973542D01*
X205074883Y-188973542D02*
X204896311Y-188878304D01*
X204896311Y-188878304D02*
X204515359Y-188878304D01*
X204515359Y-188878304D02*
X204312978Y-188973542D01*
X205027264Y-190116400D02*
X204824883Y-190211638D01*
X204824883Y-190211638D02*
X204348692Y-190211638D01*
X204348692Y-190211638D02*
X204170121Y-190116400D01*
X204170121Y-190116400D02*
X204098692Y-189925923D01*
X204098692Y-189925923D02*
X204122502Y-189735447D01*
X204122502Y-189735447D02*
X204241550Y-189544971D01*
X204241550Y-189544971D02*
X204443931Y-189449733D01*
X204443931Y-189449733D02*
X204920121Y-189449733D01*
X204920121Y-189449733D02*
X205122502Y-189354495D01*
X205967740Y-190211638D02*
X206134407Y-188878304D01*
X206086788Y-189259257D02*
X206205835Y-189068780D01*
X206205835Y-189068780D02*
X206312978Y-188973542D01*
X206312978Y-188973542D02*
X206515359Y-188878304D01*
X206515359Y-188878304D02*
X206705835Y-188878304D01*
X209527264Y-189164019D02*
X209801074Y-189259257D01*
X209801074Y-189259257D02*
X209884407Y-189354495D01*
X209884407Y-189354495D02*
X209955836Y-189544971D01*
X209955836Y-189544971D02*
X209920121Y-189830685D01*
X209920121Y-189830685D02*
X209801074Y-190021161D01*
X209801074Y-190021161D02*
X209693931Y-190116400D01*
X209693931Y-190116400D02*
X209491550Y-190211638D01*
X209491550Y-190211638D02*
X208729645Y-190211638D01*
X208729645Y-190211638D02*
X208979645Y-188211638D01*
X208979645Y-188211638D02*
X209646312Y-188211638D01*
X209646312Y-188211638D02*
X209824883Y-188306876D01*
X209824883Y-188306876D02*
X209908217Y-188402114D01*
X209908217Y-188402114D02*
X209979645Y-188592590D01*
X209979645Y-188592590D02*
X209955836Y-188783066D01*
X209955836Y-188783066D02*
X209836788Y-188973542D01*
X209836788Y-188973542D02*
X209729645Y-189068780D01*
X209729645Y-189068780D02*
X209527264Y-189164019D01*
X209527264Y-189164019D02*
X208860598Y-189164019D01*
X211015360Y-190211638D02*
X210836788Y-190116400D01*
X210836788Y-190116400D02*
X210753455Y-190021161D01*
X210753455Y-190021161D02*
X210682026Y-189830685D01*
X210682026Y-189830685D02*
X210753455Y-189259257D01*
X210753455Y-189259257D02*
X210872502Y-189068780D01*
X210872502Y-189068780D02*
X210979645Y-188973542D01*
X210979645Y-188973542D02*
X211182026Y-188878304D01*
X211182026Y-188878304D02*
X211467740Y-188878304D01*
X211467740Y-188878304D02*
X211646312Y-188973542D01*
X211646312Y-188973542D02*
X211729645Y-189068780D01*
X211729645Y-189068780D02*
X211801074Y-189259257D01*
X211801074Y-189259257D02*
X211729645Y-189830685D01*
X211729645Y-189830685D02*
X211610598Y-190021161D01*
X211610598Y-190021161D02*
X211503455Y-190116400D01*
X211503455Y-190116400D02*
X211301074Y-190211638D01*
X211301074Y-190211638D02*
X211015360Y-190211638D01*
X213396312Y-190211638D02*
X213527264Y-189164019D01*
X213527264Y-189164019D02*
X213455836Y-188973542D01*
X213455836Y-188973542D02*
X213277264Y-188878304D01*
X213277264Y-188878304D02*
X212896312Y-188878304D01*
X212896312Y-188878304D02*
X212693931Y-188973542D01*
X213408217Y-190116400D02*
X213205836Y-190211638D01*
X213205836Y-190211638D02*
X212729645Y-190211638D01*
X212729645Y-190211638D02*
X212551074Y-190116400D01*
X212551074Y-190116400D02*
X212479645Y-189925923D01*
X212479645Y-189925923D02*
X212503455Y-189735447D01*
X212503455Y-189735447D02*
X212622503Y-189544971D01*
X212622503Y-189544971D02*
X212824884Y-189449733D01*
X212824884Y-189449733D02*
X213301074Y-189449733D01*
X213301074Y-189449733D02*
X213503455Y-189354495D01*
X214348693Y-190211638D02*
X214515360Y-188878304D01*
X214467741Y-189259257D02*
X214586788Y-189068780D01*
X214586788Y-189068780D02*
X214693931Y-188973542D01*
X214693931Y-188973542D02*
X214896312Y-188878304D01*
X214896312Y-188878304D02*
X215086788Y-188878304D01*
X216443931Y-190211638D02*
X216693931Y-188211638D01*
X216455836Y-190116400D02*
X216253455Y-190211638D01*
X216253455Y-190211638D02*
X215872503Y-190211638D01*
X215872503Y-190211638D02*
X215693931Y-190116400D01*
X215693931Y-190116400D02*
X215610598Y-190021161D01*
X215610598Y-190021161D02*
X215539169Y-189830685D01*
X215539169Y-189830685D02*
X215610598Y-189259257D01*
X215610598Y-189259257D02*
X215729645Y-189068780D01*
X215729645Y-189068780D02*
X215836788Y-188973542D01*
X215836788Y-188973542D02*
X216039169Y-188878304D01*
X216039169Y-188878304D02*
X216420122Y-188878304D01*
X216420122Y-188878304D02*
X216598693Y-188973542D01*
D10*
D11*
X178958026Y-185607614D02*
X178458026Y-185607614D01*
X178458026Y-186393328D02*
X178458026Y-184893328D01*
X178458026Y-184893328D02*
X179172312Y-184893328D01*
X179743740Y-186393328D02*
X179743740Y-185393328D01*
X179743740Y-184893328D02*
X179672312Y-184964757D01*
X179672312Y-184964757D02*
X179743740Y-185036185D01*
X179743740Y-185036185D02*
X179815169Y-184964757D01*
X179815169Y-184964757D02*
X179743740Y-184893328D01*
X179743740Y-184893328D02*
X179743740Y-185036185D01*
X180672312Y-186393328D02*
X180529455Y-186321900D01*
X180529455Y-186321900D02*
X180458026Y-186179042D01*
X180458026Y-186179042D02*
X180458026Y-184893328D01*
X181815169Y-186321900D02*
X181672312Y-186393328D01*
X181672312Y-186393328D02*
X181386598Y-186393328D01*
X181386598Y-186393328D02*
X181243740Y-186321900D01*
X181243740Y-186321900D02*
X181172312Y-186179042D01*
X181172312Y-186179042D02*
X181172312Y-185607614D01*
X181172312Y-185607614D02*
X181243740Y-185464757D01*
X181243740Y-185464757D02*
X181386598Y-185393328D01*
X181386598Y-185393328D02*
X181672312Y-185393328D01*
X181672312Y-185393328D02*
X181815169Y-185464757D01*
X181815169Y-185464757D02*
X181886598Y-185607614D01*
X181886598Y-185607614D02*
X181886598Y-185750471D01*
X181886598Y-185750471D02*
X181172312Y-185893328D01*
X182529454Y-186250471D02*
X182600883Y-186321900D01*
X182600883Y-186321900D02*
X182529454Y-186393328D01*
X182529454Y-186393328D02*
X182458026Y-186321900D01*
X182458026Y-186321900D02*
X182529454Y-186250471D01*
X182529454Y-186250471D02*
X182529454Y-186393328D01*
X182529454Y-185464757D02*
X182600883Y-185536185D01*
X182600883Y-185536185D02*
X182529454Y-185607614D01*
X182529454Y-185607614D02*
X182458026Y-185536185D01*
X182458026Y-185536185D02*
X182529454Y-185464757D01*
X182529454Y-185464757D02*
X182529454Y-185607614D01*
X184315169Y-185964757D02*
X185029455Y-185964757D01*
X184172312Y-186393328D02*
X184672312Y-184893328D01*
X184672312Y-184893328D02*
X185172312Y-186393328D01*
X186529454Y-186393328D02*
X186029454Y-185679042D01*
X185672311Y-186393328D02*
X185672311Y-184893328D01*
X185672311Y-184893328D02*
X186243740Y-184893328D01*
X186243740Y-184893328D02*
X186386597Y-184964757D01*
X186386597Y-184964757D02*
X186458026Y-185036185D01*
X186458026Y-185036185D02*
X186529454Y-185179042D01*
X186529454Y-185179042D02*
X186529454Y-185393328D01*
X186529454Y-185393328D02*
X186458026Y-185536185D01*
X186458026Y-185536185D02*
X186386597Y-185607614D01*
X186386597Y-185607614D02*
X186243740Y-185679042D01*
X186243740Y-185679042D02*
X185672311Y-185679042D01*
X187172311Y-186393328D02*
X187172311Y-184893328D01*
X187172311Y-184893328D02*
X187672311Y-185964757D01*
X187672311Y-185964757D02*
X188172311Y-184893328D01*
X188172311Y-184893328D02*
X188172311Y-186393328D01*
X191172311Y-186250471D02*
X191243740Y-186321900D01*
X191243740Y-186321900D02*
X191172311Y-186393328D01*
X191172311Y-186393328D02*
X191100883Y-186321900D01*
X191100883Y-186321900D02*
X191172311Y-186250471D01*
X191172311Y-186250471D02*
X191172311Y-186393328D01*
X191886597Y-186393328D02*
X191886597Y-184893328D01*
X192029455Y-185821900D02*
X192458026Y-186393328D01*
X192458026Y-185393328D02*
X191886597Y-185964757D01*
X193100883Y-186393328D02*
X193100883Y-185393328D01*
X193100883Y-184893328D02*
X193029455Y-184964757D01*
X193029455Y-184964757D02*
X193100883Y-185036185D01*
X193100883Y-185036185D02*
X193172312Y-184964757D01*
X193172312Y-184964757D02*
X193100883Y-184893328D01*
X193100883Y-184893328D02*
X193100883Y-185036185D01*
X194458027Y-186321900D02*
X194315169Y-186393328D01*
X194315169Y-186393328D02*
X194029455Y-186393328D01*
X194029455Y-186393328D02*
X193886598Y-186321900D01*
X193886598Y-186321900D02*
X193815169Y-186250471D01*
X193815169Y-186250471D02*
X193743741Y-186107614D01*
X193743741Y-186107614D02*
X193743741Y-185679042D01*
X193743741Y-185679042D02*
X193815169Y-185536185D01*
X193815169Y-185536185D02*
X193886598Y-185464757D01*
X193886598Y-185464757D02*
X194029455Y-185393328D01*
X194029455Y-185393328D02*
X194315169Y-185393328D01*
X194315169Y-185393328D02*
X194458027Y-185464757D01*
X195743741Y-186393328D02*
X195743741Y-185607614D01*
X195743741Y-185607614D02*
X195672312Y-185464757D01*
X195672312Y-185464757D02*
X195529455Y-185393328D01*
X195529455Y-185393328D02*
X195243741Y-185393328D01*
X195243741Y-185393328D02*
X195100883Y-185464757D01*
X195743741Y-186321900D02*
X195600883Y-186393328D01*
X195600883Y-186393328D02*
X195243741Y-186393328D01*
X195243741Y-186393328D02*
X195100883Y-186321900D01*
X195100883Y-186321900D02*
X195029455Y-186179042D01*
X195029455Y-186179042D02*
X195029455Y-186036185D01*
X195029455Y-186036185D02*
X195100883Y-185893328D01*
X195100883Y-185893328D02*
X195243741Y-185821900D01*
X195243741Y-185821900D02*
X195600883Y-185821900D01*
X195600883Y-185821900D02*
X195743741Y-185750471D01*
X197100884Y-186393328D02*
X197100884Y-184893328D01*
X197100884Y-186321900D02*
X196958026Y-186393328D01*
X196958026Y-186393328D02*
X196672312Y-186393328D01*
X196672312Y-186393328D02*
X196529455Y-186321900D01*
X196529455Y-186321900D02*
X196458026Y-186250471D01*
X196458026Y-186250471D02*
X196386598Y-186107614D01*
X196386598Y-186107614D02*
X196386598Y-185679042D01*
X196386598Y-185679042D02*
X196458026Y-185536185D01*
X196458026Y-185536185D02*
X196529455Y-185464757D01*
X196529455Y-185464757D02*
X196672312Y-185393328D01*
X196672312Y-185393328D02*
X196958026Y-185393328D01*
X196958026Y-185393328D02*
X197100884Y-185464757D01*
X197458027Y-186536185D02*
X198600884Y-186536185D01*
X198958026Y-185393328D02*
X198958026Y-186893328D01*
X198958026Y-185464757D02*
X199100884Y-185393328D01*
X199100884Y-185393328D02*
X199386598Y-185393328D01*
X199386598Y-185393328D02*
X199529455Y-185464757D01*
X199529455Y-185464757D02*
X199600884Y-185536185D01*
X199600884Y-185536185D02*
X199672312Y-185679042D01*
X199672312Y-185679042D02*
X199672312Y-186107614D01*
X199672312Y-186107614D02*
X199600884Y-186250471D01*
X199600884Y-186250471D02*
X199529455Y-186321900D01*
X199529455Y-186321900D02*
X199386598Y-186393328D01*
X199386598Y-186393328D02*
X199100884Y-186393328D01*
X199100884Y-186393328D02*
X198958026Y-186321900D01*
X200958027Y-186321900D02*
X200815169Y-186393328D01*
X200815169Y-186393328D02*
X200529455Y-186393328D01*
X200529455Y-186393328D02*
X200386598Y-186321900D01*
X200386598Y-186321900D02*
X200315169Y-186250471D01*
X200315169Y-186250471D02*
X200243741Y-186107614D01*
X200243741Y-186107614D02*
X200243741Y-185679042D01*
X200243741Y-185679042D02*
X200315169Y-185536185D01*
X200315169Y-185536185D02*
X200386598Y-185464757D01*
X200386598Y-185464757D02*
X200529455Y-185393328D01*
X200529455Y-185393328D02*
X200815169Y-185393328D01*
X200815169Y-185393328D02*
X200958027Y-185464757D01*
X201600883Y-186393328D02*
X201600883Y-184893328D01*
X201600883Y-185464757D02*
X201743741Y-185393328D01*
X201743741Y-185393328D02*
X202029455Y-185393328D01*
X202029455Y-185393328D02*
X202172312Y-185464757D01*
X202172312Y-185464757D02*
X202243741Y-185536185D01*
X202243741Y-185536185D02*
X202315169Y-185679042D01*
X202315169Y-185679042D02*
X202315169Y-186107614D01*
X202315169Y-186107614D02*
X202243741Y-186250471D01*
X202243741Y-186250471D02*
X202172312Y-186321900D01*
X202172312Y-186321900D02*
X202029455Y-186393328D01*
X202029455Y-186393328D02*
X201743741Y-186393328D01*
X201743741Y-186393328D02*
X201600883Y-186321900D01*
D10*
D11*
X177002200Y-181507200D02*
X285002200Y-181507200D01*
D10*
D11*
X178386598Y-183621900D02*
X178600884Y-183693328D01*
X178600884Y-183693328D02*
X178958026Y-183693328D01*
X178958026Y-183693328D02*
X179100884Y-183621900D01*
X179100884Y-183621900D02*
X179172312Y-183550471D01*
X179172312Y-183550471D02*
X179243741Y-183407614D01*
X179243741Y-183407614D02*
X179243741Y-183264757D01*
X179243741Y-183264757D02*
X179172312Y-183121900D01*
X179172312Y-183121900D02*
X179100884Y-183050471D01*
X179100884Y-183050471D02*
X178958026Y-182979042D01*
X178958026Y-182979042D02*
X178672312Y-182907614D01*
X178672312Y-182907614D02*
X178529455Y-182836185D01*
X178529455Y-182836185D02*
X178458026Y-182764757D01*
X178458026Y-182764757D02*
X178386598Y-182621900D01*
X178386598Y-182621900D02*
X178386598Y-182479042D01*
X178386598Y-182479042D02*
X178458026Y-182336185D01*
X178458026Y-182336185D02*
X178529455Y-182264757D01*
X178529455Y-182264757D02*
X178672312Y-182193328D01*
X178672312Y-182193328D02*
X179029455Y-182193328D01*
X179029455Y-182193328D02*
X179243741Y-182264757D01*
X179886597Y-183693328D02*
X179886597Y-182193328D01*
X180529455Y-183693328D02*
X180529455Y-182907614D01*
X180529455Y-182907614D02*
X180458026Y-182764757D01*
X180458026Y-182764757D02*
X180315169Y-182693328D01*
X180315169Y-182693328D02*
X180100883Y-182693328D01*
X180100883Y-182693328D02*
X179958026Y-182764757D01*
X179958026Y-182764757D02*
X179886597Y-182836185D01*
X181815169Y-183621900D02*
X181672312Y-183693328D01*
X181672312Y-183693328D02*
X181386598Y-183693328D01*
X181386598Y-183693328D02*
X181243740Y-183621900D01*
X181243740Y-183621900D02*
X181172312Y-183479042D01*
X181172312Y-183479042D02*
X181172312Y-182907614D01*
X181172312Y-182907614D02*
X181243740Y-182764757D01*
X181243740Y-182764757D02*
X181386598Y-182693328D01*
X181386598Y-182693328D02*
X181672312Y-182693328D01*
X181672312Y-182693328D02*
X181815169Y-182764757D01*
X181815169Y-182764757D02*
X181886598Y-182907614D01*
X181886598Y-182907614D02*
X181886598Y-183050471D01*
X181886598Y-183050471D02*
X181172312Y-183193328D01*
X183100883Y-183621900D02*
X182958026Y-183693328D01*
X182958026Y-183693328D02*
X182672312Y-183693328D01*
X182672312Y-183693328D02*
X182529454Y-183621900D01*
X182529454Y-183621900D02*
X182458026Y-183479042D01*
X182458026Y-183479042D02*
X182458026Y-182907614D01*
X182458026Y-182907614D02*
X182529454Y-182764757D01*
X182529454Y-182764757D02*
X182672312Y-182693328D01*
X182672312Y-182693328D02*
X182958026Y-182693328D01*
X182958026Y-182693328D02*
X183100883Y-182764757D01*
X183100883Y-182764757D02*
X183172312Y-182907614D01*
X183172312Y-182907614D02*
X183172312Y-183050471D01*
X183172312Y-183050471D02*
X182458026Y-183193328D01*
X183600883Y-182693328D02*
X184172311Y-182693328D01*
X183815168Y-182193328D02*
X183815168Y-183479042D01*
X183815168Y-183479042D02*
X183886597Y-183621900D01*
X183886597Y-183621900D02*
X184029454Y-183693328D01*
X184029454Y-183693328D02*
X184172311Y-183693328D01*
X184672311Y-183550471D02*
X184743740Y-183621900D01*
X184743740Y-183621900D02*
X184672311Y-183693328D01*
X184672311Y-183693328D02*
X184600883Y-183621900D01*
X184600883Y-183621900D02*
X184672311Y-183550471D01*
X184672311Y-183550471D02*
X184672311Y-183693328D01*
X184672311Y-182764757D02*
X184743740Y-182836185D01*
X184743740Y-182836185D02*
X184672311Y-182907614D01*
X184672311Y-182907614D02*
X184600883Y-182836185D01*
X184600883Y-182836185D02*
X184672311Y-182764757D01*
X184672311Y-182764757D02*
X184672311Y-182907614D01*
D10*
D12*
X179413853Y-180685528D02*
X178913853Y-179971242D01*
X178556710Y-180685528D02*
X178556710Y-179185528D01*
X178556710Y-179185528D02*
X179128139Y-179185528D01*
X179128139Y-179185528D02*
X179270996Y-179256957D01*
X179270996Y-179256957D02*
X179342425Y-179328385D01*
X179342425Y-179328385D02*
X179413853Y-179471242D01*
X179413853Y-179471242D02*
X179413853Y-179685528D01*
X179413853Y-179685528D02*
X179342425Y-179828385D01*
X179342425Y-179828385D02*
X179270996Y-179899814D01*
X179270996Y-179899814D02*
X179128139Y-179971242D01*
X179128139Y-179971242D02*
X178556710Y-179971242D01*
X180270996Y-180685528D02*
X180128139Y-180614100D01*
X180128139Y-180614100D02*
X180056710Y-180542671D01*
X180056710Y-180542671D02*
X179985282Y-180399814D01*
X179985282Y-180399814D02*
X179985282Y-179971242D01*
X179985282Y-179971242D02*
X180056710Y-179828385D01*
X180056710Y-179828385D02*
X180128139Y-179756957D01*
X180128139Y-179756957D02*
X180270996Y-179685528D01*
X180270996Y-179685528D02*
X180485282Y-179685528D01*
X180485282Y-179685528D02*
X180628139Y-179756957D01*
X180628139Y-179756957D02*
X180699568Y-179828385D01*
X180699568Y-179828385D02*
X180770996Y-179971242D01*
X180770996Y-179971242D02*
X180770996Y-180399814D01*
X180770996Y-180399814D02*
X180699568Y-180542671D01*
X180699568Y-180542671D02*
X180628139Y-180614100D01*
X180628139Y-180614100D02*
X180485282Y-180685528D01*
X180485282Y-180685528D02*
X180270996Y-180685528D01*
X181413853Y-180685528D02*
X181413853Y-179185528D01*
X181413853Y-179756957D02*
X181556711Y-179685528D01*
X181556711Y-179685528D02*
X181842425Y-179685528D01*
X181842425Y-179685528D02*
X181985282Y-179756957D01*
X181985282Y-179756957D02*
X182056711Y-179828385D01*
X182056711Y-179828385D02*
X182128139Y-179971242D01*
X182128139Y-179971242D02*
X182128139Y-180399814D01*
X182128139Y-180399814D02*
X182056711Y-180542671D01*
X182056711Y-180542671D02*
X181985282Y-180614100D01*
X181985282Y-180614100D02*
X181842425Y-180685528D01*
X181842425Y-180685528D02*
X181556711Y-180685528D01*
X181556711Y-180685528D02*
X181413853Y-180614100D01*
X182985282Y-180685528D02*
X182842425Y-180614100D01*
X182842425Y-180614100D02*
X182770996Y-180542671D01*
X182770996Y-180542671D02*
X182699568Y-180399814D01*
X182699568Y-180399814D02*
X182699568Y-179971242D01*
X182699568Y-179971242D02*
X182770996Y-179828385D01*
X182770996Y-179828385D02*
X182842425Y-179756957D01*
X182842425Y-179756957D02*
X182985282Y-179685528D01*
X182985282Y-179685528D02*
X183199568Y-179685528D01*
X183199568Y-179685528D02*
X183342425Y-179756957D01*
X183342425Y-179756957D02*
X183413854Y-179828385D01*
X183413854Y-179828385D02*
X183485282Y-179971242D01*
X183485282Y-179971242D02*
X183485282Y-180399814D01*
X183485282Y-180399814D02*
X183413854Y-180542671D01*
X183413854Y-180542671D02*
X183342425Y-180614100D01*
X183342425Y-180614100D02*
X183199568Y-180685528D01*
X183199568Y-180685528D02*
X182985282Y-180685528D01*
X183913854Y-179685528D02*
X184485282Y-179685528D01*
X184128139Y-179185528D02*
X184128139Y-180471242D01*
X184128139Y-180471242D02*
X184199568Y-180614100D01*
X184199568Y-180614100D02*
X184342425Y-180685528D01*
X184342425Y-180685528D02*
X184485282Y-180685528D01*
X184985282Y-180685528D02*
X184985282Y-179685528D01*
X184985282Y-179185528D02*
X184913854Y-179256957D01*
X184913854Y-179256957D02*
X184985282Y-179328385D01*
X184985282Y-179328385D02*
X185056711Y-179256957D01*
X185056711Y-179256957D02*
X184985282Y-179185528D01*
X184985282Y-179185528D02*
X184985282Y-179328385D01*
X186342426Y-180614100D02*
X186199568Y-180685528D01*
X186199568Y-180685528D02*
X185913854Y-180685528D01*
X185913854Y-180685528D02*
X185770997Y-180614100D01*
X185770997Y-180614100D02*
X185699568Y-180542671D01*
X185699568Y-180542671D02*
X185628140Y-180399814D01*
X185628140Y-180399814D02*
X185628140Y-179971242D01*
X185628140Y-179971242D02*
X185699568Y-179828385D01*
X185699568Y-179828385D02*
X185770997Y-179756957D01*
X185770997Y-179756957D02*
X185913854Y-179685528D01*
X185913854Y-179685528D02*
X186199568Y-179685528D01*
X186199568Y-179685528D02*
X186342426Y-179756957D01*
X186913854Y-180614100D02*
X187056711Y-180685528D01*
X187056711Y-180685528D02*
X187342425Y-180685528D01*
X187342425Y-180685528D02*
X187485282Y-180614100D01*
X187485282Y-180614100D02*
X187556711Y-180471242D01*
X187556711Y-180471242D02*
X187556711Y-180399814D01*
X187556711Y-180399814D02*
X187485282Y-180256957D01*
X187485282Y-180256957D02*
X187342425Y-180185528D01*
X187342425Y-180185528D02*
X187128140Y-180185528D01*
X187128140Y-180185528D02*
X186985282Y-180114100D01*
X186985282Y-180114100D02*
X186913854Y-179971242D01*
X186913854Y-179971242D02*
X186913854Y-179899814D01*
X186913854Y-179899814D02*
X186985282Y-179756957D01*
X186985282Y-179756957D02*
X187128140Y-179685528D01*
X187128140Y-179685528D02*
X187342425Y-179685528D01*
X187342425Y-179685528D02*
X187485282Y-179756957D01*
D10*
D11*
X197002200Y-191507200D02*
X197002200Y-194507200D01*
D10*
D11*
X261002200Y-191507200D02*
X261002200Y-198007200D01*
D12*
X133830000Y-55220000D02*
X213570000Y-55220000D01*
X213570000Y-88080000D01*
X133830000Y-88080000D01*
X133830000Y-55220000D01*
D10*
X91077068Y-88371371D02*
X90877068Y-88971371D01*
X90877068Y-88971371D02*
X90677068Y-88371371D01*
X90219925Y-88942800D02*
X90277067Y-88971371D01*
X90277067Y-88971371D02*
X90391353Y-88971371D01*
X90391353Y-88971371D02*
X90448496Y-88942800D01*
X90448496Y-88942800D02*
X90477067Y-88914228D01*
X90477067Y-88914228D02*
X90505639Y-88857085D01*
X90505639Y-88857085D02*
X90505639Y-88685657D01*
X90505639Y-88685657D02*
X90477067Y-88628514D01*
X90477067Y-88628514D02*
X90448496Y-88599942D01*
X90448496Y-88599942D02*
X90391353Y-88571371D01*
X90391353Y-88571371D02*
X90277067Y-88571371D01*
X90277067Y-88571371D02*
X90219925Y-88599942D01*
X89705639Y-88942800D02*
X89762781Y-88971371D01*
X89762781Y-88971371D02*
X89877067Y-88971371D01*
X89877067Y-88971371D02*
X89934210Y-88942800D01*
X89934210Y-88942800D02*
X89962781Y-88914228D01*
X89962781Y-88914228D02*
X89991353Y-88857085D01*
X89991353Y-88857085D02*
X89991353Y-88685657D01*
X89991353Y-88685657D02*
X89962781Y-88628514D01*
X89962781Y-88628514D02*
X89934210Y-88599942D01*
X89934210Y-88599942D02*
X89877067Y-88571371D01*
X89877067Y-88571371D02*
X89762781Y-88571371D01*
X89762781Y-88571371D02*
X89705639Y-88599942D01*
D14*
X209936090Y-62898628D02*
X207078948Y-62898628D01*
X210507519Y-64612914D02*
X208507519Y-58612914D01*
X208507519Y-58612914D02*
X206507519Y-64612914D01*
X201078948Y-64612914D02*
X203078948Y-61755771D01*
X204507519Y-64612914D02*
X204507519Y-58612914D01*
X204507519Y-58612914D02*
X202221805Y-58612914D01*
X202221805Y-58612914D02*
X201650376Y-58898628D01*
X201650376Y-58898628D02*
X201364662Y-59184342D01*
X201364662Y-59184342D02*
X201078948Y-59755771D01*
X201078948Y-59755771D02*
X201078948Y-60612914D01*
X201078948Y-60612914D02*
X201364662Y-61184342D01*
X201364662Y-61184342D02*
X201650376Y-61470057D01*
X201650376Y-61470057D02*
X202221805Y-61755771D01*
X202221805Y-61755771D02*
X204507519Y-61755771D01*
X198507519Y-64612914D02*
X198507519Y-58612914D01*
X198507519Y-58612914D02*
X196507519Y-62898628D01*
X196507519Y-62898628D02*
X194507519Y-58612914D01*
X194507519Y-58612914D02*
X194507519Y-64612914D01*
X187936090Y-58612914D02*
X184507519Y-58612914D01*
X186221804Y-64612914D02*
X186221804Y-58612914D01*
X182507518Y-64612914D02*
X182507518Y-60612914D01*
X182507518Y-61755771D02*
X182221804Y-61184342D01*
X182221804Y-61184342D02*
X181936090Y-60898628D01*
X181936090Y-60898628D02*
X181364661Y-60612914D01*
X181364661Y-60612914D02*
X180793232Y-60612914D01*
X176221804Y-64612914D02*
X176221804Y-61470057D01*
X176221804Y-61470057D02*
X176507518Y-60898628D01*
X176507518Y-60898628D02*
X177078946Y-60612914D01*
X177078946Y-60612914D02*
X178221804Y-60612914D01*
X178221804Y-60612914D02*
X178793232Y-60898628D01*
X176221804Y-64327200D02*
X176793232Y-64612914D01*
X176793232Y-64612914D02*
X178221804Y-64612914D01*
X178221804Y-64612914D02*
X178793232Y-64327200D01*
X178793232Y-64327200D02*
X179078946Y-63755771D01*
X179078946Y-63755771D02*
X179078946Y-63184342D01*
X179078946Y-63184342D02*
X178793232Y-62612914D01*
X178793232Y-62612914D02*
X178221804Y-62327200D01*
X178221804Y-62327200D02*
X176793232Y-62327200D01*
X176793232Y-62327200D02*
X176221804Y-62041485D01*
X173364661Y-64612914D02*
X173364661Y-60612914D01*
X173364661Y-58612914D02*
X173650375Y-58898628D01*
X173650375Y-58898628D02*
X173364661Y-59184342D01*
X173364661Y-59184342D02*
X173078947Y-58898628D01*
X173078947Y-58898628D02*
X173364661Y-58612914D01*
X173364661Y-58612914D02*
X173364661Y-59184342D01*
X170507518Y-60612914D02*
X170507518Y-64612914D01*
X170507518Y-61184342D02*
X170221804Y-60898628D01*
X170221804Y-60898628D02*
X169650375Y-60612914D01*
X169650375Y-60612914D02*
X168793232Y-60612914D01*
X168793232Y-60612914D02*
X168221804Y-60898628D01*
X168221804Y-60898628D02*
X167936090Y-61470057D01*
X167936090Y-61470057D02*
X167936090Y-64612914D01*
X165078947Y-64612914D02*
X165078947Y-60612914D01*
X165078947Y-58612914D02*
X165364661Y-58898628D01*
X165364661Y-58898628D02*
X165078947Y-59184342D01*
X165078947Y-59184342D02*
X164793233Y-58898628D01*
X164793233Y-58898628D02*
X165078947Y-58612914D01*
X165078947Y-58612914D02*
X165078947Y-59184342D01*
X162221804Y-60612914D02*
X162221804Y-64612914D01*
X162221804Y-61184342D02*
X161936090Y-60898628D01*
X161936090Y-60898628D02*
X161364661Y-60612914D01*
X161364661Y-60612914D02*
X160507518Y-60612914D01*
X160507518Y-60612914D02*
X159936090Y-60898628D01*
X159936090Y-60898628D02*
X159650376Y-61470057D01*
X159650376Y-61470057D02*
X159650376Y-64612914D01*
X154221805Y-60612914D02*
X154221805Y-65470057D01*
X154221805Y-65470057D02*
X154507519Y-66041485D01*
X154507519Y-66041485D02*
X154793233Y-66327200D01*
X154793233Y-66327200D02*
X155364662Y-66612914D01*
X155364662Y-66612914D02*
X156221805Y-66612914D01*
X156221805Y-66612914D02*
X156793233Y-66327200D01*
X154221805Y-64327200D02*
X154793233Y-64612914D01*
X154793233Y-64612914D02*
X155936090Y-64612914D01*
X155936090Y-64612914D02*
X156507519Y-64327200D01*
X156507519Y-64327200D02*
X156793233Y-64041485D01*
X156793233Y-64041485D02*
X157078947Y-63470057D01*
X157078947Y-63470057D02*
X157078947Y-61755771D01*
X157078947Y-61755771D02*
X156793233Y-61184342D01*
X156793233Y-61184342D02*
X156507519Y-60898628D01*
X156507519Y-60898628D02*
X155936090Y-60612914D01*
X155936090Y-60612914D02*
X154793233Y-60612914D01*
X154793233Y-60612914D02*
X154221805Y-60898628D01*
X146793233Y-64612914D02*
X146793233Y-58612914D01*
X143364662Y-64612914D02*
X145936090Y-61184342D01*
X143364662Y-58612914D02*
X146793233Y-62041485D01*
X140793233Y-64612914D02*
X140793233Y-60612914D01*
X140793233Y-58612914D02*
X141078947Y-58898628D01*
X141078947Y-58898628D02*
X140793233Y-59184342D01*
X140793233Y-59184342D02*
X140507519Y-58898628D01*
X140507519Y-58898628D02*
X140793233Y-58612914D01*
X140793233Y-58612914D02*
X140793233Y-59184342D01*
X138793233Y-60612914D02*
X136507519Y-60612914D01*
X137936090Y-58612914D02*
X137936090Y-63755771D01*
X137936090Y-63755771D02*
X137650376Y-64327200D01*
X137650376Y-64327200D02*
X137078947Y-64612914D01*
X137078947Y-64612914D02*
X136507519Y-64612914D01*
D15*
X208331905Y-85548876D02*
X208331905Y-81548876D01*
X208331905Y-83072685D02*
X207950952Y-82882209D01*
X207950952Y-82882209D02*
X207189047Y-82882209D01*
X207189047Y-82882209D02*
X206808095Y-83072685D01*
X206808095Y-83072685D02*
X206617619Y-83263161D01*
X206617619Y-83263161D02*
X206427143Y-83644114D01*
X206427143Y-83644114D02*
X206427143Y-84786971D01*
X206427143Y-84786971D02*
X206617619Y-85167923D01*
X206617619Y-85167923D02*
X206808095Y-85358400D01*
X206808095Y-85358400D02*
X207189047Y-85548876D01*
X207189047Y-85548876D02*
X207950952Y-85548876D01*
X207950952Y-85548876D02*
X208331905Y-85358400D01*
X205093809Y-82882209D02*
X204141428Y-85548876D01*
X203189047Y-82882209D02*
X204141428Y-85548876D01*
X204141428Y-85548876D02*
X204522380Y-86501257D01*
X204522380Y-86501257D02*
X204712857Y-86691733D01*
X204712857Y-86691733D02*
X205093809Y-86882209D01*
X198617619Y-82882209D02*
X198617619Y-86310780D01*
X198617619Y-86310780D02*
X198808095Y-86691733D01*
X198808095Y-86691733D02*
X199189047Y-86882209D01*
X199189047Y-86882209D02*
X199379523Y-86882209D01*
X198617619Y-81548876D02*
X198808095Y-81739352D01*
X198808095Y-81739352D02*
X198617619Y-81929828D01*
X198617619Y-81929828D02*
X198427142Y-81739352D01*
X198427142Y-81739352D02*
X198617619Y-81548876D01*
X198617619Y-81548876D02*
X198617619Y-81929828D01*
X196712857Y-85548876D02*
X196712857Y-82882209D01*
X196712857Y-83263161D02*
X196522380Y-83072685D01*
X196522380Y-83072685D02*
X196141428Y-82882209D01*
X196141428Y-82882209D02*
X195569999Y-82882209D01*
X195569999Y-82882209D02*
X195189047Y-83072685D01*
X195189047Y-83072685D02*
X194998571Y-83453638D01*
X194998571Y-83453638D02*
X194998571Y-85548876D01*
X194998571Y-83453638D02*
X194808095Y-83072685D01*
X194808095Y-83072685D02*
X194427142Y-82882209D01*
X194427142Y-82882209D02*
X193855714Y-82882209D01*
X193855714Y-82882209D02*
X193474761Y-83072685D01*
X193474761Y-83072685D02*
X193284285Y-83453638D01*
X193284285Y-83453638D02*
X193284285Y-85548876D01*
X191379524Y-85548876D02*
X191379524Y-81548876D01*
X189665238Y-85548876D02*
X189665238Y-83453638D01*
X189665238Y-83453638D02*
X189855714Y-83072685D01*
X189855714Y-83072685D02*
X190236666Y-82882209D01*
X190236666Y-82882209D02*
X190808095Y-82882209D01*
X190808095Y-82882209D02*
X191189047Y-83072685D01*
X191189047Y-83072685D02*
X191379524Y-83263161D01*
X184712857Y-85548876D02*
X184712857Y-82882209D01*
X184712857Y-81548876D02*
X184903333Y-81739352D01*
X184903333Y-81739352D02*
X184712857Y-81929828D01*
X184712857Y-81929828D02*
X184522380Y-81739352D01*
X184522380Y-81739352D02*
X184712857Y-81548876D01*
X184712857Y-81548876D02*
X184712857Y-81929828D01*
X182808095Y-82882209D02*
X182808095Y-85548876D01*
X182808095Y-83263161D02*
X182617618Y-83072685D01*
X182617618Y-83072685D02*
X182236666Y-82882209D01*
X182236666Y-82882209D02*
X181665237Y-82882209D01*
X181665237Y-82882209D02*
X181284285Y-83072685D01*
X181284285Y-83072685D02*
X181093809Y-83453638D01*
X181093809Y-83453638D02*
X181093809Y-85548876D01*
X173855713Y-85548876D02*
X175189047Y-83644114D01*
X176141428Y-85548876D02*
X176141428Y-81548876D01*
X176141428Y-81548876D02*
X174617618Y-81548876D01*
X174617618Y-81548876D02*
X174236666Y-81739352D01*
X174236666Y-81739352D02*
X174046189Y-81929828D01*
X174046189Y-81929828D02*
X173855713Y-82310780D01*
X173855713Y-82310780D02*
X173855713Y-82882209D01*
X173855713Y-82882209D02*
X174046189Y-83263161D01*
X174046189Y-83263161D02*
X174236666Y-83453638D01*
X174236666Y-83453638D02*
X174617618Y-83644114D01*
X174617618Y-83644114D02*
X176141428Y-83644114D01*
X171569999Y-85548876D02*
X171950951Y-85358400D01*
X171950951Y-85358400D02*
X172141428Y-85167923D01*
X172141428Y-85167923D02*
X172331904Y-84786971D01*
X172331904Y-84786971D02*
X172331904Y-83644114D01*
X172331904Y-83644114D02*
X172141428Y-83263161D01*
X172141428Y-83263161D02*
X171950951Y-83072685D01*
X171950951Y-83072685D02*
X171569999Y-82882209D01*
X171569999Y-82882209D02*
X170998570Y-82882209D01*
X170998570Y-82882209D02*
X170617618Y-83072685D01*
X170617618Y-83072685D02*
X170427142Y-83263161D01*
X170427142Y-83263161D02*
X170236666Y-83644114D01*
X170236666Y-83644114D02*
X170236666Y-84786971D01*
X170236666Y-84786971D02*
X170427142Y-85167923D01*
X170427142Y-85167923D02*
X170617618Y-85358400D01*
X170617618Y-85358400D02*
X170998570Y-85548876D01*
X170998570Y-85548876D02*
X171569999Y-85548876D01*
X168522380Y-85548876D02*
X168522380Y-81548876D01*
X168522380Y-83072685D02*
X168141427Y-82882209D01*
X168141427Y-82882209D02*
X167379522Y-82882209D01*
X167379522Y-82882209D02*
X166998570Y-83072685D01*
X166998570Y-83072685D02*
X166808094Y-83263161D01*
X166808094Y-83263161D02*
X166617618Y-83644114D01*
X166617618Y-83644114D02*
X166617618Y-84786971D01*
X166617618Y-84786971D02*
X166808094Y-85167923D01*
X166808094Y-85167923D02*
X166998570Y-85358400D01*
X166998570Y-85358400D02*
X167379522Y-85548876D01*
X167379522Y-85548876D02*
X168141427Y-85548876D01*
X168141427Y-85548876D02*
X168522380Y-85358400D01*
X164331903Y-85548876D02*
X164712855Y-85358400D01*
X164712855Y-85358400D02*
X164903332Y-85167923D01*
X164903332Y-85167923D02*
X165093808Y-84786971D01*
X165093808Y-84786971D02*
X165093808Y-83644114D01*
X165093808Y-83644114D02*
X164903332Y-83263161D01*
X164903332Y-83263161D02*
X164712855Y-83072685D01*
X164712855Y-83072685D02*
X164331903Y-82882209D01*
X164331903Y-82882209D02*
X163760474Y-82882209D01*
X163760474Y-82882209D02*
X163379522Y-83072685D01*
X163379522Y-83072685D02*
X163189046Y-83263161D01*
X163189046Y-83263161D02*
X162998570Y-83644114D01*
X162998570Y-83644114D02*
X162998570Y-84786971D01*
X162998570Y-84786971D02*
X163189046Y-85167923D01*
X163189046Y-85167923D02*
X163379522Y-85358400D01*
X163379522Y-85358400D02*
X163760474Y-85548876D01*
X163760474Y-85548876D02*
X164331903Y-85548876D01*
X161855712Y-82882209D02*
X160331903Y-82882209D01*
X161284284Y-81548876D02*
X161284284Y-84977447D01*
X161284284Y-84977447D02*
X161093807Y-85358400D01*
X161093807Y-85358400D02*
X160712855Y-85548876D01*
X160712855Y-85548876D02*
X160331903Y-85548876D01*
X158998570Y-85548876D02*
X158998570Y-82882209D01*
X158998570Y-81548876D02*
X159189046Y-81739352D01*
X159189046Y-81739352D02*
X158998570Y-81929828D01*
X158998570Y-81929828D02*
X158808093Y-81739352D01*
X158808093Y-81739352D02*
X158998570Y-81548876D01*
X158998570Y-81548876D02*
X158998570Y-81929828D01*
X155379522Y-85358400D02*
X155760474Y-85548876D01*
X155760474Y-85548876D02*
X156522379Y-85548876D01*
X156522379Y-85548876D02*
X156903331Y-85358400D01*
X156903331Y-85358400D02*
X157093808Y-85167923D01*
X157093808Y-85167923D02*
X157284284Y-84786971D01*
X157284284Y-84786971D02*
X157284284Y-83644114D01*
X157284284Y-83644114D02*
X157093808Y-83263161D01*
X157093808Y-83263161D02*
X156903331Y-83072685D01*
X156903331Y-83072685D02*
X156522379Y-82882209D01*
X156522379Y-82882209D02*
X155760474Y-82882209D01*
X155760474Y-82882209D02*
X155379522Y-83072685D01*
X153855713Y-85358400D02*
X153474760Y-85548876D01*
X153474760Y-85548876D02*
X152712856Y-85548876D01*
X152712856Y-85548876D02*
X152331903Y-85358400D01*
X152331903Y-85358400D02*
X152141427Y-84977447D01*
X152141427Y-84977447D02*
X152141427Y-84786971D01*
X152141427Y-84786971D02*
X152331903Y-84406019D01*
X152331903Y-84406019D02*
X152712856Y-84215542D01*
X152712856Y-84215542D02*
X153284284Y-84215542D01*
X153284284Y-84215542D02*
X153665237Y-84025066D01*
X153665237Y-84025066D02*
X153855713Y-83644114D01*
X153855713Y-83644114D02*
X153855713Y-83453638D01*
X153855713Y-83453638D02*
X153665237Y-83072685D01*
X153665237Y-83072685D02*
X153284284Y-82882209D01*
X153284284Y-82882209D02*
X152712856Y-82882209D01*
X152712856Y-82882209D02*
X152331903Y-83072685D01*
X145474761Y-85548876D02*
X147379523Y-85548876D01*
X147379523Y-85548876D02*
X147379523Y-81548876D01*
X142427142Y-85548876D02*
X142427142Y-83453638D01*
X142427142Y-83453638D02*
X142617618Y-83072685D01*
X142617618Y-83072685D02*
X142998570Y-82882209D01*
X142998570Y-82882209D02*
X143760475Y-82882209D01*
X143760475Y-82882209D02*
X144141428Y-83072685D01*
X142427142Y-85358400D02*
X142808094Y-85548876D01*
X142808094Y-85548876D02*
X143760475Y-85548876D01*
X143760475Y-85548876D02*
X144141428Y-85358400D01*
X144141428Y-85358400D02*
X144331904Y-84977447D01*
X144331904Y-84977447D02*
X144331904Y-84596495D01*
X144331904Y-84596495D02*
X144141428Y-84215542D01*
X144141428Y-84215542D02*
X143760475Y-84025066D01*
X143760475Y-84025066D02*
X142808094Y-84025066D01*
X142808094Y-84025066D02*
X142427142Y-83834590D01*
X140522380Y-85548876D02*
X140522380Y-81548876D01*
X140522380Y-83072685D02*
X140141427Y-82882209D01*
X140141427Y-82882209D02*
X139379522Y-82882209D01*
X139379522Y-82882209D02*
X138998570Y-83072685D01*
X138998570Y-83072685D02*
X138808094Y-83263161D01*
X138808094Y-83263161D02*
X138617618Y-83644114D01*
X138617618Y-83644114D02*
X138617618Y-84786971D01*
X138617618Y-84786971D02*
X138808094Y-85167923D01*
X138808094Y-85167923D02*
X138998570Y-85358400D01*
X138998570Y-85358400D02*
X139379522Y-85548876D01*
X139379522Y-85548876D02*
X140141427Y-85548876D01*
X140141427Y-85548876D02*
X140522380Y-85358400D01*
D16*
X201423058Y-70916095D02*
X201423058Y-74487523D01*
X201423058Y-74487523D02*
X201661153Y-75201809D01*
X201661153Y-75201809D02*
X202137344Y-75678000D01*
X202137344Y-75678000D02*
X202851629Y-75916095D01*
X202851629Y-75916095D02*
X203327820Y-75916095D01*
X199042105Y-70916095D02*
X199042105Y-74963714D01*
X199042105Y-74963714D02*
X198804010Y-75439904D01*
X198804010Y-75439904D02*
X198565915Y-75678000D01*
X198565915Y-75678000D02*
X198089724Y-75916095D01*
X198089724Y-75916095D02*
X197137343Y-75916095D01*
X197137343Y-75916095D02*
X196661153Y-75678000D01*
X196661153Y-75678000D02*
X196423058Y-75439904D01*
X196423058Y-75439904D02*
X196184962Y-74963714D01*
X196184962Y-74963714D02*
X196184962Y-70916095D01*
X191423058Y-75916095D02*
X193804010Y-75916095D01*
X193804010Y-75916095D02*
X193804010Y-70916095D01*
X188804010Y-73535142D02*
X188804010Y-75916095D01*
X190470677Y-70916095D02*
X188804010Y-73535142D01*
X188804010Y-73535142D02*
X187137344Y-70916095D01*
X181899249Y-71392285D02*
X181661153Y-71154190D01*
X181661153Y-71154190D02*
X181184963Y-70916095D01*
X181184963Y-70916095D02*
X179994487Y-70916095D01*
X179994487Y-70916095D02*
X179518296Y-71154190D01*
X179518296Y-71154190D02*
X179280201Y-71392285D01*
X179280201Y-71392285D02*
X179042106Y-71868476D01*
X179042106Y-71868476D02*
X179042106Y-72344666D01*
X179042106Y-72344666D02*
X179280201Y-73058952D01*
X179280201Y-73058952D02*
X182137344Y-75916095D01*
X182137344Y-75916095D02*
X179042106Y-75916095D01*
X175946867Y-70916095D02*
X175470677Y-70916095D01*
X175470677Y-70916095D02*
X174994486Y-71154190D01*
X174994486Y-71154190D02*
X174756391Y-71392285D01*
X174756391Y-71392285D02*
X174518296Y-71868476D01*
X174518296Y-71868476D02*
X174280201Y-72820857D01*
X174280201Y-72820857D02*
X174280201Y-74011333D01*
X174280201Y-74011333D02*
X174518296Y-74963714D01*
X174518296Y-74963714D02*
X174756391Y-75439904D01*
X174756391Y-75439904D02*
X174994486Y-75678000D01*
X174994486Y-75678000D02*
X175470677Y-75916095D01*
X175470677Y-75916095D02*
X175946867Y-75916095D01*
X175946867Y-75916095D02*
X176423058Y-75678000D01*
X176423058Y-75678000D02*
X176661153Y-75439904D01*
X176661153Y-75439904D02*
X176899248Y-74963714D01*
X176899248Y-74963714D02*
X177137344Y-74011333D01*
X177137344Y-74011333D02*
X177137344Y-72820857D01*
X177137344Y-72820857D02*
X176899248Y-71868476D01*
X176899248Y-71868476D02*
X176661153Y-71392285D01*
X176661153Y-71392285D02*
X176423058Y-71154190D01*
X176423058Y-71154190D02*
X175946867Y-70916095D01*
X172375439Y-71392285D02*
X172137343Y-71154190D01*
X172137343Y-71154190D02*
X171661153Y-70916095D01*
X171661153Y-70916095D02*
X170470677Y-70916095D01*
X170470677Y-70916095D02*
X169994486Y-71154190D01*
X169994486Y-71154190D02*
X169756391Y-71392285D01*
X169756391Y-71392285D02*
X169518296Y-71868476D01*
X169518296Y-71868476D02*
X169518296Y-72344666D01*
X169518296Y-72344666D02*
X169756391Y-73058952D01*
X169756391Y-73058952D02*
X172613534Y-75916095D01*
X172613534Y-75916095D02*
X169518296Y-75916095D01*
X164994486Y-70916095D02*
X167375438Y-70916095D01*
X167375438Y-70916095D02*
X167613534Y-73297047D01*
X167613534Y-73297047D02*
X167375438Y-73058952D01*
X167375438Y-73058952D02*
X166899248Y-72820857D01*
X166899248Y-72820857D02*
X165708772Y-72820857D01*
X165708772Y-72820857D02*
X165232581Y-73058952D01*
X165232581Y-73058952D02*
X164994486Y-73297047D01*
X164994486Y-73297047D02*
X164756391Y-73773238D01*
X164756391Y-73773238D02*
X164756391Y-74963714D01*
X164756391Y-74963714D02*
X164994486Y-75439904D01*
X164994486Y-75439904D02*
X165232581Y-75678000D01*
X165232581Y-75678000D02*
X165708772Y-75916095D01*
X165708772Y-75916095D02*
X166899248Y-75916095D01*
X166899248Y-75916095D02*
X167375438Y-75678000D01*
X167375438Y-75678000D02*
X167613534Y-75439904D01*
X159518295Y-70916095D02*
X157851628Y-75916095D01*
X157851628Y-75916095D02*
X156184962Y-70916095D01*
X151899248Y-75916095D02*
X154756391Y-75916095D01*
X153327819Y-75916095D02*
X153327819Y-70916095D01*
X153327819Y-70916095D02*
X153804010Y-71630380D01*
X153804010Y-71630380D02*
X154280200Y-72106571D01*
X154280200Y-72106571D02*
X154756391Y-72344666D01*
X149756390Y-75439904D02*
X149518295Y-75678000D01*
X149518295Y-75678000D02*
X149756390Y-75916095D01*
X149756390Y-75916095D02*
X149994486Y-75678000D01*
X149994486Y-75678000D02*
X149756390Y-75439904D01*
X149756390Y-75439904D02*
X149756390Y-75916095D01*
X146423057Y-70916095D02*
X145946867Y-70916095D01*
X145946867Y-70916095D02*
X145470676Y-71154190D01*
X145470676Y-71154190D02*
X145232581Y-71392285D01*
X145232581Y-71392285D02*
X144994486Y-71868476D01*
X144994486Y-71868476D02*
X144756391Y-72820857D01*
X144756391Y-72820857D02*
X144756391Y-74011333D01*
X144756391Y-74011333D02*
X144994486Y-74963714D01*
X144994486Y-74963714D02*
X145232581Y-75439904D01*
X145232581Y-75439904D02*
X145470676Y-75678000D01*
X145470676Y-75678000D02*
X145946867Y-75916095D01*
X145946867Y-75916095D02*
X146423057Y-75916095D01*
X146423057Y-75916095D02*
X146899248Y-75678000D01*
X146899248Y-75678000D02*
X147137343Y-75439904D01*
X147137343Y-75439904D02*
X147375438Y-74963714D01*
X147375438Y-74963714D02*
X147613534Y-74011333D01*
X147613534Y-74011333D02*
X147613534Y-72820857D01*
X147613534Y-72820857D02*
X147375438Y-71868476D01*
X147375438Y-71868476D02*
X147137343Y-71392285D01*
X147137343Y-71392285D02*
X146899248Y-71154190D01*
X146899248Y-71154190D02*
X146423057Y-70916095D01*
D11*
X88816666Y-96549580D02*
X88864285Y-96597200D01*
X88864285Y-96597200D02*
X89007142Y-96644819D01*
X89007142Y-96644819D02*
X89102380Y-96644819D01*
X89102380Y-96644819D02*
X89245237Y-96597200D01*
X89245237Y-96597200D02*
X89340475Y-96501961D01*
X89340475Y-96501961D02*
X89388094Y-96406723D01*
X89388094Y-96406723D02*
X89435713Y-96216247D01*
X89435713Y-96216247D02*
X89435713Y-96073390D01*
X89435713Y-96073390D02*
X89388094Y-95882914D01*
X89388094Y-95882914D02*
X89340475Y-95787676D01*
X89340475Y-95787676D02*
X89245237Y-95692438D01*
X89245237Y-95692438D02*
X89102380Y-95644819D01*
X89102380Y-95644819D02*
X89007142Y-95644819D01*
X89007142Y-95644819D02*
X88864285Y-95692438D01*
X88864285Y-95692438D02*
X88816666Y-95740057D01*
X88435713Y-95740057D02*
X88388094Y-95692438D01*
X88388094Y-95692438D02*
X88292856Y-95644819D01*
X88292856Y-95644819D02*
X88054761Y-95644819D01*
X88054761Y-95644819D02*
X87959523Y-95692438D01*
X87959523Y-95692438D02*
X87911904Y-95740057D01*
X87911904Y-95740057D02*
X87864285Y-95835295D01*
X87864285Y-95835295D02*
X87864285Y-95930533D01*
X87864285Y-95930533D02*
X87911904Y-96073390D01*
X87911904Y-96073390D02*
X88483332Y-96644819D01*
X88483332Y-96644819D02*
X87864285Y-96644819D01*
X108950000Y-100249366D02*
X108983333Y-100282700D01*
X108983333Y-100282700D02*
X109083333Y-100316033D01*
X109083333Y-100316033D02*
X109150000Y-100316033D01*
X109150000Y-100316033D02*
X109250000Y-100282700D01*
X109250000Y-100282700D02*
X109316667Y-100216033D01*
X109316667Y-100216033D02*
X109350000Y-100149366D01*
X109350000Y-100149366D02*
X109383333Y-100016033D01*
X109383333Y-100016033D02*
X109383333Y-99916033D01*
X109383333Y-99916033D02*
X109350000Y-99782700D01*
X109350000Y-99782700D02*
X109316667Y-99716033D01*
X109316667Y-99716033D02*
X109250000Y-99649366D01*
X109250000Y-99649366D02*
X109150000Y-99616033D01*
X109150000Y-99616033D02*
X109083333Y-99616033D01*
X109083333Y-99616033D02*
X108983333Y-99649366D01*
X108983333Y-99649366D02*
X108950000Y-99682700D01*
X108283333Y-100316033D02*
X108683333Y-100316033D01*
X108483333Y-100316033D02*
X108483333Y-99616033D01*
X108483333Y-99616033D02*
X108550000Y-99716033D01*
X108550000Y-99716033D02*
X108616667Y-99782700D01*
X108616667Y-99782700D02*
X108683333Y-99816033D01*
X107950000Y-100316033D02*
X107816666Y-100316033D01*
X107816666Y-100316033D02*
X107750000Y-100282700D01*
X107750000Y-100282700D02*
X107716666Y-100249366D01*
X107716666Y-100249366D02*
X107650000Y-100149366D01*
X107650000Y-100149366D02*
X107616666Y-100016033D01*
X107616666Y-100016033D02*
X107616666Y-99749366D01*
X107616666Y-99749366D02*
X107650000Y-99682700D01*
X107650000Y-99682700D02*
X107683333Y-99649366D01*
X107683333Y-99649366D02*
X107750000Y-99616033D01*
X107750000Y-99616033D02*
X107883333Y-99616033D01*
X107883333Y-99616033D02*
X107950000Y-99649366D01*
X107950000Y-99649366D02*
X107983333Y-99682700D01*
X107983333Y-99682700D02*
X108016666Y-99749366D01*
X108016666Y-99749366D02*
X108016666Y-99916033D01*
X108016666Y-99916033D02*
X107983333Y-99982700D01*
X107983333Y-99982700D02*
X107950000Y-100016033D01*
X107950000Y-100016033D02*
X107883333Y-100049366D01*
X107883333Y-100049366D02*
X107750000Y-100049366D01*
X107750000Y-100049366D02*
X107683333Y-100016033D01*
X107683333Y-100016033D02*
X107650000Y-99982700D01*
X107650000Y-99982700D02*
X107616666Y-99916033D01*
X92166666Y-85954819D02*
X92499999Y-85478628D01*
X92738094Y-85954819D02*
X92738094Y-84954819D01*
X92738094Y-84954819D02*
X92357142Y-84954819D01*
X92357142Y-84954819D02*
X92261904Y-85002438D01*
X92261904Y-85002438D02*
X92214285Y-85050057D01*
X92214285Y-85050057D02*
X92166666Y-85145295D01*
X92166666Y-85145295D02*
X92166666Y-85288152D01*
X92166666Y-85288152D02*
X92214285Y-85383390D01*
X92214285Y-85383390D02*
X92261904Y-85431009D01*
X92261904Y-85431009D02*
X92357142Y-85478628D01*
X92357142Y-85478628D02*
X92738094Y-85478628D01*
X91214285Y-85954819D02*
X91785713Y-85954819D01*
X91499999Y-85954819D02*
X91499999Y-84954819D01*
X91499999Y-84954819D02*
X91595237Y-85097676D01*
X91595237Y-85097676D02*
X91690475Y-85192914D01*
X91690475Y-85192914D02*
X91785713Y-85240533D01*
X72885714Y-79962628D02*
X72914286Y-79991200D01*
X72914286Y-79991200D02*
X73000000Y-80019771D01*
X73000000Y-80019771D02*
X73057143Y-80019771D01*
X73057143Y-80019771D02*
X73142857Y-79991200D01*
X73142857Y-79991200D02*
X73200000Y-79934057D01*
X73200000Y-79934057D02*
X73228571Y-79876914D01*
X73228571Y-79876914D02*
X73257143Y-79762628D01*
X73257143Y-79762628D02*
X73257143Y-79676914D01*
X73257143Y-79676914D02*
X73228571Y-79562628D01*
X73228571Y-79562628D02*
X73200000Y-79505485D01*
X73200000Y-79505485D02*
X73142857Y-79448342D01*
X73142857Y-79448342D02*
X73057143Y-79419771D01*
X73057143Y-79419771D02*
X73000000Y-79419771D01*
X73000000Y-79419771D02*
X72914286Y-79448342D01*
X72914286Y-79448342D02*
X72885714Y-79476914D01*
X72657143Y-79476914D02*
X72628571Y-79448342D01*
X72628571Y-79448342D02*
X72571429Y-79419771D01*
X72571429Y-79419771D02*
X72428571Y-79419771D01*
X72428571Y-79419771D02*
X72371429Y-79448342D01*
X72371429Y-79448342D02*
X72342857Y-79476914D01*
X72342857Y-79476914D02*
X72314286Y-79534057D01*
X72314286Y-79534057D02*
X72314286Y-79591200D01*
X72314286Y-79591200D02*
X72342857Y-79676914D01*
X72342857Y-79676914D02*
X72685714Y-80019771D01*
X72685714Y-80019771D02*
X72314286Y-80019771D01*
X71800000Y-79419771D02*
X71914285Y-79419771D01*
X71914285Y-79419771D02*
X71971428Y-79448342D01*
X71971428Y-79448342D02*
X72000000Y-79476914D01*
X72000000Y-79476914D02*
X72057142Y-79562628D01*
X72057142Y-79562628D02*
X72085714Y-79676914D01*
X72085714Y-79676914D02*
X72085714Y-79905485D01*
X72085714Y-79905485D02*
X72057142Y-79962628D01*
X72057142Y-79962628D02*
X72028571Y-79991200D01*
X72028571Y-79991200D02*
X71971428Y-80019771D01*
X71971428Y-80019771D02*
X71857142Y-80019771D01*
X71857142Y-80019771D02*
X71800000Y-79991200D01*
X71800000Y-79991200D02*
X71771428Y-79962628D01*
X71771428Y-79962628D02*
X71742857Y-79905485D01*
X71742857Y-79905485D02*
X71742857Y-79762628D01*
X71742857Y-79762628D02*
X71771428Y-79705485D01*
X71771428Y-79705485D02*
X71800000Y-79676914D01*
X71800000Y-79676914D02*
X71857142Y-79648342D01*
X71857142Y-79648342D02*
X71971428Y-79648342D01*
X71971428Y-79648342D02*
X72028571Y-79676914D01*
X72028571Y-79676914D02*
X72057142Y-79705485D01*
X72057142Y-79705485D02*
X72085714Y-79762628D01*
X73161666Y-29454819D02*
X73494999Y-28978628D01*
X73733094Y-29454819D02*
X73733094Y-28454819D01*
X73733094Y-28454819D02*
X73352142Y-28454819D01*
X73352142Y-28454819D02*
X73256904Y-28502438D01*
X73256904Y-28502438D02*
X73209285Y-28550057D01*
X73209285Y-28550057D02*
X73161666Y-28645295D01*
X73161666Y-28645295D02*
X73161666Y-28788152D01*
X73161666Y-28788152D02*
X73209285Y-28883390D01*
X73209285Y-28883390D02*
X73256904Y-28931009D01*
X73256904Y-28931009D02*
X73352142Y-28978628D01*
X73352142Y-28978628D02*
X73733094Y-28978628D01*
X72828332Y-28454819D02*
X72209285Y-28454819D01*
X72209285Y-28454819D02*
X72542618Y-28835771D01*
X72542618Y-28835771D02*
X72399761Y-28835771D01*
X72399761Y-28835771D02*
X72304523Y-28883390D01*
X72304523Y-28883390D02*
X72256904Y-28931009D01*
X72256904Y-28931009D02*
X72209285Y-29026247D01*
X72209285Y-29026247D02*
X72209285Y-29264342D01*
X72209285Y-29264342D02*
X72256904Y-29359580D01*
X72256904Y-29359580D02*
X72304523Y-29407200D01*
X72304523Y-29407200D02*
X72399761Y-29454819D01*
X72399761Y-29454819D02*
X72685475Y-29454819D01*
X72685475Y-29454819D02*
X72780713Y-29407200D01*
X72780713Y-29407200D02*
X72828332Y-29359580D01*
X73742857Y-135559580D02*
X73790476Y-135607200D01*
X73790476Y-135607200D02*
X73933333Y-135654819D01*
X73933333Y-135654819D02*
X74028571Y-135654819D01*
X74028571Y-135654819D02*
X74171428Y-135607200D01*
X74171428Y-135607200D02*
X74266666Y-135511961D01*
X74266666Y-135511961D02*
X74314285Y-135416723D01*
X74314285Y-135416723D02*
X74361904Y-135226247D01*
X74361904Y-135226247D02*
X74361904Y-135083390D01*
X74361904Y-135083390D02*
X74314285Y-134892914D01*
X74314285Y-134892914D02*
X74266666Y-134797676D01*
X74266666Y-134797676D02*
X74171428Y-134702438D01*
X74171428Y-134702438D02*
X74028571Y-134654819D01*
X74028571Y-134654819D02*
X73933333Y-134654819D01*
X73933333Y-134654819D02*
X73790476Y-134702438D01*
X73790476Y-134702438D02*
X73742857Y-134750057D01*
X73409523Y-134654819D02*
X72790476Y-134654819D01*
X72790476Y-134654819D02*
X73123809Y-135035771D01*
X73123809Y-135035771D02*
X72980952Y-135035771D01*
X72980952Y-135035771D02*
X72885714Y-135083390D01*
X72885714Y-135083390D02*
X72838095Y-135131009D01*
X72838095Y-135131009D02*
X72790476Y-135226247D01*
X72790476Y-135226247D02*
X72790476Y-135464342D01*
X72790476Y-135464342D02*
X72838095Y-135559580D01*
X72838095Y-135559580D02*
X72885714Y-135607200D01*
X72885714Y-135607200D02*
X72980952Y-135654819D01*
X72980952Y-135654819D02*
X73266666Y-135654819D01*
X73266666Y-135654819D02*
X73361904Y-135607200D01*
X73361904Y-135607200D02*
X73409523Y-135559580D01*
X72457142Y-134654819D02*
X71790476Y-134654819D01*
X71790476Y-134654819D02*
X72219047Y-135654819D01*
X100286666Y-84859580D02*
X100334285Y-84907200D01*
X100334285Y-84907200D02*
X100477142Y-84954819D01*
X100477142Y-84954819D02*
X100572380Y-84954819D01*
X100572380Y-84954819D02*
X100715237Y-84907200D01*
X100715237Y-84907200D02*
X100810475Y-84811961D01*
X100810475Y-84811961D02*
X100858094Y-84716723D01*
X100858094Y-84716723D02*
X100905713Y-84526247D01*
X100905713Y-84526247D02*
X100905713Y-84383390D01*
X100905713Y-84383390D02*
X100858094Y-84192914D01*
X100858094Y-84192914D02*
X100810475Y-84097676D01*
X100810475Y-84097676D02*
X100715237Y-84002438D01*
X100715237Y-84002438D02*
X100572380Y-83954819D01*
X100572380Y-83954819D02*
X100477142Y-83954819D01*
X100477142Y-83954819D02*
X100334285Y-84002438D01*
X100334285Y-84002438D02*
X100286666Y-84050057D01*
X99429523Y-83954819D02*
X99619999Y-83954819D01*
X99619999Y-83954819D02*
X99715237Y-84002438D01*
X99715237Y-84002438D02*
X99762856Y-84050057D01*
X99762856Y-84050057D02*
X99858094Y-84192914D01*
X99858094Y-84192914D02*
X99905713Y-84383390D01*
X99905713Y-84383390D02*
X99905713Y-84764342D01*
X99905713Y-84764342D02*
X99858094Y-84859580D01*
X99858094Y-84859580D02*
X99810475Y-84907200D01*
X99810475Y-84907200D02*
X99715237Y-84954819D01*
X99715237Y-84954819D02*
X99524761Y-84954819D01*
X99524761Y-84954819D02*
X99429523Y-84907200D01*
X99429523Y-84907200D02*
X99381904Y-84859580D01*
X99381904Y-84859580D02*
X99334285Y-84764342D01*
X99334285Y-84764342D02*
X99334285Y-84526247D01*
X99334285Y-84526247D02*
X99381904Y-84431009D01*
X99381904Y-84431009D02*
X99429523Y-84383390D01*
X99429523Y-84383390D02*
X99524761Y-84335771D01*
X99524761Y-84335771D02*
X99715237Y-84335771D01*
X99715237Y-84335771D02*
X99810475Y-84383390D01*
X99810475Y-84383390D02*
X99858094Y-84431009D01*
X99858094Y-84431009D02*
X99905713Y-84526247D01*
X117450000Y-79749366D02*
X117483333Y-79782700D01*
X117483333Y-79782700D02*
X117583333Y-79816033D01*
X117583333Y-79816033D02*
X117650000Y-79816033D01*
X117650000Y-79816033D02*
X117750000Y-79782700D01*
X117750000Y-79782700D02*
X117816667Y-79716033D01*
X117816667Y-79716033D02*
X117850000Y-79649366D01*
X117850000Y-79649366D02*
X117883333Y-79516033D01*
X117883333Y-79516033D02*
X117883333Y-79416033D01*
X117883333Y-79416033D02*
X117850000Y-79282700D01*
X117850000Y-79282700D02*
X117816667Y-79216033D01*
X117816667Y-79216033D02*
X117750000Y-79149366D01*
X117750000Y-79149366D02*
X117650000Y-79116033D01*
X117650000Y-79116033D02*
X117583333Y-79116033D01*
X117583333Y-79116033D02*
X117483333Y-79149366D01*
X117483333Y-79149366D02*
X117450000Y-79182700D01*
X116783333Y-79816033D02*
X117183333Y-79816033D01*
X116983333Y-79816033D02*
X116983333Y-79116033D01*
X116983333Y-79116033D02*
X117050000Y-79216033D01*
X117050000Y-79216033D02*
X117116667Y-79282700D01*
X117116667Y-79282700D02*
X117183333Y-79316033D01*
X116383333Y-79416033D02*
X116450000Y-79382700D01*
X116450000Y-79382700D02*
X116483333Y-79349366D01*
X116483333Y-79349366D02*
X116516666Y-79282700D01*
X116516666Y-79282700D02*
X116516666Y-79249366D01*
X116516666Y-79249366D02*
X116483333Y-79182700D01*
X116483333Y-79182700D02*
X116450000Y-79149366D01*
X116450000Y-79149366D02*
X116383333Y-79116033D01*
X116383333Y-79116033D02*
X116250000Y-79116033D01*
X116250000Y-79116033D02*
X116183333Y-79149366D01*
X116183333Y-79149366D02*
X116150000Y-79182700D01*
X116150000Y-79182700D02*
X116116666Y-79249366D01*
X116116666Y-79249366D02*
X116116666Y-79282700D01*
X116116666Y-79282700D02*
X116150000Y-79349366D01*
X116150000Y-79349366D02*
X116183333Y-79382700D01*
X116183333Y-79382700D02*
X116250000Y-79416033D01*
X116250000Y-79416033D02*
X116383333Y-79416033D01*
X116383333Y-79416033D02*
X116450000Y-79449366D01*
X116450000Y-79449366D02*
X116483333Y-79482700D01*
X116483333Y-79482700D02*
X116516666Y-79549366D01*
X116516666Y-79549366D02*
X116516666Y-79682700D01*
X116516666Y-79682700D02*
X116483333Y-79749366D01*
X116483333Y-79749366D02*
X116450000Y-79782700D01*
X116450000Y-79782700D02*
X116383333Y-79816033D01*
X116383333Y-79816033D02*
X116250000Y-79816033D01*
X116250000Y-79816033D02*
X116183333Y-79782700D01*
X116183333Y-79782700D02*
X116150000Y-79749366D01*
X116150000Y-79749366D02*
X116116666Y-79682700D01*
X116116666Y-79682700D02*
X116116666Y-79549366D01*
X116116666Y-79549366D02*
X116150000Y-79482700D01*
X116150000Y-79482700D02*
X116183333Y-79449366D01*
X116183333Y-79449366D02*
X116250000Y-79416033D01*
X76579999Y-53305485D02*
X76779999Y-53305485D01*
X76779999Y-53619771D02*
X76779999Y-53019771D01*
X76779999Y-53019771D02*
X76494285Y-53019771D01*
X76065713Y-53305485D02*
X75979999Y-53334057D01*
X75979999Y-53334057D02*
X75951428Y-53362628D01*
X75951428Y-53362628D02*
X75922856Y-53419771D01*
X75922856Y-53419771D02*
X75922856Y-53505485D01*
X75922856Y-53505485D02*
X75951428Y-53562628D01*
X75951428Y-53562628D02*
X75979999Y-53591200D01*
X75979999Y-53591200D02*
X76037142Y-53619771D01*
X76037142Y-53619771D02*
X76265713Y-53619771D01*
X76265713Y-53619771D02*
X76265713Y-53019771D01*
X76265713Y-53019771D02*
X76065713Y-53019771D01*
X76065713Y-53019771D02*
X76008571Y-53048342D01*
X76008571Y-53048342D02*
X75979999Y-53076914D01*
X75979999Y-53076914D02*
X75951428Y-53134057D01*
X75951428Y-53134057D02*
X75951428Y-53191200D01*
X75951428Y-53191200D02*
X75979999Y-53248342D01*
X75979999Y-53248342D02*
X76008571Y-53276914D01*
X76008571Y-53276914D02*
X76065713Y-53305485D01*
X76065713Y-53305485D02*
X76265713Y-53305485D01*
X75408571Y-53019771D02*
X75522856Y-53019771D01*
X75522856Y-53019771D02*
X75579999Y-53048342D01*
X75579999Y-53048342D02*
X75608571Y-53076914D01*
X75608571Y-53076914D02*
X75665713Y-53162628D01*
X75665713Y-53162628D02*
X75694285Y-53276914D01*
X75694285Y-53276914D02*
X75694285Y-53505485D01*
X75694285Y-53505485D02*
X75665713Y-53562628D01*
X75665713Y-53562628D02*
X75637142Y-53591200D01*
X75637142Y-53591200D02*
X75579999Y-53619771D01*
X75579999Y-53619771D02*
X75465713Y-53619771D01*
X75465713Y-53619771D02*
X75408571Y-53591200D01*
X75408571Y-53591200D02*
X75379999Y-53562628D01*
X75379999Y-53562628D02*
X75351428Y-53505485D01*
X75351428Y-53505485D02*
X75351428Y-53362628D01*
X75351428Y-53362628D02*
X75379999Y-53305485D01*
X75379999Y-53305485D02*
X75408571Y-53276914D01*
X75408571Y-53276914D02*
X75465713Y-53248342D01*
X75465713Y-53248342D02*
X75579999Y-53248342D01*
X75579999Y-53248342D02*
X75637142Y-53276914D01*
X75637142Y-53276914D02*
X75665713Y-53305485D01*
X75665713Y-53305485D02*
X75694285Y-53362628D01*
X108495714Y-56162628D02*
X108524286Y-56191200D01*
X108524286Y-56191200D02*
X108610000Y-56219771D01*
X108610000Y-56219771D02*
X108667143Y-56219771D01*
X108667143Y-56219771D02*
X108752857Y-56191200D01*
X108752857Y-56191200D02*
X108810000Y-56134057D01*
X108810000Y-56134057D02*
X108838571Y-56076914D01*
X108838571Y-56076914D02*
X108867143Y-55962628D01*
X108867143Y-55962628D02*
X108867143Y-55876914D01*
X108867143Y-55876914D02*
X108838571Y-55762628D01*
X108838571Y-55762628D02*
X108810000Y-55705485D01*
X108810000Y-55705485D02*
X108752857Y-55648342D01*
X108752857Y-55648342D02*
X108667143Y-55619771D01*
X108667143Y-55619771D02*
X108610000Y-55619771D01*
X108610000Y-55619771D02*
X108524286Y-55648342D01*
X108524286Y-55648342D02*
X108495714Y-55676914D01*
X107981429Y-55819771D02*
X107981429Y-56219771D01*
X108124286Y-55591200D02*
X108267143Y-56019771D01*
X108267143Y-56019771D02*
X107895714Y-56019771D01*
X107638571Y-56219771D02*
X107524285Y-56219771D01*
X107524285Y-56219771D02*
X107467142Y-56191200D01*
X107467142Y-56191200D02*
X107438571Y-56162628D01*
X107438571Y-56162628D02*
X107381428Y-56076914D01*
X107381428Y-56076914D02*
X107352857Y-55962628D01*
X107352857Y-55962628D02*
X107352857Y-55734057D01*
X107352857Y-55734057D02*
X107381428Y-55676914D01*
X107381428Y-55676914D02*
X107410000Y-55648342D01*
X107410000Y-55648342D02*
X107467142Y-55619771D01*
X107467142Y-55619771D02*
X107581428Y-55619771D01*
X107581428Y-55619771D02*
X107638571Y-55648342D01*
X107638571Y-55648342D02*
X107667142Y-55676914D01*
X107667142Y-55676914D02*
X107695714Y-55734057D01*
X107695714Y-55734057D02*
X107695714Y-55876914D01*
X107695714Y-55876914D02*
X107667142Y-55934057D01*
X107667142Y-55934057D02*
X107638571Y-55962628D01*
X107638571Y-55962628D02*
X107581428Y-55991200D01*
X107581428Y-55991200D02*
X107467142Y-55991200D01*
X107467142Y-55991200D02*
X107410000Y-55962628D01*
X107410000Y-55962628D02*
X107381428Y-55934057D01*
X107381428Y-55934057D02*
X107352857Y-55876914D01*
X113885714Y-57699771D02*
X113542857Y-57699771D01*
X113714285Y-58299771D02*
X113714285Y-57699771D01*
X113114285Y-58271200D02*
X113171428Y-58299771D01*
X113171428Y-58299771D02*
X113285714Y-58299771D01*
X113285714Y-58299771D02*
X113342856Y-58271200D01*
X113342856Y-58271200D02*
X113371428Y-58214057D01*
X113371428Y-58214057D02*
X113371428Y-57985485D01*
X113371428Y-57985485D02*
X113342856Y-57928342D01*
X113342856Y-57928342D02*
X113285714Y-57899771D01*
X113285714Y-57899771D02*
X113171428Y-57899771D01*
X113171428Y-57899771D02*
X113114285Y-57928342D01*
X113114285Y-57928342D02*
X113085714Y-57985485D01*
X113085714Y-57985485D02*
X113085714Y-58042628D01*
X113085714Y-58042628D02*
X113371428Y-58099771D01*
X112828570Y-58299771D02*
X112828570Y-57899771D01*
X112828570Y-57956914D02*
X112799999Y-57928342D01*
X112799999Y-57928342D02*
X112742856Y-57899771D01*
X112742856Y-57899771D02*
X112657142Y-57899771D01*
X112657142Y-57899771D02*
X112599999Y-57928342D01*
X112599999Y-57928342D02*
X112571428Y-57985485D01*
X112571428Y-57985485D02*
X112571428Y-58299771D01*
X112571428Y-57985485D02*
X112542856Y-57928342D01*
X112542856Y-57928342D02*
X112485713Y-57899771D01*
X112485713Y-57899771D02*
X112399999Y-57899771D01*
X112399999Y-57899771D02*
X112342856Y-57928342D01*
X112342856Y-57928342D02*
X112314285Y-57985485D01*
X112314285Y-57985485D02*
X112314285Y-58299771D01*
X112028570Y-57899771D02*
X112028570Y-58499771D01*
X112028570Y-57928342D02*
X111971428Y-57899771D01*
X111971428Y-57899771D02*
X111857142Y-57899771D01*
X111857142Y-57899771D02*
X111799999Y-57928342D01*
X111799999Y-57928342D02*
X111771428Y-57956914D01*
X111771428Y-57956914D02*
X111742856Y-58014057D01*
X111742856Y-58014057D02*
X111742856Y-58185485D01*
X111742856Y-58185485D02*
X111771428Y-58242628D01*
X111771428Y-58242628D02*
X111799999Y-58271200D01*
X111799999Y-58271200D02*
X111857142Y-58299771D01*
X111857142Y-58299771D02*
X111971428Y-58299771D01*
X111971428Y-58299771D02*
X112028570Y-58271200D01*
X111171428Y-58299771D02*
X111514285Y-58299771D01*
X111342856Y-58299771D02*
X111342856Y-57699771D01*
X111342856Y-57699771D02*
X111399999Y-57785485D01*
X111399999Y-57785485D02*
X111457142Y-57842628D01*
X111457142Y-57842628D02*
X111514285Y-57871200D01*
X81515714Y-92300628D02*
X81544286Y-92329200D01*
X81544286Y-92329200D02*
X81630000Y-92357771D01*
X81630000Y-92357771D02*
X81687143Y-92357771D01*
X81687143Y-92357771D02*
X81772857Y-92329200D01*
X81772857Y-92329200D02*
X81830000Y-92272057D01*
X81830000Y-92272057D02*
X81858571Y-92214914D01*
X81858571Y-92214914D02*
X81887143Y-92100628D01*
X81887143Y-92100628D02*
X81887143Y-92014914D01*
X81887143Y-92014914D02*
X81858571Y-91900628D01*
X81858571Y-91900628D02*
X81830000Y-91843485D01*
X81830000Y-91843485D02*
X81772857Y-91786342D01*
X81772857Y-91786342D02*
X81687143Y-91757771D01*
X81687143Y-91757771D02*
X81630000Y-91757771D01*
X81630000Y-91757771D02*
X81544286Y-91786342D01*
X81544286Y-91786342D02*
X81515714Y-91814914D01*
X80944286Y-92357771D02*
X81287143Y-92357771D01*
X81115714Y-92357771D02*
X81115714Y-91757771D01*
X81115714Y-91757771D02*
X81172857Y-91843485D01*
X81172857Y-91843485D02*
X81230000Y-91900628D01*
X81230000Y-91900628D02*
X81287143Y-91929200D01*
X80715714Y-91814914D02*
X80687142Y-91786342D01*
X80687142Y-91786342D02*
X80630000Y-91757771D01*
X80630000Y-91757771D02*
X80487142Y-91757771D01*
X80487142Y-91757771D02*
X80430000Y-91786342D01*
X80430000Y-91786342D02*
X80401428Y-91814914D01*
X80401428Y-91814914D02*
X80372857Y-91872057D01*
X80372857Y-91872057D02*
X80372857Y-91929200D01*
X80372857Y-91929200D02*
X80401428Y-92014914D01*
X80401428Y-92014914D02*
X80744285Y-92357771D01*
X80744285Y-92357771D02*
X80372857Y-92357771D01*
X94050000Y-88719771D02*
X94050000Y-89148342D01*
X94050000Y-89148342D02*
X94078571Y-89234057D01*
X94078571Y-89234057D02*
X94135714Y-89291200D01*
X94135714Y-89291200D02*
X94221428Y-89319771D01*
X94221428Y-89319771D02*
X94278571Y-89319771D01*
X93764285Y-89319771D02*
X93764285Y-88719771D01*
X93764285Y-88719771D02*
X93535714Y-88719771D01*
X93535714Y-88719771D02*
X93478571Y-88748342D01*
X93478571Y-88748342D02*
X93450000Y-88776914D01*
X93450000Y-88776914D02*
X93421428Y-88834057D01*
X93421428Y-88834057D02*
X93421428Y-88919771D01*
X93421428Y-88919771D02*
X93450000Y-88976914D01*
X93450000Y-88976914D02*
X93478571Y-89005485D01*
X93478571Y-89005485D02*
X93535714Y-89034057D01*
X93535714Y-89034057D02*
X93764285Y-89034057D01*
X92850000Y-89319771D02*
X93192857Y-89319771D01*
X93021428Y-89319771D02*
X93021428Y-88719771D01*
X93021428Y-88719771D02*
X93078571Y-88805485D01*
X93078571Y-88805485D02*
X93135714Y-88862628D01*
X93135714Y-88862628D02*
X93192857Y-88891200D01*
X89385713Y-90695485D02*
X89299999Y-90724057D01*
X89299999Y-90724057D02*
X89271428Y-90752628D01*
X89271428Y-90752628D02*
X89242856Y-90809771D01*
X89242856Y-90809771D02*
X89242856Y-90895485D01*
X89242856Y-90895485D02*
X89271428Y-90952628D01*
X89271428Y-90952628D02*
X89299999Y-90981200D01*
X89299999Y-90981200D02*
X89357142Y-91009771D01*
X89357142Y-91009771D02*
X89585713Y-91009771D01*
X89585713Y-91009771D02*
X89585713Y-90409771D01*
X89585713Y-90409771D02*
X89385713Y-90409771D01*
X89385713Y-90409771D02*
X89328571Y-90438342D01*
X89328571Y-90438342D02*
X89299999Y-90466914D01*
X89299999Y-90466914D02*
X89271428Y-90524057D01*
X89271428Y-90524057D02*
X89271428Y-90581200D01*
X89271428Y-90581200D02*
X89299999Y-90638342D01*
X89299999Y-90638342D02*
X89328571Y-90666914D01*
X89328571Y-90666914D02*
X89385713Y-90695485D01*
X89385713Y-90695485D02*
X89585713Y-90695485D01*
X88871428Y-90409771D02*
X88757142Y-90409771D01*
X88757142Y-90409771D02*
X88699999Y-90438342D01*
X88699999Y-90438342D02*
X88642856Y-90495485D01*
X88642856Y-90495485D02*
X88614285Y-90609771D01*
X88614285Y-90609771D02*
X88614285Y-90809771D01*
X88614285Y-90809771D02*
X88642856Y-90924057D01*
X88642856Y-90924057D02*
X88699999Y-90981200D01*
X88699999Y-90981200D02*
X88757142Y-91009771D01*
X88757142Y-91009771D02*
X88871428Y-91009771D01*
X88871428Y-91009771D02*
X88928571Y-90981200D01*
X88928571Y-90981200D02*
X88985713Y-90924057D01*
X88985713Y-90924057D02*
X89014285Y-90809771D01*
X89014285Y-90809771D02*
X89014285Y-90609771D01*
X89014285Y-90609771D02*
X88985713Y-90495485D01*
X88985713Y-90495485D02*
X88928571Y-90438342D01*
X88928571Y-90438342D02*
X88871428Y-90409771D01*
X88242857Y-90409771D02*
X88128571Y-90409771D01*
X88128571Y-90409771D02*
X88071428Y-90438342D01*
X88071428Y-90438342D02*
X88014285Y-90495485D01*
X88014285Y-90495485D02*
X87985714Y-90609771D01*
X87985714Y-90609771D02*
X87985714Y-90809771D01*
X87985714Y-90809771D02*
X88014285Y-90924057D01*
X88014285Y-90924057D02*
X88071428Y-90981200D01*
X88071428Y-90981200D02*
X88128571Y-91009771D01*
X88128571Y-91009771D02*
X88242857Y-91009771D01*
X88242857Y-91009771D02*
X88300000Y-90981200D01*
X88300000Y-90981200D02*
X88357142Y-90924057D01*
X88357142Y-90924057D02*
X88385714Y-90809771D01*
X88385714Y-90809771D02*
X88385714Y-90609771D01*
X88385714Y-90609771D02*
X88357142Y-90495485D01*
X88357142Y-90495485D02*
X88300000Y-90438342D01*
X88300000Y-90438342D02*
X88242857Y-90409771D01*
X87814286Y-90409771D02*
X87471429Y-90409771D01*
X87642857Y-91009771D02*
X87642857Y-90409771D01*
X86814285Y-91009771D02*
X86814285Y-90409771D01*
X86814285Y-90409771D02*
X86614285Y-90838342D01*
X86614285Y-90838342D02*
X86414285Y-90409771D01*
X86414285Y-90409771D02*
X86414285Y-91009771D01*
X86042857Y-91009771D02*
X86100000Y-90981200D01*
X86100000Y-90981200D02*
X86128571Y-90952628D01*
X86128571Y-90952628D02*
X86157143Y-90895485D01*
X86157143Y-90895485D02*
X86157143Y-90724057D01*
X86157143Y-90724057D02*
X86128571Y-90666914D01*
X86128571Y-90666914D02*
X86100000Y-90638342D01*
X86100000Y-90638342D02*
X86042857Y-90609771D01*
X86042857Y-90609771D02*
X85957143Y-90609771D01*
X85957143Y-90609771D02*
X85900000Y-90638342D01*
X85900000Y-90638342D02*
X85871429Y-90666914D01*
X85871429Y-90666914D02*
X85842857Y-90724057D01*
X85842857Y-90724057D02*
X85842857Y-90895485D01*
X85842857Y-90895485D02*
X85871429Y-90952628D01*
X85871429Y-90952628D02*
X85900000Y-90981200D01*
X85900000Y-90981200D02*
X85957143Y-91009771D01*
X85957143Y-91009771D02*
X86042857Y-91009771D01*
X85328572Y-91009771D02*
X85328572Y-90409771D01*
X85328572Y-90981200D02*
X85385714Y-91009771D01*
X85385714Y-91009771D02*
X85500000Y-91009771D01*
X85500000Y-91009771D02*
X85557143Y-90981200D01*
X85557143Y-90981200D02*
X85585714Y-90952628D01*
X85585714Y-90952628D02*
X85614286Y-90895485D01*
X85614286Y-90895485D02*
X85614286Y-90724057D01*
X85614286Y-90724057D02*
X85585714Y-90666914D01*
X85585714Y-90666914D02*
X85557143Y-90638342D01*
X85557143Y-90638342D02*
X85500000Y-90609771D01*
X85500000Y-90609771D02*
X85385714Y-90609771D01*
X85385714Y-90609771D02*
X85328572Y-90638342D01*
X84814286Y-90981200D02*
X84871429Y-91009771D01*
X84871429Y-91009771D02*
X84985715Y-91009771D01*
X84985715Y-91009771D02*
X85042857Y-90981200D01*
X85042857Y-90981200D02*
X85071429Y-90924057D01*
X85071429Y-90924057D02*
X85071429Y-90695485D01*
X85071429Y-90695485D02*
X85042857Y-90638342D01*
X85042857Y-90638342D02*
X84985715Y-90609771D01*
X84985715Y-90609771D02*
X84871429Y-90609771D01*
X84871429Y-90609771D02*
X84814286Y-90638342D01*
X84814286Y-90638342D02*
X84785715Y-90695485D01*
X84785715Y-90695485D02*
X84785715Y-90752628D01*
X84785715Y-90752628D02*
X85071429Y-90809771D01*
X81385714Y-79962628D02*
X81414286Y-79991200D01*
X81414286Y-79991200D02*
X81500000Y-80019771D01*
X81500000Y-80019771D02*
X81557143Y-80019771D01*
X81557143Y-80019771D02*
X81642857Y-79991200D01*
X81642857Y-79991200D02*
X81700000Y-79934057D01*
X81700000Y-79934057D02*
X81728571Y-79876914D01*
X81728571Y-79876914D02*
X81757143Y-79762628D01*
X81757143Y-79762628D02*
X81757143Y-79676914D01*
X81757143Y-79676914D02*
X81728571Y-79562628D01*
X81728571Y-79562628D02*
X81700000Y-79505485D01*
X81700000Y-79505485D02*
X81642857Y-79448342D01*
X81642857Y-79448342D02*
X81557143Y-79419771D01*
X81557143Y-79419771D02*
X81500000Y-79419771D01*
X81500000Y-79419771D02*
X81414286Y-79448342D01*
X81414286Y-79448342D02*
X81385714Y-79476914D01*
X81185714Y-79419771D02*
X80814286Y-79419771D01*
X80814286Y-79419771D02*
X81014286Y-79648342D01*
X81014286Y-79648342D02*
X80928571Y-79648342D01*
X80928571Y-79648342D02*
X80871429Y-79676914D01*
X80871429Y-79676914D02*
X80842857Y-79705485D01*
X80842857Y-79705485D02*
X80814286Y-79762628D01*
X80814286Y-79762628D02*
X80814286Y-79905485D01*
X80814286Y-79905485D02*
X80842857Y-79962628D01*
X80842857Y-79962628D02*
X80871429Y-79991200D01*
X80871429Y-79991200D02*
X80928571Y-80019771D01*
X80928571Y-80019771D02*
X81100000Y-80019771D01*
X81100000Y-80019771D02*
X81157143Y-79991200D01*
X81157143Y-79991200D02*
X81185714Y-79962628D01*
X80242857Y-80019771D02*
X80585714Y-80019771D01*
X80414285Y-80019771D02*
X80414285Y-79419771D01*
X80414285Y-79419771D02*
X80471428Y-79505485D01*
X80471428Y-79505485D02*
X80528571Y-79562628D01*
X80528571Y-79562628D02*
X80585714Y-79591200D01*
X210135714Y-66029771D02*
X210335714Y-65744057D01*
X210478571Y-66029771D02*
X210478571Y-65429771D01*
X210478571Y-65429771D02*
X210250000Y-65429771D01*
X210250000Y-65429771D02*
X210192857Y-65458342D01*
X210192857Y-65458342D02*
X210164286Y-65486914D01*
X210164286Y-65486914D02*
X210135714Y-65544057D01*
X210135714Y-65544057D02*
X210135714Y-65629771D01*
X210135714Y-65629771D02*
X210164286Y-65686914D01*
X210164286Y-65686914D02*
X210192857Y-65715485D01*
X210192857Y-65715485D02*
X210250000Y-65744057D01*
X210250000Y-65744057D02*
X210478571Y-65744057D01*
X209564286Y-66029771D02*
X209907143Y-66029771D01*
X209735714Y-66029771D02*
X209735714Y-65429771D01*
X209735714Y-65429771D02*
X209792857Y-65515485D01*
X209792857Y-65515485D02*
X209850000Y-65572628D01*
X209850000Y-65572628D02*
X209907143Y-65601200D01*
X208992857Y-66029771D02*
X209335714Y-66029771D01*
X209164285Y-66029771D02*
X209164285Y-65429771D01*
X209164285Y-65429771D02*
X209221428Y-65515485D01*
X209221428Y-65515485D02*
X209278571Y-65572628D01*
X209278571Y-65572628D02*
X209335714Y-65601200D01*
X78465714Y-53012628D02*
X78494286Y-53041200D01*
X78494286Y-53041200D02*
X78580000Y-53069771D01*
X78580000Y-53069771D02*
X78637143Y-53069771D01*
X78637143Y-53069771D02*
X78722857Y-53041200D01*
X78722857Y-53041200D02*
X78780000Y-52984057D01*
X78780000Y-52984057D02*
X78808571Y-52926914D01*
X78808571Y-52926914D02*
X78837143Y-52812628D01*
X78837143Y-52812628D02*
X78837143Y-52726914D01*
X78837143Y-52726914D02*
X78808571Y-52612628D01*
X78808571Y-52612628D02*
X78780000Y-52555485D01*
X78780000Y-52555485D02*
X78722857Y-52498342D01*
X78722857Y-52498342D02*
X78637143Y-52469771D01*
X78637143Y-52469771D02*
X78580000Y-52469771D01*
X78580000Y-52469771D02*
X78494286Y-52498342D01*
X78494286Y-52498342D02*
X78465714Y-52526914D01*
X78265714Y-52469771D02*
X77894286Y-52469771D01*
X77894286Y-52469771D02*
X78094286Y-52698342D01*
X78094286Y-52698342D02*
X78008571Y-52698342D01*
X78008571Y-52698342D02*
X77951429Y-52726914D01*
X77951429Y-52726914D02*
X77922857Y-52755485D01*
X77922857Y-52755485D02*
X77894286Y-52812628D01*
X77894286Y-52812628D02*
X77894286Y-52955485D01*
X77894286Y-52955485D02*
X77922857Y-53012628D01*
X77922857Y-53012628D02*
X77951429Y-53041200D01*
X77951429Y-53041200D02*
X78008571Y-53069771D01*
X78008571Y-53069771D02*
X78180000Y-53069771D01*
X78180000Y-53069771D02*
X78237143Y-53041200D01*
X78237143Y-53041200D02*
X78265714Y-53012628D01*
X77694285Y-52469771D02*
X77322857Y-52469771D01*
X77322857Y-52469771D02*
X77522857Y-52698342D01*
X77522857Y-52698342D02*
X77437142Y-52698342D01*
X77437142Y-52698342D02*
X77380000Y-52726914D01*
X77380000Y-52726914D02*
X77351428Y-52755485D01*
X77351428Y-52755485D02*
X77322857Y-52812628D01*
X77322857Y-52812628D02*
X77322857Y-52955485D01*
X77322857Y-52955485D02*
X77351428Y-53012628D01*
X77351428Y-53012628D02*
X77380000Y-53041200D01*
X77380000Y-53041200D02*
X77437142Y-53069771D01*
X77437142Y-53069771D02*
X77608571Y-53069771D01*
X77608571Y-53069771D02*
X77665714Y-53041200D01*
X77665714Y-53041200D02*
X77694285Y-53012628D01*
X72885714Y-100262628D02*
X72914286Y-100291200D01*
X72914286Y-100291200D02*
X73000000Y-100319771D01*
X73000000Y-100319771D02*
X73057143Y-100319771D01*
X73057143Y-100319771D02*
X73142857Y-100291200D01*
X73142857Y-100291200D02*
X73200000Y-100234057D01*
X73200000Y-100234057D02*
X73228571Y-100176914D01*
X73228571Y-100176914D02*
X73257143Y-100062628D01*
X73257143Y-100062628D02*
X73257143Y-99976914D01*
X73257143Y-99976914D02*
X73228571Y-99862628D01*
X73228571Y-99862628D02*
X73200000Y-99805485D01*
X73200000Y-99805485D02*
X73142857Y-99748342D01*
X73142857Y-99748342D02*
X73057143Y-99719771D01*
X73057143Y-99719771D02*
X73000000Y-99719771D01*
X73000000Y-99719771D02*
X72914286Y-99748342D01*
X72914286Y-99748342D02*
X72885714Y-99776914D01*
X72657143Y-99776914D02*
X72628571Y-99748342D01*
X72628571Y-99748342D02*
X72571429Y-99719771D01*
X72571429Y-99719771D02*
X72428571Y-99719771D01*
X72428571Y-99719771D02*
X72371429Y-99748342D01*
X72371429Y-99748342D02*
X72342857Y-99776914D01*
X72342857Y-99776914D02*
X72314286Y-99834057D01*
X72314286Y-99834057D02*
X72314286Y-99891200D01*
X72314286Y-99891200D02*
X72342857Y-99976914D01*
X72342857Y-99976914D02*
X72685714Y-100319771D01*
X72685714Y-100319771D02*
X72314286Y-100319771D01*
X72114285Y-99719771D02*
X71714285Y-99719771D01*
X71714285Y-99719771D02*
X71971428Y-100319771D01*
X94366666Y-96549580D02*
X94414285Y-96597200D01*
X94414285Y-96597200D02*
X94557142Y-96644819D01*
X94557142Y-96644819D02*
X94652380Y-96644819D01*
X94652380Y-96644819D02*
X94795237Y-96597200D01*
X94795237Y-96597200D02*
X94890475Y-96501961D01*
X94890475Y-96501961D02*
X94938094Y-96406723D01*
X94938094Y-96406723D02*
X94985713Y-96216247D01*
X94985713Y-96216247D02*
X94985713Y-96073390D01*
X94985713Y-96073390D02*
X94938094Y-95882914D01*
X94938094Y-95882914D02*
X94890475Y-95787676D01*
X94890475Y-95787676D02*
X94795237Y-95692438D01*
X94795237Y-95692438D02*
X94652380Y-95644819D01*
X94652380Y-95644819D02*
X94557142Y-95644819D01*
X94557142Y-95644819D02*
X94414285Y-95692438D01*
X94414285Y-95692438D02*
X94366666Y-95740057D01*
X93414285Y-96644819D02*
X93985713Y-96644819D01*
X93699999Y-96644819D02*
X93699999Y-95644819D01*
X93699999Y-95644819D02*
X93795237Y-95787676D01*
X93795237Y-95787676D02*
X93890475Y-95882914D01*
X93890475Y-95882914D02*
X93985713Y-95930533D01*
X71042857Y-52829580D02*
X71090476Y-52877200D01*
X71090476Y-52877200D02*
X71233333Y-52924819D01*
X71233333Y-52924819D02*
X71328571Y-52924819D01*
X71328571Y-52924819D02*
X71471428Y-52877200D01*
X71471428Y-52877200D02*
X71566666Y-52781961D01*
X71566666Y-52781961D02*
X71614285Y-52686723D01*
X71614285Y-52686723D02*
X71661904Y-52496247D01*
X71661904Y-52496247D02*
X71661904Y-52353390D01*
X71661904Y-52353390D02*
X71614285Y-52162914D01*
X71614285Y-52162914D02*
X71566666Y-52067676D01*
X71566666Y-52067676D02*
X71471428Y-51972438D01*
X71471428Y-51972438D02*
X71328571Y-51924819D01*
X71328571Y-51924819D02*
X71233333Y-51924819D01*
X71233333Y-51924819D02*
X71090476Y-51972438D01*
X71090476Y-51972438D02*
X71042857Y-52020057D01*
X70661904Y-52020057D02*
X70614285Y-51972438D01*
X70614285Y-51972438D02*
X70519047Y-51924819D01*
X70519047Y-51924819D02*
X70280952Y-51924819D01*
X70280952Y-51924819D02*
X70185714Y-51972438D01*
X70185714Y-51972438D02*
X70138095Y-52020057D01*
X70138095Y-52020057D02*
X70090476Y-52115295D01*
X70090476Y-52115295D02*
X70090476Y-52210533D01*
X70090476Y-52210533D02*
X70138095Y-52353390D01*
X70138095Y-52353390D02*
X70709523Y-52924819D01*
X70709523Y-52924819D02*
X70090476Y-52924819D01*
X69614285Y-52924819D02*
X69423809Y-52924819D01*
X69423809Y-52924819D02*
X69328571Y-52877200D01*
X69328571Y-52877200D02*
X69280952Y-52829580D01*
X69280952Y-52829580D02*
X69185714Y-52686723D01*
X69185714Y-52686723D02*
X69138095Y-52496247D01*
X69138095Y-52496247D02*
X69138095Y-52115295D01*
X69138095Y-52115295D02*
X69185714Y-52020057D01*
X69185714Y-52020057D02*
X69233333Y-51972438D01*
X69233333Y-51972438D02*
X69328571Y-51924819D01*
X69328571Y-51924819D02*
X69519047Y-51924819D01*
X69519047Y-51924819D02*
X69614285Y-51972438D01*
X69614285Y-51972438D02*
X69661904Y-52020057D01*
X69661904Y-52020057D02*
X69709523Y-52115295D01*
X69709523Y-52115295D02*
X69709523Y-52353390D01*
X69709523Y-52353390D02*
X69661904Y-52448628D01*
X69661904Y-52448628D02*
X69614285Y-52496247D01*
X69614285Y-52496247D02*
X69519047Y-52543866D01*
X69519047Y-52543866D02*
X69328571Y-52543866D01*
X69328571Y-52543866D02*
X69233333Y-52496247D01*
X69233333Y-52496247D02*
X69185714Y-52448628D01*
X69185714Y-52448628D02*
X69138095Y-52353390D01*
X71042857Y-54789580D02*
X71090476Y-54837200D01*
X71090476Y-54837200D02*
X71233333Y-54884819D01*
X71233333Y-54884819D02*
X71328571Y-54884819D01*
X71328571Y-54884819D02*
X71471428Y-54837200D01*
X71471428Y-54837200D02*
X71566666Y-54741961D01*
X71566666Y-54741961D02*
X71614285Y-54646723D01*
X71614285Y-54646723D02*
X71661904Y-54456247D01*
X71661904Y-54456247D02*
X71661904Y-54313390D01*
X71661904Y-54313390D02*
X71614285Y-54122914D01*
X71614285Y-54122914D02*
X71566666Y-54027676D01*
X71566666Y-54027676D02*
X71471428Y-53932438D01*
X71471428Y-53932438D02*
X71328571Y-53884819D01*
X71328571Y-53884819D02*
X71233333Y-53884819D01*
X71233333Y-53884819D02*
X71090476Y-53932438D01*
X71090476Y-53932438D02*
X71042857Y-53980057D01*
X70709523Y-53884819D02*
X70090476Y-53884819D01*
X70090476Y-53884819D02*
X70423809Y-54265771D01*
X70423809Y-54265771D02*
X70280952Y-54265771D01*
X70280952Y-54265771D02*
X70185714Y-54313390D01*
X70185714Y-54313390D02*
X70138095Y-54361009D01*
X70138095Y-54361009D02*
X70090476Y-54456247D01*
X70090476Y-54456247D02*
X70090476Y-54694342D01*
X70090476Y-54694342D02*
X70138095Y-54789580D01*
X70138095Y-54789580D02*
X70185714Y-54837200D01*
X70185714Y-54837200D02*
X70280952Y-54884819D01*
X70280952Y-54884819D02*
X70566666Y-54884819D01*
X70566666Y-54884819D02*
X70661904Y-54837200D01*
X70661904Y-54837200D02*
X70709523Y-54789580D01*
X69471428Y-53884819D02*
X69376190Y-53884819D01*
X69376190Y-53884819D02*
X69280952Y-53932438D01*
X69280952Y-53932438D02*
X69233333Y-53980057D01*
X69233333Y-53980057D02*
X69185714Y-54075295D01*
X69185714Y-54075295D02*
X69138095Y-54265771D01*
X69138095Y-54265771D02*
X69138095Y-54503866D01*
X69138095Y-54503866D02*
X69185714Y-54694342D01*
X69185714Y-54694342D02*
X69233333Y-54789580D01*
X69233333Y-54789580D02*
X69280952Y-54837200D01*
X69280952Y-54837200D02*
X69376190Y-54884819D01*
X69376190Y-54884819D02*
X69471428Y-54884819D01*
X69471428Y-54884819D02*
X69566666Y-54837200D01*
X69566666Y-54837200D02*
X69614285Y-54789580D01*
X69614285Y-54789580D02*
X69661904Y-54694342D01*
X69661904Y-54694342D02*
X69709523Y-54503866D01*
X69709523Y-54503866D02*
X69709523Y-54265771D01*
X69709523Y-54265771D02*
X69661904Y-54075295D01*
X69661904Y-54075295D02*
X69614285Y-53980057D01*
X69614285Y-53980057D02*
X69566666Y-53932438D01*
X69566666Y-53932438D02*
X69471428Y-53884819D01*
X208135714Y-71677271D02*
X208335714Y-71391557D01*
X208478571Y-71677271D02*
X208478571Y-71077271D01*
X208478571Y-71077271D02*
X208250000Y-71077271D01*
X208250000Y-71077271D02*
X208192857Y-71105842D01*
X208192857Y-71105842D02*
X208164286Y-71134414D01*
X208164286Y-71134414D02*
X208135714Y-71191557D01*
X208135714Y-71191557D02*
X208135714Y-71277271D01*
X208135714Y-71277271D02*
X208164286Y-71334414D01*
X208164286Y-71334414D02*
X208192857Y-71362985D01*
X208192857Y-71362985D02*
X208250000Y-71391557D01*
X208250000Y-71391557D02*
X208478571Y-71391557D01*
X207564286Y-71677271D02*
X207907143Y-71677271D01*
X207735714Y-71677271D02*
X207735714Y-71077271D01*
X207735714Y-71077271D02*
X207792857Y-71162985D01*
X207792857Y-71162985D02*
X207850000Y-71220128D01*
X207850000Y-71220128D02*
X207907143Y-71248700D01*
X207021428Y-71077271D02*
X207307142Y-71077271D01*
X207307142Y-71077271D02*
X207335714Y-71362985D01*
X207335714Y-71362985D02*
X207307142Y-71334414D01*
X207307142Y-71334414D02*
X207250000Y-71305842D01*
X207250000Y-71305842D02*
X207107142Y-71305842D01*
X207107142Y-71305842D02*
X207050000Y-71334414D01*
X207050000Y-71334414D02*
X207021428Y-71362985D01*
X207021428Y-71362985D02*
X206992857Y-71420128D01*
X206992857Y-71420128D02*
X206992857Y-71562985D01*
X206992857Y-71562985D02*
X207021428Y-71620128D01*
X207021428Y-71620128D02*
X207050000Y-71648700D01*
X207050000Y-71648700D02*
X207107142Y-71677271D01*
X207107142Y-71677271D02*
X207250000Y-71677271D01*
X207250000Y-71677271D02*
X207307142Y-71648700D01*
X207307142Y-71648700D02*
X207335714Y-71620128D01*
X89916666Y-101259580D02*
X89964285Y-101307200D01*
X89964285Y-101307200D02*
X90107142Y-101354819D01*
X90107142Y-101354819D02*
X90202380Y-101354819D01*
X90202380Y-101354819D02*
X90345237Y-101307200D01*
X90345237Y-101307200D02*
X90440475Y-101211961D01*
X90440475Y-101211961D02*
X90488094Y-101116723D01*
X90488094Y-101116723D02*
X90535713Y-100926247D01*
X90535713Y-100926247D02*
X90535713Y-100783390D01*
X90535713Y-100783390D02*
X90488094Y-100592914D01*
X90488094Y-100592914D02*
X90440475Y-100497676D01*
X90440475Y-100497676D02*
X90345237Y-100402438D01*
X90345237Y-100402438D02*
X90202380Y-100354819D01*
X90202380Y-100354819D02*
X90107142Y-100354819D01*
X90107142Y-100354819D02*
X89964285Y-100402438D01*
X89964285Y-100402438D02*
X89916666Y-100450057D01*
X89059523Y-100688152D02*
X89059523Y-101354819D01*
X89297618Y-100307200D02*
X89535713Y-101021485D01*
X89535713Y-101021485D02*
X88916666Y-101021485D01*
X87742857Y-135559580D02*
X87790476Y-135607200D01*
X87790476Y-135607200D02*
X87933333Y-135654819D01*
X87933333Y-135654819D02*
X88028571Y-135654819D01*
X88028571Y-135654819D02*
X88171428Y-135607200D01*
X88171428Y-135607200D02*
X88266666Y-135511961D01*
X88266666Y-135511961D02*
X88314285Y-135416723D01*
X88314285Y-135416723D02*
X88361904Y-135226247D01*
X88361904Y-135226247D02*
X88361904Y-135083390D01*
X88361904Y-135083390D02*
X88314285Y-134892914D01*
X88314285Y-134892914D02*
X88266666Y-134797676D01*
X88266666Y-134797676D02*
X88171428Y-134702438D01*
X88171428Y-134702438D02*
X88028571Y-134654819D01*
X88028571Y-134654819D02*
X87933333Y-134654819D01*
X87933333Y-134654819D02*
X87790476Y-134702438D01*
X87790476Y-134702438D02*
X87742857Y-134750057D01*
X86885714Y-134988152D02*
X86885714Y-135654819D01*
X87123809Y-134607200D02*
X87361904Y-135321485D01*
X87361904Y-135321485D02*
X86742857Y-135321485D01*
X86171428Y-134654819D02*
X86076190Y-134654819D01*
X86076190Y-134654819D02*
X85980952Y-134702438D01*
X85980952Y-134702438D02*
X85933333Y-134750057D01*
X85933333Y-134750057D02*
X85885714Y-134845295D01*
X85885714Y-134845295D02*
X85838095Y-135035771D01*
X85838095Y-135035771D02*
X85838095Y-135273866D01*
X85838095Y-135273866D02*
X85885714Y-135464342D01*
X85885714Y-135464342D02*
X85933333Y-135559580D01*
X85933333Y-135559580D02*
X85980952Y-135607200D01*
X85980952Y-135607200D02*
X86076190Y-135654819D01*
X86076190Y-135654819D02*
X86171428Y-135654819D01*
X86171428Y-135654819D02*
X86266666Y-135607200D01*
X86266666Y-135607200D02*
X86314285Y-135559580D01*
X86314285Y-135559580D02*
X86361904Y-135464342D01*
X86361904Y-135464342D02*
X86409523Y-135273866D01*
X86409523Y-135273866D02*
X86409523Y-135035771D01*
X86409523Y-135035771D02*
X86361904Y-134845295D01*
X86361904Y-134845295D02*
X86314285Y-134750057D01*
X86314285Y-134750057D02*
X86266666Y-134702438D01*
X86266666Y-134702438D02*
X86171428Y-134654819D01*
X108950000Y-79749366D02*
X108983333Y-79782700D01*
X108983333Y-79782700D02*
X109083333Y-79816033D01*
X109083333Y-79816033D02*
X109150000Y-79816033D01*
X109150000Y-79816033D02*
X109250000Y-79782700D01*
X109250000Y-79782700D02*
X109316667Y-79716033D01*
X109316667Y-79716033D02*
X109350000Y-79649366D01*
X109350000Y-79649366D02*
X109383333Y-79516033D01*
X109383333Y-79516033D02*
X109383333Y-79416033D01*
X109383333Y-79416033D02*
X109350000Y-79282700D01*
X109350000Y-79282700D02*
X109316667Y-79216033D01*
X109316667Y-79216033D02*
X109250000Y-79149366D01*
X109250000Y-79149366D02*
X109150000Y-79116033D01*
X109150000Y-79116033D02*
X109083333Y-79116033D01*
X109083333Y-79116033D02*
X108983333Y-79149366D01*
X108983333Y-79149366D02*
X108950000Y-79182700D01*
X108683333Y-79182700D02*
X108650000Y-79149366D01*
X108650000Y-79149366D02*
X108583333Y-79116033D01*
X108583333Y-79116033D02*
X108416667Y-79116033D01*
X108416667Y-79116033D02*
X108350000Y-79149366D01*
X108350000Y-79149366D02*
X108316667Y-79182700D01*
X108316667Y-79182700D02*
X108283333Y-79249366D01*
X108283333Y-79249366D02*
X108283333Y-79316033D01*
X108283333Y-79316033D02*
X108316667Y-79416033D01*
X108316667Y-79416033D02*
X108716667Y-79816033D01*
X108716667Y-79816033D02*
X108283333Y-79816033D01*
X108050000Y-79116033D02*
X107616666Y-79116033D01*
X107616666Y-79116033D02*
X107850000Y-79382700D01*
X107850000Y-79382700D02*
X107750000Y-79382700D01*
X107750000Y-79382700D02*
X107683333Y-79416033D01*
X107683333Y-79416033D02*
X107650000Y-79449366D01*
X107650000Y-79449366D02*
X107616666Y-79516033D01*
X107616666Y-79516033D02*
X107616666Y-79682700D01*
X107616666Y-79682700D02*
X107650000Y-79749366D01*
X107650000Y-79749366D02*
X107683333Y-79782700D01*
X107683333Y-79782700D02*
X107750000Y-79816033D01*
X107750000Y-79816033D02*
X107950000Y-79816033D01*
X107950000Y-79816033D02*
X108016666Y-79782700D01*
X108016666Y-79782700D02*
X108050000Y-79749366D01*
X115242857Y-135559580D02*
X115290476Y-135607200D01*
X115290476Y-135607200D02*
X115433333Y-135654819D01*
X115433333Y-135654819D02*
X115528571Y-135654819D01*
X115528571Y-135654819D02*
X115671428Y-135607200D01*
X115671428Y-135607200D02*
X115766666Y-135511961D01*
X115766666Y-135511961D02*
X115814285Y-135416723D01*
X115814285Y-135416723D02*
X115861904Y-135226247D01*
X115861904Y-135226247D02*
X115861904Y-135083390D01*
X115861904Y-135083390D02*
X115814285Y-134892914D01*
X115814285Y-134892914D02*
X115766666Y-134797676D01*
X115766666Y-134797676D02*
X115671428Y-134702438D01*
X115671428Y-134702438D02*
X115528571Y-134654819D01*
X115528571Y-134654819D02*
X115433333Y-134654819D01*
X115433333Y-134654819D02*
X115290476Y-134702438D01*
X115290476Y-134702438D02*
X115242857Y-134750057D01*
X114385714Y-134988152D02*
X114385714Y-135654819D01*
X114623809Y-134607200D02*
X114861904Y-135321485D01*
X114861904Y-135321485D02*
X114242857Y-135321485D01*
X113957142Y-134654819D02*
X113338095Y-134654819D01*
X113338095Y-134654819D02*
X113671428Y-135035771D01*
X113671428Y-135035771D02*
X113528571Y-135035771D01*
X113528571Y-135035771D02*
X113433333Y-135083390D01*
X113433333Y-135083390D02*
X113385714Y-135131009D01*
X113385714Y-135131009D02*
X113338095Y-135226247D01*
X113338095Y-135226247D02*
X113338095Y-135464342D01*
X113338095Y-135464342D02*
X113385714Y-135559580D01*
X113385714Y-135559580D02*
X113433333Y-135607200D01*
X113433333Y-135607200D02*
X113528571Y-135654819D01*
X113528571Y-135654819D02*
X113814285Y-135654819D01*
X113814285Y-135654819D02*
X113909523Y-135607200D01*
X113909523Y-135607200D02*
X113957142Y-135559580D01*
X117450000Y-100249366D02*
X117483333Y-100282700D01*
X117483333Y-100282700D02*
X117583333Y-100316033D01*
X117583333Y-100316033D02*
X117650000Y-100316033D01*
X117650000Y-100316033D02*
X117750000Y-100282700D01*
X117750000Y-100282700D02*
X117816667Y-100216033D01*
X117816667Y-100216033D02*
X117850000Y-100149366D01*
X117850000Y-100149366D02*
X117883333Y-100016033D01*
X117883333Y-100016033D02*
X117883333Y-99916033D01*
X117883333Y-99916033D02*
X117850000Y-99782700D01*
X117850000Y-99782700D02*
X117816667Y-99716033D01*
X117816667Y-99716033D02*
X117750000Y-99649366D01*
X117750000Y-99649366D02*
X117650000Y-99616033D01*
X117650000Y-99616033D02*
X117583333Y-99616033D01*
X117583333Y-99616033D02*
X117483333Y-99649366D01*
X117483333Y-99649366D02*
X117450000Y-99682700D01*
X117183333Y-99682700D02*
X117150000Y-99649366D01*
X117150000Y-99649366D02*
X117083333Y-99616033D01*
X117083333Y-99616033D02*
X116916667Y-99616033D01*
X116916667Y-99616033D02*
X116850000Y-99649366D01*
X116850000Y-99649366D02*
X116816667Y-99682700D01*
X116816667Y-99682700D02*
X116783333Y-99749366D01*
X116783333Y-99749366D02*
X116783333Y-99816033D01*
X116783333Y-99816033D02*
X116816667Y-99916033D01*
X116816667Y-99916033D02*
X117216667Y-100316033D01*
X117216667Y-100316033D02*
X116783333Y-100316033D01*
X116183333Y-99849366D02*
X116183333Y-100316033D01*
X116350000Y-99582700D02*
X116516666Y-100082700D01*
X116516666Y-100082700D02*
X116083333Y-100082700D01*
X104665714Y-55562628D02*
X104694286Y-55591200D01*
X104694286Y-55591200D02*
X104780000Y-55619771D01*
X104780000Y-55619771D02*
X104837143Y-55619771D01*
X104837143Y-55619771D02*
X104922857Y-55591200D01*
X104922857Y-55591200D02*
X104980000Y-55534057D01*
X104980000Y-55534057D02*
X105008571Y-55476914D01*
X105008571Y-55476914D02*
X105037143Y-55362628D01*
X105037143Y-55362628D02*
X105037143Y-55276914D01*
X105037143Y-55276914D02*
X105008571Y-55162628D01*
X105008571Y-55162628D02*
X104980000Y-55105485D01*
X104980000Y-55105485D02*
X104922857Y-55048342D01*
X104922857Y-55048342D02*
X104837143Y-55019771D01*
X104837143Y-55019771D02*
X104780000Y-55019771D01*
X104780000Y-55019771D02*
X104694286Y-55048342D01*
X104694286Y-55048342D02*
X104665714Y-55076914D01*
X104151429Y-55219771D02*
X104151429Y-55619771D01*
X104294286Y-54991200D02*
X104437143Y-55419771D01*
X104437143Y-55419771D02*
X104065714Y-55419771D01*
X103894285Y-55019771D02*
X103494285Y-55019771D01*
X103494285Y-55019771D02*
X103751428Y-55619771D01*
X106779999Y-55855485D02*
X106979999Y-55855485D01*
X106979999Y-56169771D02*
X106979999Y-55569771D01*
X106979999Y-55569771D02*
X106694285Y-55569771D01*
X106265713Y-55855485D02*
X106179999Y-55884057D01*
X106179999Y-55884057D02*
X106151428Y-55912628D01*
X106151428Y-55912628D02*
X106122856Y-55969771D01*
X106122856Y-55969771D02*
X106122856Y-56055485D01*
X106122856Y-56055485D02*
X106151428Y-56112628D01*
X106151428Y-56112628D02*
X106179999Y-56141200D01*
X106179999Y-56141200D02*
X106237142Y-56169771D01*
X106237142Y-56169771D02*
X106465713Y-56169771D01*
X106465713Y-56169771D02*
X106465713Y-55569771D01*
X106465713Y-55569771D02*
X106265713Y-55569771D01*
X106265713Y-55569771D02*
X106208571Y-55598342D01*
X106208571Y-55598342D02*
X106179999Y-55626914D01*
X106179999Y-55626914D02*
X106151428Y-55684057D01*
X106151428Y-55684057D02*
X106151428Y-55741200D01*
X106151428Y-55741200D02*
X106179999Y-55798342D01*
X106179999Y-55798342D02*
X106208571Y-55826914D01*
X106208571Y-55826914D02*
X106265713Y-55855485D01*
X106265713Y-55855485D02*
X106465713Y-55855485D01*
X105922856Y-55569771D02*
X105522856Y-55569771D01*
X105522856Y-55569771D02*
X105779999Y-56169771D01*
X210135714Y-71677271D02*
X210335714Y-71391557D01*
X210478571Y-71677271D02*
X210478571Y-71077271D01*
X210478571Y-71077271D02*
X210250000Y-71077271D01*
X210250000Y-71077271D02*
X210192857Y-71105842D01*
X210192857Y-71105842D02*
X210164286Y-71134414D01*
X210164286Y-71134414D02*
X210135714Y-71191557D01*
X210135714Y-71191557D02*
X210135714Y-71277271D01*
X210135714Y-71277271D02*
X210164286Y-71334414D01*
X210164286Y-71334414D02*
X210192857Y-71362985D01*
X210192857Y-71362985D02*
X210250000Y-71391557D01*
X210250000Y-71391557D02*
X210478571Y-71391557D01*
X209564286Y-71677271D02*
X209907143Y-71677271D01*
X209735714Y-71677271D02*
X209735714Y-71077271D01*
X209735714Y-71077271D02*
X209792857Y-71162985D01*
X209792857Y-71162985D02*
X209850000Y-71220128D01*
X209850000Y-71220128D02*
X209907143Y-71248700D01*
X209364285Y-71077271D02*
X208992857Y-71077271D01*
X208992857Y-71077271D02*
X209192857Y-71305842D01*
X209192857Y-71305842D02*
X209107142Y-71305842D01*
X209107142Y-71305842D02*
X209050000Y-71334414D01*
X209050000Y-71334414D02*
X209021428Y-71362985D01*
X209021428Y-71362985D02*
X208992857Y-71420128D01*
X208992857Y-71420128D02*
X208992857Y-71562985D01*
X208992857Y-71562985D02*
X209021428Y-71620128D01*
X209021428Y-71620128D02*
X209050000Y-71648700D01*
X209050000Y-71648700D02*
X209107142Y-71677271D01*
X209107142Y-71677271D02*
X209278571Y-71677271D01*
X209278571Y-71677271D02*
X209335714Y-71648700D01*
X209335714Y-71648700D02*
X209364285Y-71620128D01*
X70156666Y-29454819D02*
X70489999Y-28978628D01*
X70728094Y-29454819D02*
X70728094Y-28454819D01*
X70728094Y-28454819D02*
X70347142Y-28454819D01*
X70347142Y-28454819D02*
X70251904Y-28502438D01*
X70251904Y-28502438D02*
X70204285Y-28550057D01*
X70204285Y-28550057D02*
X70156666Y-28645295D01*
X70156666Y-28645295D02*
X70156666Y-28788152D01*
X70156666Y-28788152D02*
X70204285Y-28883390D01*
X70204285Y-28883390D02*
X70251904Y-28931009D01*
X70251904Y-28931009D02*
X70347142Y-28978628D01*
X70347142Y-28978628D02*
X70728094Y-28978628D01*
X69775713Y-28550057D02*
X69728094Y-28502438D01*
X69728094Y-28502438D02*
X69632856Y-28454819D01*
X69632856Y-28454819D02*
X69394761Y-28454819D01*
X69394761Y-28454819D02*
X69299523Y-28502438D01*
X69299523Y-28502438D02*
X69251904Y-28550057D01*
X69251904Y-28550057D02*
X69204285Y-28645295D01*
X69204285Y-28645295D02*
X69204285Y-28740533D01*
X69204285Y-28740533D02*
X69251904Y-28883390D01*
X69251904Y-28883390D02*
X69823332Y-29454819D01*
X69823332Y-29454819D02*
X69204285Y-29454819D01*
X112942857Y-61604819D02*
X113276190Y-61128628D01*
X113514285Y-61604819D02*
X113514285Y-60604819D01*
X113514285Y-60604819D02*
X113133333Y-60604819D01*
X113133333Y-60604819D02*
X113038095Y-60652438D01*
X113038095Y-60652438D02*
X112990476Y-60700057D01*
X112990476Y-60700057D02*
X112942857Y-60795295D01*
X112942857Y-60795295D02*
X112942857Y-60938152D01*
X112942857Y-60938152D02*
X112990476Y-61033390D01*
X112990476Y-61033390D02*
X113038095Y-61081009D01*
X113038095Y-61081009D02*
X113133333Y-61128628D01*
X113133333Y-61128628D02*
X113514285Y-61128628D01*
X112609523Y-60604819D02*
X111990476Y-60604819D01*
X111990476Y-60604819D02*
X112323809Y-60985771D01*
X112323809Y-60985771D02*
X112180952Y-60985771D01*
X112180952Y-60985771D02*
X112085714Y-61033390D01*
X112085714Y-61033390D02*
X112038095Y-61081009D01*
X112038095Y-61081009D02*
X111990476Y-61176247D01*
X111990476Y-61176247D02*
X111990476Y-61414342D01*
X111990476Y-61414342D02*
X112038095Y-61509580D01*
X112038095Y-61509580D02*
X112085714Y-61557200D01*
X112085714Y-61557200D02*
X112180952Y-61604819D01*
X112180952Y-61604819D02*
X112466666Y-61604819D01*
X112466666Y-61604819D02*
X112561904Y-61557200D01*
X112561904Y-61557200D02*
X112609523Y-61509580D01*
X111657142Y-60604819D02*
X111038095Y-60604819D01*
X111038095Y-60604819D02*
X111371428Y-60985771D01*
X111371428Y-60985771D02*
X111228571Y-60985771D01*
X111228571Y-60985771D02*
X111133333Y-61033390D01*
X111133333Y-61033390D02*
X111085714Y-61081009D01*
X111085714Y-61081009D02*
X111038095Y-61176247D01*
X111038095Y-61176247D02*
X111038095Y-61414342D01*
X111038095Y-61414342D02*
X111085714Y-61509580D01*
X111085714Y-61509580D02*
X111133333Y-61557200D01*
X111133333Y-61557200D02*
X111228571Y-61604819D01*
X111228571Y-61604819D02*
X111514285Y-61604819D01*
X111514285Y-61604819D02*
X111609523Y-61557200D01*
X111609523Y-61557200D02*
X111657142Y-61509580D01*
X94992857Y-93869580D02*
X95040476Y-93917200D01*
X95040476Y-93917200D02*
X95183333Y-93964819D01*
X95183333Y-93964819D02*
X95278571Y-93964819D01*
X95278571Y-93964819D02*
X95421428Y-93917200D01*
X95421428Y-93917200D02*
X95516666Y-93821961D01*
X95516666Y-93821961D02*
X95564285Y-93726723D01*
X95564285Y-93726723D02*
X95611904Y-93536247D01*
X95611904Y-93536247D02*
X95611904Y-93393390D01*
X95611904Y-93393390D02*
X95564285Y-93202914D01*
X95564285Y-93202914D02*
X95516666Y-93107676D01*
X95516666Y-93107676D02*
X95421428Y-93012438D01*
X95421428Y-93012438D02*
X95278571Y-92964819D01*
X95278571Y-92964819D02*
X95183333Y-92964819D01*
X95183333Y-92964819D02*
X95040476Y-93012438D01*
X95040476Y-93012438D02*
X94992857Y-93060057D01*
X94088095Y-92964819D02*
X94564285Y-92964819D01*
X94564285Y-92964819D02*
X94611904Y-93441009D01*
X94611904Y-93441009D02*
X94564285Y-93393390D01*
X94564285Y-93393390D02*
X94469047Y-93345771D01*
X94469047Y-93345771D02*
X94230952Y-93345771D01*
X94230952Y-93345771D02*
X94135714Y-93393390D01*
X94135714Y-93393390D02*
X94088095Y-93441009D01*
X94088095Y-93441009D02*
X94040476Y-93536247D01*
X94040476Y-93536247D02*
X94040476Y-93774342D01*
X94040476Y-93774342D02*
X94088095Y-93869580D01*
X94088095Y-93869580D02*
X94135714Y-93917200D01*
X94135714Y-93917200D02*
X94230952Y-93964819D01*
X94230952Y-93964819D02*
X94469047Y-93964819D01*
X94469047Y-93964819D02*
X94564285Y-93917200D01*
X94564285Y-93917200D02*
X94611904Y-93869580D01*
X93564285Y-93964819D02*
X93373809Y-93964819D01*
X93373809Y-93964819D02*
X93278571Y-93917200D01*
X93278571Y-93917200D02*
X93230952Y-93869580D01*
X93230952Y-93869580D02*
X93135714Y-93726723D01*
X93135714Y-93726723D02*
X93088095Y-93536247D01*
X93088095Y-93536247D02*
X93088095Y-93155295D01*
X93088095Y-93155295D02*
X93135714Y-93060057D01*
X93135714Y-93060057D02*
X93183333Y-93012438D01*
X93183333Y-93012438D02*
X93278571Y-92964819D01*
X93278571Y-92964819D02*
X93469047Y-92964819D01*
X93469047Y-92964819D02*
X93564285Y-93012438D01*
X93564285Y-93012438D02*
X93611904Y-93060057D01*
X93611904Y-93060057D02*
X93659523Y-93155295D01*
X93659523Y-93155295D02*
X93659523Y-93393390D01*
X93659523Y-93393390D02*
X93611904Y-93488628D01*
X93611904Y-93488628D02*
X93564285Y-93536247D01*
X93564285Y-93536247D02*
X93469047Y-93583866D01*
X93469047Y-93583866D02*
X93278571Y-93583866D01*
X93278571Y-93583866D02*
X93183333Y-93536247D01*
X93183333Y-93536247D02*
X93135714Y-93488628D01*
X93135714Y-93488628D02*
X93088095Y-93393390D01*
X81435714Y-100262628D02*
X81464286Y-100291200D01*
X81464286Y-100291200D02*
X81550000Y-100319771D01*
X81550000Y-100319771D02*
X81607143Y-100319771D01*
X81607143Y-100319771D02*
X81692857Y-100291200D01*
X81692857Y-100291200D02*
X81750000Y-100234057D01*
X81750000Y-100234057D02*
X81778571Y-100176914D01*
X81778571Y-100176914D02*
X81807143Y-100062628D01*
X81807143Y-100062628D02*
X81807143Y-99976914D01*
X81807143Y-99976914D02*
X81778571Y-99862628D01*
X81778571Y-99862628D02*
X81750000Y-99805485D01*
X81750000Y-99805485D02*
X81692857Y-99748342D01*
X81692857Y-99748342D02*
X81607143Y-99719771D01*
X81607143Y-99719771D02*
X81550000Y-99719771D01*
X81550000Y-99719771D02*
X81464286Y-99748342D01*
X81464286Y-99748342D02*
X81435714Y-99776914D01*
X81235714Y-99719771D02*
X80864286Y-99719771D01*
X80864286Y-99719771D02*
X81064286Y-99948342D01*
X81064286Y-99948342D02*
X80978571Y-99948342D01*
X80978571Y-99948342D02*
X80921429Y-99976914D01*
X80921429Y-99976914D02*
X80892857Y-100005485D01*
X80892857Y-100005485D02*
X80864286Y-100062628D01*
X80864286Y-100062628D02*
X80864286Y-100205485D01*
X80864286Y-100205485D02*
X80892857Y-100262628D01*
X80892857Y-100262628D02*
X80921429Y-100291200D01*
X80921429Y-100291200D02*
X80978571Y-100319771D01*
X80978571Y-100319771D02*
X81150000Y-100319771D01*
X81150000Y-100319771D02*
X81207143Y-100291200D01*
X81207143Y-100291200D02*
X81235714Y-100262628D01*
X80635714Y-99776914D02*
X80607142Y-99748342D01*
X80607142Y-99748342D02*
X80550000Y-99719771D01*
X80550000Y-99719771D02*
X80407142Y-99719771D01*
X80407142Y-99719771D02*
X80350000Y-99748342D01*
X80350000Y-99748342D02*
X80321428Y-99776914D01*
X80321428Y-99776914D02*
X80292857Y-99834057D01*
X80292857Y-99834057D02*
X80292857Y-99891200D01*
X80292857Y-99891200D02*
X80321428Y-99976914D01*
X80321428Y-99976914D02*
X80664285Y-100319771D01*
X80664285Y-100319771D02*
X80292857Y-100319771D01*
X101742857Y-135559580D02*
X101790476Y-135607200D01*
X101790476Y-135607200D02*
X101933333Y-135654819D01*
X101933333Y-135654819D02*
X102028571Y-135654819D01*
X102028571Y-135654819D02*
X102171428Y-135607200D01*
X102171428Y-135607200D02*
X102266666Y-135511961D01*
X102266666Y-135511961D02*
X102314285Y-135416723D01*
X102314285Y-135416723D02*
X102361904Y-135226247D01*
X102361904Y-135226247D02*
X102361904Y-135083390D01*
X102361904Y-135083390D02*
X102314285Y-134892914D01*
X102314285Y-134892914D02*
X102266666Y-134797676D01*
X102266666Y-134797676D02*
X102171428Y-134702438D01*
X102171428Y-134702438D02*
X102028571Y-134654819D01*
X102028571Y-134654819D02*
X101933333Y-134654819D01*
X101933333Y-134654819D02*
X101790476Y-134702438D01*
X101790476Y-134702438D02*
X101742857Y-134750057D01*
X100885714Y-134988152D02*
X100885714Y-135654819D01*
X101123809Y-134607200D02*
X101361904Y-135321485D01*
X101361904Y-135321485D02*
X100742857Y-135321485D01*
X100409523Y-134750057D02*
X100361904Y-134702438D01*
X100361904Y-134702438D02*
X100266666Y-134654819D01*
X100266666Y-134654819D02*
X100028571Y-134654819D01*
X100028571Y-134654819D02*
X99933333Y-134702438D01*
X99933333Y-134702438D02*
X99885714Y-134750057D01*
X99885714Y-134750057D02*
X99838095Y-134845295D01*
X99838095Y-134845295D02*
X99838095Y-134940533D01*
X99838095Y-134940533D02*
X99885714Y-135083390D01*
X99885714Y-135083390D02*
X100457142Y-135654819D01*
X100457142Y-135654819D02*
X99838095Y-135654819D01*
X104866666Y-83759580D02*
X104914285Y-83807200D01*
X104914285Y-83807200D02*
X105057142Y-83854819D01*
X105057142Y-83854819D02*
X105152380Y-83854819D01*
X105152380Y-83854819D02*
X105295237Y-83807200D01*
X105295237Y-83807200D02*
X105390475Y-83711961D01*
X105390475Y-83711961D02*
X105438094Y-83616723D01*
X105438094Y-83616723D02*
X105485713Y-83426247D01*
X105485713Y-83426247D02*
X105485713Y-83283390D01*
X105485713Y-83283390D02*
X105438094Y-83092914D01*
X105438094Y-83092914D02*
X105390475Y-82997676D01*
X105390475Y-82997676D02*
X105295237Y-82902438D01*
X105295237Y-82902438D02*
X105152380Y-82854819D01*
X105152380Y-82854819D02*
X105057142Y-82854819D01*
X105057142Y-82854819D02*
X104914285Y-82902438D01*
X104914285Y-82902438D02*
X104866666Y-82950057D01*
X103961904Y-82854819D02*
X104438094Y-82854819D01*
X104438094Y-82854819D02*
X104485713Y-83331009D01*
X104485713Y-83331009D02*
X104438094Y-83283390D01*
X104438094Y-83283390D02*
X104342856Y-83235771D01*
X104342856Y-83235771D02*
X104104761Y-83235771D01*
X104104761Y-83235771D02*
X104009523Y-83283390D01*
X104009523Y-83283390D02*
X103961904Y-83331009D01*
X103961904Y-83331009D02*
X103914285Y-83426247D01*
X103914285Y-83426247D02*
X103914285Y-83664342D01*
X103914285Y-83664342D02*
X103961904Y-83759580D01*
X103961904Y-83759580D02*
X104009523Y-83807200D01*
X104009523Y-83807200D02*
X104104761Y-83854819D01*
X104104761Y-83854819D02*
X104342856Y-83854819D01*
X104342856Y-83854819D02*
X104438094Y-83807200D01*
X104438094Y-83807200D02*
X104485713Y-83759580D01*
X206135714Y-71677271D02*
X206335714Y-71391557D01*
X206478571Y-71677271D02*
X206478571Y-71077271D01*
X206478571Y-71077271D02*
X206250000Y-71077271D01*
X206250000Y-71077271D02*
X206192857Y-71105842D01*
X206192857Y-71105842D02*
X206164286Y-71134414D01*
X206164286Y-71134414D02*
X206135714Y-71191557D01*
X206135714Y-71191557D02*
X206135714Y-71277271D01*
X206135714Y-71277271D02*
X206164286Y-71334414D01*
X206164286Y-71334414D02*
X206192857Y-71362985D01*
X206192857Y-71362985D02*
X206250000Y-71391557D01*
X206250000Y-71391557D02*
X206478571Y-71391557D01*
X205564286Y-71677271D02*
X205907143Y-71677271D01*
X205735714Y-71677271D02*
X205735714Y-71077271D01*
X205735714Y-71077271D02*
X205792857Y-71162985D01*
X205792857Y-71162985D02*
X205850000Y-71220128D01*
X205850000Y-71220128D02*
X205907143Y-71248700D01*
X205050000Y-71277271D02*
X205050000Y-71677271D01*
X205192857Y-71048700D02*
X205335714Y-71477271D01*
X205335714Y-71477271D02*
X204964285Y-71477271D01*
D17*
X89795000Y-96451252D02*
X89795000Y-95928748D01*
X91265000Y-96451252D02*
X91265000Y-95928748D01*
X107590000Y-103511252D02*
X107590000Y-102088748D01*
X109410000Y-103511252D02*
X109410000Y-102088748D01*
X91265000Y-88009564D02*
X91265000Y-87555436D01*
X92735000Y-88009564D02*
X92735000Y-87555436D01*
X71590000Y-83211252D02*
X71590000Y-81788748D01*
X73410000Y-83211252D02*
X73410000Y-81788748D01*
X72260000Y-31494564D02*
X72260000Y-31040436D01*
X73730000Y-31494564D02*
X73730000Y-31040436D01*
X72365000Y-137761252D02*
X72365000Y-137238748D01*
X73835000Y-137761252D02*
X73835000Y-137238748D01*
X99385000Y-87021252D02*
X99385000Y-86498748D01*
X100855000Y-87021252D02*
X100855000Y-86498748D01*
X116090000Y-83111252D02*
X116090000Y-81688748D01*
X117910000Y-83111252D02*
X117910000Y-81688748D01*
X75520000Y-55090378D02*
X75520000Y-55889622D01*
X76640000Y-55090378D02*
X76640000Y-55889622D01*
X107375000Y-57768748D02*
X107375000Y-58291252D01*
X108845000Y-57768748D02*
X108845000Y-58291252D01*
X109260000Y-57450000D02*
X109260000Y-58290000D01*
X109580000Y-58610000D02*
X110820000Y-58610000D01*
X110820000Y-57450000D02*
X109260000Y-57450000D01*
X110820000Y-58610000D02*
X110820000Y-57450000D01*
X109260000Y-59110000D02*
X108760000Y-58610000D01*
X109260000Y-58610000D01*
X109260000Y-59110000D01*
G36*
X109260000Y-59110000D02*
G01*
X108760000Y-58610000D01*
X109260000Y-58610000D01*
X109260000Y-59110000D01*
G37*
X80395000Y-93938748D02*
X80395000Y-94461252D01*
X81865000Y-93938748D02*
X81865000Y-94461252D01*
X89950000Y-90410000D02*
X89950000Y-91010000D01*
X90500000Y-89210000D02*
X91100000Y-89210000D01*
X90600000Y-91710000D02*
X93400000Y-91710000D01*
X90800000Y-89510000D02*
X90500000Y-89210000D01*
X90800000Y-89510000D02*
X91100000Y-89210000D01*
X93400000Y-89710000D02*
X90600000Y-89710000D01*
X94050000Y-91010000D02*
X94050000Y-90410000D01*
X89950000Y-90410000D02*
G75*
G02*
X90650000Y-89710000I699999J1D01*
G01*
X90650000Y-91710000D02*
G75*
G02*
X89950000Y-91010000I-1J699999D01*
G01*
X93350000Y-89710000D02*
G75*
G02*
X94050000Y-90410000I0J-700000D01*
G01*
X94050000Y-91010000D02*
G75*
G02*
X93350000Y-91710000I-700000J0D01*
G01*
X80090000Y-83211252D02*
X80090000Y-81788748D01*
X81910000Y-83211252D02*
X81910000Y-81788748D01*
X209015000Y-68047064D02*
X209015000Y-67592936D01*
X210485000Y-68047064D02*
X210485000Y-67592936D01*
X77170000Y-56201252D02*
X77170000Y-54778748D01*
X78990000Y-56201252D02*
X78990000Y-54778748D01*
D18*
G36*
X168006733Y-41012085D02*
G01*
X168340336Y-41244064D01*
X168604297Y-41601584D01*
X168623311Y-41641057D01*
X168718858Y-41961922D01*
X168770758Y-42361618D01*
X168773651Y-42771051D01*
X168722178Y-43121128D01*
X168626112Y-43370457D01*
X168404142Y-43706303D01*
X168121390Y-43968927D01*
X167818314Y-44113891D01*
X167387891Y-44155674D01*
X166977936Y-44056973D01*
X166639110Y-43814930D01*
X166384933Y-43435940D01*
X166229388Y-42943878D01*
X166189442Y-42372517D01*
X166283069Y-41809630D01*
X166345053Y-41641106D01*
X166576454Y-41285751D01*
X166888349Y-41042479D01*
X167250712Y-40913984D01*
X167633516Y-40902955D01*
X168006733Y-41012085D01*
G37*
G36*
X213719293Y-43379999D02*
G01*
X213719293Y-55222443D01*
X173700001Y-55222443D01*
X133680708Y-55222443D01*
X133680708Y-43379999D01*
X133680708Y-40893667D01*
X136136038Y-40893667D01*
X136145842Y-40991387D01*
X136194855Y-41171093D01*
X136286741Y-41442491D01*
X136425163Y-41815283D01*
X136613785Y-42299175D01*
X136856270Y-42903872D01*
X137156281Y-43639078D01*
X137517481Y-44514497D01*
X137778458Y-45142267D01*
X138071515Y-45841804D01*
X138345814Y-46490942D01*
X138594145Y-47072895D01*
X138809297Y-47570877D01*
X138984060Y-47968104D01*
X139111225Y-48247790D01*
X139183579Y-48393149D01*
X139423780Y-48732609D01*
X139883045Y-49181939D01*
X140440110Y-49558499D01*
X141058167Y-49838799D01*
X141700408Y-49999347D01*
X141786722Y-50011313D01*
X142257202Y-50059173D01*
X142693625Y-50076679D01*
X143064238Y-50064623D01*
X143337290Y-50023795D01*
X143481029Y-49954986D01*
X143501589Y-49908403D01*
X143499783Y-49807809D01*
X143461600Y-49644384D01*
X143381201Y-49400772D01*
X143252745Y-49059619D01*
X143070392Y-48603572D01*
X142828303Y-48015276D01*
X142781804Y-47903155D01*
X142541772Y-47323467D01*
X142259045Y-46639482D01*
X141949395Y-45889424D01*
X141628596Y-45111513D01*
X141312419Y-44343969D01*
X141016635Y-43625015D01*
X140854966Y-43234558D01*
X140598522Y-42627090D01*
X140363324Y-42084414D01*
X140157215Y-41623919D01*
X139988039Y-41262994D01*
X139863638Y-41019032D01*
X139799097Y-40920475D01*
X142587386Y-40920475D01*
X142612573Y-41070094D01*
X142689331Y-41322233D01*
X142821650Y-41688443D01*
X143013519Y-42180278D01*
X143268928Y-42809292D01*
X143332832Y-42964653D01*
X143824662Y-44159446D01*
X144258939Y-45212496D01*
X144639277Y-46132306D01*
X144969289Y-46927379D01*
X145252590Y-47606218D01*
X145492795Y-48177327D01*
X145693516Y-48649209D01*
X145858369Y-49030368D01*
X145990966Y-49329307D01*
X146094923Y-49554528D01*
X146173853Y-49714536D01*
X146231371Y-49817834D01*
X146271089Y-49872925D01*
X146304151Y-49905007D01*
X146309272Y-49908403D01*
X146373486Y-49950987D01*
X146475862Y-49985614D01*
X146632997Y-50010958D01*
X146866606Y-50029088D01*
X147198406Y-50042076D01*
X147650114Y-50051989D01*
X148243445Y-50060898D01*
X148493595Y-50063728D01*
X149000355Y-50065833D01*
X149440490Y-50062801D01*
X149789831Y-50055066D01*
X150024206Y-50043063D01*
X150119443Y-50027224D01*
X150105605Y-49975278D01*
X149988208Y-49856579D01*
X149789005Y-49707128D01*
X149404268Y-49409592D01*
X148923170Y-48891470D01*
X148564110Y-48306875D01*
X148334221Y-47677611D01*
X148240638Y-47025480D01*
X148290494Y-46372285D01*
X148490922Y-45739830D01*
X148497451Y-45725422D01*
X148590989Y-45528111D01*
X148688676Y-45349644D01*
X148805027Y-45173848D01*
X148954556Y-44984550D01*
X149151775Y-44765578D01*
X149411199Y-44500759D01*
X149747341Y-44173919D01*
X150174715Y-43768886D01*
X150707836Y-43269487D01*
X150720645Y-43257517D01*
X151152481Y-42850070D01*
X151545180Y-42472302D01*
X151882520Y-42140389D01*
X152148284Y-41870509D01*
X152326250Y-41678839D01*
X152400199Y-41581556D01*
X152419907Y-41369509D01*
X152324848Y-41110588D01*
X152125569Y-40897244D01*
X152103791Y-40883848D01*
X152037747Y-40857698D01*
X151936109Y-40835685D01*
X151786101Y-40817462D01*
X151574949Y-40802683D01*
X151289878Y-40791000D01*
X150918113Y-40782066D01*
X150446880Y-40775535D01*
X149863403Y-40771059D01*
X149154908Y-40768292D01*
X148308620Y-40766886D01*
X147311764Y-40766494D01*
X146489008Y-40766943D01*
X145577898Y-40768940D01*
X144811226Y-40772747D01*
X144178399Y-40778598D01*
X143668827Y-40786724D01*
X143271918Y-40797356D01*
X142977079Y-40810726D01*
X142773721Y-40827066D01*
X142651251Y-40846607D01*
X142599077Y-40869582D01*
X142587386Y-40920475D01*
X139799097Y-40920475D01*
X139791857Y-40909420D01*
X139731080Y-40867192D01*
X139632658Y-40829229D01*
X139483452Y-40802040D01*
X139260953Y-40783899D01*
X138942652Y-40773079D01*
X138506039Y-40767853D01*
X137928606Y-40766494D01*
X137478858Y-40767737D01*
X136980214Y-40774129D01*
X136614818Y-40786904D01*
X136365186Y-40807114D01*
X136213834Y-40835812D01*
X136143277Y-40874052D01*
X136136038Y-40893667D01*
X133680708Y-40893667D01*
X133680708Y-36375046D01*
X134232548Y-36375046D01*
X134244044Y-36474593D01*
X134309199Y-36695190D01*
X134418087Y-36999870D01*
X134559343Y-37354571D01*
X134924688Y-38230429D01*
X143674563Y-38252963D01*
X152424438Y-38275498D01*
X152905147Y-38456978D01*
X153412700Y-38702521D01*
X153937944Y-39082592D01*
X154355511Y-39531735D01*
X154639063Y-40027323D01*
X154835294Y-40639592D01*
X154914868Y-41292889D01*
X154910431Y-41369509D01*
X154876848Y-41949362D01*
X154720298Y-42571158D01*
X154444282Y-43120424D01*
X154332909Y-43256360D01*
X154115299Y-43489670D01*
X153813182Y-43796996D01*
X153445116Y-44159796D01*
X153029661Y-44559527D01*
X152585373Y-44977649D01*
X152580961Y-44981755D01*
X152146070Y-45389602D01*
X151747762Y-45768953D01*
X151402777Y-46103405D01*
X151127853Y-46376553D01*
X150939729Y-46571991D01*
X150855146Y-46673316D01*
X150773698Y-46868073D01*
X150784919Y-47109748D01*
X150950629Y-47344805D01*
X151151097Y-47545273D01*
X155567662Y-47545273D01*
X156221465Y-47545382D01*
X157105895Y-47545399D01*
X157846920Y-47544084D01*
X158456650Y-47540138D01*
X158947193Y-47532265D01*
X159330657Y-47519164D01*
X159619152Y-47499539D01*
X159824787Y-47472090D01*
X159959671Y-47435520D01*
X160035911Y-47388530D01*
X160065618Y-47329822D01*
X160060900Y-47258097D01*
X160033866Y-47172058D01*
X159996625Y-47070405D01*
X159958179Y-46971790D01*
X159860992Y-46731599D01*
X159712001Y-46367299D01*
X159516985Y-45892905D01*
X159281726Y-45322432D01*
X159012005Y-44669896D01*
X158713601Y-43949314D01*
X158392297Y-43174701D01*
X158053872Y-42360072D01*
X157942920Y-42093211D01*
X157570558Y-41198204D01*
X157318058Y-40593076D01*
X161942921Y-40593076D01*
X162055098Y-40904383D01*
X162106563Y-41045885D01*
X162235932Y-41395469D01*
X162397427Y-41826383D01*
X162582075Y-42315209D01*
X162780905Y-42838529D01*
X162984943Y-43372925D01*
X163185216Y-43894978D01*
X163372753Y-44381270D01*
X163538581Y-44808384D01*
X163673726Y-45152901D01*
X163769216Y-45391402D01*
X163816080Y-45500471D01*
X163945968Y-45650855D01*
X164142739Y-45788479D01*
X164358091Y-45864788D01*
X164616186Y-45906640D01*
X164847559Y-45905907D01*
X164988318Y-45857384D01*
X165016102Y-45808497D01*
X165019394Y-45789324D01*
X195636412Y-45789324D01*
X195678717Y-46229432D01*
X195848069Y-46765516D01*
X196155868Y-47302452D01*
X196178217Y-47329822D01*
X196611810Y-47860834D01*
X196846861Y-48097518D01*
X197369502Y-48503265D01*
X197908710Y-48756516D01*
X198468527Y-48856620D01*
X199052997Y-48802924D01*
X199666164Y-48594777D01*
X200312069Y-48231525D01*
X200994757Y-47712517D01*
X201718271Y-47037101D01*
X202446740Y-46300261D01*
X202322019Y-46698169D01*
X202215131Y-47075673D01*
X202109239Y-47540761D01*
X202029224Y-47996755D01*
X201978555Y-48413971D01*
X201960697Y-48762721D01*
X201979118Y-49013319D01*
X202037286Y-49136080D01*
X202092545Y-49115617D01*
X202201431Y-48984086D01*
X202327417Y-48767647D01*
X202399473Y-48614427D01*
X202531694Y-48294568D01*
X202670800Y-47922123D01*
X202803001Y-47537827D01*
X202914505Y-47182415D01*
X202991521Y-46896623D01*
X203020258Y-46721187D01*
X203036008Y-46572445D01*
X203080410Y-46571360D01*
X203148372Y-46709429D01*
X203234797Y-46976272D01*
X203334591Y-47361510D01*
X203536549Y-48119495D01*
X203786202Y-48832859D01*
X204068040Y-49412190D01*
X204391055Y-49872639D01*
X204764246Y-50229354D01*
X205196605Y-50497486D01*
X205344655Y-50568623D01*
X205600982Y-50674420D01*
X205844027Y-50737741D01*
X206132651Y-50771473D01*
X206525714Y-50788504D01*
X206847576Y-50790827D01*
X207501161Y-50739352D01*
X208046421Y-50601813D01*
X208509275Y-50370048D01*
X208915645Y-50035894D01*
X209003489Y-49943960D01*
X209271367Y-49584684D01*
X209454707Y-49169409D01*
X209578187Y-48646380D01*
X209609906Y-48378329D01*
X209587596Y-47762999D01*
X209439922Y-47083896D01*
X209164229Y-46330823D01*
X208757863Y-45493580D01*
X208771903Y-45470260D01*
X208897011Y-45411619D01*
X209112503Y-45346714D01*
X209198271Y-45323383D01*
X209521169Y-45214463D01*
X209803637Y-45092765D01*
X210095076Y-44905665D01*
X210450739Y-44614700D01*
X210824697Y-44259898D01*
X211179181Y-43877166D01*
X211476425Y-43502410D01*
X211698789Y-43168185D01*
X212001338Y-42636191D01*
X212265697Y-42081637D01*
X212480172Y-41535371D01*
X212633071Y-41028241D01*
X212712703Y-40591095D01*
X212707375Y-40254780D01*
X212652812Y-40074964D01*
X212445150Y-39786793D01*
X212113146Y-39576414D01*
X211669129Y-39443125D01*
X211125430Y-39386227D01*
X210494377Y-39405018D01*
X209788301Y-39498797D01*
X209019531Y-39666865D01*
X208200398Y-39908520D01*
X207343231Y-40223061D01*
X206460360Y-40609789D01*
X206197723Y-40738464D01*
X205788246Y-40952873D01*
X205414470Y-41163402D01*
X205133189Y-41338850D01*
X204653699Y-41666148D01*
X204653699Y-41303310D01*
X204652048Y-41225883D01*
X204624331Y-40946288D01*
X204573252Y-40728882D01*
X204495586Y-40575089D01*
X204352391Y-40468135D01*
X204170523Y-40508163D01*
X203943940Y-40697229D01*
X203666599Y-41037389D01*
X203438460Y-41349120D01*
X203300192Y-41078225D01*
X203282491Y-41044333D01*
X203122834Y-40768457D01*
X202891896Y-40400375D01*
X202612220Y-39973500D01*
X202306350Y-39521246D01*
X201996831Y-39077027D01*
X201706206Y-38674256D01*
X201457019Y-38346348D01*
X200998526Y-37787465D01*
X200347485Y-37072167D01*
X199739306Y-36501827D01*
X199176438Y-36078204D01*
X198661332Y-35803061D01*
X198196437Y-35678161D01*
X197784204Y-35705264D01*
X197508136Y-35821487D01*
X197168454Y-36104203D01*
X196891009Y-36508882D01*
X196683260Y-37015843D01*
X196552669Y-37605405D01*
X196506696Y-38257886D01*
X196552803Y-38953605D01*
X196718908Y-39797701D01*
X197010275Y-40694802D01*
X197400188Y-41530841D01*
X197870769Y-42260953D01*
X198185893Y-42674203D01*
X197982351Y-42808295D01*
X197478900Y-43139964D01*
X197179628Y-43344954D01*
X196594947Y-43811503D01*
X196158041Y-44275186D01*
X195859155Y-44750031D01*
X195688531Y-45250068D01*
X195636412Y-45789324D01*
X165019394Y-45789324D01*
X165042766Y-45653204D01*
X165041194Y-45624447D01*
X164977016Y-45530101D01*
X164792381Y-45503472D01*
X164581124Y-45480441D01*
X164377077Y-45415210D01*
X164344481Y-45393628D01*
X164199173Y-45226306D01*
X164055897Y-44976983D01*
X163946081Y-44707448D01*
X163901151Y-44479490D01*
X163913962Y-44415406D01*
X163979328Y-44207868D01*
X164092540Y-43887603D01*
X164245113Y-43477727D01*
X164428563Y-43001356D01*
X164634406Y-42481607D01*
X164699913Y-42318132D01*
X165726688Y-42318132D01*
X165734007Y-42803600D01*
X165802938Y-43258602D01*
X165933041Y-43625015D01*
X166123562Y-43935547D01*
X166388070Y-44213455D01*
X166717043Y-44400909D01*
X166836393Y-44446377D01*
X167343344Y-44551302D01*
X167827154Y-44516143D01*
X168260362Y-44346031D01*
X168615512Y-44046100D01*
X168798868Y-43829195D01*
X168799274Y-44135465D01*
X168799407Y-44168327D01*
X168815059Y-44352322D01*
X168883960Y-44427407D01*
X169044695Y-44441736D01*
X169289712Y-44441736D01*
X172545232Y-44441736D01*
X174067348Y-44441736D01*
X174560673Y-44440929D01*
X174963624Y-44436959D01*
X175243386Y-44427800D01*
X175420943Y-44411428D01*
X175517284Y-44385821D01*
X175553393Y-44348955D01*
X175550257Y-44298810D01*
X175547256Y-44287569D01*
X175505918Y-44100880D01*
X175461717Y-43862071D01*
X175343666Y-43523341D01*
X175083845Y-43124205D01*
X174947841Y-42971074D01*
X176159108Y-42971074D01*
X176225979Y-43448153D01*
X176412425Y-43872905D01*
X176701008Y-44213155D01*
X176927744Y-44348955D01*
X177074289Y-44436726D01*
X177362836Y-44499823D01*
X177735030Y-44516632D01*
X178105353Y-44485766D01*
X178271837Y-44441736D01*
X179825403Y-44441736D01*
X180356271Y-44441736D01*
X180887139Y-44441736D01*
X180893445Y-42461189D01*
X180899750Y-40480642D01*
X181181051Y-41705723D01*
X181207183Y-41819561D01*
X181324964Y-42333305D01*
X181443713Y-42852188D01*
X181550904Y-43321435D01*
X181634010Y-43686269D01*
X181805667Y-44441736D01*
X182244796Y-44441736D01*
X182420123Y-44436626D01*
X182611327Y-44414382D01*
X182686799Y-44380482D01*
X182695727Y-44332095D01*
X182736310Y-44142450D01*
X182805066Y-43831783D01*
X182896933Y-43422722D01*
X183006850Y-42937897D01*
X183129756Y-42399935D01*
X183569839Y-40480642D01*
X183576077Y-42461189D01*
X183582316Y-44441736D01*
X184113184Y-44441736D01*
X184644052Y-44441736D01*
X184644052Y-41787395D01*
X184644052Y-39133054D01*
X185134084Y-39133054D01*
X185134084Y-39582250D01*
X185134084Y-40031446D01*
X185705789Y-40031446D01*
X186277493Y-40031446D01*
X186277493Y-41787395D01*
X186277493Y-42236591D01*
X186277493Y-44441736D01*
X186808361Y-44441736D01*
X187339229Y-44441736D01*
X187339229Y-42852503D01*
X188760183Y-42852503D01*
X188792684Y-43294661D01*
X188938307Y-43712124D01*
X189190916Y-44068762D01*
X189544374Y-44328448D01*
X189674444Y-44384572D01*
X190019986Y-44490474D01*
X190361094Y-44550498D01*
X190578902Y-44563416D01*
X191148832Y-44522662D01*
X191612477Y-44367929D01*
X191963659Y-44103320D01*
X192196199Y-43732936D01*
X192303918Y-43260878D01*
X192341450Y-42808295D01*
X191800468Y-42808295D01*
X191704659Y-42808445D01*
X191455086Y-42815129D01*
X191322060Y-42841700D01*
X191269040Y-42901691D01*
X191259486Y-43008632D01*
X191227328Y-43234018D01*
X191089621Y-43491860D01*
X190875470Y-43670162D01*
X190619907Y-43758805D01*
X190357959Y-43747664D01*
X190124658Y-43626620D01*
X189955033Y-43385549D01*
X189896333Y-43181952D01*
X189921922Y-42899905D01*
X190092274Y-42645860D01*
X190413562Y-42411941D01*
X190891962Y-42190271D01*
X191058871Y-42122890D01*
X191534279Y-41891127D01*
X191871165Y-41641949D01*
X192088415Y-41352533D01*
X192204914Y-41000052D01*
X192239551Y-40561684D01*
X192233287Y-40390254D01*
X192128167Y-39900688D01*
X191895475Y-39512168D01*
X191537901Y-39228131D01*
X191058137Y-39052016D01*
X190829281Y-39018803D01*
X190373890Y-39027351D01*
X189921599Y-39113539D01*
X189873934Y-39133054D01*
X189547527Y-39266691D01*
X189444467Y-39340206D01*
X189206766Y-39614625D01*
X189037296Y-39959330D01*
X188972670Y-40308000D01*
X188972670Y-40603150D01*
X189503538Y-40603150D01*
X189622696Y-40602971D01*
X189858378Y-40595769D01*
X189981214Y-40566396D01*
X190028368Y-40499206D01*
X190037003Y-40378552D01*
X190102595Y-40083527D01*
X190285541Y-39899052D01*
X190576327Y-39835433D01*
X190591842Y-39835604D01*
X190875487Y-39909178D01*
X191073543Y-40089272D01*
X191169997Y-40336171D01*
X191148838Y-40610158D01*
X190994052Y-40871519D01*
X190942119Y-40917577D01*
X190733931Y-41055138D01*
X190439814Y-41215311D01*
X190105848Y-41372124D01*
X190032972Y-41404371D01*
X189664024Y-41588974D01*
X189349683Y-41779672D01*
X189139851Y-41946780D01*
X189059093Y-42038613D01*
X188846941Y-42421777D01*
X188760183Y-42852503D01*
X187339229Y-42852503D01*
X187339229Y-42240169D01*
X187339229Y-40038602D01*
X187931351Y-40014606D01*
X188523474Y-39990610D01*
X188548160Y-39561832D01*
X188572846Y-39133054D01*
X186853465Y-39133054D01*
X185134084Y-39133054D01*
X184644052Y-39133054D01*
X183832836Y-39133054D01*
X183572622Y-39134398D01*
X183285110Y-39144085D01*
X183110728Y-39167510D01*
X183019027Y-39209775D01*
X182979554Y-39275980D01*
X182974989Y-39293208D01*
X182938988Y-39451450D01*
X182877641Y-39736749D01*
X182796465Y-40122924D01*
X182700975Y-40583795D01*
X182596687Y-41093183D01*
X182564509Y-41250985D01*
X182464917Y-41735649D01*
X182377518Y-42155456D01*
X182307344Y-42486592D01*
X182259424Y-42705241D01*
X182238789Y-42787589D01*
X182234965Y-42780007D01*
X182204193Y-42659029D01*
X182147867Y-42408939D01*
X182070963Y-42052669D01*
X181978461Y-41613149D01*
X181875339Y-41113312D01*
X181843622Y-40958379D01*
X181740451Y-40457628D01*
X181647873Y-40013030D01*
X181571359Y-39650568D01*
X181516381Y-39396224D01*
X181488411Y-39275980D01*
X181467603Y-39229885D01*
X181398348Y-39179870D01*
X181257031Y-39150461D01*
X181013255Y-39136555D01*
X180636619Y-39133054D01*
X179825403Y-39133054D01*
X179825403Y-41787395D01*
X179825403Y-43214473D01*
X179825403Y-44441736D01*
X178271837Y-44441736D01*
X178396142Y-44408861D01*
X178588046Y-44304233D01*
X178844718Y-44056489D01*
X179046404Y-43685903D01*
X179136700Y-43440976D01*
X179172145Y-43214473D01*
X179106249Y-43090818D01*
X178936100Y-43053311D01*
X178805605Y-43064372D01*
X178703829Y-43140326D01*
X178648101Y-43330878D01*
X178615908Y-43461970D01*
X178434170Y-43809654D01*
X178150815Y-44045757D01*
X177792195Y-44153871D01*
X177384665Y-44117585D01*
X177320808Y-44098021D01*
X176997981Y-43905316D01*
X176773204Y-43592537D01*
X176660627Y-43178044D01*
X176652123Y-42880622D01*
X176743344Y-42477759D01*
X176952971Y-42172228D01*
X177269522Y-41978291D01*
X177681512Y-41910208D01*
X177731086Y-41909951D01*
X177926012Y-41894866D01*
X178010374Y-41838605D01*
X178028618Y-41716344D01*
X178027834Y-41682457D01*
X177995268Y-41575580D01*
X177883896Y-41516999D01*
X177651481Y-41480277D01*
X177341585Y-41398718D01*
X177048753Y-41191389D01*
X176866325Y-40887430D01*
X176806765Y-40509531D01*
X176882536Y-40080384D01*
X176904025Y-40022317D01*
X177086974Y-39754985D01*
X177346411Y-39596232D01*
X177647457Y-39541850D01*
X177955233Y-39587634D01*
X178234860Y-39729377D01*
X178451459Y-39962872D01*
X178570151Y-40283913D01*
X178574023Y-40307753D01*
X178621484Y-40502943D01*
X178704559Y-40585869D01*
X178866531Y-40603150D01*
X178943899Y-40602247D01*
X179056649Y-40577281D01*
X179088525Y-40483010D01*
X179067627Y-40273351D01*
X178985564Y-39956083D01*
X178756222Y-39588066D01*
X178406165Y-39318424D01*
X177950114Y-39161802D01*
X177736911Y-39146303D01*
X177365248Y-39195215D01*
X177005453Y-39314761D01*
X176731758Y-39485234D01*
X176521645Y-39743649D01*
X176367360Y-40114543D01*
X176319727Y-40513679D01*
X176377358Y-40901922D01*
X176538864Y-41240137D01*
X176802857Y-41489189D01*
X177057022Y-41643756D01*
X176772948Y-41811364D01*
X176505721Y-42012380D01*
X176278768Y-42339970D01*
X176170213Y-42768618D01*
X176159108Y-42971074D01*
X174947841Y-42971074D01*
X174680427Y-42669983D01*
X174130021Y-42156329D01*
X173926270Y-41972969D01*
X173526781Y-41557547D01*
X173266778Y-41178853D01*
X173138291Y-40818175D01*
X173133349Y-40456799D01*
X173243983Y-40076012D01*
X173275631Y-40005988D01*
X173486357Y-39723359D01*
X173780352Y-39577942D01*
X174168402Y-39563761D01*
X174343177Y-39596123D01*
X174646454Y-39748636D01*
X174855127Y-40023675D01*
X174980401Y-40433241D01*
X174991057Y-40490057D01*
X175047038Y-40697115D01*
X175129700Y-40796195D01*
X175272558Y-40833173D01*
X175388725Y-40839634D01*
X175477884Y-40788097D01*
X175496785Y-40620763D01*
X175494797Y-40543126D01*
X175398244Y-40085544D01*
X175172565Y-39691778D01*
X174839866Y-39390819D01*
X174422255Y-39211657D01*
X174043826Y-39159161D01*
X173582473Y-39214613D01*
X173195642Y-39404326D01*
X172899112Y-39715552D01*
X172708658Y-40135545D01*
X172640058Y-40651559D01*
X172645001Y-40805497D01*
X172700344Y-41116266D01*
X172829968Y-41414274D01*
X173049950Y-41724322D01*
X173109301Y-41787395D01*
X173376370Y-42071211D01*
X173825307Y-42479742D01*
X173994751Y-42629819D01*
X174419641Y-43039772D01*
X174736557Y-43401375D01*
X174935235Y-43702020D01*
X175005410Y-43929102D01*
X174991250Y-43953943D01*
X174884943Y-43990826D01*
X174661587Y-44018352D01*
X174305773Y-44038090D01*
X173802091Y-44051610D01*
X173545983Y-44056568D01*
X173153473Y-44066542D01*
X172886434Y-44080346D01*
X172719783Y-44102185D01*
X172628437Y-44136266D01*
X172587314Y-44186793D01*
X172571330Y-44257974D01*
X172545232Y-44441736D01*
X169289712Y-44441736D01*
X169289712Y-41787395D01*
X169289712Y-39133054D01*
X169044695Y-39133054D01*
X168799679Y-39133054D01*
X168799679Y-40201057D01*
X168799679Y-41269059D01*
X168586690Y-41015936D01*
X168436512Y-40858674D01*
X168040707Y-40600335D01*
X167581157Y-40491916D01*
X167060540Y-40534261D01*
X166837940Y-40621476D01*
X166617700Y-40707766D01*
X166225025Y-41021755D01*
X165916514Y-41452974D01*
X165898660Y-41488281D01*
X165781425Y-41860319D01*
X165726688Y-42318132D01*
X164699913Y-42318132D01*
X164780052Y-42118145D01*
X164970043Y-41642145D01*
X165132302Y-41233416D01*
X165258505Y-40913021D01*
X165340330Y-40702020D01*
X165369454Y-40621476D01*
X165369166Y-40620137D01*
X165290565Y-40608703D01*
X165114751Y-40618394D01*
X165044137Y-40623182D01*
X164982532Y-40631568D01*
X164927374Y-40659503D01*
X164870370Y-40723539D01*
X164803224Y-40840226D01*
X164717641Y-41026116D01*
X164605326Y-41297760D01*
X164457983Y-41671711D01*
X164267318Y-42164518D01*
X164025037Y-42792734D01*
X163990193Y-42882352D01*
X163847273Y-43236720D01*
X163725580Y-43518052D01*
X163637069Y-43699681D01*
X163593695Y-43754937D01*
X163590549Y-43750351D01*
X163542495Y-43639695D01*
X163450324Y-43403170D01*
X163323061Y-43064727D01*
X163169733Y-42648317D01*
X162999366Y-42177893D01*
X162871960Y-41823897D01*
X162713971Y-41391276D01*
X162593803Y-41079156D01*
X162501035Y-40867322D01*
X162425246Y-40735558D01*
X162356015Y-40663649D01*
X162282923Y-40631378D01*
X162195547Y-40618531D01*
X161942921Y-40593076D01*
X157318058Y-40593076D01*
X157253370Y-40438048D01*
X156985458Y-39800155D01*
X156760925Y-39271937D01*
X156573873Y-38840804D01*
X156418406Y-38494168D01*
X156288626Y-38219440D01*
X156178635Y-38004032D01*
X156082537Y-37835354D01*
X155994434Y-37700817D01*
X155908429Y-37587834D01*
X155818625Y-37483816D01*
X155719123Y-37376173D01*
X155301083Y-36986096D01*
X154692920Y-36593040D01*
X154139551Y-36315369D01*
X144205325Y-36293374D01*
X142906902Y-36290705D01*
X141508154Y-36288430D01*
X140259044Y-36287189D01*
X139152129Y-36287042D01*
X138179968Y-36288049D01*
X137335118Y-36290272D01*
X136610137Y-36293772D01*
X135997583Y-36298610D01*
X135490015Y-36304846D01*
X135079990Y-36312542D01*
X134760067Y-36321758D01*
X134522803Y-36332555D01*
X134360756Y-36344995D01*
X134266485Y-36359138D01*
X134232548Y-36375046D01*
X133680708Y-36375046D01*
X133680708Y-31537556D01*
X173700001Y-31537556D01*
X213719293Y-31537556D01*
X213719293Y-40591095D01*
X213719293Y-43379999D01*
G37*
D17*
X71590000Y-103461252D02*
X71590000Y-102038748D01*
X73410000Y-103461252D02*
X73410000Y-102038748D01*
X91755000Y-96451252D02*
X91755000Y-95928748D01*
X93225000Y-96451252D02*
X93225000Y-95928748D01*
X73791252Y-51735000D02*
X73268748Y-51735000D01*
X73791252Y-53205000D02*
X73268748Y-53205000D01*
X73791252Y-53695000D02*
X73268748Y-53695000D01*
X73791252Y-55165000D02*
X73268748Y-55165000D01*
X207015000Y-73380436D02*
X207015000Y-73834564D01*
X208485000Y-73380436D02*
X208485000Y-73834564D01*
X89038748Y-101570000D02*
X90461252Y-101570000D01*
X89038748Y-103390000D02*
X90461252Y-103390000D01*
X86365000Y-137761252D02*
X86365000Y-137238748D01*
X87835000Y-137761252D02*
X87835000Y-137238748D01*
X107590000Y-83111252D02*
X107590000Y-81688748D01*
X109410000Y-83111252D02*
X109410000Y-81688748D01*
X113865000Y-137761252D02*
X113865000Y-137238748D01*
X115335000Y-137761252D02*
X115335000Y-137238748D01*
X116090000Y-103511252D02*
X116090000Y-102088748D01*
X117910000Y-103511252D02*
X117910000Y-102088748D01*
X103370000Y-57318748D02*
X103370000Y-58741252D01*
X105190000Y-57318748D02*
X105190000Y-58741252D01*
X105720000Y-58429622D02*
X105720000Y-57630378D01*
X106840000Y-58429622D02*
X106840000Y-57630378D01*
X209015000Y-73834564D02*
X209015000Y-73380436D01*
X210485000Y-73834564D02*
X210485000Y-73380436D01*
X69255000Y-31494564D02*
X69255000Y-31040436D01*
X70725000Y-31494564D02*
X70725000Y-31040436D01*
X108902936Y-60415000D02*
X109357064Y-60415000D01*
X108902936Y-61885000D02*
X109357064Y-61885000D01*
X91511252Y-92775000D02*
X90988748Y-92775000D01*
X91511252Y-94245000D02*
X90988748Y-94245000D01*
X80090000Y-103461252D02*
X80090000Y-102038748D01*
X81910000Y-103461252D02*
X81910000Y-102038748D01*
X100365000Y-137761252D02*
X100365000Y-137238748D01*
X101835000Y-137761252D02*
X101835000Y-137238748D01*
X103790000Y-86981252D02*
X103790000Y-85558748D01*
X105610000Y-86981252D02*
X105610000Y-85558748D01*
X205015000Y-73380436D02*
X205015000Y-73834564D01*
X206485000Y-73380436D02*
X206485000Y-73834564D01*
%LPC*%
D19*
X209775000Y-144000000D02*
G75*
G02*
X208225000Y-144000000I-775000J0D01*
G01*
X208225000Y-144000000D02*
G75*
G02*
X209775000Y-144000000I775000J0D01*
G01*
X116775000Y-32000000D02*
G75*
G02*
X115225000Y-32000000I-775000J0D01*
G01*
X115225000Y-32000000D02*
G75*
G02*
X116775000Y-32000000I775000J0D01*
G01*
X212845000Y-29670000D02*
G75*
G02*
X211295000Y-29670000I-775000J0D01*
G01*
X211295000Y-29670000D02*
G75*
G02*
X212845000Y-29670000I775000J0D01*
G01*
X78775000Y-144000000D02*
G75*
G02*
X77225000Y-144000000I-775000J0D01*
G01*
X77225000Y-144000000D02*
G75*
G02*
X78775000Y-144000000I775000J0D01*
G01*
G36*
X91250000Y-91460000D02*
G01*
X92750000Y-91460000D01*
X92750000Y-89960000D01*
X91250000Y-89960000D01*
X91250000Y-91460000D01*
G37*
D20*
X209000000Y-144000000D03*
D21*
X117500000Y-60570000D03*
D22*
X117500000Y-55490000D03*
D23*
X73540000Y-126500000D03*
X76080000Y-126500000D03*
X78620000Y-126500000D03*
D24*
X71000000Y-119515000D03*
X81160000Y-119515000D03*
D20*
X116000000Y-32000000D03*
D23*
X91040000Y-126500000D03*
X93580000Y-126500000D03*
X96120000Y-126500000D03*
D24*
X88500000Y-119515000D03*
X98660000Y-119515000D03*
D25*
X217500000Y-29500000D03*
D20*
X212070000Y-29670000D03*
D26*
X76970000Y-110030000D03*
X79970000Y-110030000D03*
D21*
X206250000Y-119740000D03*
D22*
X206250000Y-114660000D03*
D25*
X217500000Y-84500000D03*
D27*
X124500440Y-29500000D03*
X124500440Y-84501160D03*
X217500000Y-29500000D03*
X217500000Y-84500000D03*
D28*
X132001060Y-29500000D03*
X134541060Y-29500000D03*
X137081060Y-29500000D03*
X139621060Y-29500000D03*
X142161060Y-29500000D03*
X144701060Y-29500000D03*
X147241060Y-29500000D03*
X149781060Y-29500000D03*
X152321060Y-29500000D03*
X154861060Y-29500000D03*
X157401060Y-29500000D03*
X159941060Y-29500000D03*
X162481060Y-29500000D03*
X165021060Y-29500000D03*
X167561060Y-29500000D03*
X170101060Y-29500000D03*
D29*
X106080000Y-30180000D03*
D30*
X106080000Y-32720000D03*
X103540000Y-30180000D03*
X103540000Y-32720000D03*
X101000000Y-30180000D03*
X101000000Y-32720000D03*
X98460000Y-30180000D03*
X98460000Y-32720000D03*
X95920000Y-30180000D03*
X95920000Y-32720000D03*
X93380000Y-30180000D03*
X93380000Y-32720000D03*
X90840000Y-30180000D03*
X90840000Y-32720000D03*
X88300000Y-30180000D03*
X88300000Y-32720000D03*
X85760000Y-30180000D03*
X85760000Y-32720000D03*
X83220000Y-30180000D03*
X83220000Y-32720000D03*
D31*
X218190000Y-135460000D03*
D32*
X218190000Y-138000000D03*
D20*
X78000000Y-144000000D03*
D25*
X124500440Y-29500000D03*
D31*
X111460000Y-81140000D03*
D32*
X114000000Y-81140000D03*
X111460000Y-83680000D03*
X114000000Y-83680000D03*
X111460000Y-86220000D03*
X114000000Y-86220000D03*
X111460000Y-88760000D03*
X114000000Y-88760000D03*
X111460000Y-91300000D03*
X114000000Y-91300000D03*
X111460000Y-93840000D03*
X114000000Y-93840000D03*
X111460000Y-96380000D03*
X114000000Y-96380000D03*
X111460000Y-98920000D03*
X114000000Y-98920000D03*
X111460000Y-101460000D03*
X114000000Y-101460000D03*
X111460000Y-104000000D03*
X114000000Y-104000000D03*
D25*
X71000000Y-145000000D03*
D31*
X218000000Y-108000000D03*
D32*
X215460000Y-108000000D03*
X218000000Y-110540000D03*
X215460000Y-110540000D03*
X218000000Y-113080000D03*
X215460000Y-113080000D03*
X218000000Y-115620000D03*
X215460000Y-115620000D03*
X218000000Y-118160000D03*
X215460000Y-118160000D03*
X218000000Y-120700000D03*
X215460000Y-120700000D03*
D23*
X108540000Y-126500000D03*
X111080000Y-126500000D03*
X113620000Y-126500000D03*
D24*
X106000000Y-119515000D03*
X116160000Y-119515000D03*
D25*
X216000000Y-145000000D03*
X78000000Y-43000000D03*
D31*
X218000000Y-125420000D03*
D32*
X218000000Y-127960000D03*
X218000000Y-130500000D03*
D31*
X75460000Y-81140000D03*
D32*
X78000000Y-81140000D03*
X75460000Y-83680000D03*
X78000000Y-83680000D03*
X75460000Y-86220000D03*
X78000000Y-86220000D03*
X75460000Y-88760000D03*
X78000000Y-88760000D03*
X75460000Y-91300000D03*
X78000000Y-91300000D03*
X75460000Y-93840000D03*
X78000000Y-93840000D03*
X75460000Y-96380000D03*
X78000000Y-96380000D03*
X75460000Y-98920000D03*
X78000000Y-98920000D03*
X75460000Y-101460000D03*
X78000000Y-101460000D03*
X75460000Y-104000000D03*
X78000000Y-104000000D03*
D21*
X70000000Y-95040000D03*
D22*
X70000000Y-89960000D03*
D25*
X124500440Y-84501160D03*
D21*
X119400000Y-94983600D03*
D22*
X119400000Y-89903600D03*
D33*
X132110000Y-50980000D03*
D34*
X132110000Y-58580000D03*
D35*
X207467500Y-100070000D03*
D23*
X207467500Y-97570000D03*
X207467500Y-95570000D03*
X207467500Y-93070000D03*
D36*
X210177500Y-103140000D03*
X210177500Y-90000000D03*
D37*
X74630000Y-33330000D03*
X68850000Y-33330000D03*
D38*
X76060000Y-33860000D03*
D39*
X76060000Y-29680000D03*
D38*
X67420000Y-33860000D03*
D39*
X67420000Y-29680000D03*
D40*
X206974140Y-50180000D03*
D41*
X185974140Y-50180000D03*
D23*
X117357500Y-36910000D03*
X119897500Y-39450000D03*
X117357500Y-41990000D03*
D42*
X90530000Y-97140000D03*
X90530000Y-95240000D03*
D43*
X108500000Y-104275000D03*
X108500000Y-101325000D03*
D44*
X92000000Y-88695000D03*
X92000000Y-86870000D03*
D43*
X72500000Y-83975000D03*
X72500000Y-81025000D03*
D44*
X72995000Y-32180000D03*
X72995000Y-30355000D03*
D42*
X73100000Y-138450000D03*
X73100000Y-136550000D03*
X100120000Y-87710000D03*
X100120000Y-85810000D03*
D43*
X117000000Y-83875000D03*
X117000000Y-80925000D03*
D45*
X76080000Y-54427500D03*
X76080000Y-56552500D03*
D46*
X108110000Y-57080000D03*
X108110000Y-58980000D03*
D47*
X109640000Y-58230000D03*
X109640000Y-57830000D03*
X110040000Y-58230000D03*
X110040000Y-57830000D03*
X110440000Y-58230000D03*
X110440000Y-57830000D03*
D46*
X81130000Y-93250000D03*
X81130000Y-95150000D03*
D48*
X90700000Y-90710000D03*
D49*
X92000000Y-90710000D03*
D50*
X93300000Y-90710000D03*
D43*
X81000000Y-83975000D03*
X81000000Y-81025000D03*
D44*
X209750000Y-68732500D03*
X209750000Y-66907500D03*
D43*
X78080000Y-56965000D03*
X78080000Y-54015000D03*
X72500000Y-104225000D03*
X72500000Y-101275000D03*
D42*
X92490000Y-97140000D03*
X92490000Y-95240000D03*
D51*
X74480000Y-52470000D03*
X72580000Y-52470000D03*
X74480000Y-54430000D03*
X72580000Y-54430000D03*
D52*
X207750000Y-72695000D03*
X207750000Y-74520000D03*
D53*
X88275000Y-102480000D03*
X91225000Y-102480000D03*
D42*
X87100000Y-138450000D03*
X87100000Y-136550000D03*
D43*
X108500000Y-83875000D03*
X108500000Y-80925000D03*
D42*
X114600000Y-138450000D03*
X114600000Y-136550000D03*
D43*
X117000000Y-104275000D03*
X117000000Y-101325000D03*
D54*
X104280000Y-56555000D03*
X104280000Y-59505000D03*
D55*
X106280000Y-59092500D03*
X106280000Y-56967500D03*
D44*
X209750000Y-74520000D03*
X209750000Y-72695000D03*
X69990000Y-32180000D03*
X69990000Y-30355000D03*
D56*
X108217500Y-61150000D03*
X110042500Y-61150000D03*
D51*
X92200000Y-93510000D03*
X90300000Y-93510000D03*
D43*
X81000000Y-104225000D03*
X81000000Y-101275000D03*
D42*
X101100000Y-138450000D03*
X101100000Y-136550000D03*
D43*
X104700000Y-87745000D03*
X104700000Y-84795000D03*
D52*
X205750000Y-72695000D03*
X205750000Y-74520000D03*
%LPD*%
M02*
