G04 #@! TF.GenerationSoftware,KiCad,Pcbnew,9.0.0*
G04 #@! TF.CreationDate,2025-06-10T17:59:39+09:00*
G04 #@! TF.ProjectId,ARM ___ __,41524d20-38f8-4982-90f4-dc2e6b696361,1.0*
G04 #@! TF.SameCoordinates,Original*
G04 #@! TF.FileFunction,Paste,Top*
G04 #@! TF.FilePolarity,Positive*
%FSLAX46Y46*%
G04 Gerber Fmt 4.6, Leading zero omitted, Abs format (unit mm)*
G04 Created by KiCad (PCBNEW 9.0.0) date 2025-06-10 17:59:39*
%MOMM*%
%LPD*%
G01*
G04 APERTURE LIST*
G04 Aperture macros list*
%AMRoundRect*
0 Rectangle with rounded corners*
0 $1 Rounding radius*
0 $2 $3 $4 $5 $6 $7 $8 $9 X,Y pos of 4 corners*
0 Add a 4 corners polygon primitive as box body*
4,1,4,$2,$3,$4,$5,$6,$7,$8,$9,$2,$3,0*
0 Add four circle primitives for the rounded corners*
1,1,$1+$1,$2,$3*
1,1,$1+$1,$4,$5*
1,1,$1+$1,$6,$7*
1,1,$1+$1,$8,$9*
0 Add four rect primitives between the rounded corners*
20,1,$1+$1,$2,$3,$4,$5,0*
20,1,$1+$1,$4,$5,$6,$7,0*
20,1,$1+$1,$6,$7,$8,$9,0*
20,1,$1+$1,$8,$9,$2,$3,0*%
G04 Aperture macros list end*
%ADD10C,0.100000*%
%ADD11C,0.150000*%
%ADD12C,0.300000*%
%ADD13C,0.400000*%
%ADD14RoundRect,0.250000X-0.262500X-0.450000X0.262500X-0.450000X0.262500X0.450000X-0.262500X0.450000X0*%
%ADD15RoundRect,0.243750X-0.243750X-0.456250X0.243750X-0.456250X0.243750X0.456250X-0.243750X0.456250X0*%
%ADD16RoundRect,0.243750X0.243750X0.456250X-0.243750X0.456250X-0.243750X-0.456250X0.243750X-0.456250X0*%
%ADD17RoundRect,0.150000X0.512500X0.150000X-0.512500X0.150000X-0.512500X-0.150000X0.512500X-0.150000X0*%
%ADD18RoundRect,0.250000X0.262500X0.450000X-0.262500X0.450000X-0.262500X-0.450000X0.262500X-0.450000X0*%
%ADD19R,3.000000X2.000000*%
%ADD20R,3.000000X1.524000*%
%ADD21RoundRect,0.250000X0.475000X-0.250000X0.475000X0.250000X-0.475000X0.250000X-0.475000X-0.250000X0*%
%ADD22RoundRect,0.250000X-0.450000X0.262500X-0.450000X-0.262500X0.450000X-0.262500X0.450000X0.262500X0*%
%ADD23RoundRect,0.250000X-0.475000X0.250000X-0.475000X-0.250000X0.475000X-0.250000X0.475000X0.250000X0*%
%ADD24RoundRect,0.250000X1.000000X0.650000X-1.000000X0.650000X-1.000000X-0.650000X1.000000X-0.650000X0*%
%ADD25RoundRect,0.250000X-0.650000X0.325000X-0.650000X-0.325000X0.650000X-0.325000X0.650000X0.325000X0*%
%ADD26RoundRect,0.150000X0.150000X-0.587500X0.150000X0.587500X-0.150000X0.587500X-0.150000X-0.587500X0*%
%ADD27RoundRect,0.250000X-1.075000X0.375000X-1.075000X-0.375000X1.075000X-0.375000X1.075000X0.375000X0*%
%ADD28RoundRect,0.250000X0.250000X0.475000X-0.250000X0.475000X-0.250000X-0.475000X0.250000X-0.475000X0*%
%ADD29RoundRect,0.150000X0.150000X-0.825000X0.150000X0.825000X-0.150000X0.825000X-0.150000X-0.825000X0*%
%ADD30RoundRect,0.250000X0.650000X-0.325000X0.650000X0.325000X-0.650000X0.325000X-0.650000X-0.325000X0*%
%ADD31RoundRect,0.218750X-0.381250X0.218750X-0.381250X-0.218750X0.381250X-0.218750X0.381250X0.218750X0*%
%ADD32RoundRect,0.150000X-0.825000X-0.150000X0.825000X-0.150000X0.825000X0.150000X-0.825000X0.150000X0*%
%ADD33RoundRect,0.250000X-0.250000X-0.475000X0.250000X-0.475000X0.250000X0.475000X-0.250000X0.475000X0*%
%ADD34R,1.000000X2.500000*%
%ADD35R,1.800000X1.000000*%
%ADD36RoundRect,0.250000X-0.850000X-0.350000X0.850000X-0.350000X0.850000X0.350000X-0.850000X0.350000X0*%
%ADD37RoundRect,0.250000X-1.275000X-1.125000X1.275000X-1.125000X1.275000X1.125000X-1.275000X1.125000X0*%
%ADD38RoundRect,0.150000X-0.150000X0.512500X-0.150000X-0.512500X0.150000X-0.512500X0.150000X0.512500X0*%
%ADD39RoundRect,0.218750X-0.218750X-0.381250X0.218750X-0.381250X0.218750X0.381250X-0.218750X0.381250X0*%
%ADD40C,0.250000*%
%ADD41RoundRect,0.075000X-0.725000X-0.075000X0.725000X-0.075000X0.725000X0.075000X-0.725000X0.075000X0*%
%ADD42RoundRect,0.075000X-0.075000X-0.725000X0.075000X-0.725000X0.075000X0.725000X-0.075000X0.725000X0*%
%ADD43RoundRect,0.250000X0.450000X-0.262500X0.450000X0.262500X-0.450000X0.262500X-0.450000X-0.262500X0*%
%ADD44RoundRect,0.218750X0.218750X0.381250X-0.218750X0.381250X-0.218750X-0.381250X0.218750X-0.381250X0*%
%ADD45R,2.500000X5.400000*%
%ADD46R,2.500000X5.100000*%
%ADD47C,17.800000*%
%ADD48R,0.450000X1.750000*%
%ADD49RoundRect,0.175000X-0.225000X-0.175000X0.225000X-0.175000X0.225000X0.175000X-0.225000X0.175000X0*%
%ADD50RoundRect,0.150000X-0.150000X0.875000X-0.150000X-0.875000X0.150000X-0.875000X0.150000X0.875000X0*%
%ADD51RoundRect,0.218750X0.381250X-0.218750X0.381250X0.218750X-0.381250X0.218750X-0.381250X-0.218750X0*%
%ADD52R,0.600000X1.450000*%
%ADD53R,0.300000X1.450000*%
%ADD54R,1.000000X1.500000*%
%ADD55R,0.700000X1.500000*%
%ADD56R,1.500000X2.800000*%
G04 APERTURE END LIST*
D10*
D11*
X177002200Y-166007200D02*
X285002200Y-166007200D01*
X285002200Y-198007200D01*
X177002200Y-198007200D01*
X177002200Y-166007200D01*
D10*
D11*
X10000000Y-10000000D02*
X287002200Y-10000000D01*
X287002200Y-200007200D01*
X10000000Y-200007200D01*
X10000000Y-10000000D01*
D10*
D11*
X12000000Y-12000000D02*
X285002200Y-12000000D01*
X285002200Y-198007200D01*
X12000000Y-198007200D01*
X12000000Y-12000000D01*
D10*
D11*
X60000000Y-12000000D02*
X60000000Y-10000000D01*
D10*
D11*
X110000000Y-12000000D02*
X110000000Y-10000000D01*
D10*
D11*
X160000000Y-12000000D02*
X160000000Y-10000000D01*
D10*
D11*
X210000000Y-12000000D02*
X210000000Y-10000000D01*
D10*
D11*
X260000000Y-12000000D02*
X260000000Y-10000000D01*
D10*
D11*
X36089160Y-11593604D02*
X35346303Y-11593604D01*
X35717731Y-11593604D02*
X35717731Y-10293604D01*
X35717731Y-10293604D02*
X35593922Y-10479319D01*
X35593922Y-10479319D02*
X35470112Y-10603128D01*
X35470112Y-10603128D02*
X35346303Y-10665033D01*
D10*
D11*
X85346303Y-10417414D02*
X85408207Y-10355509D01*
X85408207Y-10355509D02*
X85532017Y-10293604D01*
X85532017Y-10293604D02*
X85841541Y-10293604D01*
X85841541Y-10293604D02*
X85965350Y-10355509D01*
X85965350Y-10355509D02*
X86027255Y-10417414D01*
X86027255Y-10417414D02*
X86089160Y-10541223D01*
X86089160Y-10541223D02*
X86089160Y-10665033D01*
X86089160Y-10665033D02*
X86027255Y-10850747D01*
X86027255Y-10850747D02*
X85284398Y-11593604D01*
X85284398Y-11593604D02*
X86089160Y-11593604D01*
D10*
D11*
X135284398Y-10293604D02*
X136089160Y-10293604D01*
X136089160Y-10293604D02*
X135655826Y-10788842D01*
X135655826Y-10788842D02*
X135841541Y-10788842D01*
X135841541Y-10788842D02*
X135965350Y-10850747D01*
X135965350Y-10850747D02*
X136027255Y-10912652D01*
X136027255Y-10912652D02*
X136089160Y-11036461D01*
X136089160Y-11036461D02*
X136089160Y-11345985D01*
X136089160Y-11345985D02*
X136027255Y-11469795D01*
X136027255Y-11469795D02*
X135965350Y-11531700D01*
X135965350Y-11531700D02*
X135841541Y-11593604D01*
X135841541Y-11593604D02*
X135470112Y-11593604D01*
X135470112Y-11593604D02*
X135346303Y-11531700D01*
X135346303Y-11531700D02*
X135284398Y-11469795D01*
D10*
D11*
X185965350Y-10726938D02*
X185965350Y-11593604D01*
X185655826Y-10231700D02*
X185346303Y-11160271D01*
X185346303Y-11160271D02*
X186151064Y-11160271D01*
D10*
D11*
X236027255Y-10293604D02*
X235408207Y-10293604D01*
X235408207Y-10293604D02*
X235346303Y-10912652D01*
X235346303Y-10912652D02*
X235408207Y-10850747D01*
X235408207Y-10850747D02*
X235532017Y-10788842D01*
X235532017Y-10788842D02*
X235841541Y-10788842D01*
X235841541Y-10788842D02*
X235965350Y-10850747D01*
X235965350Y-10850747D02*
X236027255Y-10912652D01*
X236027255Y-10912652D02*
X236089160Y-11036461D01*
X236089160Y-11036461D02*
X236089160Y-11345985D01*
X236089160Y-11345985D02*
X236027255Y-11469795D01*
X236027255Y-11469795D02*
X235965350Y-11531700D01*
X235965350Y-11531700D02*
X235841541Y-11593604D01*
X235841541Y-11593604D02*
X235532017Y-11593604D01*
X235532017Y-11593604D02*
X235408207Y-11531700D01*
X235408207Y-11531700D02*
X235346303Y-11469795D01*
D10*
D11*
X285965350Y-10293604D02*
X285717731Y-10293604D01*
X285717731Y-10293604D02*
X285593922Y-10355509D01*
X285593922Y-10355509D02*
X285532017Y-10417414D01*
X285532017Y-10417414D02*
X285408207Y-10603128D01*
X285408207Y-10603128D02*
X285346303Y-10850747D01*
X285346303Y-10850747D02*
X285346303Y-11345985D01*
X285346303Y-11345985D02*
X285408207Y-11469795D01*
X285408207Y-11469795D02*
X285470112Y-11531700D01*
X285470112Y-11531700D02*
X285593922Y-11593604D01*
X285593922Y-11593604D02*
X285841541Y-11593604D01*
X285841541Y-11593604D02*
X285965350Y-11531700D01*
X285965350Y-11531700D02*
X286027255Y-11469795D01*
X286027255Y-11469795D02*
X286089160Y-11345985D01*
X286089160Y-11345985D02*
X286089160Y-11036461D01*
X286089160Y-11036461D02*
X286027255Y-10912652D01*
X286027255Y-10912652D02*
X285965350Y-10850747D01*
X285965350Y-10850747D02*
X285841541Y-10788842D01*
X285841541Y-10788842D02*
X285593922Y-10788842D01*
X285593922Y-10788842D02*
X285470112Y-10850747D01*
X285470112Y-10850747D02*
X285408207Y-10912652D01*
X285408207Y-10912652D02*
X285346303Y-11036461D01*
D10*
D11*
X60000000Y-198007200D02*
X60000000Y-200007200D01*
D10*
D11*
X110000000Y-198007200D02*
X110000000Y-200007200D01*
D10*
D11*
X160000000Y-198007200D02*
X160000000Y-200007200D01*
D10*
D11*
X210000000Y-198007200D02*
X210000000Y-200007200D01*
D10*
D11*
X260000000Y-198007200D02*
X260000000Y-200007200D01*
D10*
D11*
X36089160Y-199600804D02*
X35346303Y-199600804D01*
X35717731Y-199600804D02*
X35717731Y-198300804D01*
X35717731Y-198300804D02*
X35593922Y-198486519D01*
X35593922Y-198486519D02*
X35470112Y-198610328D01*
X35470112Y-198610328D02*
X35346303Y-198672233D01*
D10*
D11*
X85346303Y-198424614D02*
X85408207Y-198362709D01*
X85408207Y-198362709D02*
X85532017Y-198300804D01*
X85532017Y-198300804D02*
X85841541Y-198300804D01*
X85841541Y-198300804D02*
X85965350Y-198362709D01*
X85965350Y-198362709D02*
X86027255Y-198424614D01*
X86027255Y-198424614D02*
X86089160Y-198548423D01*
X86089160Y-198548423D02*
X86089160Y-198672233D01*
X86089160Y-198672233D02*
X86027255Y-198857947D01*
X86027255Y-198857947D02*
X85284398Y-199600804D01*
X85284398Y-199600804D02*
X86089160Y-199600804D01*
D10*
D11*
X135284398Y-198300804D02*
X136089160Y-198300804D01*
X136089160Y-198300804D02*
X135655826Y-198796042D01*
X135655826Y-198796042D02*
X135841541Y-198796042D01*
X135841541Y-198796042D02*
X135965350Y-198857947D01*
X135965350Y-198857947D02*
X136027255Y-198919852D01*
X136027255Y-198919852D02*
X136089160Y-199043661D01*
X136089160Y-199043661D02*
X136089160Y-199353185D01*
X136089160Y-199353185D02*
X136027255Y-199476995D01*
X136027255Y-199476995D02*
X135965350Y-199538900D01*
X135965350Y-199538900D02*
X135841541Y-199600804D01*
X135841541Y-199600804D02*
X135470112Y-199600804D01*
X135470112Y-199600804D02*
X135346303Y-199538900D01*
X135346303Y-199538900D02*
X135284398Y-199476995D01*
D10*
D11*
X185965350Y-198734138D02*
X185965350Y-199600804D01*
X185655826Y-198238900D02*
X185346303Y-199167471D01*
X185346303Y-199167471D02*
X186151064Y-199167471D01*
D10*
D11*
X236027255Y-198300804D02*
X235408207Y-198300804D01*
X235408207Y-198300804D02*
X235346303Y-198919852D01*
X235346303Y-198919852D02*
X235408207Y-198857947D01*
X235408207Y-198857947D02*
X235532017Y-198796042D01*
X235532017Y-198796042D02*
X235841541Y-198796042D01*
X235841541Y-198796042D02*
X235965350Y-198857947D01*
X235965350Y-198857947D02*
X236027255Y-198919852D01*
X236027255Y-198919852D02*
X236089160Y-199043661D01*
X236089160Y-199043661D02*
X236089160Y-199353185D01*
X236089160Y-199353185D02*
X236027255Y-199476995D01*
X236027255Y-199476995D02*
X235965350Y-199538900D01*
X235965350Y-199538900D02*
X235841541Y-199600804D01*
X235841541Y-199600804D02*
X235532017Y-199600804D01*
X235532017Y-199600804D02*
X235408207Y-199538900D01*
X235408207Y-199538900D02*
X235346303Y-199476995D01*
D10*
D11*
X285965350Y-198300804D02*
X285717731Y-198300804D01*
X285717731Y-198300804D02*
X285593922Y-198362709D01*
X285593922Y-198362709D02*
X285532017Y-198424614D01*
X285532017Y-198424614D02*
X285408207Y-198610328D01*
X285408207Y-198610328D02*
X285346303Y-198857947D01*
X285346303Y-198857947D02*
X285346303Y-199353185D01*
X285346303Y-199353185D02*
X285408207Y-199476995D01*
X285408207Y-199476995D02*
X285470112Y-199538900D01*
X285470112Y-199538900D02*
X285593922Y-199600804D01*
X285593922Y-199600804D02*
X285841541Y-199600804D01*
X285841541Y-199600804D02*
X285965350Y-199538900D01*
X285965350Y-199538900D02*
X286027255Y-199476995D01*
X286027255Y-199476995D02*
X286089160Y-199353185D01*
X286089160Y-199353185D02*
X286089160Y-199043661D01*
X286089160Y-199043661D02*
X286027255Y-198919852D01*
X286027255Y-198919852D02*
X285965350Y-198857947D01*
X285965350Y-198857947D02*
X285841541Y-198796042D01*
X285841541Y-198796042D02*
X285593922Y-198796042D01*
X285593922Y-198796042D02*
X285470112Y-198857947D01*
X285470112Y-198857947D02*
X285408207Y-198919852D01*
X285408207Y-198919852D02*
X285346303Y-199043661D01*
D10*
D11*
X10000000Y-60000000D02*
X12000000Y-60000000D01*
D10*
D11*
X10000000Y-110000000D02*
X12000000Y-110000000D01*
D10*
D11*
X10000000Y-160000000D02*
X12000000Y-160000000D01*
D10*
D11*
X10690476Y-35222176D02*
X11309523Y-35222176D01*
X10566666Y-35593604D02*
X10999999Y-34293604D01*
X10999999Y-34293604D02*
X11433333Y-35593604D01*
D10*
D11*
X11092857Y-84912652D02*
X11278571Y-84974557D01*
X11278571Y-84974557D02*
X11340476Y-85036461D01*
X11340476Y-85036461D02*
X11402380Y-85160271D01*
X11402380Y-85160271D02*
X11402380Y-85345985D01*
X11402380Y-85345985D02*
X11340476Y-85469795D01*
X11340476Y-85469795D02*
X11278571Y-85531700D01*
X11278571Y-85531700D02*
X11154761Y-85593604D01*
X11154761Y-85593604D02*
X10659523Y-85593604D01*
X10659523Y-85593604D02*
X10659523Y-84293604D01*
X10659523Y-84293604D02*
X11092857Y-84293604D01*
X11092857Y-84293604D02*
X11216666Y-84355509D01*
X11216666Y-84355509D02*
X11278571Y-84417414D01*
X11278571Y-84417414D02*
X11340476Y-84541223D01*
X11340476Y-84541223D02*
X11340476Y-84665033D01*
X11340476Y-84665033D02*
X11278571Y-84788842D01*
X11278571Y-84788842D02*
X11216666Y-84850747D01*
X11216666Y-84850747D02*
X11092857Y-84912652D01*
X11092857Y-84912652D02*
X10659523Y-84912652D01*
D10*
D11*
X11402380Y-135469795D02*
X11340476Y-135531700D01*
X11340476Y-135531700D02*
X11154761Y-135593604D01*
X11154761Y-135593604D02*
X11030952Y-135593604D01*
X11030952Y-135593604D02*
X10845238Y-135531700D01*
X10845238Y-135531700D02*
X10721428Y-135407890D01*
X10721428Y-135407890D02*
X10659523Y-135284080D01*
X10659523Y-135284080D02*
X10597619Y-135036461D01*
X10597619Y-135036461D02*
X10597619Y-134850747D01*
X10597619Y-134850747D02*
X10659523Y-134603128D01*
X10659523Y-134603128D02*
X10721428Y-134479319D01*
X10721428Y-134479319D02*
X10845238Y-134355509D01*
X10845238Y-134355509D02*
X11030952Y-134293604D01*
X11030952Y-134293604D02*
X11154761Y-134293604D01*
X11154761Y-134293604D02*
X11340476Y-134355509D01*
X11340476Y-134355509D02*
X11402380Y-134417414D01*
D10*
D11*
X10659523Y-185593604D02*
X10659523Y-184293604D01*
X10659523Y-184293604D02*
X10969047Y-184293604D01*
X10969047Y-184293604D02*
X11154761Y-184355509D01*
X11154761Y-184355509D02*
X11278571Y-184479319D01*
X11278571Y-184479319D02*
X11340476Y-184603128D01*
X11340476Y-184603128D02*
X11402380Y-184850747D01*
X11402380Y-184850747D02*
X11402380Y-185036461D01*
X11402380Y-185036461D02*
X11340476Y-185284080D01*
X11340476Y-185284080D02*
X11278571Y-185407890D01*
X11278571Y-185407890D02*
X11154761Y-185531700D01*
X11154761Y-185531700D02*
X10969047Y-185593604D01*
X10969047Y-185593604D02*
X10659523Y-185593604D01*
D10*
D11*
X287002200Y-60000000D02*
X285002200Y-60000000D01*
D10*
D11*
X287002200Y-110000000D02*
X285002200Y-110000000D01*
D10*
D11*
X287002200Y-160000000D02*
X285002200Y-160000000D01*
D10*
D11*
X285692676Y-35222176D02*
X286311723Y-35222176D01*
X285568866Y-35593604D02*
X286002199Y-34293604D01*
X286002199Y-34293604D02*
X286435533Y-35593604D01*
D10*
D11*
X286095057Y-84912652D02*
X286280771Y-84974557D01*
X286280771Y-84974557D02*
X286342676Y-85036461D01*
X286342676Y-85036461D02*
X286404580Y-85160271D01*
X286404580Y-85160271D02*
X286404580Y-85345985D01*
X286404580Y-85345985D02*
X286342676Y-85469795D01*
X286342676Y-85469795D02*
X286280771Y-85531700D01*
X286280771Y-85531700D02*
X286156961Y-85593604D01*
X286156961Y-85593604D02*
X285661723Y-85593604D01*
X285661723Y-85593604D02*
X285661723Y-84293604D01*
X285661723Y-84293604D02*
X286095057Y-84293604D01*
X286095057Y-84293604D02*
X286218866Y-84355509D01*
X286218866Y-84355509D02*
X286280771Y-84417414D01*
X286280771Y-84417414D02*
X286342676Y-84541223D01*
X286342676Y-84541223D02*
X286342676Y-84665033D01*
X286342676Y-84665033D02*
X286280771Y-84788842D01*
X286280771Y-84788842D02*
X286218866Y-84850747D01*
X286218866Y-84850747D02*
X286095057Y-84912652D01*
X286095057Y-84912652D02*
X285661723Y-84912652D01*
D10*
D11*
X286404580Y-135469795D02*
X286342676Y-135531700D01*
X286342676Y-135531700D02*
X286156961Y-135593604D01*
X286156961Y-135593604D02*
X286033152Y-135593604D01*
X286033152Y-135593604D02*
X285847438Y-135531700D01*
X285847438Y-135531700D02*
X285723628Y-135407890D01*
X285723628Y-135407890D02*
X285661723Y-135284080D01*
X285661723Y-135284080D02*
X285599819Y-135036461D01*
X285599819Y-135036461D02*
X285599819Y-134850747D01*
X285599819Y-134850747D02*
X285661723Y-134603128D01*
X285661723Y-134603128D02*
X285723628Y-134479319D01*
X285723628Y-134479319D02*
X285847438Y-134355509D01*
X285847438Y-134355509D02*
X286033152Y-134293604D01*
X286033152Y-134293604D02*
X286156961Y-134293604D01*
X286156961Y-134293604D02*
X286342676Y-134355509D01*
X286342676Y-134355509D02*
X286404580Y-134417414D01*
D10*
D11*
X285661723Y-185593604D02*
X285661723Y-184293604D01*
X285661723Y-184293604D02*
X285971247Y-184293604D01*
X285971247Y-184293604D02*
X286156961Y-184355509D01*
X286156961Y-184355509D02*
X286280771Y-184479319D01*
X286280771Y-184479319D02*
X286342676Y-184603128D01*
X286342676Y-184603128D02*
X286404580Y-184850747D01*
X286404580Y-184850747D02*
X286404580Y-185036461D01*
X286404580Y-185036461D02*
X286342676Y-185284080D01*
X286342676Y-185284080D02*
X286280771Y-185407890D01*
X286280771Y-185407890D02*
X286156961Y-185531700D01*
X286156961Y-185531700D02*
X285971247Y-185593604D01*
X285971247Y-185593604D02*
X285661723Y-185593604D01*
D10*
D11*
X200458026Y-193793328D02*
X200458026Y-192293328D01*
X200458026Y-192293328D02*
X200815169Y-192293328D01*
X200815169Y-192293328D02*
X201029455Y-192364757D01*
X201029455Y-192364757D02*
X201172312Y-192507614D01*
X201172312Y-192507614D02*
X201243741Y-192650471D01*
X201243741Y-192650471D02*
X201315169Y-192936185D01*
X201315169Y-192936185D02*
X201315169Y-193150471D01*
X201315169Y-193150471D02*
X201243741Y-193436185D01*
X201243741Y-193436185D02*
X201172312Y-193579042D01*
X201172312Y-193579042D02*
X201029455Y-193721900D01*
X201029455Y-193721900D02*
X200815169Y-193793328D01*
X200815169Y-193793328D02*
X200458026Y-193793328D01*
X202600884Y-193793328D02*
X202600884Y-193007614D01*
X202600884Y-193007614D02*
X202529455Y-192864757D01*
X202529455Y-192864757D02*
X202386598Y-192793328D01*
X202386598Y-192793328D02*
X202100884Y-192793328D01*
X202100884Y-192793328D02*
X201958026Y-192864757D01*
X202600884Y-193721900D02*
X202458026Y-193793328D01*
X202458026Y-193793328D02*
X202100884Y-193793328D01*
X202100884Y-193793328D02*
X201958026Y-193721900D01*
X201958026Y-193721900D02*
X201886598Y-193579042D01*
X201886598Y-193579042D02*
X201886598Y-193436185D01*
X201886598Y-193436185D02*
X201958026Y-193293328D01*
X201958026Y-193293328D02*
X202100884Y-193221900D01*
X202100884Y-193221900D02*
X202458026Y-193221900D01*
X202458026Y-193221900D02*
X202600884Y-193150471D01*
X203100884Y-192793328D02*
X203672312Y-192793328D01*
X203315169Y-192293328D02*
X203315169Y-193579042D01*
X203315169Y-193579042D02*
X203386598Y-193721900D01*
X203386598Y-193721900D02*
X203529455Y-193793328D01*
X203529455Y-193793328D02*
X203672312Y-193793328D01*
X204743741Y-193721900D02*
X204600884Y-193793328D01*
X204600884Y-193793328D02*
X204315170Y-193793328D01*
X204315170Y-193793328D02*
X204172312Y-193721900D01*
X204172312Y-193721900D02*
X204100884Y-193579042D01*
X204100884Y-193579042D02*
X204100884Y-193007614D01*
X204100884Y-193007614D02*
X204172312Y-192864757D01*
X204172312Y-192864757D02*
X204315170Y-192793328D01*
X204315170Y-192793328D02*
X204600884Y-192793328D01*
X204600884Y-192793328D02*
X204743741Y-192864757D01*
X204743741Y-192864757D02*
X204815170Y-193007614D01*
X204815170Y-193007614D02*
X204815170Y-193150471D01*
X204815170Y-193150471D02*
X204100884Y-193293328D01*
X205458026Y-193650471D02*
X205529455Y-193721900D01*
X205529455Y-193721900D02*
X205458026Y-193793328D01*
X205458026Y-193793328D02*
X205386598Y-193721900D01*
X205386598Y-193721900D02*
X205458026Y-193650471D01*
X205458026Y-193650471D02*
X205458026Y-193793328D01*
X205458026Y-192864757D02*
X205529455Y-192936185D01*
X205529455Y-192936185D02*
X205458026Y-193007614D01*
X205458026Y-193007614D02*
X205386598Y-192936185D01*
X205386598Y-192936185D02*
X205458026Y-192864757D01*
X205458026Y-192864757D02*
X205458026Y-193007614D01*
X207243741Y-192436185D02*
X207315169Y-192364757D01*
X207315169Y-192364757D02*
X207458027Y-192293328D01*
X207458027Y-192293328D02*
X207815169Y-192293328D01*
X207815169Y-192293328D02*
X207958027Y-192364757D01*
X207958027Y-192364757D02*
X208029455Y-192436185D01*
X208029455Y-192436185D02*
X208100884Y-192579042D01*
X208100884Y-192579042D02*
X208100884Y-192721900D01*
X208100884Y-192721900D02*
X208029455Y-192936185D01*
X208029455Y-192936185D02*
X207172312Y-193793328D01*
X207172312Y-193793328D02*
X208100884Y-193793328D01*
X209029455Y-192293328D02*
X209172312Y-192293328D01*
X209172312Y-192293328D02*
X209315169Y-192364757D01*
X209315169Y-192364757D02*
X209386598Y-192436185D01*
X209386598Y-192436185D02*
X209458026Y-192579042D01*
X209458026Y-192579042D02*
X209529455Y-192864757D01*
X209529455Y-192864757D02*
X209529455Y-193221900D01*
X209529455Y-193221900D02*
X209458026Y-193507614D01*
X209458026Y-193507614D02*
X209386598Y-193650471D01*
X209386598Y-193650471D02*
X209315169Y-193721900D01*
X209315169Y-193721900D02*
X209172312Y-193793328D01*
X209172312Y-193793328D02*
X209029455Y-193793328D01*
X209029455Y-193793328D02*
X208886598Y-193721900D01*
X208886598Y-193721900D02*
X208815169Y-193650471D01*
X208815169Y-193650471D02*
X208743740Y-193507614D01*
X208743740Y-193507614D02*
X208672312Y-193221900D01*
X208672312Y-193221900D02*
X208672312Y-192864757D01*
X208672312Y-192864757D02*
X208743740Y-192579042D01*
X208743740Y-192579042D02*
X208815169Y-192436185D01*
X208815169Y-192436185D02*
X208886598Y-192364757D01*
X208886598Y-192364757D02*
X209029455Y-192293328D01*
X210100883Y-192436185D02*
X210172311Y-192364757D01*
X210172311Y-192364757D02*
X210315169Y-192293328D01*
X210315169Y-192293328D02*
X210672311Y-192293328D01*
X210672311Y-192293328D02*
X210815169Y-192364757D01*
X210815169Y-192364757D02*
X210886597Y-192436185D01*
X210886597Y-192436185D02*
X210958026Y-192579042D01*
X210958026Y-192579042D02*
X210958026Y-192721900D01*
X210958026Y-192721900D02*
X210886597Y-192936185D01*
X210886597Y-192936185D02*
X210029454Y-193793328D01*
X210029454Y-193793328D02*
X210958026Y-193793328D01*
X212315168Y-192293328D02*
X211600882Y-192293328D01*
X211600882Y-192293328D02*
X211529454Y-193007614D01*
X211529454Y-193007614D02*
X211600882Y-192936185D01*
X211600882Y-192936185D02*
X211743740Y-192864757D01*
X211743740Y-192864757D02*
X212100882Y-192864757D01*
X212100882Y-192864757D02*
X212243740Y-192936185D01*
X212243740Y-192936185D02*
X212315168Y-193007614D01*
X212315168Y-193007614D02*
X212386597Y-193150471D01*
X212386597Y-193150471D02*
X212386597Y-193507614D01*
X212386597Y-193507614D02*
X212315168Y-193650471D01*
X212315168Y-193650471D02*
X212243740Y-193721900D01*
X212243740Y-193721900D02*
X212100882Y-193793328D01*
X212100882Y-193793328D02*
X211743740Y-193793328D01*
X211743740Y-193793328D02*
X211600882Y-193721900D01*
X211600882Y-193721900D02*
X211529454Y-193650471D01*
X213029453Y-193221900D02*
X214172311Y-193221900D01*
X215172311Y-192293328D02*
X215315168Y-192293328D01*
X215315168Y-192293328D02*
X215458025Y-192364757D01*
X215458025Y-192364757D02*
X215529454Y-192436185D01*
X215529454Y-192436185D02*
X215600882Y-192579042D01*
X215600882Y-192579042D02*
X215672311Y-192864757D01*
X215672311Y-192864757D02*
X215672311Y-193221900D01*
X215672311Y-193221900D02*
X215600882Y-193507614D01*
X215600882Y-193507614D02*
X215529454Y-193650471D01*
X215529454Y-193650471D02*
X215458025Y-193721900D01*
X215458025Y-193721900D02*
X215315168Y-193793328D01*
X215315168Y-193793328D02*
X215172311Y-193793328D01*
X215172311Y-193793328D02*
X215029454Y-193721900D01*
X215029454Y-193721900D02*
X214958025Y-193650471D01*
X214958025Y-193650471D02*
X214886596Y-193507614D01*
X214886596Y-193507614D02*
X214815168Y-193221900D01*
X214815168Y-193221900D02*
X214815168Y-192864757D01*
X214815168Y-192864757D02*
X214886596Y-192579042D01*
X214886596Y-192579042D02*
X214958025Y-192436185D01*
X214958025Y-192436185D02*
X215029454Y-192364757D01*
X215029454Y-192364757D02*
X215172311Y-192293328D01*
X216958025Y-192293328D02*
X216672310Y-192293328D01*
X216672310Y-192293328D02*
X216529453Y-192364757D01*
X216529453Y-192364757D02*
X216458025Y-192436185D01*
X216458025Y-192436185D02*
X216315167Y-192650471D01*
X216315167Y-192650471D02*
X216243739Y-192936185D01*
X216243739Y-192936185D02*
X216243739Y-193507614D01*
X216243739Y-193507614D02*
X216315167Y-193650471D01*
X216315167Y-193650471D02*
X216386596Y-193721900D01*
X216386596Y-193721900D02*
X216529453Y-193793328D01*
X216529453Y-193793328D02*
X216815167Y-193793328D01*
X216815167Y-193793328D02*
X216958025Y-193721900D01*
X216958025Y-193721900D02*
X217029453Y-193650471D01*
X217029453Y-193650471D02*
X217100882Y-193507614D01*
X217100882Y-193507614D02*
X217100882Y-193150471D01*
X217100882Y-193150471D02*
X217029453Y-193007614D01*
X217029453Y-193007614D02*
X216958025Y-192936185D01*
X216958025Y-192936185D02*
X216815167Y-192864757D01*
X216815167Y-192864757D02*
X216529453Y-192864757D01*
X216529453Y-192864757D02*
X216386596Y-192936185D01*
X216386596Y-192936185D02*
X216315167Y-193007614D01*
X216315167Y-193007614D02*
X216243739Y-193150471D01*
X217743738Y-193221900D02*
X218886596Y-193221900D01*
X219886596Y-192293328D02*
X220029453Y-192293328D01*
X220029453Y-192293328D02*
X220172310Y-192364757D01*
X220172310Y-192364757D02*
X220243739Y-192436185D01*
X220243739Y-192436185D02*
X220315167Y-192579042D01*
X220315167Y-192579042D02*
X220386596Y-192864757D01*
X220386596Y-192864757D02*
X220386596Y-193221900D01*
X220386596Y-193221900D02*
X220315167Y-193507614D01*
X220315167Y-193507614D02*
X220243739Y-193650471D01*
X220243739Y-193650471D02*
X220172310Y-193721900D01*
X220172310Y-193721900D02*
X220029453Y-193793328D01*
X220029453Y-193793328D02*
X219886596Y-193793328D01*
X219886596Y-193793328D02*
X219743739Y-193721900D01*
X219743739Y-193721900D02*
X219672310Y-193650471D01*
X219672310Y-193650471D02*
X219600881Y-193507614D01*
X219600881Y-193507614D02*
X219529453Y-193221900D01*
X219529453Y-193221900D02*
X219529453Y-192864757D01*
X219529453Y-192864757D02*
X219600881Y-192579042D01*
X219600881Y-192579042D02*
X219672310Y-192436185D01*
X219672310Y-192436185D02*
X219743739Y-192364757D01*
X219743739Y-192364757D02*
X219886596Y-192293328D01*
X221100881Y-193793328D02*
X221386595Y-193793328D01*
X221386595Y-193793328D02*
X221529452Y-193721900D01*
X221529452Y-193721900D02*
X221600881Y-193650471D01*
X221600881Y-193650471D02*
X221743738Y-193436185D01*
X221743738Y-193436185D02*
X221815167Y-193150471D01*
X221815167Y-193150471D02*
X221815167Y-192579042D01*
X221815167Y-192579042D02*
X221743738Y-192436185D01*
X221743738Y-192436185D02*
X221672310Y-192364757D01*
X221672310Y-192364757D02*
X221529452Y-192293328D01*
X221529452Y-192293328D02*
X221243738Y-192293328D01*
X221243738Y-192293328D02*
X221100881Y-192364757D01*
X221100881Y-192364757D02*
X221029452Y-192436185D01*
X221029452Y-192436185D02*
X220958024Y-192579042D01*
X220958024Y-192579042D02*
X220958024Y-192936185D01*
X220958024Y-192936185D02*
X221029452Y-193079042D01*
X221029452Y-193079042D02*
X221100881Y-193150471D01*
X221100881Y-193150471D02*
X221243738Y-193221900D01*
X221243738Y-193221900D02*
X221529452Y-193221900D01*
X221529452Y-193221900D02*
X221672310Y-193150471D01*
X221672310Y-193150471D02*
X221743738Y-193079042D01*
X221743738Y-193079042D02*
X221815167Y-192936185D01*
D10*
D11*
X177002200Y-194507200D02*
X285002200Y-194507200D01*
D10*
D11*
X178458026Y-196593328D02*
X178458026Y-195093328D01*
X179315169Y-196593328D02*
X178672312Y-195736185D01*
X179315169Y-195093328D02*
X178458026Y-195950471D01*
X179958026Y-196593328D02*
X179958026Y-195593328D01*
X179958026Y-195093328D02*
X179886598Y-195164757D01*
X179886598Y-195164757D02*
X179958026Y-195236185D01*
X179958026Y-195236185D02*
X180029455Y-195164757D01*
X180029455Y-195164757D02*
X179958026Y-195093328D01*
X179958026Y-195093328D02*
X179958026Y-195236185D01*
X181529455Y-196450471D02*
X181458027Y-196521900D01*
X181458027Y-196521900D02*
X181243741Y-196593328D01*
X181243741Y-196593328D02*
X181100884Y-196593328D01*
X181100884Y-196593328D02*
X180886598Y-196521900D01*
X180886598Y-196521900D02*
X180743741Y-196379042D01*
X180743741Y-196379042D02*
X180672312Y-196236185D01*
X180672312Y-196236185D02*
X180600884Y-195950471D01*
X180600884Y-195950471D02*
X180600884Y-195736185D01*
X180600884Y-195736185D02*
X180672312Y-195450471D01*
X180672312Y-195450471D02*
X180743741Y-195307614D01*
X180743741Y-195307614D02*
X180886598Y-195164757D01*
X180886598Y-195164757D02*
X181100884Y-195093328D01*
X181100884Y-195093328D02*
X181243741Y-195093328D01*
X181243741Y-195093328D02*
X181458027Y-195164757D01*
X181458027Y-195164757D02*
X181529455Y-195236185D01*
X182815170Y-196593328D02*
X182815170Y-195807614D01*
X182815170Y-195807614D02*
X182743741Y-195664757D01*
X182743741Y-195664757D02*
X182600884Y-195593328D01*
X182600884Y-195593328D02*
X182315170Y-195593328D01*
X182315170Y-195593328D02*
X182172312Y-195664757D01*
X182815170Y-196521900D02*
X182672312Y-196593328D01*
X182672312Y-196593328D02*
X182315170Y-196593328D01*
X182315170Y-196593328D02*
X182172312Y-196521900D01*
X182172312Y-196521900D02*
X182100884Y-196379042D01*
X182100884Y-196379042D02*
X182100884Y-196236185D01*
X182100884Y-196236185D02*
X182172312Y-196093328D01*
X182172312Y-196093328D02*
X182315170Y-196021900D01*
X182315170Y-196021900D02*
X182672312Y-196021900D01*
X182672312Y-196021900D02*
X182815170Y-195950471D01*
X184172313Y-196593328D02*
X184172313Y-195093328D01*
X184172313Y-196521900D02*
X184029455Y-196593328D01*
X184029455Y-196593328D02*
X183743741Y-196593328D01*
X183743741Y-196593328D02*
X183600884Y-196521900D01*
X183600884Y-196521900D02*
X183529455Y-196450471D01*
X183529455Y-196450471D02*
X183458027Y-196307614D01*
X183458027Y-196307614D02*
X183458027Y-195879042D01*
X183458027Y-195879042D02*
X183529455Y-195736185D01*
X183529455Y-195736185D02*
X183600884Y-195664757D01*
X183600884Y-195664757D02*
X183743741Y-195593328D01*
X183743741Y-195593328D02*
X184029455Y-195593328D01*
X184029455Y-195593328D02*
X184172313Y-195664757D01*
X186029455Y-195807614D02*
X186529455Y-195807614D01*
X186743741Y-196593328D02*
X186029455Y-196593328D01*
X186029455Y-196593328D02*
X186029455Y-195093328D01*
X186029455Y-195093328D02*
X186743741Y-195093328D01*
X187386598Y-196450471D02*
X187458027Y-196521900D01*
X187458027Y-196521900D02*
X187386598Y-196593328D01*
X187386598Y-196593328D02*
X187315170Y-196521900D01*
X187315170Y-196521900D02*
X187386598Y-196450471D01*
X187386598Y-196450471D02*
X187386598Y-196593328D01*
X188100884Y-196593328D02*
X188100884Y-195093328D01*
X188100884Y-195093328D02*
X188458027Y-195093328D01*
X188458027Y-195093328D02*
X188672313Y-195164757D01*
X188672313Y-195164757D02*
X188815170Y-195307614D01*
X188815170Y-195307614D02*
X188886599Y-195450471D01*
X188886599Y-195450471D02*
X188958027Y-195736185D01*
X188958027Y-195736185D02*
X188958027Y-195950471D01*
X188958027Y-195950471D02*
X188886599Y-196236185D01*
X188886599Y-196236185D02*
X188815170Y-196379042D01*
X188815170Y-196379042D02*
X188672313Y-196521900D01*
X188672313Y-196521900D02*
X188458027Y-196593328D01*
X188458027Y-196593328D02*
X188100884Y-196593328D01*
X189600884Y-196450471D02*
X189672313Y-196521900D01*
X189672313Y-196521900D02*
X189600884Y-196593328D01*
X189600884Y-196593328D02*
X189529456Y-196521900D01*
X189529456Y-196521900D02*
X189600884Y-196450471D01*
X189600884Y-196450471D02*
X189600884Y-196593328D01*
X190243742Y-196164757D02*
X190958028Y-196164757D01*
X190100885Y-196593328D02*
X190600885Y-195093328D01*
X190600885Y-195093328D02*
X191100885Y-196593328D01*
X191600884Y-196450471D02*
X191672313Y-196521900D01*
X191672313Y-196521900D02*
X191600884Y-196593328D01*
X191600884Y-196593328D02*
X191529456Y-196521900D01*
X191529456Y-196521900D02*
X191600884Y-196450471D01*
X191600884Y-196450471D02*
X191600884Y-196593328D01*
X193529456Y-196593328D02*
X193815170Y-196593328D01*
X193815170Y-196593328D02*
X193958027Y-196521900D01*
X193958027Y-196521900D02*
X194029456Y-196450471D01*
X194029456Y-196450471D02*
X194172313Y-196236185D01*
X194172313Y-196236185D02*
X194243742Y-195950471D01*
X194243742Y-195950471D02*
X194243742Y-195379042D01*
X194243742Y-195379042D02*
X194172313Y-195236185D01*
X194172313Y-195236185D02*
X194100885Y-195164757D01*
X194100885Y-195164757D02*
X193958027Y-195093328D01*
X193958027Y-195093328D02*
X193672313Y-195093328D01*
X193672313Y-195093328D02*
X193529456Y-195164757D01*
X193529456Y-195164757D02*
X193458027Y-195236185D01*
X193458027Y-195236185D02*
X193386599Y-195379042D01*
X193386599Y-195379042D02*
X193386599Y-195736185D01*
X193386599Y-195736185D02*
X193458027Y-195879042D01*
X193458027Y-195879042D02*
X193529456Y-195950471D01*
X193529456Y-195950471D02*
X193672313Y-196021900D01*
X193672313Y-196021900D02*
X193958027Y-196021900D01*
X193958027Y-196021900D02*
X194100885Y-195950471D01*
X194100885Y-195950471D02*
X194172313Y-195879042D01*
X194172313Y-195879042D02*
X194243742Y-195736185D01*
X194886598Y-196450471D02*
X194958027Y-196521900D01*
X194958027Y-196521900D02*
X194886598Y-196593328D01*
X194886598Y-196593328D02*
X194815170Y-196521900D01*
X194815170Y-196521900D02*
X194886598Y-196450471D01*
X194886598Y-196450471D02*
X194886598Y-196593328D01*
X195886599Y-195093328D02*
X196029456Y-195093328D01*
X196029456Y-195093328D02*
X196172313Y-195164757D01*
X196172313Y-195164757D02*
X196243742Y-195236185D01*
X196243742Y-195236185D02*
X196315170Y-195379042D01*
X196315170Y-195379042D02*
X196386599Y-195664757D01*
X196386599Y-195664757D02*
X196386599Y-196021900D01*
X196386599Y-196021900D02*
X196315170Y-196307614D01*
X196315170Y-196307614D02*
X196243742Y-196450471D01*
X196243742Y-196450471D02*
X196172313Y-196521900D01*
X196172313Y-196521900D02*
X196029456Y-196593328D01*
X196029456Y-196593328D02*
X195886599Y-196593328D01*
X195886599Y-196593328D02*
X195743742Y-196521900D01*
X195743742Y-196521900D02*
X195672313Y-196450471D01*
X195672313Y-196450471D02*
X195600884Y-196307614D01*
X195600884Y-196307614D02*
X195529456Y-196021900D01*
X195529456Y-196021900D02*
X195529456Y-195664757D01*
X195529456Y-195664757D02*
X195600884Y-195379042D01*
X195600884Y-195379042D02*
X195672313Y-195236185D01*
X195672313Y-195236185D02*
X195743742Y-195164757D01*
X195743742Y-195164757D02*
X195886599Y-195093328D01*
X197029455Y-196450471D02*
X197100884Y-196521900D01*
X197100884Y-196521900D02*
X197029455Y-196593328D01*
X197029455Y-196593328D02*
X196958027Y-196521900D01*
X196958027Y-196521900D02*
X197029455Y-196450471D01*
X197029455Y-196450471D02*
X197029455Y-196593328D01*
X198029456Y-195093328D02*
X198172313Y-195093328D01*
X198172313Y-195093328D02*
X198315170Y-195164757D01*
X198315170Y-195164757D02*
X198386599Y-195236185D01*
X198386599Y-195236185D02*
X198458027Y-195379042D01*
X198458027Y-195379042D02*
X198529456Y-195664757D01*
X198529456Y-195664757D02*
X198529456Y-196021900D01*
X198529456Y-196021900D02*
X198458027Y-196307614D01*
X198458027Y-196307614D02*
X198386599Y-196450471D01*
X198386599Y-196450471D02*
X198315170Y-196521900D01*
X198315170Y-196521900D02*
X198172313Y-196593328D01*
X198172313Y-196593328D02*
X198029456Y-196593328D01*
X198029456Y-196593328D02*
X197886599Y-196521900D01*
X197886599Y-196521900D02*
X197815170Y-196450471D01*
X197815170Y-196450471D02*
X197743741Y-196307614D01*
X197743741Y-196307614D02*
X197672313Y-196021900D01*
X197672313Y-196021900D02*
X197672313Y-195664757D01*
X197672313Y-195664757D02*
X197743741Y-195379042D01*
X197743741Y-195379042D02*
X197815170Y-195236185D01*
X197815170Y-195236185D02*
X197886599Y-195164757D01*
X197886599Y-195164757D02*
X198029456Y-195093328D01*
D10*
D11*
X177002200Y-191507200D02*
X285002200Y-191507200D01*
D10*
D12*
X264413853Y-193785528D02*
X263913853Y-193071242D01*
X263556710Y-193785528D02*
X263556710Y-192285528D01*
X263556710Y-192285528D02*
X264128139Y-192285528D01*
X264128139Y-192285528D02*
X264270996Y-192356957D01*
X264270996Y-192356957D02*
X264342425Y-192428385D01*
X264342425Y-192428385D02*
X264413853Y-192571242D01*
X264413853Y-192571242D02*
X264413853Y-192785528D01*
X264413853Y-192785528D02*
X264342425Y-192928385D01*
X264342425Y-192928385D02*
X264270996Y-192999814D01*
X264270996Y-192999814D02*
X264128139Y-193071242D01*
X264128139Y-193071242D02*
X263556710Y-193071242D01*
X265628139Y-193714100D02*
X265485282Y-193785528D01*
X265485282Y-193785528D02*
X265199568Y-193785528D01*
X265199568Y-193785528D02*
X265056710Y-193714100D01*
X265056710Y-193714100D02*
X264985282Y-193571242D01*
X264985282Y-193571242D02*
X264985282Y-192999814D01*
X264985282Y-192999814D02*
X265056710Y-192856957D01*
X265056710Y-192856957D02*
X265199568Y-192785528D01*
X265199568Y-192785528D02*
X265485282Y-192785528D01*
X265485282Y-192785528D02*
X265628139Y-192856957D01*
X265628139Y-192856957D02*
X265699568Y-192999814D01*
X265699568Y-192999814D02*
X265699568Y-193142671D01*
X265699568Y-193142671D02*
X264985282Y-193285528D01*
X266199567Y-192785528D02*
X266556710Y-193785528D01*
X266556710Y-193785528D02*
X266913853Y-192785528D01*
X267485281Y-193642671D02*
X267556710Y-193714100D01*
X267556710Y-193714100D02*
X267485281Y-193785528D01*
X267485281Y-193785528D02*
X267413853Y-193714100D01*
X267413853Y-193714100D02*
X267485281Y-193642671D01*
X267485281Y-193642671D02*
X267485281Y-193785528D01*
X267485281Y-192856957D02*
X267556710Y-192928385D01*
X267556710Y-192928385D02*
X267485281Y-192999814D01*
X267485281Y-192999814D02*
X267413853Y-192928385D01*
X267413853Y-192928385D02*
X267485281Y-192856957D01*
X267485281Y-192856957D02*
X267485281Y-192999814D01*
X270128139Y-193785528D02*
X269270996Y-193785528D01*
X269699567Y-193785528D02*
X269699567Y-192285528D01*
X269699567Y-192285528D02*
X269556710Y-192499814D01*
X269556710Y-192499814D02*
X269413853Y-192642671D01*
X269413853Y-192642671D02*
X269270996Y-192714100D01*
X270770995Y-193642671D02*
X270842424Y-193714100D01*
X270842424Y-193714100D02*
X270770995Y-193785528D01*
X270770995Y-193785528D02*
X270699567Y-193714100D01*
X270699567Y-193714100D02*
X270770995Y-193642671D01*
X270770995Y-193642671D02*
X270770995Y-193785528D01*
X271770996Y-192285528D02*
X271913853Y-192285528D01*
X271913853Y-192285528D02*
X272056710Y-192356957D01*
X272056710Y-192356957D02*
X272128139Y-192428385D01*
X272128139Y-192428385D02*
X272199567Y-192571242D01*
X272199567Y-192571242D02*
X272270996Y-192856957D01*
X272270996Y-192856957D02*
X272270996Y-193214100D01*
X272270996Y-193214100D02*
X272199567Y-193499814D01*
X272199567Y-193499814D02*
X272128139Y-193642671D01*
X272128139Y-193642671D02*
X272056710Y-193714100D01*
X272056710Y-193714100D02*
X271913853Y-193785528D01*
X271913853Y-193785528D02*
X271770996Y-193785528D01*
X271770996Y-193785528D02*
X271628139Y-193714100D01*
X271628139Y-193714100D02*
X271556710Y-193642671D01*
X271556710Y-193642671D02*
X271485281Y-193499814D01*
X271485281Y-193499814D02*
X271413853Y-193214100D01*
X271413853Y-193214100D02*
X271413853Y-192856957D01*
X271413853Y-192856957D02*
X271485281Y-192571242D01*
X271485281Y-192571242D02*
X271556710Y-192428385D01*
X271556710Y-192428385D02*
X271628139Y-192356957D01*
X271628139Y-192356957D02*
X271770996Y-192285528D01*
D10*
D11*
X178386598Y-193721900D02*
X178600884Y-193793328D01*
X178600884Y-193793328D02*
X178958026Y-193793328D01*
X178958026Y-193793328D02*
X179100884Y-193721900D01*
X179100884Y-193721900D02*
X179172312Y-193650471D01*
X179172312Y-193650471D02*
X179243741Y-193507614D01*
X179243741Y-193507614D02*
X179243741Y-193364757D01*
X179243741Y-193364757D02*
X179172312Y-193221900D01*
X179172312Y-193221900D02*
X179100884Y-193150471D01*
X179100884Y-193150471D02*
X178958026Y-193079042D01*
X178958026Y-193079042D02*
X178672312Y-193007614D01*
X178672312Y-193007614D02*
X178529455Y-192936185D01*
X178529455Y-192936185D02*
X178458026Y-192864757D01*
X178458026Y-192864757D02*
X178386598Y-192721900D01*
X178386598Y-192721900D02*
X178386598Y-192579042D01*
X178386598Y-192579042D02*
X178458026Y-192436185D01*
X178458026Y-192436185D02*
X178529455Y-192364757D01*
X178529455Y-192364757D02*
X178672312Y-192293328D01*
X178672312Y-192293328D02*
X179029455Y-192293328D01*
X179029455Y-192293328D02*
X179243741Y-192364757D01*
X179886597Y-193793328D02*
X179886597Y-192793328D01*
X179886597Y-192293328D02*
X179815169Y-192364757D01*
X179815169Y-192364757D02*
X179886597Y-192436185D01*
X179886597Y-192436185D02*
X179958026Y-192364757D01*
X179958026Y-192364757D02*
X179886597Y-192293328D01*
X179886597Y-192293328D02*
X179886597Y-192436185D01*
X180458026Y-192793328D02*
X181243741Y-192793328D01*
X181243741Y-192793328D02*
X180458026Y-193793328D01*
X180458026Y-193793328D02*
X181243741Y-193793328D01*
X182386598Y-193721900D02*
X182243741Y-193793328D01*
X182243741Y-193793328D02*
X181958027Y-193793328D01*
X181958027Y-193793328D02*
X181815169Y-193721900D01*
X181815169Y-193721900D02*
X181743741Y-193579042D01*
X181743741Y-193579042D02*
X181743741Y-193007614D01*
X181743741Y-193007614D02*
X181815169Y-192864757D01*
X181815169Y-192864757D02*
X181958027Y-192793328D01*
X181958027Y-192793328D02*
X182243741Y-192793328D01*
X182243741Y-192793328D02*
X182386598Y-192864757D01*
X182386598Y-192864757D02*
X182458027Y-193007614D01*
X182458027Y-193007614D02*
X182458027Y-193150471D01*
X182458027Y-193150471D02*
X181743741Y-193293328D01*
X183100883Y-193650471D02*
X183172312Y-193721900D01*
X183172312Y-193721900D02*
X183100883Y-193793328D01*
X183100883Y-193793328D02*
X183029455Y-193721900D01*
X183029455Y-193721900D02*
X183100883Y-193650471D01*
X183100883Y-193650471D02*
X183100883Y-193793328D01*
X183100883Y-192864757D02*
X183172312Y-192936185D01*
X183172312Y-192936185D02*
X183100883Y-193007614D01*
X183100883Y-193007614D02*
X183029455Y-192936185D01*
X183029455Y-192936185D02*
X183100883Y-192864757D01*
X183100883Y-192864757D02*
X183100883Y-193007614D01*
X184886598Y-193364757D02*
X185600884Y-193364757D01*
X184743741Y-193793328D02*
X185243741Y-192293328D01*
X185243741Y-192293328D02*
X185743741Y-193793328D01*
X186886598Y-192793328D02*
X186886598Y-193793328D01*
X186529455Y-192221900D02*
X186172312Y-193293328D01*
X186172312Y-193293328D02*
X187100883Y-193293328D01*
D10*
D11*
X263458026Y-196593328D02*
X263458026Y-195093328D01*
X264815170Y-196593328D02*
X264815170Y-195093328D01*
X264815170Y-196521900D02*
X264672312Y-196593328D01*
X264672312Y-196593328D02*
X264386598Y-196593328D01*
X264386598Y-196593328D02*
X264243741Y-196521900D01*
X264243741Y-196521900D02*
X264172312Y-196450471D01*
X264172312Y-196450471D02*
X264100884Y-196307614D01*
X264100884Y-196307614D02*
X264100884Y-195879042D01*
X264100884Y-195879042D02*
X264172312Y-195736185D01*
X264172312Y-195736185D02*
X264243741Y-195664757D01*
X264243741Y-195664757D02*
X264386598Y-195593328D01*
X264386598Y-195593328D02*
X264672312Y-195593328D01*
X264672312Y-195593328D02*
X264815170Y-195664757D01*
X265529455Y-196450471D02*
X265600884Y-196521900D01*
X265600884Y-196521900D02*
X265529455Y-196593328D01*
X265529455Y-196593328D02*
X265458027Y-196521900D01*
X265458027Y-196521900D02*
X265529455Y-196450471D01*
X265529455Y-196450471D02*
X265529455Y-196593328D01*
X265529455Y-195664757D02*
X265600884Y-195736185D01*
X265600884Y-195736185D02*
X265529455Y-195807614D01*
X265529455Y-195807614D02*
X265458027Y-195736185D01*
X265458027Y-195736185D02*
X265529455Y-195664757D01*
X265529455Y-195664757D02*
X265529455Y-195807614D01*
X267243741Y-195093328D02*
X268172313Y-195093328D01*
X268172313Y-195093328D02*
X267672313Y-195664757D01*
X267672313Y-195664757D02*
X267886598Y-195664757D01*
X267886598Y-195664757D02*
X268029456Y-195736185D01*
X268029456Y-195736185D02*
X268100884Y-195807614D01*
X268100884Y-195807614D02*
X268172313Y-195950471D01*
X268172313Y-195950471D02*
X268172313Y-196307614D01*
X268172313Y-196307614D02*
X268100884Y-196450471D01*
X268100884Y-196450471D02*
X268029456Y-196521900D01*
X268029456Y-196521900D02*
X267886598Y-196593328D01*
X267886598Y-196593328D02*
X267458027Y-196593328D01*
X267458027Y-196593328D02*
X267315170Y-196521900D01*
X267315170Y-196521900D02*
X267243741Y-196450471D01*
X269886598Y-195021900D02*
X268600884Y-196950471D01*
X271172313Y-196593328D02*
X270315170Y-196593328D01*
X270743741Y-196593328D02*
X270743741Y-195093328D01*
X270743741Y-195093328D02*
X270600884Y-195307614D01*
X270600884Y-195307614D02*
X270458027Y-195450471D01*
X270458027Y-195450471D02*
X270315170Y-195521900D01*
X272100884Y-195093328D02*
X272243741Y-195093328D01*
X272243741Y-195093328D02*
X272386598Y-195164757D01*
X272386598Y-195164757D02*
X272458027Y-195236185D01*
X272458027Y-195236185D02*
X272529455Y-195379042D01*
X272529455Y-195379042D02*
X272600884Y-195664757D01*
X272600884Y-195664757D02*
X272600884Y-196021900D01*
X272600884Y-196021900D02*
X272529455Y-196307614D01*
X272529455Y-196307614D02*
X272458027Y-196450471D01*
X272458027Y-196450471D02*
X272386598Y-196521900D01*
X272386598Y-196521900D02*
X272243741Y-196593328D01*
X272243741Y-196593328D02*
X272100884Y-196593328D01*
X272100884Y-196593328D02*
X271958027Y-196521900D01*
X271958027Y-196521900D02*
X271886598Y-196450471D01*
X271886598Y-196450471D02*
X271815169Y-196307614D01*
X271815169Y-196307614D02*
X271743741Y-196021900D01*
X271743741Y-196021900D02*
X271743741Y-195664757D01*
X271743741Y-195664757D02*
X271815169Y-195379042D01*
X271815169Y-195379042D02*
X271886598Y-195236185D01*
X271886598Y-195236185D02*
X271958027Y-195164757D01*
X271958027Y-195164757D02*
X272100884Y-195093328D01*
D10*
D11*
X177002200Y-187507200D02*
X285002200Y-187507200D01*
D10*
D13*
X178693928Y-188211638D02*
X179836785Y-188211638D01*
X179015357Y-190211638D02*
X179265357Y-188211638D01*
X180253452Y-190211638D02*
X180420119Y-188878304D01*
X180503452Y-188211638D02*
X180396309Y-188306876D01*
X180396309Y-188306876D02*
X180479643Y-188402114D01*
X180479643Y-188402114D02*
X180586786Y-188306876D01*
X180586786Y-188306876D02*
X180503452Y-188211638D01*
X180503452Y-188211638D02*
X180479643Y-188402114D01*
X181086786Y-188878304D02*
X181848690Y-188878304D01*
X181455833Y-188211638D02*
X181241548Y-189925923D01*
X181241548Y-189925923D02*
X181312976Y-190116400D01*
X181312976Y-190116400D02*
X181491548Y-190211638D01*
X181491548Y-190211638D02*
X181682024Y-190211638D01*
X182634405Y-190211638D02*
X182455833Y-190116400D01*
X182455833Y-190116400D02*
X182384405Y-189925923D01*
X182384405Y-189925923D02*
X182598690Y-188211638D01*
X184170119Y-190116400D02*
X183967738Y-190211638D01*
X183967738Y-190211638D02*
X183586785Y-190211638D01*
X183586785Y-190211638D02*
X183408214Y-190116400D01*
X183408214Y-190116400D02*
X183336785Y-189925923D01*
X183336785Y-189925923D02*
X183432024Y-189164019D01*
X183432024Y-189164019D02*
X183551071Y-188973542D01*
X183551071Y-188973542D02*
X183753452Y-188878304D01*
X183753452Y-188878304D02*
X184134404Y-188878304D01*
X184134404Y-188878304D02*
X184312976Y-188973542D01*
X184312976Y-188973542D02*
X184384404Y-189164019D01*
X184384404Y-189164019D02*
X184360595Y-189354495D01*
X184360595Y-189354495D02*
X183384404Y-189544971D01*
X185134405Y-190021161D02*
X185217738Y-190116400D01*
X185217738Y-190116400D02*
X185110595Y-190211638D01*
X185110595Y-190211638D02*
X185027262Y-190116400D01*
X185027262Y-190116400D02*
X185134405Y-190021161D01*
X185134405Y-190021161D02*
X185110595Y-190211638D01*
X185265357Y-188973542D02*
X185348690Y-189068780D01*
X185348690Y-189068780D02*
X185241548Y-189164019D01*
X185241548Y-189164019D02*
X185158214Y-189068780D01*
X185158214Y-189068780D02*
X185265357Y-188973542D01*
X185265357Y-188973542D02*
X185241548Y-189164019D01*
X187562977Y-189640209D02*
X188515358Y-189640209D01*
X187301072Y-190211638D02*
X188217739Y-188211638D01*
X188217739Y-188211638D02*
X188634405Y-190211638D01*
X190443929Y-190211638D02*
X189896310Y-189259257D01*
X189301072Y-190211638D02*
X189551072Y-188211638D01*
X189551072Y-188211638D02*
X190312977Y-188211638D01*
X190312977Y-188211638D02*
X190491548Y-188306876D01*
X190491548Y-188306876D02*
X190574882Y-188402114D01*
X190574882Y-188402114D02*
X190646310Y-188592590D01*
X190646310Y-188592590D02*
X190610596Y-188878304D01*
X190610596Y-188878304D02*
X190491548Y-189068780D01*
X190491548Y-189068780D02*
X190384406Y-189164019D01*
X190384406Y-189164019D02*
X190182025Y-189259257D01*
X190182025Y-189259257D02*
X189420120Y-189259257D01*
X191301072Y-190211638D02*
X191551072Y-188211638D01*
X191551072Y-188211638D02*
X192039167Y-189640209D01*
X192039167Y-189640209D02*
X192884406Y-188211638D01*
X192884406Y-188211638D02*
X192634406Y-190211638D01*
X195027263Y-190116400D02*
X195301072Y-190211638D01*
X195301072Y-190211638D02*
X195777263Y-190211638D01*
X195777263Y-190211638D02*
X195979644Y-190116400D01*
X195979644Y-190116400D02*
X196086787Y-190021161D01*
X196086787Y-190021161D02*
X196205834Y-189830685D01*
X196205834Y-189830685D02*
X196229644Y-189640209D01*
X196229644Y-189640209D02*
X196158215Y-189449733D01*
X196158215Y-189449733D02*
X196074882Y-189354495D01*
X196074882Y-189354495D02*
X195896311Y-189259257D01*
X195896311Y-189259257D02*
X195527263Y-189164019D01*
X195527263Y-189164019D02*
X195348691Y-189068780D01*
X195348691Y-189068780D02*
X195265358Y-188973542D01*
X195265358Y-188973542D02*
X195193930Y-188783066D01*
X195193930Y-188783066D02*
X195217739Y-188592590D01*
X195217739Y-188592590D02*
X195336787Y-188402114D01*
X195336787Y-188402114D02*
X195443930Y-188306876D01*
X195443930Y-188306876D02*
X195646311Y-188211638D01*
X195646311Y-188211638D02*
X196122501Y-188211638D01*
X196122501Y-188211638D02*
X196396311Y-188306876D01*
X197789168Y-190116400D02*
X197586787Y-190211638D01*
X197586787Y-190211638D02*
X197205834Y-190211638D01*
X197205834Y-190211638D02*
X197027263Y-190116400D01*
X197027263Y-190116400D02*
X196955834Y-189925923D01*
X196955834Y-189925923D02*
X197051073Y-189164019D01*
X197051073Y-189164019D02*
X197170120Y-188973542D01*
X197170120Y-188973542D02*
X197372501Y-188878304D01*
X197372501Y-188878304D02*
X197753453Y-188878304D01*
X197753453Y-188878304D02*
X197932025Y-188973542D01*
X197932025Y-188973542D02*
X198003453Y-189164019D01*
X198003453Y-189164019D02*
X197979644Y-189354495D01*
X197979644Y-189354495D02*
X197003453Y-189544971D01*
X198729644Y-190211638D02*
X198896311Y-188878304D01*
X198872501Y-189068780D02*
X198979644Y-188973542D01*
X198979644Y-188973542D02*
X199182025Y-188878304D01*
X199182025Y-188878304D02*
X199467739Y-188878304D01*
X199467739Y-188878304D02*
X199646311Y-188973542D01*
X199646311Y-188973542D02*
X199717739Y-189164019D01*
X199717739Y-189164019D02*
X199586787Y-190211638D01*
X199717739Y-189164019D02*
X199836787Y-188973542D01*
X199836787Y-188973542D02*
X200039168Y-188878304D01*
X200039168Y-188878304D02*
X200324882Y-188878304D01*
X200324882Y-188878304D02*
X200503454Y-188973542D01*
X200503454Y-188973542D02*
X200574882Y-189164019D01*
X200574882Y-189164019D02*
X200443930Y-190211638D01*
X201396311Y-190211638D02*
X201562978Y-188878304D01*
X201646311Y-188211638D02*
X201539168Y-188306876D01*
X201539168Y-188306876D02*
X201622502Y-188402114D01*
X201622502Y-188402114D02*
X201729645Y-188306876D01*
X201729645Y-188306876D02*
X201646311Y-188211638D01*
X201646311Y-188211638D02*
X201622502Y-188402114D01*
X202515359Y-188878304D02*
X202348692Y-190211638D01*
X202491549Y-189068780D02*
X202598692Y-188973542D01*
X202598692Y-188973542D02*
X202801073Y-188878304D01*
X202801073Y-188878304D02*
X203086787Y-188878304D01*
X203086787Y-188878304D02*
X203265359Y-188973542D01*
X203265359Y-188973542D02*
X203336787Y-189164019D01*
X203336787Y-189164019D02*
X203205835Y-190211638D01*
X205015359Y-190211638D02*
X205146311Y-189164019D01*
X205146311Y-189164019D02*
X205074883Y-188973542D01*
X205074883Y-188973542D02*
X204896311Y-188878304D01*
X204896311Y-188878304D02*
X204515359Y-188878304D01*
X204515359Y-188878304D02*
X204312978Y-188973542D01*
X205027264Y-190116400D02*
X204824883Y-190211638D01*
X204824883Y-190211638D02*
X204348692Y-190211638D01*
X204348692Y-190211638D02*
X204170121Y-190116400D01*
X204170121Y-190116400D02*
X204098692Y-189925923D01*
X204098692Y-189925923D02*
X204122502Y-189735447D01*
X204122502Y-189735447D02*
X204241550Y-189544971D01*
X204241550Y-189544971D02*
X204443931Y-189449733D01*
X204443931Y-189449733D02*
X204920121Y-189449733D01*
X204920121Y-189449733D02*
X205122502Y-189354495D01*
X205967740Y-190211638D02*
X206134407Y-188878304D01*
X206086788Y-189259257D02*
X206205835Y-189068780D01*
X206205835Y-189068780D02*
X206312978Y-188973542D01*
X206312978Y-188973542D02*
X206515359Y-188878304D01*
X206515359Y-188878304D02*
X206705835Y-188878304D01*
X209527264Y-189164019D02*
X209801074Y-189259257D01*
X209801074Y-189259257D02*
X209884407Y-189354495D01*
X209884407Y-189354495D02*
X209955836Y-189544971D01*
X209955836Y-189544971D02*
X209920121Y-189830685D01*
X209920121Y-189830685D02*
X209801074Y-190021161D01*
X209801074Y-190021161D02*
X209693931Y-190116400D01*
X209693931Y-190116400D02*
X209491550Y-190211638D01*
X209491550Y-190211638D02*
X208729645Y-190211638D01*
X208729645Y-190211638D02*
X208979645Y-188211638D01*
X208979645Y-188211638D02*
X209646312Y-188211638D01*
X209646312Y-188211638D02*
X209824883Y-188306876D01*
X209824883Y-188306876D02*
X209908217Y-188402114D01*
X209908217Y-188402114D02*
X209979645Y-188592590D01*
X209979645Y-188592590D02*
X209955836Y-188783066D01*
X209955836Y-188783066D02*
X209836788Y-188973542D01*
X209836788Y-188973542D02*
X209729645Y-189068780D01*
X209729645Y-189068780D02*
X209527264Y-189164019D01*
X209527264Y-189164019D02*
X208860598Y-189164019D01*
X211015360Y-190211638D02*
X210836788Y-190116400D01*
X210836788Y-190116400D02*
X210753455Y-190021161D01*
X210753455Y-190021161D02*
X210682026Y-189830685D01*
X210682026Y-189830685D02*
X210753455Y-189259257D01*
X210753455Y-189259257D02*
X210872502Y-189068780D01*
X210872502Y-189068780D02*
X210979645Y-188973542D01*
X210979645Y-188973542D02*
X211182026Y-188878304D01*
X211182026Y-188878304D02*
X211467740Y-188878304D01*
X211467740Y-188878304D02*
X211646312Y-188973542D01*
X211646312Y-188973542D02*
X211729645Y-189068780D01*
X211729645Y-189068780D02*
X211801074Y-189259257D01*
X211801074Y-189259257D02*
X211729645Y-189830685D01*
X211729645Y-189830685D02*
X211610598Y-190021161D01*
X211610598Y-190021161D02*
X211503455Y-190116400D01*
X211503455Y-190116400D02*
X211301074Y-190211638D01*
X211301074Y-190211638D02*
X211015360Y-190211638D01*
X213396312Y-190211638D02*
X213527264Y-189164019D01*
X213527264Y-189164019D02*
X213455836Y-188973542D01*
X213455836Y-188973542D02*
X213277264Y-188878304D01*
X213277264Y-188878304D02*
X212896312Y-188878304D01*
X212896312Y-188878304D02*
X212693931Y-188973542D01*
X213408217Y-190116400D02*
X213205836Y-190211638D01*
X213205836Y-190211638D02*
X212729645Y-190211638D01*
X212729645Y-190211638D02*
X212551074Y-190116400D01*
X212551074Y-190116400D02*
X212479645Y-189925923D01*
X212479645Y-189925923D02*
X212503455Y-189735447D01*
X212503455Y-189735447D02*
X212622503Y-189544971D01*
X212622503Y-189544971D02*
X212824884Y-189449733D01*
X212824884Y-189449733D02*
X213301074Y-189449733D01*
X213301074Y-189449733D02*
X213503455Y-189354495D01*
X214348693Y-190211638D02*
X214515360Y-188878304D01*
X214467741Y-189259257D02*
X214586788Y-189068780D01*
X214586788Y-189068780D02*
X214693931Y-188973542D01*
X214693931Y-188973542D02*
X214896312Y-188878304D01*
X214896312Y-188878304D02*
X215086788Y-188878304D01*
X216443931Y-190211638D02*
X216693931Y-188211638D01*
X216455836Y-190116400D02*
X216253455Y-190211638D01*
X216253455Y-190211638D02*
X215872503Y-190211638D01*
X215872503Y-190211638D02*
X215693931Y-190116400D01*
X215693931Y-190116400D02*
X215610598Y-190021161D01*
X215610598Y-190021161D02*
X215539169Y-189830685D01*
X215539169Y-189830685D02*
X215610598Y-189259257D01*
X215610598Y-189259257D02*
X215729645Y-189068780D01*
X215729645Y-189068780D02*
X215836788Y-188973542D01*
X215836788Y-188973542D02*
X216039169Y-188878304D01*
X216039169Y-188878304D02*
X216420122Y-188878304D01*
X216420122Y-188878304D02*
X216598693Y-188973542D01*
D10*
D11*
X178958026Y-185607614D02*
X178458026Y-185607614D01*
X178458026Y-186393328D02*
X178458026Y-184893328D01*
X178458026Y-184893328D02*
X179172312Y-184893328D01*
X179743740Y-186393328D02*
X179743740Y-185393328D01*
X179743740Y-184893328D02*
X179672312Y-184964757D01*
X179672312Y-184964757D02*
X179743740Y-185036185D01*
X179743740Y-185036185D02*
X179815169Y-184964757D01*
X179815169Y-184964757D02*
X179743740Y-184893328D01*
X179743740Y-184893328D02*
X179743740Y-185036185D01*
X180672312Y-186393328D02*
X180529455Y-186321900D01*
X180529455Y-186321900D02*
X180458026Y-186179042D01*
X180458026Y-186179042D02*
X180458026Y-184893328D01*
X181815169Y-186321900D02*
X181672312Y-186393328D01*
X181672312Y-186393328D02*
X181386598Y-186393328D01*
X181386598Y-186393328D02*
X181243740Y-186321900D01*
X181243740Y-186321900D02*
X181172312Y-186179042D01*
X181172312Y-186179042D02*
X181172312Y-185607614D01*
X181172312Y-185607614D02*
X181243740Y-185464757D01*
X181243740Y-185464757D02*
X181386598Y-185393328D01*
X181386598Y-185393328D02*
X181672312Y-185393328D01*
X181672312Y-185393328D02*
X181815169Y-185464757D01*
X181815169Y-185464757D02*
X181886598Y-185607614D01*
X181886598Y-185607614D02*
X181886598Y-185750471D01*
X181886598Y-185750471D02*
X181172312Y-185893328D01*
X182529454Y-186250471D02*
X182600883Y-186321900D01*
X182600883Y-186321900D02*
X182529454Y-186393328D01*
X182529454Y-186393328D02*
X182458026Y-186321900D01*
X182458026Y-186321900D02*
X182529454Y-186250471D01*
X182529454Y-186250471D02*
X182529454Y-186393328D01*
X182529454Y-185464757D02*
X182600883Y-185536185D01*
X182600883Y-185536185D02*
X182529454Y-185607614D01*
X182529454Y-185607614D02*
X182458026Y-185536185D01*
X182458026Y-185536185D02*
X182529454Y-185464757D01*
X182529454Y-185464757D02*
X182529454Y-185607614D01*
X184315169Y-185964757D02*
X185029455Y-185964757D01*
X184172312Y-186393328D02*
X184672312Y-184893328D01*
X184672312Y-184893328D02*
X185172312Y-186393328D01*
X186529454Y-186393328D02*
X186029454Y-185679042D01*
X185672311Y-186393328D02*
X185672311Y-184893328D01*
X185672311Y-184893328D02*
X186243740Y-184893328D01*
X186243740Y-184893328D02*
X186386597Y-184964757D01*
X186386597Y-184964757D02*
X186458026Y-185036185D01*
X186458026Y-185036185D02*
X186529454Y-185179042D01*
X186529454Y-185179042D02*
X186529454Y-185393328D01*
X186529454Y-185393328D02*
X186458026Y-185536185D01*
X186458026Y-185536185D02*
X186386597Y-185607614D01*
X186386597Y-185607614D02*
X186243740Y-185679042D01*
X186243740Y-185679042D02*
X185672311Y-185679042D01*
X187172311Y-186393328D02*
X187172311Y-184893328D01*
X187172311Y-184893328D02*
X187672311Y-185964757D01*
X187672311Y-185964757D02*
X188172311Y-184893328D01*
X188172311Y-184893328D02*
X188172311Y-186393328D01*
X191172311Y-186250471D02*
X191243740Y-186321900D01*
X191243740Y-186321900D02*
X191172311Y-186393328D01*
X191172311Y-186393328D02*
X191100883Y-186321900D01*
X191100883Y-186321900D02*
X191172311Y-186250471D01*
X191172311Y-186250471D02*
X191172311Y-186393328D01*
X191886597Y-186393328D02*
X191886597Y-184893328D01*
X192029455Y-185821900D02*
X192458026Y-186393328D01*
X192458026Y-185393328D02*
X191886597Y-185964757D01*
X193100883Y-186393328D02*
X193100883Y-185393328D01*
X193100883Y-184893328D02*
X193029455Y-184964757D01*
X193029455Y-184964757D02*
X193100883Y-185036185D01*
X193100883Y-185036185D02*
X193172312Y-184964757D01*
X193172312Y-184964757D02*
X193100883Y-184893328D01*
X193100883Y-184893328D02*
X193100883Y-185036185D01*
X194458027Y-186321900D02*
X194315169Y-186393328D01*
X194315169Y-186393328D02*
X194029455Y-186393328D01*
X194029455Y-186393328D02*
X193886598Y-186321900D01*
X193886598Y-186321900D02*
X193815169Y-186250471D01*
X193815169Y-186250471D02*
X193743741Y-186107614D01*
X193743741Y-186107614D02*
X193743741Y-185679042D01*
X193743741Y-185679042D02*
X193815169Y-185536185D01*
X193815169Y-185536185D02*
X193886598Y-185464757D01*
X193886598Y-185464757D02*
X194029455Y-185393328D01*
X194029455Y-185393328D02*
X194315169Y-185393328D01*
X194315169Y-185393328D02*
X194458027Y-185464757D01*
X195743741Y-186393328D02*
X195743741Y-185607614D01*
X195743741Y-185607614D02*
X195672312Y-185464757D01*
X195672312Y-185464757D02*
X195529455Y-185393328D01*
X195529455Y-185393328D02*
X195243741Y-185393328D01*
X195243741Y-185393328D02*
X195100883Y-185464757D01*
X195743741Y-186321900D02*
X195600883Y-186393328D01*
X195600883Y-186393328D02*
X195243741Y-186393328D01*
X195243741Y-186393328D02*
X195100883Y-186321900D01*
X195100883Y-186321900D02*
X195029455Y-186179042D01*
X195029455Y-186179042D02*
X195029455Y-186036185D01*
X195029455Y-186036185D02*
X195100883Y-185893328D01*
X195100883Y-185893328D02*
X195243741Y-185821900D01*
X195243741Y-185821900D02*
X195600883Y-185821900D01*
X195600883Y-185821900D02*
X195743741Y-185750471D01*
X197100884Y-186393328D02*
X197100884Y-184893328D01*
X197100884Y-186321900D02*
X196958026Y-186393328D01*
X196958026Y-186393328D02*
X196672312Y-186393328D01*
X196672312Y-186393328D02*
X196529455Y-186321900D01*
X196529455Y-186321900D02*
X196458026Y-186250471D01*
X196458026Y-186250471D02*
X196386598Y-186107614D01*
X196386598Y-186107614D02*
X196386598Y-185679042D01*
X196386598Y-185679042D02*
X196458026Y-185536185D01*
X196458026Y-185536185D02*
X196529455Y-185464757D01*
X196529455Y-185464757D02*
X196672312Y-185393328D01*
X196672312Y-185393328D02*
X196958026Y-185393328D01*
X196958026Y-185393328D02*
X197100884Y-185464757D01*
X197458027Y-186536185D02*
X198600884Y-186536185D01*
X198958026Y-185393328D02*
X198958026Y-186893328D01*
X198958026Y-185464757D02*
X199100884Y-185393328D01*
X199100884Y-185393328D02*
X199386598Y-185393328D01*
X199386598Y-185393328D02*
X199529455Y-185464757D01*
X199529455Y-185464757D02*
X199600884Y-185536185D01*
X199600884Y-185536185D02*
X199672312Y-185679042D01*
X199672312Y-185679042D02*
X199672312Y-186107614D01*
X199672312Y-186107614D02*
X199600884Y-186250471D01*
X199600884Y-186250471D02*
X199529455Y-186321900D01*
X199529455Y-186321900D02*
X199386598Y-186393328D01*
X199386598Y-186393328D02*
X199100884Y-186393328D01*
X199100884Y-186393328D02*
X198958026Y-186321900D01*
X200958027Y-186321900D02*
X200815169Y-186393328D01*
X200815169Y-186393328D02*
X200529455Y-186393328D01*
X200529455Y-186393328D02*
X200386598Y-186321900D01*
X200386598Y-186321900D02*
X200315169Y-186250471D01*
X200315169Y-186250471D02*
X200243741Y-186107614D01*
X200243741Y-186107614D02*
X200243741Y-185679042D01*
X200243741Y-185679042D02*
X200315169Y-185536185D01*
X200315169Y-185536185D02*
X200386598Y-185464757D01*
X200386598Y-185464757D02*
X200529455Y-185393328D01*
X200529455Y-185393328D02*
X200815169Y-185393328D01*
X200815169Y-185393328D02*
X200958027Y-185464757D01*
X201600883Y-186393328D02*
X201600883Y-184893328D01*
X201600883Y-185464757D02*
X201743741Y-185393328D01*
X201743741Y-185393328D02*
X202029455Y-185393328D01*
X202029455Y-185393328D02*
X202172312Y-185464757D01*
X202172312Y-185464757D02*
X202243741Y-185536185D01*
X202243741Y-185536185D02*
X202315169Y-185679042D01*
X202315169Y-185679042D02*
X202315169Y-186107614D01*
X202315169Y-186107614D02*
X202243741Y-186250471D01*
X202243741Y-186250471D02*
X202172312Y-186321900D01*
X202172312Y-186321900D02*
X202029455Y-186393328D01*
X202029455Y-186393328D02*
X201743741Y-186393328D01*
X201743741Y-186393328D02*
X201600883Y-186321900D01*
D10*
D11*
X177002200Y-181507200D02*
X285002200Y-181507200D01*
D10*
D11*
X178386598Y-183621900D02*
X178600884Y-183693328D01*
X178600884Y-183693328D02*
X178958026Y-183693328D01*
X178958026Y-183693328D02*
X179100884Y-183621900D01*
X179100884Y-183621900D02*
X179172312Y-183550471D01*
X179172312Y-183550471D02*
X179243741Y-183407614D01*
X179243741Y-183407614D02*
X179243741Y-183264757D01*
X179243741Y-183264757D02*
X179172312Y-183121900D01*
X179172312Y-183121900D02*
X179100884Y-183050471D01*
X179100884Y-183050471D02*
X178958026Y-182979042D01*
X178958026Y-182979042D02*
X178672312Y-182907614D01*
X178672312Y-182907614D02*
X178529455Y-182836185D01*
X178529455Y-182836185D02*
X178458026Y-182764757D01*
X178458026Y-182764757D02*
X178386598Y-182621900D01*
X178386598Y-182621900D02*
X178386598Y-182479042D01*
X178386598Y-182479042D02*
X178458026Y-182336185D01*
X178458026Y-182336185D02*
X178529455Y-182264757D01*
X178529455Y-182264757D02*
X178672312Y-182193328D01*
X178672312Y-182193328D02*
X179029455Y-182193328D01*
X179029455Y-182193328D02*
X179243741Y-182264757D01*
X179886597Y-183693328D02*
X179886597Y-182193328D01*
X180529455Y-183693328D02*
X180529455Y-182907614D01*
X180529455Y-182907614D02*
X180458026Y-182764757D01*
X180458026Y-182764757D02*
X180315169Y-182693328D01*
X180315169Y-182693328D02*
X180100883Y-182693328D01*
X180100883Y-182693328D02*
X179958026Y-182764757D01*
X179958026Y-182764757D02*
X179886597Y-182836185D01*
X181815169Y-183621900D02*
X181672312Y-183693328D01*
X181672312Y-183693328D02*
X181386598Y-183693328D01*
X181386598Y-183693328D02*
X181243740Y-183621900D01*
X181243740Y-183621900D02*
X181172312Y-183479042D01*
X181172312Y-183479042D02*
X181172312Y-182907614D01*
X181172312Y-182907614D02*
X181243740Y-182764757D01*
X181243740Y-182764757D02*
X181386598Y-182693328D01*
X181386598Y-182693328D02*
X181672312Y-182693328D01*
X181672312Y-182693328D02*
X181815169Y-182764757D01*
X181815169Y-182764757D02*
X181886598Y-182907614D01*
X181886598Y-182907614D02*
X181886598Y-183050471D01*
X181886598Y-183050471D02*
X181172312Y-183193328D01*
X183100883Y-183621900D02*
X182958026Y-183693328D01*
X182958026Y-183693328D02*
X182672312Y-183693328D01*
X182672312Y-183693328D02*
X182529454Y-183621900D01*
X182529454Y-183621900D02*
X182458026Y-183479042D01*
X182458026Y-183479042D02*
X182458026Y-182907614D01*
X182458026Y-182907614D02*
X182529454Y-182764757D01*
X182529454Y-182764757D02*
X182672312Y-182693328D01*
X182672312Y-182693328D02*
X182958026Y-182693328D01*
X182958026Y-182693328D02*
X183100883Y-182764757D01*
X183100883Y-182764757D02*
X183172312Y-182907614D01*
X183172312Y-182907614D02*
X183172312Y-183050471D01*
X183172312Y-183050471D02*
X182458026Y-183193328D01*
X183600883Y-182693328D02*
X184172311Y-182693328D01*
X183815168Y-182193328D02*
X183815168Y-183479042D01*
X183815168Y-183479042D02*
X183886597Y-183621900D01*
X183886597Y-183621900D02*
X184029454Y-183693328D01*
X184029454Y-183693328D02*
X184172311Y-183693328D01*
X184672311Y-183550471D02*
X184743740Y-183621900D01*
X184743740Y-183621900D02*
X184672311Y-183693328D01*
X184672311Y-183693328D02*
X184600883Y-183621900D01*
X184600883Y-183621900D02*
X184672311Y-183550471D01*
X184672311Y-183550471D02*
X184672311Y-183693328D01*
X184672311Y-182764757D02*
X184743740Y-182836185D01*
X184743740Y-182836185D02*
X184672311Y-182907614D01*
X184672311Y-182907614D02*
X184600883Y-182836185D01*
X184600883Y-182836185D02*
X184672311Y-182764757D01*
X184672311Y-182764757D02*
X184672311Y-182907614D01*
D10*
D12*
X179413853Y-180685528D02*
X178913853Y-179971242D01*
X178556710Y-180685528D02*
X178556710Y-179185528D01*
X178556710Y-179185528D02*
X179128139Y-179185528D01*
X179128139Y-179185528D02*
X179270996Y-179256957D01*
X179270996Y-179256957D02*
X179342425Y-179328385D01*
X179342425Y-179328385D02*
X179413853Y-179471242D01*
X179413853Y-179471242D02*
X179413853Y-179685528D01*
X179413853Y-179685528D02*
X179342425Y-179828385D01*
X179342425Y-179828385D02*
X179270996Y-179899814D01*
X179270996Y-179899814D02*
X179128139Y-179971242D01*
X179128139Y-179971242D02*
X178556710Y-179971242D01*
X180270996Y-180685528D02*
X180128139Y-180614100D01*
X180128139Y-180614100D02*
X180056710Y-180542671D01*
X180056710Y-180542671D02*
X179985282Y-180399814D01*
X179985282Y-180399814D02*
X179985282Y-179971242D01*
X179985282Y-179971242D02*
X180056710Y-179828385D01*
X180056710Y-179828385D02*
X180128139Y-179756957D01*
X180128139Y-179756957D02*
X180270996Y-179685528D01*
X180270996Y-179685528D02*
X180485282Y-179685528D01*
X180485282Y-179685528D02*
X180628139Y-179756957D01*
X180628139Y-179756957D02*
X180699568Y-179828385D01*
X180699568Y-179828385D02*
X180770996Y-179971242D01*
X180770996Y-179971242D02*
X180770996Y-180399814D01*
X180770996Y-180399814D02*
X180699568Y-180542671D01*
X180699568Y-180542671D02*
X180628139Y-180614100D01*
X180628139Y-180614100D02*
X180485282Y-180685528D01*
X180485282Y-180685528D02*
X180270996Y-180685528D01*
X181413853Y-180685528D02*
X181413853Y-179185528D01*
X181413853Y-179756957D02*
X181556711Y-179685528D01*
X181556711Y-179685528D02*
X181842425Y-179685528D01*
X181842425Y-179685528D02*
X181985282Y-179756957D01*
X181985282Y-179756957D02*
X182056711Y-179828385D01*
X182056711Y-179828385D02*
X182128139Y-179971242D01*
X182128139Y-179971242D02*
X182128139Y-180399814D01*
X182128139Y-180399814D02*
X182056711Y-180542671D01*
X182056711Y-180542671D02*
X181985282Y-180614100D01*
X181985282Y-180614100D02*
X181842425Y-180685528D01*
X181842425Y-180685528D02*
X181556711Y-180685528D01*
X181556711Y-180685528D02*
X181413853Y-180614100D01*
X182985282Y-180685528D02*
X182842425Y-180614100D01*
X182842425Y-180614100D02*
X182770996Y-180542671D01*
X182770996Y-180542671D02*
X182699568Y-180399814D01*
X182699568Y-180399814D02*
X182699568Y-179971242D01*
X182699568Y-179971242D02*
X182770996Y-179828385D01*
X182770996Y-179828385D02*
X182842425Y-179756957D01*
X182842425Y-179756957D02*
X182985282Y-179685528D01*
X182985282Y-179685528D02*
X183199568Y-179685528D01*
X183199568Y-179685528D02*
X183342425Y-179756957D01*
X183342425Y-179756957D02*
X183413854Y-179828385D01*
X183413854Y-179828385D02*
X183485282Y-179971242D01*
X183485282Y-179971242D02*
X183485282Y-180399814D01*
X183485282Y-180399814D02*
X183413854Y-180542671D01*
X183413854Y-180542671D02*
X183342425Y-180614100D01*
X183342425Y-180614100D02*
X183199568Y-180685528D01*
X183199568Y-180685528D02*
X182985282Y-180685528D01*
X183913854Y-179685528D02*
X184485282Y-179685528D01*
X184128139Y-179185528D02*
X184128139Y-180471242D01*
X184128139Y-180471242D02*
X184199568Y-180614100D01*
X184199568Y-180614100D02*
X184342425Y-180685528D01*
X184342425Y-180685528D02*
X184485282Y-180685528D01*
X184985282Y-180685528D02*
X184985282Y-179685528D01*
X184985282Y-179185528D02*
X184913854Y-179256957D01*
X184913854Y-179256957D02*
X184985282Y-179328385D01*
X184985282Y-179328385D02*
X185056711Y-179256957D01*
X185056711Y-179256957D02*
X184985282Y-179185528D01*
X184985282Y-179185528D02*
X184985282Y-179328385D01*
X186342426Y-180614100D02*
X186199568Y-180685528D01*
X186199568Y-180685528D02*
X185913854Y-180685528D01*
X185913854Y-180685528D02*
X185770997Y-180614100D01*
X185770997Y-180614100D02*
X185699568Y-180542671D01*
X185699568Y-180542671D02*
X185628140Y-180399814D01*
X185628140Y-180399814D02*
X185628140Y-179971242D01*
X185628140Y-179971242D02*
X185699568Y-179828385D01*
X185699568Y-179828385D02*
X185770997Y-179756957D01*
X185770997Y-179756957D02*
X185913854Y-179685528D01*
X185913854Y-179685528D02*
X186199568Y-179685528D01*
X186199568Y-179685528D02*
X186342426Y-179756957D01*
X186913854Y-180614100D02*
X187056711Y-180685528D01*
X187056711Y-180685528D02*
X187342425Y-180685528D01*
X187342425Y-180685528D02*
X187485282Y-180614100D01*
X187485282Y-180614100D02*
X187556711Y-180471242D01*
X187556711Y-180471242D02*
X187556711Y-180399814D01*
X187556711Y-180399814D02*
X187485282Y-180256957D01*
X187485282Y-180256957D02*
X187342425Y-180185528D01*
X187342425Y-180185528D02*
X187128140Y-180185528D01*
X187128140Y-180185528D02*
X186985282Y-180114100D01*
X186985282Y-180114100D02*
X186913854Y-179971242D01*
X186913854Y-179971242D02*
X186913854Y-179899814D01*
X186913854Y-179899814D02*
X186985282Y-179756957D01*
X186985282Y-179756957D02*
X187128140Y-179685528D01*
X187128140Y-179685528D02*
X187342425Y-179685528D01*
X187342425Y-179685528D02*
X187485282Y-179756957D01*
D10*
D11*
X197002200Y-191507200D02*
X197002200Y-194507200D01*
D10*
D11*
X261002200Y-191507200D02*
X261002200Y-198007200D01*
D14*
X211725000Y-133090000D03*
X213550000Y-133090000D03*
D15*
X82500000Y-58280000D03*
X84375000Y-58280000D03*
X75125000Y-63000000D03*
X77000000Y-63000000D03*
D16*
X102875000Y-78500000D03*
X101000000Y-78500000D03*
D17*
X182350000Y-84030000D03*
X182350000Y-83080000D03*
X182350000Y-82130000D03*
X180075000Y-82130000D03*
X180075000Y-84030000D03*
D18*
X115512500Y-132940000D03*
X113687500Y-132940000D03*
X102012500Y-132940000D03*
X100187500Y-132940000D03*
X88012500Y-132940000D03*
X86187500Y-132940000D03*
D19*
X170972000Y-84106000D03*
X170972000Y-74106000D03*
D20*
X99100000Y-74500000D03*
X106900000Y-74500000D03*
X99100000Y-69500000D03*
X106900000Y-69500000D03*
D21*
X104700000Y-87220000D03*
X104700000Y-85320000D03*
D22*
X79620000Y-54650000D03*
X79620000Y-56475000D03*
D23*
X99770000Y-102400000D03*
X99770000Y-104300000D03*
D19*
X107572000Y-48906000D03*
X107572000Y-38906000D03*
D24*
X95375000Y-62030000D03*
X91375000Y-62030000D03*
D19*
X97072000Y-48906000D03*
X97072000Y-38906000D03*
D25*
X185410000Y-82245000D03*
X185410000Y-85195000D03*
D26*
X131160000Y-64675000D03*
X133060000Y-64675000D03*
X132110000Y-62800000D03*
D27*
X98375000Y-52780000D03*
X98375000Y-55580000D03*
D14*
X116987500Y-75500000D03*
X118812500Y-75500000D03*
X74005000Y-72460000D03*
X75830000Y-72460000D03*
D18*
X165300000Y-67410000D03*
X163475000Y-67410000D03*
D22*
X78000000Y-72267500D03*
X78000000Y-74092500D03*
D20*
X110700000Y-140000000D03*
X118500000Y-140000000D03*
X110700000Y-135000000D03*
X118500000Y-135000000D03*
D14*
X131197500Y-66600000D03*
X133022500Y-66600000D03*
X97175000Y-78500000D03*
X99000000Y-78500000D03*
D21*
X98125000Y-63930000D03*
X98125000Y-62030000D03*
D28*
X195790000Y-54970000D03*
X193890000Y-54970000D03*
D22*
X72700000Y-42150000D03*
X72700000Y-43975000D03*
D29*
X93670000Y-111415000D03*
X94940000Y-111415000D03*
X96210000Y-111415000D03*
X97480000Y-111415000D03*
X97480000Y-106465000D03*
X96210000Y-106465000D03*
X94940000Y-106465000D03*
X93670000Y-106465000D03*
D18*
X118812500Y-77400000D03*
X116987500Y-77400000D03*
D23*
X91900000Y-107990000D03*
X91900000Y-109890000D03*
D30*
X68840000Y-77285000D03*
X68840000Y-74335000D03*
D22*
X188600000Y-58087500D03*
X188600000Y-59912500D03*
X79620000Y-51295000D03*
X79620000Y-53120000D03*
D20*
X83200000Y-140000000D03*
X91000000Y-140000000D03*
X83200000Y-135000000D03*
X91000000Y-135000000D03*
D14*
X71175000Y-68050000D03*
X73000000Y-68050000D03*
D25*
X213090000Y-127755000D03*
X213090000Y-130705000D03*
D21*
X194770000Y-66290000D03*
X194770000Y-64390000D03*
X101730000Y-104300000D03*
X101730000Y-102400000D03*
D31*
X211254140Y-51180000D03*
X211254140Y-53305000D03*
D32*
X208125000Y-134830000D03*
X208125000Y-136100000D03*
X208125000Y-137370000D03*
X208125000Y-138640000D03*
X213075000Y-138640000D03*
X213075000Y-137370000D03*
X213075000Y-136100000D03*
X213075000Y-134830000D03*
D22*
X186100000Y-58087500D03*
X186100000Y-59912500D03*
D33*
X88800000Y-102480000D03*
X90700000Y-102480000D03*
D20*
X83100000Y-74500000D03*
X90900000Y-74500000D03*
X83100000Y-69500000D03*
X90900000Y-69500000D03*
D23*
X84770000Y-86390000D03*
X84770000Y-88290000D03*
D34*
X212350000Y-64400000D03*
X210350000Y-64400000D03*
X208350000Y-64400000D03*
X206350000Y-64400000D03*
X204350000Y-64400000D03*
X202350000Y-64400000D03*
X200350000Y-64400000D03*
X198350000Y-64400000D03*
D35*
X196850000Y-67000000D03*
X196850000Y-69000000D03*
X196850000Y-71000000D03*
X196850000Y-73000000D03*
X196850000Y-75000000D03*
X196850000Y-77000000D03*
D34*
X198350000Y-79600000D03*
X200350000Y-79600000D03*
X202350000Y-79600000D03*
X204350000Y-79600000D03*
X206350000Y-79600000D03*
X208350000Y-79600000D03*
X210350000Y-79600000D03*
X212350000Y-79600000D03*
D20*
X69200000Y-140000000D03*
X77000000Y-140000000D03*
X69200000Y-135000000D03*
X77000000Y-135000000D03*
D22*
X182400000Y-78487500D03*
X182400000Y-80312500D03*
D36*
X103625000Y-55750000D03*
X103625000Y-58030000D03*
D37*
X108250000Y-56505000D03*
X108250000Y-59555000D03*
X111600000Y-56505000D03*
X111600000Y-59555000D03*
D36*
X103625000Y-60310000D03*
D22*
X205325000Y-58087500D03*
X205325000Y-59912500D03*
D15*
X206725000Y-107800000D03*
X208600000Y-107800000D03*
D22*
X207220000Y-58087500D03*
X207220000Y-59912500D03*
D38*
X72700000Y-38200000D03*
X71750000Y-38200000D03*
X70800000Y-38200000D03*
X70800000Y-40475000D03*
X71750000Y-40475000D03*
X72700000Y-40475000D03*
D14*
X89387500Y-65200000D03*
X91212500Y-65200000D03*
D28*
X90200000Y-81440000D03*
X88300000Y-81440000D03*
D22*
X70800000Y-42150000D03*
X70800000Y-43975000D03*
D20*
X97200000Y-140000000D03*
X105000000Y-140000000D03*
X97200000Y-135000000D03*
X105000000Y-135000000D03*
D18*
X95325000Y-78500000D03*
X93500000Y-78500000D03*
D21*
X84940000Y-99240000D03*
X84940000Y-97340000D03*
D39*
X90475000Y-52800000D03*
X92600000Y-52800000D03*
D22*
X180000000Y-78487500D03*
X180000000Y-80312500D03*
D15*
X89625000Y-78500000D03*
X91500000Y-78500000D03*
X87500000Y-58280000D03*
X89375000Y-58280000D03*
D19*
X86572000Y-48906000D03*
X86572000Y-38906000D03*
D40*
X75430000Y-75610000D03*
X75430000Y-76010000D03*
X75830000Y-75610000D03*
X75830000Y-76010000D03*
X76230000Y-75610000D03*
X76230000Y-76010000D03*
D41*
X87325000Y-86000000D03*
X87325000Y-86500000D03*
X87325000Y-87000000D03*
X87325000Y-87500000D03*
X87325000Y-88000000D03*
X87325000Y-88500000D03*
X87325000Y-89000000D03*
X87325000Y-89500000D03*
X87325000Y-90000000D03*
X87325000Y-90500000D03*
X87325000Y-91000000D03*
X87325000Y-91500000D03*
X87325000Y-92000000D03*
X87325000Y-92500000D03*
X87325000Y-93000000D03*
X87325000Y-93500000D03*
X87325000Y-94000000D03*
X87325000Y-94500000D03*
X87325000Y-95000000D03*
X87325000Y-95500000D03*
X87325000Y-96000000D03*
X87325000Y-96500000D03*
X87325000Y-97000000D03*
X87325000Y-97500000D03*
X87325000Y-98000000D03*
D42*
X89000000Y-99675000D03*
X89500000Y-99675000D03*
X90000000Y-99675000D03*
X90500000Y-99675000D03*
X91000000Y-99675000D03*
X91500000Y-99675000D03*
X92000000Y-99675000D03*
X92500000Y-99675000D03*
X93000000Y-99675000D03*
X93500000Y-99675000D03*
X94000000Y-99675000D03*
X94500000Y-99675000D03*
X95000000Y-99675000D03*
X95500000Y-99675000D03*
X96000000Y-99675000D03*
X96500000Y-99675000D03*
X97000000Y-99675000D03*
X97500000Y-99675000D03*
X98000000Y-99675000D03*
X98500000Y-99675000D03*
X99000000Y-99675000D03*
X99500000Y-99675000D03*
X100000000Y-99675000D03*
X100500000Y-99675000D03*
X101000000Y-99675000D03*
D41*
X102675000Y-98000000D03*
X102675000Y-97500000D03*
X102675000Y-97000000D03*
X102675000Y-96500000D03*
X102675000Y-96000000D03*
X102675000Y-95500000D03*
X102675000Y-95000000D03*
X102675000Y-94500000D03*
X102675000Y-94000000D03*
X102675000Y-93500000D03*
X102675000Y-93000000D03*
X102675000Y-92500000D03*
X102675000Y-92000000D03*
X102675000Y-91500000D03*
X102675000Y-91000000D03*
X102675000Y-90500000D03*
X102675000Y-90000000D03*
X102675000Y-89500000D03*
X102675000Y-89000000D03*
X102675000Y-88500000D03*
X102675000Y-88000000D03*
X102675000Y-87500000D03*
X102675000Y-87000000D03*
X102675000Y-86500000D03*
X102675000Y-86000000D03*
D42*
X101000000Y-84325000D03*
X100500000Y-84325000D03*
X100000000Y-84325000D03*
X99500000Y-84325000D03*
X99000000Y-84325000D03*
X98500000Y-84325000D03*
X98000000Y-84325000D03*
X97500000Y-84325000D03*
X97000000Y-84325000D03*
X96500000Y-84325000D03*
X96000000Y-84325000D03*
X95500000Y-84325000D03*
X95000000Y-84325000D03*
X94500000Y-84325000D03*
X94000000Y-84325000D03*
X93500000Y-84325000D03*
X93000000Y-84325000D03*
X92500000Y-84325000D03*
X92000000Y-84325000D03*
X91500000Y-84325000D03*
X91000000Y-84325000D03*
X90500000Y-84325000D03*
X90000000Y-84325000D03*
X89500000Y-84325000D03*
X89000000Y-84325000D03*
D30*
X192640000Y-66815000D03*
X192640000Y-63865000D03*
D43*
X96410000Y-76285000D03*
X96410000Y-74460000D03*
D44*
X215062500Y-105200000D03*
X212937500Y-105200000D03*
D14*
X71175000Y-63000000D03*
X73000000Y-63000000D03*
D18*
X212625000Y-107800000D03*
X210800000Y-107800000D03*
X164380000Y-69310000D03*
X162555000Y-69310000D03*
D45*
X138020000Y-77300000D03*
D46*
X160920000Y-77300000D03*
D47*
X149470000Y-77300000D03*
D48*
X68645000Y-57550000D03*
X69295000Y-57550000D03*
X69945000Y-57550000D03*
X70595000Y-57550000D03*
X71245000Y-57550000D03*
X71895000Y-57550000D03*
X72545000Y-57550000D03*
X73195000Y-57550000D03*
X73845000Y-57550000D03*
X74495000Y-57550000D03*
X75145000Y-57550000D03*
X75795000Y-57550000D03*
X76445000Y-57550000D03*
X77095000Y-57550000D03*
X77095000Y-50350000D03*
X76445000Y-50350000D03*
X75795000Y-50350000D03*
X75145000Y-50350000D03*
X74495000Y-50350000D03*
X73845000Y-50350000D03*
X73195000Y-50350000D03*
X72545000Y-50350000D03*
X71895000Y-50350000D03*
X71245000Y-50350000D03*
X70595000Y-50350000D03*
X69945000Y-50350000D03*
X69295000Y-50350000D03*
X68645000Y-50350000D03*
D23*
X84770000Y-89790000D03*
X84770000Y-91690000D03*
D49*
X83910000Y-94250000D03*
X85210000Y-94250000D03*
X85210000Y-93250000D03*
X83910000Y-93250000D03*
D22*
X215250000Y-135822500D03*
X215250000Y-137647500D03*
D24*
X197510000Y-84670000D03*
X193510000Y-84670000D03*
D23*
X215220000Y-128280000D03*
X215220000Y-130180000D03*
D43*
X131200000Y-70135000D03*
X131200000Y-68310000D03*
D33*
X70620000Y-59680000D03*
X72520000Y-59680000D03*
D14*
X93397500Y-104290000D03*
X95222500Y-104290000D03*
D33*
X104425000Y-53080000D03*
X106325000Y-53080000D03*
D21*
X80410000Y-72950000D03*
X80410000Y-71050000D03*
D22*
X191100000Y-58087500D03*
X191100000Y-59912500D03*
D28*
X85590000Y-101020000D03*
X83690000Y-101020000D03*
D22*
X167560000Y-33157500D03*
X167560000Y-34982500D03*
D44*
X85230000Y-95690000D03*
X83105000Y-95690000D03*
D23*
X94375000Y-52830000D03*
X94375000Y-54730000D03*
D21*
X72680000Y-76760000D03*
X72680000Y-74860000D03*
D30*
X100925000Y-63230000D03*
X100925000Y-60280000D03*
D18*
X74012500Y-132940000D03*
X72187500Y-132940000D03*
D23*
X88600000Y-52800000D03*
X88600000Y-54700000D03*
D33*
X159350000Y-52700000D03*
X161250000Y-52700000D03*
D21*
X191030000Y-84670000D03*
X191030000Y-82770000D03*
D50*
X163470000Y-54960000D03*
X162200000Y-54960000D03*
X160930000Y-54960000D03*
X159660000Y-54960000D03*
X158390000Y-54960000D03*
X157120000Y-54960000D03*
X155850000Y-54960000D03*
X154580000Y-54960000D03*
X154580000Y-64260000D03*
X155850000Y-64260000D03*
X157120000Y-64260000D03*
X158390000Y-64260000D03*
X159660000Y-64260000D03*
X160930000Y-64260000D03*
X162200000Y-64260000D03*
X163470000Y-64260000D03*
D14*
X75117500Y-77990000D03*
X76942500Y-77990000D03*
D22*
X209120000Y-58087500D03*
X209120000Y-59912500D03*
X84375000Y-62955000D03*
X84375000Y-64780000D03*
D51*
X83110000Y-99352500D03*
X83110000Y-97227500D03*
D39*
X187245000Y-84670000D03*
X189370000Y-84670000D03*
D22*
X198600000Y-58087500D03*
X198600000Y-59912500D03*
D21*
X205920000Y-137685000D03*
X205920000Y-135785000D03*
D31*
X70850000Y-74747500D03*
X70850000Y-76872500D03*
D52*
X74990000Y-34775000D03*
X74190000Y-34775000D03*
D53*
X72990000Y-34775000D03*
X71990000Y-34775000D03*
X71490000Y-34775000D03*
X70490000Y-34775000D03*
D52*
X69290000Y-34775000D03*
X68490000Y-34775000D03*
X68490000Y-34775000D03*
X69290000Y-34775000D03*
D53*
X69990000Y-34775000D03*
X70990000Y-34775000D03*
X72490000Y-34775000D03*
X73490000Y-34775000D03*
D52*
X74190000Y-34775000D03*
X74990000Y-34775000D03*
D31*
X67270000Y-36680000D03*
X67270000Y-38805000D03*
D21*
X96410000Y-72950000D03*
X96410000Y-71050000D03*
D54*
X188599140Y-52980000D03*
X191099140Y-52980000D03*
X193599140Y-52980000D03*
X196099140Y-52980000D03*
X198599140Y-52980000D03*
X201099140Y-52980000D03*
X203524140Y-52980000D03*
X205224140Y-52980000D03*
X186099140Y-52980000D03*
D55*
X206524140Y-52980000D03*
D56*
X209124140Y-51180000D03*
X184024140Y-51180000D03*
X181824140Y-29680000D03*
X209124140Y-29680000D03*
D55*
X207724140Y-52980000D03*
D14*
X73198500Y-110031000D03*
X75023500Y-110031000D03*
D28*
X75040000Y-47920000D03*
X73140000Y-47920000D03*
D22*
X212350000Y-60165000D03*
X212350000Y-61990000D03*
D15*
X75125000Y-68000000D03*
X77000000Y-68000000D03*
D22*
X203419140Y-58087500D03*
X203419140Y-59912500D03*
D21*
X177800000Y-84100000D03*
X177800000Y-82200000D03*
M02*
