M48
; DRILL file {KiCad 9.0.0} date 2025-06-10T17:59:53+0900
; FORMAT={-:-/ absolute / metric / decimal}
; #@! TF.CreationDate,2025-06-10T17:59:53+09:00
; #@! TF.GenerationSoftware,Kicad,Pcbnew,9.0.0
; #@! TF.FileFunction,Plated,1,2,PTH
FMAT,2
METRIC
; #@! TA.AperFunction,Plated,PTH,ViaDrill
T1C0.300
; #@! TA.AperFunction,Plated,PTH,ComponentDrill
T2C0.600
; #@! TA.AperFunction,Plated,PTH,ComponentDrill
T3C0.762
; #@! TA.AperFunction,Plated,PTH,ComponentDrill
T4C0.800
; #@! TA.AperFunction,Plated,PTH,ComponentDrill
T5C0.920
; #@! TA.AperFunction,Plated,PTH,ComponentDrill
T6C1.000
; #@! TA.AperFunction,Plated,PTH,ComponentDrill
T7C1.001
; #@! TA.AperFunction,Plated,PTH,ComponentDrill
T8C1.300
; #@! TA.AperFunction,Plated,PTH,ComponentDrill
T9C1.500
; #@! TA.AperFunction,Plated,PTH,ComponentDrill
T10C2.300
; #@! TA.AperFunction,Plated,PTH,ComponentDrill
T11C3.200
%
G90
G05
T1
X67.27Y-38.805
X68.0Y-70.0
X68.0Y-72.0
X68.49Y-34.775
X68.49Y-38.06
X68.645Y-57.55
X68.84Y-77.285
X69.2Y-135.0
X69.2Y-140.0
X69.29Y-34.775
X69.99Y-30.355
X69.99Y-32.18
X70.28Y-50.35
X70.62Y-59.68
X70.94Y-61.5
X71.0Y-65.0
X71.0Y-70.0
X71.0Y-72.0
X71.39Y-35.933
X71.52Y-59.67
X71.75Y-38.2
X72.188Y-132.94
X72.5Y-80.912
X72.5Y-83.975
X72.5Y-101.275
X72.5Y-104.225
X72.52Y-59.68
X72.58Y-52.47
X72.58Y-54.43
X72.59Y-35.933
X72.68Y-74.86
X72.995Y-30.355
X72.995Y-32.18
X73.1Y-136.55
X73.14Y-47.92
X73.5Y-65.0
X74.19Y-34.775
X74.48Y-52.47
X74.99Y-34.775
X76.53Y-74.2
X76.84Y-52.12
X76.942Y-77.99
X77.13Y-76.27
X78.0Y-74.093
X78.08Y-54.015
X78.53Y-49.55
X79.62Y-56.475
X79.65Y-96.28
X80.41Y-71.05
X81.0Y-83.975
X81.0Y-97.0
X81.0Y-98.0
X81.0Y-99.0
X81.0Y-101.275
X81.046Y-81.025
X81.05Y-104.275
X81.13Y-93.25
X81.13Y-95.15
X82.5Y-58.28
X83.09Y-77.23
X83.1Y-69.5
X83.105Y-95.69
X83.2Y-135.0
X83.2Y-140.0
X83.75Y-72.89
X83.88Y-83.71
X83.89Y-82.35
X83.9Y-98.3
X83.98Y-74.22
X84.0Y-78.5
X84.53Y-102.94
X84.67Y-72.8
X84.77Y-86.39
X84.77Y-89.79
X85.17Y-76.93
X85.21Y-94.25
X85.53Y-83.49
X85.6Y-38.4
X85.6Y-39.4
X85.61Y-103.54
X85.688Y-106.74
X85.95Y-76.93
X86.04Y-89.11
X86.188Y-132.94
X86.5Y-82.0
X86.6Y-38.4
X86.6Y-39.4
X87.1Y-136.55
X87.32Y-77.03
X87.5Y-58.28
X87.59Y-83.51
X87.6Y-38.4
X87.6Y-39.4
X88.32Y-89.98
X88.5Y-108.0
X88.55Y-50.27
X88.586Y-94.446
X88.6Y-54.7
X88.61Y-89.05
X88.62Y-87.59
X88.8Y-102.48
X88.82Y-86.88
X88.94Y-100.72
X89.081Y-93.951
X89.4Y-93.328
X89.48Y-91.94
X89.533Y-92.639
X89.625Y-78.5
X89.671Y-109.714
X90.2Y-81.44
X90.3Y-93.51
X90.5Y-87.5
X90.53Y-95.24
X90.7Y-90.71
X90.7Y-102.48
X91.29Y-85.57
X91.53Y-106.06
X91.9Y-107.99
X92.0Y-86.87
X92.05Y-95.24
X92.2Y-93.51
X92.49Y-97.14
X92.517Y-105.563
X92.52Y-50.37
X92.584Y-106.336
X92.603Y-103.12
X93.0Y-100.615
X93.3Y-90.71
X94.0Y-77.0
X94.375Y-54.73
X94.42Y-66.44
X94.65Y-92.59
X94.99Y-82.62
X95.07Y-88.02
X95.181Y-92.049
X95.2Y-98.25
X95.23Y-81.26
X95.65Y-103.09
X95.789Y-93.749
X95.88Y-97.63
X96.1Y-38.4
X96.1Y-39.4
X96.24Y-95.35
X96.28Y-90.0
X96.31Y-102.84
X96.38Y-77.2
X96.41Y-71.05
X96.5Y-101.78
X96.6Y-107.97
X96.91Y-88.58
X97.0Y-101.12
X97.1Y-38.4
X97.1Y-39.4
X97.2Y-135.0
X97.2Y-140.0
X97.24Y-92.3
X97.511Y-101.874
X97.81Y-90.39
X97.82Y-77.11
X97.84Y-89.221
X98.017Y-101.367
X98.084Y-82.304
X98.1Y-38.4
X98.1Y-39.4
X98.125Y-63.93
X98.13Y-93.89
X98.234Y-92.506
X98.268Y-90.919
X98.48Y-89.821
X98.59Y-87.56
X98.9Y-97.03
X98.995Y-85.528
X99.01Y-82.26
X99.1Y-69.5
X99.13Y-92.44
X99.13Y-95.42
X99.782Y-65.67
X99.95Y-50.27
X100.097Y-96.52
X100.12Y-85.81
X100.12Y-87.71
X100.188Y-132.94
X100.39Y-72.11
X100.39Y-76.96
X100.55Y-91.85
X100.89Y-93.65
X100.925Y-63.23
X101.1Y-136.55
X101.41Y-87.55
X101.61Y-77.11
X101.64Y-80.47
X101.73Y-104.3
X101.78Y-83.47
X101.88Y-101.34
X102.09Y-73.73
X102.161Y-98.936
X102.21Y-69.48
X102.37Y-80.916
X102.5Y-84.5
X102.6Y-70.8
X102.875Y-78.5
X103.11Y-69.96
X103.625Y-55.75
X103.67Y-75.13
X104.0Y-100.0
X104.19Y-70.02
X104.231Y-72.14
X104.425Y-53.25
X104.5Y-104.301
X104.692Y-59.092
X104.7Y-85.32
X104.7Y-87.22
X104.731Y-74.9
X104.75Y-67.65
X104.76Y-95.56
X105.5Y-77.5
X105.54Y-95.5
X105.7Y-83.56
X105.93Y-99.95
X106.0Y-110.0
X106.0Y-113.0
X106.28Y-59.12
X106.28Y-95.58
X106.6Y-38.4
X106.6Y-39.4
X106.61Y-48.37
X106.61Y-49.37
X107.0Y-67.0
X107.5Y-86.0
X107.5Y-99.0
X107.6Y-38.4
X107.6Y-39.4
X107.61Y-48.37
X107.61Y-49.37
X108.5Y-80.925
X108.5Y-83.875
X108.5Y-101.325
X108.5Y-104.275
X108.6Y-38.4
X108.6Y-39.4
X108.61Y-48.37
X108.61Y-49.37
X109.0Y-67.0
X109.0Y-99.0
X109.5Y-74.0
X110.0Y-70.5
X110.7Y-135.0
X110.7Y-140.0
X110.89Y-67.13
X111.5Y-74.0
X111.65Y-67.27
X112.0Y-69.0
X112.0Y-70.5
X113.688Y-132.94
X114.46Y-73.08
X114.52Y-112.32
X114.6Y-136.55
X115.54Y-68.69
X116.0Y-70.0
X116.06Y-113.97
X116.352Y-86.246
X117.0Y-80.925
X117.0Y-83.875
X117.0Y-101.325
X117.0Y-104.275
X117.02Y-116.0
X119.0Y-99.0
X119.1Y-70.13
X119.908Y-86.5
X121.0Y-68.0
X121.0Y-110.0
X121.0Y-115.0
X121.0Y-117.5
X121.89Y-71.29
X121.91Y-69.24
X122.0Y-75.0
X122.8Y-92.851
X123.3Y-93.35
X123.811Y-93.828
X124.369Y-94.252
X124.864Y-94.746
X125.0Y-75.0
X125.13Y-100.45
X125.359Y-95.241
X125.51Y-61.99
X126.0Y-63.5
X126.0Y-68.5
X126.0Y-98.0
X126.0Y-110.0
X126.0Y-115.0
X126.0Y-117.5
X127.91Y-106.78
X127.92Y-107.61
X130.408Y-42.559
X130.443Y-43.258
X130.45Y-41.86
X130.47Y-40.33
X130.475Y-43.957
X130.54Y-41.12
X131.21Y-71.38
X131.22Y-69.222
X131.29Y-61.99
X131.73Y-111.83
X132.0Y-93.0
X132.0Y-94.5
X132.0Y-97.0
X132.0Y-98.0
X132.44Y-71.99
X132.73Y-111.9
X132.96Y-79.69
X133.0Y-39.5
X133.023Y-66.6
X133.06Y-64.675
X133.1Y-119.6
X133.13Y-117.2
X133.21Y-121.27
X133.53Y-114.75
X134.28Y-111.98
X135.03Y-119.76
X135.34Y-79.09
X135.38Y-105.26
X135.53Y-112.03
X135.91Y-33.16
X135.91Y-122.03
X136.0Y-37.0
X136.02Y-103.29
X136.19Y-106.8
X136.33Y-107.57
X137.0Y-93.0
X137.0Y-94.5
X137.0Y-97.0
X137.0Y-98.0
X138.0Y-33.0
X138.02Y-77.3
X138.5Y-84.5
X138.5Y-97.0
X139.0Y-33.0
X139.0Y-85.5
X139.0Y-96.5
X139.11Y-122.77
X139.5Y-87.0
X139.5Y-97.0
X140.0Y-88.5
X140.0Y-96.5
X141.0Y-33.0
X141.0Y-40.0
X141.34Y-93.8
X141.39Y-92.35
X141.4Y-95.49
X142.5Y-96.5
X143.0Y-33.0
X145.0Y-96.5
X146.0Y-33.0
X146.0Y-35.0
X146.0Y-37.5
X146.0Y-40.0
X147.0Y-93.0
X147.0Y-94.5
X151.0Y-33.0
X151.0Y-35.0
X151.0Y-37.5
X151.0Y-40.0
X154.0Y-40.0
X154.5Y-33.0
X156.0Y-93.0
X156.0Y-94.5
X156.5Y-40.0
X160.91Y-88.93
X160.92Y-77.3
X162.2Y-54.96
X162.57Y-61.11
X163.9Y-59.6
X164.48Y-64.96
X167.57Y-47.96
X168.54Y-95.01
X168.6Y-100.91
X169.66Y-94.99
X169.73Y-100.851
X169.95Y-73.6
X169.95Y-74.6
X170.95Y-73.6
X170.95Y-74.6
X170.96Y-105.0
X170.972Y-84.106
X171.95Y-73.6
X171.95Y-74.6
X176.0Y-90.0
X176.0Y-95.0
X177.8Y-82.2
X180.075Y-82.13
X181.0Y-90.0
X181.0Y-95.0
X181.4Y-61.0
X181.4Y-62.8
X182.35Y-83.08
X182.4Y-78.487
X182.4Y-80.312
X182.95Y-70.3
X183.15Y-68.01
X183.45Y-62.02
X184.5Y-79.5
X184.6Y-61.0
X184.6Y-62.8
X185.41Y-82.245
X186.0Y-90.0
X186.0Y-95.0
X186.1Y-58.087
X186.47Y-113.08
X186.47Y-116.16
X186.49Y-117.2
X186.49Y-118.17
X186.5Y-79.5
X186.57Y-121.92
X186.598Y-121.221
X186.63Y-122.79
X187.13Y-106.84
X187.13Y-107.57
X187.2Y-55.6
X187.5Y-75.0
X187.7Y-124.47
X187.8Y-81.3
X188.6Y-58.087
X188.82Y-110.06
X189.5Y-65.0
X189.5Y-75.0
X189.8Y-55.6
X189.8Y-97.295
X190.5Y-65.0
X190.5Y-75.0
X190.67Y-97.295
X191.1Y-58.087
X191.45Y-97.295
X192.22Y-97.295
X193.02Y-97.295
X193.599Y-52.98
X193.83Y-97.33
X193.89Y-54.97
X194.57Y-97.42
X194.77Y-66.29
X195.266Y-97.349
X196.009Y-95.519
X196.055Y-104.105
X197.01Y-106.65
X197.4Y-55.6
X197.91Y-107.31
X198.35Y-79.6
X198.6Y-58.087
X200.35Y-74.837
X200.35Y-76.662
X201.0Y-55.6
X201.099Y-52.98
X201.5Y-90.0
X201.5Y-95.0
X201.5Y-98.0
X201.5Y-100.5
X201.5Y-102.5
X202.0Y-67.0
X202.16Y-59.262
X202.35Y-76.662
X203.5Y-90.0
X203.5Y-95.0
X203.5Y-98.0
X203.5Y-100.5
X204.35Y-76.662
X204.4Y-55.6
X205.325Y-58.087
X205.75Y-72.695
X205.92Y-135.785
X205.92Y-137.685
X206.0Y-67.0
X207.22Y-58.087
X208.125Y-136.1
X209.12Y-58.087
X209.4Y-61.2
X209.75Y-66.907
X209.75Y-68.733
X211.254Y-53.305
X211.725Y-133.09
X213.072Y-130.722
X215.062Y-105.2
X215.25Y-130.18
T3
X117.358Y-36.91
X117.358Y-41.99
X119.897Y-39.45
T4
X76.97Y-110.03
X79.97Y-110.03
T5
X207.468Y-93.07
X207.468Y-95.57
X207.468Y-97.57
X207.468Y-100.07
T6
X73.54Y-126.5
X75.46Y-81.14
X75.46Y-83.68
X75.46Y-86.22
X75.46Y-88.76
X75.46Y-91.3
X75.46Y-93.84
X75.46Y-96.38
X75.46Y-98.92
X75.46Y-101.46
X75.46Y-104.0
X76.08Y-126.5
X78.0Y-81.14
X78.0Y-83.68
X78.0Y-86.22
X78.0Y-88.76
X78.0Y-91.3
X78.0Y-93.84
X78.0Y-96.38
X78.0Y-98.92
X78.0Y-101.46
X78.0Y-104.0
X78.62Y-126.5
X83.22Y-30.18
X83.22Y-32.72
X85.76Y-30.18
X85.76Y-32.72
X88.3Y-30.18
X88.3Y-32.72
X90.84Y-30.18
X90.84Y-32.72
X91.04Y-126.5
X93.38Y-30.18
X93.38Y-32.72
X93.58Y-126.5
X95.92Y-30.18
X95.92Y-32.72
X96.12Y-126.5
X98.46Y-30.18
X98.46Y-32.72
X101.0Y-30.18
X101.0Y-32.72
X103.54Y-30.18
X103.54Y-32.72
X106.08Y-30.18
X106.08Y-32.72
X108.54Y-126.5
X111.08Y-126.5
X111.46Y-81.14
X111.46Y-83.68
X111.46Y-86.22
X111.46Y-88.76
X111.46Y-91.3
X111.46Y-93.84
X111.46Y-96.38
X111.46Y-98.92
X111.46Y-101.46
X111.46Y-104.0
X113.62Y-126.5
X114.0Y-81.14
X114.0Y-83.68
X114.0Y-86.22
X114.0Y-88.76
X114.0Y-91.3
X114.0Y-93.84
X114.0Y-96.38
X114.0Y-98.92
X114.0Y-101.46
X114.0Y-104.0
X132.11Y-50.98
X132.11Y-58.58
X215.46Y-108.0
X215.46Y-110.54
X215.46Y-113.08
X215.46Y-115.62
X215.46Y-118.16
X215.46Y-120.7
X218.0Y-108.0
X218.0Y-110.54
X218.0Y-113.08
X218.0Y-115.62
X218.0Y-118.16
X218.0Y-120.7
X218.0Y-125.42
X218.0Y-127.96
X218.0Y-130.5
X218.19Y-135.46
X218.19Y-138.0
T7
X132.001Y-29.5
X134.541Y-29.5
X137.081Y-29.5
X139.621Y-29.5
X142.161Y-29.5
X144.701Y-29.5
X147.241Y-29.5
X149.781Y-29.5
X152.321Y-29.5
X154.861Y-29.5
X157.401Y-29.5
X159.941Y-29.5
X162.481Y-29.5
X165.021Y-29.5
X167.561Y-29.5
X170.101Y-29.5
T8
X70.0Y-89.96
X70.0Y-95.04
X117.5Y-55.49
X117.5Y-60.57
X119.4Y-89.904
X119.4Y-94.984
X206.25Y-114.66
X206.25Y-119.74
T10
X210.177Y-90.0
X210.177Y-103.14
T11
X71.0Y-145.0
X78.0Y-43.0
X124.5Y-29.5
X124.5Y-84.501
X216.0Y-145.0
X217.5Y-29.5
X217.5Y-84.5
T2
X67.42Y-29.98G85X67.42Y-29.38
G05
X67.42Y-34.41G85X67.42Y-33.31
G05
X76.06Y-29.98G85X76.06Y-29.38
G05
X76.06Y-34.41G85X76.06Y-33.31
G05
T9
X71.0Y-119.165G85X71.0Y-119.865
G05
X81.16Y-119.165G85X81.16Y-119.865
G05
X88.5Y-119.165G85X88.5Y-119.865
G05
X98.66Y-119.165G85X98.66Y-119.865
G05
X106.0Y-119.165G85X106.0Y-119.865
G05
X116.16Y-119.165G85X116.16Y-119.865
G05
M30
